<svg xmlns="http://www.w3.org/2000/svg" xmlns:xlink="http://www.w3.org/1999/xlink" width="772" height="495" viewBox="0 0 772 495">
  <defs>
    <filter id="Rectangle_133" x="0" y="0" width="772" height="495" filterUnits="userSpaceOnUse">
      <feOffset dx="2" dy="4" input="SourceAlpha"/>
      <feGaussianBlur stdDeviation="7.5" result="blur"/>
      <feFlood flood-opacity="0.161"/>
      <feComposite operator="in" in2="blur"/>
      <feComposite in="SourceGraphic"/>
    </filter>
  </defs>
  <g id="Group_131" data-name="Group 131" transform="translate(-984.5 -312.5)">
    <g transform="matrix(1, 0, 0, 1, 984.5, 312.5)" filter="url(#Rectangle_133)">
      <rect id="Rectangle_133-2" data-name="Rectangle 133" width="727" height="450" rx="24" transform="translate(20.5 18.5)" fill="#2a303a"/>
    </g>
    <g id="_4" data-name="4" transform="translate(1035.335 355.227)">
      <g id="Background_Complete" data-name="Background Complete" transform="translate(0 0)">
        <rect id="Rectangle_76" data-name="Rectangle 76" width="5.531" height="41.386" transform="translate(423.776 253.341) rotate(-90)" fill="#e0e0e0"/>
        <ellipse id="Ellipse_76" data-name="Ellipse 76" cx="0.256" cy="2.588" rx="0.256" ry="2.588" transform="translate(429.159 248.046)" fill="#fafafa"/>
        <ellipse id="Ellipse_77" data-name="Ellipse 77" cx="0.256" cy="2.588" rx="0.256" ry="2.588" transform="translate(428.264 247.928)" fill="#fafafa"/>
        <ellipse id="Ellipse_78" data-name="Ellipse 78" cx="0.256" cy="2.588" rx="0.256" ry="2.588" transform="translate(461.707 248.046)" fill="#fafafa"/>
        <ellipse id="Ellipse_79" data-name="Ellipse 79" cx="0.256" cy="2.588" rx="0.256" ry="2.588" transform="translate(460.801 247.928)" fill="#fafafa"/>
        <ellipse id="Ellipse_80" data-name="Ellipse 80" cx="10.59" cy="0.256" rx="10.59" ry="0.256" transform="translate(434.484 250.487)" fill="#fafafa"/>
        <rect id="Rectangle_77" data-name="Rectangle 77" width="11.053" height="41.386" transform="translate(423.598 283.763) rotate(-90)" fill="#e0e0e0"/>
        <path id="Path_181" data-name="Path 181" d="M508.528,332.438a.983.983,0,0,1-.226.128c-.148.079-.384.187-.689.315a11.986,11.986,0,0,1-2.8.807,7.312,7.312,0,0,1-4.557-.65,6.053,6.053,0,0,1-2.165-1.968,4.557,4.557,0,0,1-.748-3.189,3.356,3.356,0,0,1,.758-1.644,2.175,2.175,0,0,1,1.742-.8,2.51,2.51,0,0,1,1.752.984,3.425,3.425,0,0,1,.8,1.89,5.02,5.02,0,0,1-1.427,3.937,6.3,6.3,0,0,1-3.937,1.968,10.56,10.56,0,0,1-4.616-.571,8.513,8.513,0,0,1-4.035-2.706,4.439,4.439,0,0,1-.984-2.392,3.1,3.1,0,0,1,.886-2.48,1.968,1.968,0,0,1,1.3-.571,2.362,2.362,0,0,1,1.348.384,3.592,3.592,0,0,1,1.525,2.234,5.206,5.206,0,0,1-1.634,4.872,8.14,8.14,0,0,1-4.655,1.9,11.475,11.475,0,0,1-4.832-.472,6.673,6.673,0,0,1-3.671-2.854,4.921,4.921,0,0,1-.463-4.39,2.313,2.313,0,0,1,1.693-1.427,2.667,2.667,0,0,1,2.087.5,3.455,3.455,0,0,1,.984,3.73,6.437,6.437,0,0,1-2.086,2.953,9.389,9.389,0,0,1-5.679,2.2,9.153,9.153,0,0,1-6.889-2.756,6.762,6.762,0,0,1-.492-.571.983.983,0,0,1-.148-.217,10.521,10.521,0,0,0,3.081,2.342,9.006,9.006,0,0,0,4.39.915,9.133,9.133,0,0,0,5.453-2.195,6.091,6.091,0,0,0,1.968-2.775,3.051,3.051,0,0,0-.856-3.268,2.234,2.234,0,0,0-1.742-.413,1.85,1.85,0,0,0-1.358,1.171,4.439,4.439,0,0,0,.453,3.937,6.191,6.191,0,0,0,3.425,2.628,11.013,11.013,0,0,0,4.616.443,7.648,7.648,0,0,0,4.37-1.772,4.7,4.7,0,0,0,1.476-4.37,3.081,3.081,0,0,0-1.289-1.909,1.585,1.585,0,0,0-2.018.118,2.589,2.589,0,0,0-.718,2.077,3.937,3.937,0,0,0,.837,2.116,8.041,8.041,0,0,0,3.789,2.549,10.108,10.108,0,0,0,4.4.571,5.836,5.836,0,0,0,3.7-1.781,4.587,4.587,0,0,0,1.329-3.563,2.638,2.638,0,0,0-2.146-2.48,1.781,1.781,0,0,0-1.437.65,2.952,2.952,0,0,0-.689,1.457,4.213,4.213,0,0,0,.669,2.953,5.778,5.778,0,0,0,2.027,1.89,7.165,7.165,0,0,0,4.39.7,13.14,13.14,0,0,0,2.8-.7A5.354,5.354,0,0,1,508.528,332.438Z" transform="translate(-43.012 -51.785)" fill="#fafafa"/>
        <rect id="Rectangle_78" data-name="Rectangle 78" width="19.182" height="37.685" transform="translate(427.299 272.681) rotate(-90)" fill="#ebebeb"/>
        <ellipse id="Ellipse_81" data-name="Ellipse 81" cx="0.256" cy="9.281" rx="0.256" ry="9.281" transform="translate(433.303 254.168)" fill="#e0e0e0"/>
        <ellipse id="Ellipse_82" data-name="Ellipse 82" cx="0.256" cy="9.163" rx="0.256" ry="9.163" transform="translate(436.157 253.922)" fill="#e0e0e0"/>
        <ellipse id="Ellipse_83" data-name="Ellipse 83" cx="0.256" cy="9.655" rx="0.256" ry="9.655" transform="translate(460.467 253.302)" fill="#e0e0e0"/>
        <ellipse id="Ellipse_84" data-name="Ellipse 84" cx="0.256" cy="9.399" rx="0.256" ry="9.399" transform="translate(457.111 253.568)" fill="#e0e0e0"/>
        <rect id="Rectangle_79" data-name="Rectangle 79" width="254.063" height="168.525" transform="translate(202.92 35.094)" fill="#e0e0e0"/>
        <path id="Path_182" data-name="Path 182" d="M36.22,94.871a43.049,43.049,0,1,1,43.738,42.547A43.049,43.049,0,0,1,36.22,94.871Zm63.619-.984a21.043,21.043,0,1,1,0-.049Z" transform="translate(-36.214 -47.455)" fill="#f5f5f5"/>
        <path id="Path_183" data-name="Path 183" d="M36.22,94.865A43.207,43.207,0,0,1,78.541,50.93L78.9,73.5a20.671,20.671,0,0,0,.659,41.337l.364,22.568A43.187,43.187,0,0,1,36.22,94.865Z" transform="translate(-36.213 -47.449)" fill="#e0e0e0"/>
        <path id="Path_184" data-name="Path 184" d="M75.32,47.4c27.764-.453,49.919,21.1,50.362,48.994L99.4,96.817C99.187,83.481,89.04,75.086,75.783,75.292Z" transform="translate(-36.831 -47.393)" fill="#ebebeb"/>
        <path id="Path_185" data-name="Path 185" d="M245.412,447.621c-1.1-.984-3.573-3.937-1.673-7.45.7-1.279,2.175-1.919,3.523-2.48a14.3,14.3,0,0,0,3.858-1.968c2.1-1.781,2.667-4.744,4.065-7.116a8.858,8.858,0,0,1,7.716-4.626c3.6.167,6.6,3.11,7.972,6.456s1.407,7.076,1.437,10.7c0,1.968-.069,4.262-1.545,5.61s-3.4,1.26-5.236,1.211l-19.684-.6" transform="translate(-39.48 -53.341)" fill="#f5f5f5"/>
        <path id="Path_186" data-name="Path 186" d="M282.879,393H231.11l9.32,55.608a6.21,6.21,0,0,0,4.419,4.921l.177.049a2.659,2.659,0,0,1,.463.118,6.485,6.485,0,0,0,1.053.118v.049h23.326a6.493,6.493,0,0,0,1.27-.128,6.23,6.23,0,0,0,5.236-5.433l4.5-38.315.207-1.526h0l1.781-15.176Zm-9.763,35.431H267.8l.531-16.141h6.151Zm1.89-16.141h5.088l-1.85,16.141h-4.567Zm-15.176,34.024-.285-14.005h7.647l-.463,14.015ZM251.562,432.3h7.431l.325,14.015h-6.663Zm.571,14.015H245.9L243.708,432.3h7.342Zm-.876-17.883-1.25-16.141h8.553l.374,16.141Zm8.159,0-.374-16.141h8.779l-.531,16.141Zm-.463-20.009-.344-14.94h9.842l-.492,14.94Zm-.512,0H249.7l-1.161-14.94H258.1Zm-9.252,0h-9.252l-.915-5.777c-.984-6.043-1.329-8.317-1.526-9.173h10.531Zm.305,3.868,1.25,16.141H243.1l-.778-4.921-1.762-11.19Zm-6.889,16.141h-5L234.9,412.29h5.157c.787,5,1.634,10.551,2.52,16.141Zm.61,3.868,2.195,14.015h-4.8L238.255,432.3Zm24.024,14.015L267.7,432.3h5.108l-1.2,14.015Zm1.26-37.892.492-14.94h7.136l-1.279,14.94Zm-31.495-14.94c.207,1.083,1.152,6.958,2.411,14.94h-5.2l-2.51-14.94ZM276.1,446.324h-4.006l1.23-14.015h4.449Zm4.449-37.892h-5.256l1.279-14.94h5.689Z" transform="translate(-39.292 -52.852)" fill="#e0e0e0"/>
        <rect id="Rectangle_80" data-name="Rectangle 80" width="11.151" height="44.525" transform="translate(607.044 61.362)" fill="#e0e0e0"/>
        <rect id="Rectangle_81" data-name="Rectangle 81" width="11.151" height="34.811" transform="translate(623.441 71.076)" fill="#e0e0e0"/>
        <rect id="Rectangle_82" data-name="Rectangle 82" width="11.151" height="26.859" transform="translate(640.084 79.029)" fill="#e0e0e0"/>
        <rect id="Rectangle_83" data-name="Rectangle 83" width="11.151" height="15.954" transform="translate(655.497 89.944)" fill="#e0e0e0"/>
        <path id="Path_187" data-name="Path 187" d="M694.294,211.086a38.571,38.571,0,0,0-54.23,1.84,38.02,38.02,0,0,0,1.85,53.9,38.571,38.571,0,0,0,54.23-1.84,38.02,38.02,0,0,0-1.85-53.9ZM681.5,251.438a18.444,18.444,0,0,1-25.924.876,18.178,18.178,0,0,1-.886-25.776,18.444,18.444,0,0,1,25.924-.876,18.178,18.178,0,0,1,.9,25.737Z" transform="translate(-45.588 -49.817)" fill="#f5f5f5"/>
        <path id="Path_188" data-name="Path 188" d="M640.075,212.916a38.571,38.571,0,0,1,54.23-1.84L680.634,225.6a18.444,18.444,0,0,0-25.924.876,18.178,18.178,0,0,0,.886,25.776L641.925,266.8a38.02,38.02,0,0,1-1.85-53.885Z" transform="translate(-45.589 -49.816)" fill="#ebebeb"/>
        <path id="Path_189" data-name="Path 189" d="M693.488,204.91C712.424,222.5,714.7,251.079,697,269.868L677.79,253.225c8.454-9.005,10.295-21.023,1.24-29.428Z" transform="translate(-46.347 -49.881)" fill="#fafafa"/>
        <rect id="Rectangle_84" data-name="Rectangle 84" width="108.705" height="30.619" rx="3.23" transform="translate(127.136 224.347)" fill="#e0e0e0"/>
        <path id="Path_190" data-name="Path 190" d="M188.491,295.916a6.6,6.6,0,0,1-9.311.984,6.673,6.673,0,0,1-.984-9.35,6.6,6.6,0,0,1,9.311-.984,6.673,6.673,0,0,1,.984,9.35Z" transform="translate(-38.433 -51.147)" fill="#f5f5f5"/>
        <path id="Path_191" data-name="Path 191" d="M187.091,289.56a26.978,26.978,0,0,1-3.563,3.848l-.876.846-.177.177-.167-.177a18.7,18.7,0,0,1-2.657-3.022,18.7,18.7,0,0,1,3.012,2.677h-.354l.866-.856a27.007,27.007,0,0,1,3.917-3.494Z" transform="translate(-38.479 -51.218)" fill="#e0e0e0"/>
        <ellipse id="Ellipse_85" data-name="Ellipse 85" cx="32.587" cy="0.256" rx="32.587" ry="0.256" transform="translate(159.969 237.053)" fill="#fafafa"/>
        <ellipse id="Ellipse_86" data-name="Ellipse 86" cx="32.587" cy="0.256" rx="32.587" ry="0.256" transform="translate(160.264 242.604)" fill="#fafafa"/>
        <path id="Path_192" data-name="Path 192" d="M577.828,250.86,575.84,405.38h88.9V252.966Z" transform="translate(-9.099 -3.965)" fill="#f5f5f5"/>
        <path id="Path_193" data-name="Path 193" d="M626.507,252.04,625.72,405.4h39.811V252.985Z" transform="translate(-9.887 -3.984)" fill="#e0e0e0"/>
        <path id="Path_194" data-name="Path 194" d="M580.7,253.69v31.6h42.114V255.176Z" transform="translate(-9.176 -4.01)" fill="#e0e0e0"/>
        <path id="Path_195" data-name="Path 195" d="M595.45,262.513v4.665h12.883V262.09Z" transform="translate(-9.409 -4.143)" fill="#f5f5f5"/>
        <rect id="Rectangle_85" data-name="Rectangle 85" width="13.306" height="1.909" transform="translate(586.041 266.963)" fill="#f5f5f5"/>
        <path id="Path_196" data-name="Path 196" d="M580.7,366.21v31.613h42.114V367.706Z" transform="translate(-9.176 -5.787)" fill="#e0e0e0"/>
        <path id="Path_197" data-name="Path 197" d="M595.45,375.043v4.665h12.883V374.62Z" transform="translate(-9.409 -5.92)" fill="#f5f5f5"/>
        <rect id="Rectangle_86" data-name="Rectangle 86" width="13.306" height="1.909" transform="translate(586.041 377.715)" fill="#f5f5f5"/>
        <path id="Path_198" data-name="Path 198" d="M580.7,289.88v31.613h42.114V291.376Z" transform="translate(-9.176 -4.582)" fill="#e0e0e0"/>
        <path id="Path_199" data-name="Path 199" d="M595.45,298.713v4.665h12.883V298.29Z" transform="translate(-9.409 -4.714)" fill="#f5f5f5"/>
        <rect id="Rectangle_87" data-name="Rectangle 87" width="13.306" height="1.909" transform="translate(586.041 302.591)" fill="#f5f5f5"/>
        <rect id="Rectangle_88" data-name="Rectangle 88" width="42.114" height="31.603" transform="translate(570.973 323.151)" fill="#e0e0e0"/>
        <path id="Path_200" data-name="Path 200" d="M595.18,342.8v4.39h12.106V342.4Z" transform="translate(-9.404 -5.411)" fill="#f5f5f5"/>
        <rect id="Rectangle_89" data-name="Rectangle 89" width="12.509" height="1.791" transform="translate(585.776 345.473)" fill="#f5f5f5"/>
      </g>
      <g id="Floor" transform="translate(7.88 399.821)">
        <path id="Path_201" data-name="Path 201" d="M695.331,453.886c0,.138-145.771.256-325.536.256s-325.575-.148-325.575-.256,145.731-.256,325.565-.256S695.331,453.748,695.331,453.886Z" transform="translate(-44.22 -453.63)" fill="#263238"/>
      </g>
      <g id="Screens" transform="translate(44.374 26.482)">
        <rect id="Rectangle_90" data-name="Rectangle 90" width="263.107" height="172.58" transform="translate(143.32 12.844)" fill="#fafafa"/>
        <path id="Path_202" data-name="Path 202" d="M490.024,259.926l-.246-172.58.207.207L226.9,87.6h0l.256-.256v172.58l-.236-.236,263.107.236-263.107.236h-.236V87.09h.276l263.088.049h.207v.207C490.1,192.607,490.024,258.253,490.024,259.926Z" transform="translate(-83.596 -74.502)" fill="#263238"/>
        <path id="Path_203" data-name="Path 203" d="M308.618,184.18l25.875.354c-.2,13.779-11.81,25.028-25.875,25.028h-.148Z" transform="translate(-84.888 -76.036)" fill="#455a64"/>
        <path id="Path_204" data-name="Path 204" d="M351.557,219.476a2.589,2.589,0,0,1-.551,0h-1.585l-5.777.069h-.059v-.059l-8.6-10.629-6.889-8.779.138.069-7.618-.069h-2.126a4.124,4.124,0,0,1-.758-.049,4.113,4.113,0,0,1,.758-.049h2.126l7.618-.069h.079l.049.069,6.889,8.74,8.464,10.826-.118-.059,5.777.069h1.585A2.609,2.609,0,0,1,351.557,219.476Z" transform="translate(-85.034 -76.284)" fill="#263238"/>
        <ellipse id="Ellipse_87" data-name="Ellipse 87" cx="8.376" cy="0.197" rx="8.376" ry="0.197" transform="translate(259.053 145.977)" fill="#263238"/>
        <ellipse id="Ellipse_88" data-name="Ellipse 88" cx="8.376" cy="0.197" rx="8.376" ry="0.197" transform="translate(259.053 149.078)" fill="#263238"/>
        <path id="Path_205" data-name="Path 205" d="M304.045,180.033l-.364,25.383c-14.054-.2-25.52-11.594-25.52-25.383s11.682-25.392,25.885-25.392,25.885,11.456,25.885,25.392Z" transform="translate(-84.409 -75.569)" fill="#e8505b"/>
        <path id="Path_206" data-name="Path 206" d="M293.815,171.746a1.673,1.673,0,0,1-.453.108l-1.289.207-4.645.65h-.079l-.059-.059-6.2-6.033c-2.953-2.953-5.659-5.58-7.588-7.519l-2.264-2.313a6.82,6.82,0,0,1-.8-.886,6.835,6.835,0,0,1,.905.777L273.7,158.9c1.968,1.89,4.685,4.518,7.667,7.441l6.151,6.082h-.138l4.665-.512,1.3-.118a1.663,1.663,0,0,1,.472-.049Z" transform="translate(-84.287 -75.589)" fill="#263238"/>
        <ellipse id="Ellipse_89" data-name="Ellipse 89" cx="8.376" cy="0.197" rx="8.376" ry="0.197" transform="translate(162.856 79.012)" fill="#263238"/>
        <ellipse id="Ellipse_90" data-name="Ellipse 90" cx="8.376" cy="0.197" rx="8.376" ry="0.197" transform="translate(162.856 82.112)" fill="#263238"/>
        <path id="Path_207" data-name="Path 207" d="M396.137,129.227l-.1-15.747a20.127,20.127,0,0,0-13.011,5.078,18.7,18.7,0,0,0-6.269,16.338,22.324,22.324,0,0,0,.364,2.293v.059h0l19-4.281Z" transform="translate(-85.965 -74.919)" fill="#e8505b"/>
        <g id="Group_20" data-name="Group 20" transform="translate(290.657 38.561)" opacity="0.3">
          <path id="Path_208" data-name="Path 208" d="M396.137,129.227l-.1-15.747a20.127,20.127,0,0,0-13.011,5.078,18.7,18.7,0,0,0-6.269,16.338,22.324,22.324,0,0,0,.364,2.293v.059h0l19-4.281Z" transform="translate(-376.622 -113.48)" fill="#fff"/>
        </g>
        <path id="Path_209" data-name="Path 209" d="M416.078,124.377a18.7,18.7,0,0,0-15.344-10.738l-.6-.049H398.51l.1,15.747v3.71l19.015,4.153h0a18.756,18.756,0,0,0,.423-4.094,20.472,20.472,0,0,0-1.968-8.73Z" transform="translate(-86.31 -74.921)" fill="#e8505b"/>
        <g id="Group_21" data-name="Group 21" transform="translate(312.2 38.669)" opacity="0.3">
          <path id="Path_210" data-name="Path 210" d="M416.078,124.377a18.7,18.7,0,0,0-15.344-10.738l-.6-.049H398.51l.1,15.747v3.71l19.015,4.153h0a18.756,18.756,0,0,0,.423-4.094,20.472,20.472,0,0,0-1.968-8.73Z" transform="translate(-398.51 -113.59)"/>
        </g>
        <path id="Path_211" data-name="Path 211" d="M397.185,135.25l-19.005,4.281a19.487,19.487,0,0,0,38.049-.128l-19.015-4.153" transform="translate(-85.989 -75.263)" fill="#e8505b"/>
        <ellipse id="Ellipse_91" data-name="Ellipse 91" cx="21.948" cy="0.256" rx="21.948" ry="0.256" transform="translate(341.283 56.887)" fill="#263238"/>
        <ellipse id="Ellipse_92" data-name="Ellipse 92" cx="21.948" cy="0.256" rx="21.948" ry="0.256" transform="translate(341.283 51.887)" fill="#263238"/>
        <ellipse id="Ellipse_93" data-name="Ellipse 93" cx="21.948" cy="0.256" rx="21.948" ry="0.256" transform="translate(341.283 46.878)" fill="#263238"/>
        <ellipse id="Ellipse_94" data-name="Ellipse 94" cx="21.948" cy="0.256" rx="21.948" ry="0.256" transform="translate(341.283 61.542)" fill="#263238"/>
        <ellipse id="Ellipse_95" data-name="Ellipse 95" cx="15.078" cy="0.256" rx="15.078" ry="0.256" transform="translate(341.431 66.611)" fill="#263238"/>
        <rect id="Rectangle_91" data-name="Rectangle 91" width="4.518" height="50.5" transform="translate(295.242 103.086)" fill="#e8505b"/>
        <rect id="Rectangle_92" data-name="Rectangle 92" width="4.518" height="33.345" transform="translate(303.972 120.24)" fill="#e8505b"/>
        <rect id="Rectangle_93" data-name="Rectangle 93" width="4.518" height="44.476" transform="translate(312.702 109.365)" fill="#e8505b"/>
        <rect id="Rectangle_94" data-name="Rectangle 94" width="4.518" height="48.551" transform="translate(321.431 105.034)" fill="#e8505b"/>
        <rect id="Rectangle_95" data-name="Rectangle 95" width="4.518" height="32.321" transform="translate(330.161 121.264)" fill="#e8505b"/>
        <rect id="Rectangle_96" data-name="Rectangle 96" width="4.518" height="25.983" transform="translate(338.891 127.602)" fill="#e8505b"/>
        <rect id="Rectangle_97" data-name="Rectangle 97" width="4.518" height="45.313" transform="translate(347.621 108.272)" fill="#e8505b"/>
        <rect id="Rectangle_98" data-name="Rectangle 98" width="4.518" height="37.144" transform="translate(356.351 116.441)" fill="#e8505b"/>
        <rect id="Rectangle_99" data-name="Rectangle 99" width="4.518" height="43.669" transform="translate(365.081 109.916)" fill="#e8505b"/>
        <rect id="Rectangle_100" data-name="Rectangle 100" width="4.518" height="29.753" transform="translate(373.811 123.833)" fill="#e8505b"/>
        <rect id="Rectangle_101" data-name="Rectangle 101" width="4.518" height="35.412" transform="translate(382.541 118.173)" fill="#e8505b"/>
        <path id="Path_212" data-name="Path 212" d="M474.913,233.927c0,.1-21.446.187-47.9.187s-47.9-.079-47.9-.187,21.446-.187,47.9-.187S474.913,233.819,474.913,233.927Z" transform="translate(-86.004 -76.818)" fill="#263238"/>
        <ellipse id="Ellipse_96" data-name="Ellipse 96" cx="3.356" cy="0.187" rx="3.356" ry="0.187" transform="translate(294.986 160.888)" fill="#263238"/>
        <ellipse id="Ellipse_97" data-name="Ellipse 97" cx="4.006" cy="0.187" rx="4.006" ry="0.187" transform="translate(304.808 161.095)" fill="#263238"/>
        <ellipse id="Ellipse_98" data-name="Ellipse 98" cx="4.006" cy="0.187" rx="4.006" ry="0.187" transform="translate(314.306 161.095)" fill="#263238"/>
        <ellipse id="Ellipse_99" data-name="Ellipse 99" cx="4.006" cy="0.187" rx="4.006" ry="0.187" transform="translate(323.794 161.095)" fill="#263238"/>
        <ellipse id="Ellipse_100" data-name="Ellipse 100" cx="4.006" cy="0.187" rx="4.006" ry="0.187" transform="translate(333.291 161.095)" fill="#263238"/>
        <ellipse id="Ellipse_101" data-name="Ellipse 101" cx="4.006" cy="0.187" rx="4.006" ry="0.187" transform="translate(342.779 161.095)" fill="#263238"/>
        <ellipse id="Ellipse_102" data-name="Ellipse 102" cx="4.006" cy="0.187" rx="4.006" ry="0.187" transform="translate(352.276 161.095)" fill="#263238"/>
        <ellipse id="Ellipse_103" data-name="Ellipse 103" cx="4.006" cy="0.187" rx="4.006" ry="0.187" transform="translate(361.774 161.095)" fill="#263238"/>
        <ellipse id="Ellipse_104" data-name="Ellipse 104" cx="4.006" cy="0.187" rx="4.006" ry="0.187" transform="translate(371.262 161.095)" fill="#263238"/>
        <ellipse id="Ellipse_105" data-name="Ellipse 105" cx="4.006" cy="0.187" rx="4.006" ry="0.187" transform="translate(380.759 161.095)" fill="#263238"/>
        <g id="Group_22" data-name="Group 22" transform="translate(303.972 120.24)" opacity="0.3">
          <rect id="Rectangle_102" data-name="Rectangle 102" width="4.518" height="33.345" transform="translate(0)" fill="#fff"/>
        </g>
        <g id="Group_23" data-name="Group 23" transform="translate(321.431 105.034)" opacity="0.3">
          <rect id="Rectangle_103" data-name="Rectangle 103" width="4.518" height="48.551" fill="#fff"/>
        </g>
        <g id="Group_24" data-name="Group 24" transform="translate(338.891 127.602)" opacity="0.3">
          <rect id="Rectangle_104" data-name="Rectangle 104" width="4.518" height="25.983" fill="#fff"/>
        </g>
        <g id="Group_25" data-name="Group 25" transform="translate(356.351 116.441)" opacity="0.3">
          <rect id="Rectangle_105" data-name="Rectangle 105" width="4.518" height="37.144" fill="#fff"/>
        </g>
        <g id="Group_26" data-name="Group 26" transform="translate(373.811 123.833)" opacity="0.3">
          <rect id="Rectangle_106" data-name="Rectangle 106" width="4.518" height="29.753" fill="#fff"/>
        </g>
        <circle id="Ellipse_106" data-name="Ellipse 106" cx="4.35" cy="4.35" r="4.35" transform="translate(166.577 40.933)" fill="#e8505b"/>
        <ellipse id="Ellipse_107" data-name="Ellipse 107" cx="32.774" cy="0.256" rx="32.774" ry="0.256" transform="translate(184.558 41.592)" fill="#e8505b"/>
        <path id="Path_213" data-name="Path 213" d="M295.146,122.166a3.936,3.936,0,0,1-.984.1c-.65,0-1.6.059-2.766.079-2.342,0-5.571.079-9.133.079s-6.8,0-9.133-.079c-1.171,0-2.116-.049-2.766-.079a3.935,3.935,0,0,1-.984-.1,3.938,3.938,0,0,1,.984-.1c.65,0,1.6-.059,2.766-.079,2.342,0,5.571-.079,9.133-.079s6.8,0,9.133.079c1.171,0,2.116.049,2.766.079A3.937,3.937,0,0,1,295.146,122.166Z" transform="translate(-84.271 -75.052)" fill="#e8505b"/>
        <rect id="Rectangle_107" data-name="Rectangle 107" width="137.7" height="157.158" transform="translate(0.256 28.463)" fill="#fafafa"/>
        <path id="Path_214" data-name="Path 214" d="M219.266,260.374V248.958c0-7.421,0-18.277-.059-32.065,0-27.558-.069-66.818-.118-113.676l.226.226H81.625l.256-.256V260.345l-.217-.217,99.729.148,27.922.059h.089l-27.873.059L81.517,260.5H81.3V103H219.482v.226c0,46.927-.089,86.236-.118,113.823,0,13.779,0,24.605-.059,32.016v10.59C219.266,260.138,219.266,260.374,219.266,260.374Z" transform="translate(-81.3 -74.753)" fill="#263238"/>
        <path id="Path_215" data-name="Path 215" d="M207.7,184.7c0,.1-1.526-.768-4.429-1.683a28.463,28.463,0,0,0-12.7-.984,27.755,27.755,0,0,0-8.376,2.687,39.457,39.457,0,0,0-8.238,5.905c-2.7,2.382-5.384,5.088-8.474,7.588a29.221,29.221,0,0,1-10.826,5.856,16.348,16.348,0,0,1-6.319.384,20.461,20.461,0,0,1-5.846-1.811,102.175,102.175,0,0,1-9.842-5.826,30.58,30.58,0,0,0-9.222-4.134,27.381,27.381,0,0,0-8.769-.669,28.247,28.247,0,0,0-12.106,3.937c-2.6,1.585-3.819,2.785-3.937,2.7a6.032,6.032,0,0,1,.876-.866,21.042,21.042,0,0,1,2.815-2.146,27.617,27.617,0,0,1,21.249-3.72,31.052,31.052,0,0,1,9.488,4.153,104.843,104.843,0,0,0,9.734,5.728,16.672,16.672,0,0,0,11.545,1.348,28.542,28.542,0,0,0,10.61-5.58c3.041-2.441,5.738-5.138,8.474-7.519a39.652,39.652,0,0,1,8.454-5.964,28.05,28.05,0,0,1,21.544-1.4,22.5,22.5,0,0,1,3.248,1.4,6.091,6.091,0,0,1,1.043.62Z" transform="translate(-81.574 -75.988)" fill="#e8505b"/>
        <rect id="Rectangle_108" data-name="Rectangle 108" width="11.702" height="31.662" transform="translate(38.158 129.817)" fill="#e8505b"/>
        <rect id="Rectangle_109" data-name="Rectangle 109" width="11.702" height="31.662" transform="translate(87.83 129.817)" fill="#e8505b"/>
        <rect id="Rectangle_110" data-name="Rectangle 110" width="11.702" height="50.254" transform="translate(104.395 111.225)" fill="#e8505b"/>
        <rect id="Rectangle_111" data-name="Rectangle 111" width="11.702" height="10.659" transform="translate(23.011 151.518)" fill="#e8505b"/>
        <rect id="Rectangle_112" data-name="Rectangle 112" width="11.712" height="17.361" transform="translate(54.712 144.117)" fill="#e8505b"/>
        <rect id="Rectangle_113" data-name="Rectangle 113" width="11.702" height="21.347" transform="translate(71.276 140.131)" fill="#e8505b"/>
        <ellipse id="Ellipse_108" data-name="Ellipse 108" cx="6.328" cy="0.472" rx="6.328" ry="0.472" transform="translate(37.685 164.746)" fill="#263238"/>
        <ellipse id="Ellipse_109" data-name="Ellipse 109" cx="6.328" cy="0.472" rx="6.328" ry="0.472" transform="translate(23.119 164.746)" fill="#263238"/>
        <ellipse id="Ellipse_110" data-name="Ellipse 110" cx="7.145" cy="0.472" rx="7.145" ry="0.472" transform="translate(104.109 164.746)" fill="#263238"/>
        <ellipse id="Ellipse_111" data-name="Ellipse 111" cx="7.145" cy="0.472" rx="7.145" ry="0.472" transform="translate(86.718 164.746)" fill="#263238"/>
        <ellipse id="Ellipse_112" data-name="Ellipse 112" cx="6.328" cy="0.472" rx="6.328" ry="0.472" transform="translate(70.331 164.746)" fill="#263238"/>
        <ellipse id="Ellipse_113" data-name="Ellipse 113" cx="6.328" cy="0.472" rx="6.328" ry="0.472" transform="translate(53.216 164.746)" fill="#263238"/>
        <rect id="Rectangle_114" data-name="Rectangle 114" width="95.675" height="39.732" transform="translate(22.735 51.375)" fill="#e0e0e0"/>
        <circle id="Ellipse_114" data-name="Ellipse 114" cx="4.458" cy="4.458" r="4.458" transform="translate(33.689 59.475)" fill="#263238"/>
        <rect id="Rectangle_115" data-name="Rectangle 115" width="31.081" height="1.722" transform="translate(47.065 60.853)" fill="#263238"/>
        <rect id="Rectangle_116" data-name="Rectangle 116" width="60.46" height="1.722" transform="translate(47.065 64.78)" fill="#fff"/>
        <circle id="Ellipse_115" data-name="Ellipse 115" cx="4.458" cy="4.458" r="4.458" transform="translate(33.689 73.185)" fill="#e8505b"/>
        <rect id="Rectangle_117" data-name="Rectangle 117" width="15.865" height="1.722" transform="translate(47.065 74.563)" fill="#e8505b"/>
        <rect id="Rectangle_118" data-name="Rectangle 118" width="60.46" height="1.722" transform="translate(47.065 78.49)" fill="#fff"/>
        <rect id="Rectangle_119" data-name="Rectangle 119" width="151.213" height="172.58" transform="translate(419.33 0.256)" fill="#fafafa"/>
        <path id="Path_216" data-name="Path 216" d="M658.571,247.136V234.607c0-8.149,0-20.068-.059-35.205,0-30.254-.069-73.372-.118-124.837l.226.226H507.427l.256-.256v172.58l-.217-.217,109.68.108,30.658.059h.089l-30.619.059-109.818.108h-.217V74.3h151.7v.226c0,51.523-.089,94.69-.118,124.994,0,15.117,0,27.026-.059,35.156v11.643A2.906,2.906,0,0,0,658.571,247.136Z" transform="translate(-88.028 -74.3)" fill="#263238"/>
        <rect id="Rectangle_120" data-name="Rectangle 120" width="122.494" height="98.273" transform="translate(431.426 14.054)" fill="#e0e0e0"/>
        <rect id="Rectangle_121" data-name="Rectangle 121" width="4.016" height="1.161" transform="translate(439.989 94.848)" fill="#263238"/>
        <rect id="Rectangle_122" data-name="Rectangle 122" width="5.138" height="1.161" transform="translate(449.083 101.048)" fill="#263238"/>
        <rect id="Rectangle_123" data-name="Rectangle 123" width="5.138" height="1.161" transform="translate(466.986 101.048)" fill="#263238"/>
        <rect id="Rectangle_124" data-name="Rectangle 124" width="5.138" height="1.161" transform="translate(484.878 101.048)" fill="#263238"/>
        <rect id="Rectangle_125" data-name="Rectangle 125" width="5.138" height="1.161" transform="translate(502.781 101.048)" fill="#263238"/>
        <rect id="Rectangle_126" data-name="Rectangle 126" width="5.138" height="1.161" transform="translate(520.674 101.048)" fill="#263238"/>
        <rect id="Rectangle_127" data-name="Rectangle 127" width="5.138" height="1.161" transform="translate(538.577 101.048)" fill="#263238"/>
        <rect id="Rectangle_128" data-name="Rectangle 128" width="4.016" height="1.161" transform="translate(439.989 79.376)" fill="#263238"/>
        <rect id="Rectangle_129" data-name="Rectangle 129" width="4.016" height="1.161" transform="translate(439.989 50.253)" fill="#263238"/>
        <rect id="Rectangle_130" data-name="Rectangle 130" width="4.016" height="1.161" transform="translate(439.989 35.618)" fill="#263238"/>
        <rect id="Rectangle_131" data-name="Rectangle 131" width="4.016" height="1.161" transform="translate(440.195 64.82)" fill="#263238"/>
        <path id="Path_217" data-name="Path 217" d="M632.032,170.734h-6.565l-17.893.079-59.052.079H534.31v-.256l.089-49.555c0-6.2.059-11.181.079-14.635v-4.921a1.968,1.968,0,0,1,0-.344,1.968,1.968,0,0,1,0,.344v4.921l.079,14.635c0,12.46.049,29.821.089,49.555l-.256-.256h13.986l59.052.079,17.893.079h6.132Z" transform="translate(-88.455 -74.725)" fill="#263238"/>
        <path id="Path_218" data-name="Path 218" d="M633.23,140.746c0,.138-21.2.256-47.35.256s-47.36-.118-47.36-.256,21.2-.256,47.36-.256S633.23,140.608,633.23,140.746Z" transform="translate(-88.522 -75.345)" fill="#263238"/>
        <path id="Path_219" data-name="Path 219" d="M633.23,126c0,.138-21.2.256-47.35.256s-47.36-.118-47.36-.256,21.2-.256,47.36-.256S633.23,125.809,633.23,126Z" transform="translate(-88.522 -75.113)" fill="#263238"/>
        <path id="Path_220" data-name="Path 220" d="M633.23,111.076c0,.138-21.2.256-47.35.256s-47.36-.118-47.36-.256,21.2-.256,47.36-.256S633.23,110.938,633.23,111.076Z" transform="translate(-88.522 -74.877)" fill="#263238"/>
        <path id="Path_221" data-name="Path 221" d="M633.23,155.536c0,.138-21.2.256-47.35.256s-47.36-.118-47.36-.256,21.2-.256,47.36-.256S633.23,155.4,633.23,155.536Z" transform="translate(-88.522 -75.579)" fill="#263238"/>
        <path id="Path_222" data-name="Path 222" d="M539.51,167.622V154.7l8.051-12.5,5.462,4.193,11.22-17.42,6.614,4.655,9.2-16.072,7.48,6.092,11.22-21.318,12.1,23.828,9.773-11.919,11.505-3.287v56.68Z" transform="translate(-88.537 -74.743)" fill="#455a64"/>
        <path id="Path_223" data-name="Path 223" d="M633.245,106.417h-3.14l-8.858.069.108-.059L611.907,118.8l-.059.079H588.07l.207-.118-9.9,16.7L568.6,151.71l-.2.315-.216-.305-12.795-17.647h.344l-11.81,18.188-3.277,5.029-.876,1.309a5,5,0,0,1-.315.433s.079-.167.266-.472l.817-1.348,3.179-5.1L555.3,133.8l.167-.256.177.246,12.893,17.647h-.413l9.763-16.259,9.97-16.564.069-.118H611.74l-.157.079,9.537-12.3v-.059h.069l8.858.069h2.933Z" transform="translate(-88.537 -74.804)" fill="#e8505b"/>
        <ellipse id="Ellipse_116" data-name="Ellipse 116" cx="0.905" cy="0.876" rx="0.905" ry="0.876" transform="translate(469.052 62.418)" fill="#e8505b"/>
        <ellipse id="Ellipse_117" data-name="Ellipse 117" cx="0.905" cy="0.876" rx="0.905" ry="0.876" transform="translate(496.364 46.888)" fill="#e8505b"/>
        <ellipse id="Ellipse_118" data-name="Ellipse 118" cx="0.905" cy="0.876" rx="0.905" ry="0.876" transform="translate(517.603 43.079)" fill="#e8505b"/>
        <path id="Path_224" data-name="Path 224" d="M636.657,203.266c0,.138-25.845.256-57.724.256s-57.733-.118-57.733-.256,25.845-.256,57.733-.256S636.657,203.128,636.657,203.266Z" transform="translate(-88.248 -76.333)" fill="#263238"/>
        <path id="Path_225" data-name="Path 225" d="M636.657,209.606c0,.138-25.845.256-57.724.256s-57.733-.118-57.733-.256,25.845-.256,57.733-.256S636.657,209.468,636.657,209.606Z" transform="translate(-88.248 -76.433)" fill="#263238"/>
        <path id="Path_226" data-name="Path 226" d="M636.657,216c0,.138-25.845.256-57.724.256S521.2,216.134,521.2,216s25.845-.256,57.733-.256S636.657,215.809,636.657,216Z" transform="translate(-88.248 -76.534)" fill="#263238"/>
        <path id="Path_227" data-name="Path 227" d="M636.657,222.3c0,.138-25.845.256-57.724.256s-57.733-.118-57.733-.256,25.845-.256,57.733-.256S636.657,222.148,636.657,222.3Z" transform="translate(-88.248 -76.634)" fill="#263238"/>
      </g>
      <g id="Character_2" data-name="Character 2" transform="translate(478.932 131.913)">
        <path id="Path_228" data-name="Path 228" d="M592.033,219.251c3.159-5.3,4.084-12.371,4.921-18.493.384-2.884,1.053-6.978-.984-8.789s-2.362-4.921-4.852-6.407a7.657,7.657,0,0,0-8.228.069" transform="translate(-523.781 -181.47)" fill="#263238"/>
        <path id="Path_229" data-name="Path 229" d="M583,238.086h0a8.523,8.523,0,0,1-9.173-8.169c-.177-4.636-.335-9.33-.335-9.33s-7.027-.659-7.539-7.618-.276-23.021-.276-23.021h0a24.241,24.241,0,0,1,24.507,1.575l-.433,24.487v13.178C589.7,233.608,587.41,237.751,583,238.086Z" transform="translate(-523.508 -181.517)" fill="#ffbe9d"/>
        <path id="Path_230" data-name="Path 230" d="M572.789,204.382a3.563,3.563,0,0,1,4.754-1.033,4.045,4.045,0,0,1,1.348,5.059,5.324,5.324,0,0,1-3.415,2.579,2.667,2.667,0,0,0-2.1,2.874c.2,1.742,3.11,2.4,4.419,3.848,2.037,2.244,6.515,3.2,9.527,3.553s2.608.384,4.331-2.057a9.339,9.339,0,0,0,1.693-5.649l.315-15.393a22.028,22.028,0,0,0-.354-5.521,7.412,7.412,0,0,0-2.953-4.567c-1.693-1.112-3.838-1.211-5.767-1.831-2.411-.778-4.458-2.382-6.712-3.533s-5.019-1.84-7.283-.709c-1.624.817-2.716,2.441-4.291,3.336-2.254,1.279-5.315.984-6.407,4.3a5.609,5.609,0,0,0,0,3.533c1.525,4.5,7.1,6.319,11.112,4.37.079.758-.669,2.461.128,4.872.256.768.344,1.968,1.555,1.968" transform="translate(-523.413 -181.423)" fill="#263238"/>
        <path id="Path_231" data-name="Path 231" d="M574.27,209.106a1.19,1.19,0,0,0,.866.335,1.614,1.614,0,0,0,1.3-1.585,1.742,1.742,0,0,0-1.191-1.732c-.571-.217-.984-.1-.984-.187s.384-.315,1.1-.167a2.086,2.086,0,0,1,1.092.63,2.09,2.09,0,0,1-1.3,3.445,1.043,1.043,0,0,1-.778-.394C574.24,209.234,574.24,209.116,574.27,209.106Z" transform="translate(-523.644 -181.807)" fill="#eb996e"/>
        <path id="Path_232" data-name="Path 232" d="M581.63,187.817a2.183,2.183,0,0,1,.581-.591,4.665,4.665,0,0,1,2.116-.817,6.083,6.083,0,0,1,3.327.5,7.628,7.628,0,0,1,3.071,2.746,15.59,15.59,0,0,1,2.165,7.047,18.093,18.093,0,0,1,.187,3.041,17.641,17.641,0,0,1-.541-2.953,16.811,16.811,0,0,0-2.224-6.811,7.43,7.43,0,0,0-2.844-2.6,5.59,5.59,0,0,0-5.827.472Z" transform="translate(-523.761 -181.501)" fill="#455a64"/>
        <path id="Path_233" data-name="Path 233" d="M561.687,194.919h-.266a1.969,1.969,0,0,1-.689-.315,2.52,2.52,0,0,1-.807-.905,2.313,2.313,0,0,1-.216-1.614,2.648,2.648,0,0,1,1.132-1.624,3.779,3.779,0,0,1,2.2-.433,3.041,3.041,0,0,0,2.1-.531,15.245,15.245,0,0,0,1.7-1.831,8.67,8.67,0,0,1,4.33-2.5,9.212,9.212,0,0,1,4.084-.089,7.873,7.873,0,0,1,2.569.984,2.952,2.952,0,0,1,.8.61,12.018,12.018,0,0,0-3.425-1.24,9.281,9.281,0,0,0-3.937.187,8.425,8.425,0,0,0-4.075,2.392,14.52,14.52,0,0,1-1.781,1.89,2.854,2.854,0,0,1-1.2.541,5.787,5.787,0,0,1-1.211.069,3.435,3.435,0,0,0-1.969.315,2.294,2.294,0,0,0-.984,1.348,2.244,2.244,0,0,0,.8,2.273A5.5,5.5,0,0,0,561.687,194.919Z" transform="translate(-523.414 -181.478)" fill="#455a64"/>
        <path id="Path_234" data-name="Path 234" d="M580.538,214.4a9.542,9.542,0,0,0,.915-.551,5.747,5.747,0,0,0,1.9-2.155,5.364,5.364,0,0,0-.984-6.171,10.074,10.074,0,0,0-2.175-1.594c-.817-.472-1.644-.915-2.392-1.427a8.09,8.09,0,0,1-1.969-1.811,8.416,8.416,0,0,1-1.624-4.114,7.614,7.614,0,0,1,.226-2.953,4.453,4.453,0,0,1,.276-.758c.079-.167.128-.256.138-.246a10.324,10.324,0,0,0-.285,3.937,8.323,8.323,0,0,0,1.644,3.878,7.784,7.784,0,0,0,1.831,1.683c.728.492,1.545.915,2.372,1.4a10.276,10.276,0,0,1,2.273,1.683,5.65,5.65,0,0,1,1.358,2.3,5.541,5.541,0,0,1-2.559,6.506A2.461,2.461,0,0,1,580.538,214.4Z" transform="translate(-523.643 -181.6)" fill="#455a64"/>
        <path id="Path_235" data-name="Path 235" d="M592.636,204.175a3.149,3.149,0,0,1-.9.2,12.99,12.99,0,0,1-2.5.079,15.491,15.491,0,0,1-7.765-2.667,12.283,12.283,0,0,1-5.088-6.407,5.285,5.285,0,0,1-.108-2.52,1.969,1.969,0,0,1,.344-.856,6.151,6.151,0,0,0,.108,3.277,12.617,12.617,0,0,0,5.029,6.082,16.308,16.308,0,0,0,7.5,2.736C591.327,204.312,592.626,204.076,592.636,204.175Z" transform="translate(-523.675 -181.59)" fill="#455a64"/>
        <path id="Path_236" data-name="Path 236" d="M593.983,199.46a12.283,12.283,0,0,1,9.6-4.34c3.622.207,7.165,2.707,8.051,6.23.669,2.648-.148,5.413-.492,8.13s0,5.905,2.2,7.49c1.329.984,3.061,1.142,4.655,1.535s3.317,1.191,3.858,2.746c.63,1.781-.659,3.809-2.392,4.557a8.858,8.858,0,0,1-5.571.079,4.665,4.665,0,0,1-2.067,5.58,6.161,6.161,0,0,1-6.181-.256,9.232,9.232,0,0,1-3.779-5.118c-1.191,2.1-4.321,2.539-6.328,1.2a6.643,6.643,0,0,1-2.559-6.358,12.41,12.41,0,0,1,3.209-6.358,15.752,15.752,0,0,0,2.244-2.854,3.631,3.631,0,0,0,.138-3.474,2.106,2.106,0,0,0-3.1-.62" transform="translate(-523.939 -181.639)" fill="#263238"/>
        <path id="Path_237" data-name="Path 237" d="M598.187,206.8a2.4,2.4,0,0,1-2.1,0,5.029,5.029,0,0,1-3.031-3.937,5.187,5.187,0,0,1,.335-2.825,5.384,5.384,0,0,1,1.329-1.89,3.425,3.425,0,0,1,1.831-.984,16.262,16.262,0,0,0-1.575,1.279,5.157,5.157,0,0,0-1.407,4.38,4.439,4.439,0,0,0,4.616,4.065Z" transform="translate(-523.94 -181.671)" fill="#e8505b"/>
        <path id="Path_238" data-name="Path 238" d="M573.268,220.893a3.288,3.288,0,0,1-1.585-.157,8.562,8.562,0,0,1-5.639-4.98,3.286,3.286,0,0,1-.354-1.555,10.045,10.045,0,0,1,.679,1.407,9.842,9.842,0,0,0,5.413,4.783A10.087,10.087,0,0,1,573.268,220.893Z" transform="translate(-523.509 -181.941)" fill="#eb996e"/>
        <path id="Path_239" data-name="Path 239" d="M600.5,226.4a1.823,1.823,0,0,1-.344-.049,3.385,3.385,0,0,1-.905-.4,4.921,4.921,0,0,1-1.968-3,6.17,6.17,0,0,1-.089-2.529,10.167,10.167,0,0,1,.915-2.736c.876-1.831,2.264-3.573,3.287-5.6a9.969,9.969,0,0,0,.984-3.1,5.994,5.994,0,0,0-3.868-6.447,6.4,6.4,0,0,0-3.445-.217c-.817.167-1.23.4-1.25.354s.089-.079.285-.187a4.914,4.914,0,0,1,.915-.354,6.171,6.171,0,0,1,7.46,3.73,6.358,6.358,0,0,1,.394,3.2,10.275,10.275,0,0,1-1.073,3.258c-1.063,2.1-2.451,3.819-3.317,5.58a7.441,7.441,0,0,0-.906,4.98,4.921,4.921,0,0,0,1.742,2.953A9.146,9.146,0,0,0,600.5,226.4Z" transform="translate(-523.953 -181.746)" fill="#455a64"/>
        <path id="Path_240" data-name="Path 240" d="M610.995,231.509a1.408,1.408,0,0,1-.443,0,4.862,4.862,0,0,1-1.24-.226,6.988,6.988,0,0,1-3.622-2.825,10.737,10.737,0,0,1-1.565-6.634,67.789,67.789,0,0,1,1.339-8.238,19.243,19.243,0,0,0,.3-4.242,10.923,10.923,0,0,0-.9-3.8,6.889,6.889,0,0,0-4.921-4.075,10.158,10.158,0,0,0-4.478,0c-1.053.236-1.6.463-1.624.423a1.42,1.42,0,0,1,.384-.207,8.624,8.624,0,0,1,1.181-.413,9.842,9.842,0,0,1,4.606-.177,7.382,7.382,0,0,1,2.953,1.319,7.5,7.5,0,0,1,2.293,2.953,11.249,11.249,0,0,1,.984,3.937,19.317,19.317,0,0,1-.285,4.35,73.782,73.782,0,0,0-1.378,8.179,10.541,10.541,0,0,0,1.4,6.407,7.018,7.018,0,0,0,3.386,2.835,10.6,10.6,0,0,0,1.634.433Z" transform="translate(-523.954 -181.731)" fill="#455a64"/>
        <path id="Path_241" data-name="Path 241" d="M576.952,216.77,562.13,228.334l6.22,10.206,17.844-13.149Z" transform="translate(-487.815 -135.34)" fill="#ffbe9d"/>
        <path id="Path_242" data-name="Path 242" d="M572.545,224.539s.069-1.24-3.159-1.417a33.87,33.87,0,0,0-3.592-.118,8.237,8.237,0,0,1-1.545-2.953,9,9,0,0,1,.689-3.041l3.268-.305-.886-2.224-2.3.157-6.506.778L555.922,226.8,538.157,259.97a8.563,8.563,0,0,0,3.4,12.47h0c4.6,2.224,10.747-2.49,12.45-7.3l9.842-36.9,3.455-2.707,4.921-.905" transform="translate(-523.051 -181.945)" fill="#ffbe9d"/>
        <path id="Path_243" data-name="Path 243" d="M532,446.411l24.162-139.167h0l.148-.6h0c4.114-16.328,10.462-21.554,10.462-21.554l37.026,2.323c3.15,5.659,3.543,19.231,3.543,19.231.433,1.663-7.824,136.529-7.824,136.529l-12.4-.384L580.4,315.2,544.372,446.952Z" transform="translate(-522.977 -183.06)" fill="#ffbe9d"/>
        <path id="Path_244" data-name="Path 244" d="M531.531,450.26V449l12.736.364-.108,4.143h-.787c-3.5.089-17.824.207-20.147-.512C520.694,452.228,531.531,450.26,531.531,450.26Z" transform="translate(-522.832 -185.649)" fill="#e8505b"/>
        <g id="Group_27" data-name="Group 27" transform="translate(16.779 264.386)" opacity="0.6">
          <path id="Path_245" data-name="Path 245" d="M539.88,453.318a4.075,4.075,0,0,1,1.693-2.47,4.508,4.508,0,0,1,2.953-.778l-.1,3.3Z" transform="translate(-539.88 -450.052)" fill="#fff"/>
        </g>
        <g id="Group_28" data-name="Group 28" transform="translate(0 265.752)" opacity="0.6">
          <path id="Path_246" data-name="Path 246" d="M526.226,451.44s-3.809.915-3.356,1.506,14.93.984,21.328.62V453.3l-16.889-.325S526.934,451.489,526.226,451.44Z" transform="translate(-522.832 -451.44)" fill="#fff"/>
        </g>
        <path id="Path_247" data-name="Path 247" d="M544.395,453.311h-3.149c-1.968,0-4.636,0-7.608-.079s-5.659-.2-7.608-.315l-2.3-.148-.63-.049h.63l2.3.108c1.968.089,4.636.2,7.608.276s5.659.108,7.608.118h3.149Z" transform="translate(-522.833 -185.708)" fill="#263238"/>
        <path id="Path_248" data-name="Path 248" d="M527.351,453.17a4.6,4.6,0,0,0-.4-1.033,4.92,4.92,0,0,0-.758-.837,1.683,1.683,0,0,1,.9.768A1.5,1.5,0,0,1,527.351,453.17Z" transform="translate(-522.885 -185.686)" fill="#263238"/>
        <path id="Path_249" data-name="Path 249" d="M531.22,451.484a2.547,2.547,0,0,1-.384-.463,1.307,1.307,0,0,1-.256-.531c.029-.02.207.187.384.463S531.259,451.464,531.22,451.484Z" transform="translate(-522.954 -185.673)" fill="#263238"/>
        <path id="Path_250" data-name="Path 250" d="M532.277,450.989a1.953,1.953,0,0,1-.443-.285c-.217-.187-.364-.364-.335-.394s.226.1.443.285S532.307,450.989,532.277,450.989Z" transform="translate(-522.969 -185.67)" fill="#263238"/>
        <ellipse id="Ellipse_119" data-name="Ellipse 119" cx="0.069" cy="0.659" rx="0.069" ry="0.659" transform="translate(8.692 264.318) rotate(-89.09)" fill="#263238"/>
        <path id="Path_251" data-name="Path 251" d="M533.206,449.11a1.968,1.968,0,0,1-1.506.069Q532.453,449.154,533.206,449.11Z" transform="translate(-522.972 -185.651)" fill="#263238"/>
        <path id="Path_252" data-name="Path 252" d="M530.782,450.433a2.529,2.529,0,0,1-.817,0,5.08,5.08,0,0,1-.866-.2,2.471,2.471,0,0,1-.492-.207.414.414,0,0,1-.2-.236.285.285,0,0,1,.128-.3,1.565,1.565,0,0,1,1.831.453,1.31,1.31,0,0,1,.246.512v.207a2.077,2.077,0,0,0-.354-.659,1.475,1.475,0,0,0-.679-.443,1.348,1.348,0,0,0-.984,0c-.128.089-.089.226.059.315a2.52,2.52,0,0,0,.453.2,5.9,5.9,0,0,0,.837.226A8.435,8.435,0,0,1,530.782,450.433Z" transform="translate(-522.92 -185.655)" fill="#263238"/>
        <path id="Path_253" data-name="Path 253" d="M530.608,450.457a.709.709,0,0,1-.079-.531,1.191,1.191,0,0,1,.236-.551.827.827,0,0,1,.689-.364.305.305,0,0,1,.236.354.8.8,0,0,1-.148.335,2.347,2.347,0,0,1-.4.453,1.192,1.192,0,0,1-.472.3,3.855,3.855,0,0,0,.394-.364,2.67,2.67,0,0,0,.354-.443c.118-.157.207-.443,0-.482a.738.738,0,0,0-.551.305,1.209,1.209,0,0,0-.246.482A2.576,2.576,0,0,0,530.608,450.457Z" transform="translate(-522.953 -185.649)" fill="#263238"/>
        <path id="Path_254" data-name="Path 254" d="M544.505,450h-.984a4.291,4.291,0,0,0-2.067.728,3.839,3.839,0,0,0-1.329,1.644c-.207.5-.236.837-.266.837a.631.631,0,0,1,0-.236,2.952,2.952,0,0,1,.158-.63,3.662,3.662,0,0,1,1.339-1.722,4.114,4.114,0,0,1,2.155-.719,3.585,3.585,0,0,1,.7,0,.778.778,0,0,1,.3.1Z" transform="translate(-523.101 -185.663)" fill="#263238"/>
        <path id="Path_255" data-name="Path 255" d="M538.24,452.159a11.182,11.182,0,0,1-3.711-.069h1.85A12.653,12.653,0,0,1,538.24,452.159Z" transform="translate(-523.017 -185.698)" fill="#263238"/>
        <path id="Path_256" data-name="Path 256" d="M540.814,452.23s-.069.158-.167.335-.138.325-.187.325-.059-.187,0-.384S540.784,452.2,540.814,452.23Z" transform="translate(-523.11 -185.7)" fill="#263238"/>
        <path id="Path_257" data-name="Path 257" d="M541.8,451.15a.821.821,0,0,1-.187.266c-.128.118-.266.2-.3.167s.059-.148.187-.266S541.773,451.12,541.8,451.15Z" transform="translate(-523.124 -185.683)" fill="#263238"/>
        <path id="Path_258" data-name="Path 258" d="M543.168,450.679a.945.945,0,0,0-.364.089c-.187.089-.325.148-.354.118s.079-.187.315-.256S543.188,450.649,543.168,450.679Z" transform="translate(-523.142 -185.675)" fill="#263238"/>
        <ellipse id="Ellipse_120" data-name="Ellipse 120" cx="0.207" cy="0.069" rx="0.207" ry="0.069" transform="translate(20.575 264.854) rotate(-18.29)" fill="#263238"/>
        <path id="Path_259" data-name="Path 259" d="M594.87,228.68a24.4,24.4,0,0,1,9.842,3.858c11.712,7.588,31.288,23.621,29.664,31.071-1.427,6.319-16.741,14.005-16.741,14.005l-9.842-11.929,6.082-3.474-14.94-9.94Z" transform="translate(-523.97 -182.169)" fill="#263238"/>
        <path id="Path_260" data-name="Path 260" d="M600.618,252.831l-.482,1.781-1.722,8.228-.4,12.047c8.858,11.436,9.015,21.062,9.015,21.062l-44.85,5.236c0-8.858,3.238-20.019,3.238-20.019,2.6-4.4,2.47-17.568,1.968-18.05-2.8-2.775-3.484-4.813-1.24-8.366,0,0-13.907,14.606-15.334,15.915-4.921,4.508-9.635,3.248-11.81,1.289-6.141-5.482.167-12.549.167-12.549l23.414-26.839a11.663,11.663,0,0,1,6.082-3.71,50.511,50.511,0,0,1,5.019-.886l15.639.138a26.27,26.27,0,0,1,4.655.571,11.181,11.181,0,0,1,6.83,8.464C602.173,243.855,600.618,252.831,600.618,252.831Z" transform="translate(-523.045 -182.158)" fill="#263238"/>
        <path id="Path_261" data-name="Path 261" d="M602.1,242.3a6.327,6.327,0,0,1,.1,1.3c0,.837,0,2.047-.089,3.543a94.243,94.243,0,0,1-1.545,11.594c-.3,1.535-.6,3-.925,4.37h0c-.138,3.484-.276,6.5-.394,8.641l-.157,2.51a3.712,3.712,0,0,1-.118.905,3.708,3.708,0,0,1-.049-.905v-2.51c0-2.146.108-5.157.216-8.641h0c.305-1.358.61-2.825.905-4.35.856-4.468,1.417-8.553,1.683-11.525.138-1.486.207-2.687.246-3.523A6.376,6.376,0,0,1,602.1,242.3Z" transform="translate(-524.034 -182.384)" fill="#455a64"/>
        <ellipse id="Ellipse_121" data-name="Ellipse 121" cx="0.256" cy="9.783" rx="0.256" ry="9.783" transform="matrix(0.569, -0.822, 0.822, 0.569, 78.061, 72.172)" fill="#455a64"/>
        <path id="Path_262" data-name="Path 262" d="M572.669,236.69s.089,0,.226.177a4.639,4.639,0,0,1,.561.61,6.78,6.78,0,0,1,1.211,2.776,9.174,9.174,0,0,1-.256,4.5,18.317,18.317,0,0,1-2.52,4.921,17.5,17.5,0,0,1-1.85,2.175c-.65.659-1.348,1.211-1.968,1.762-1.24,1.112-2.313,2.165-3.2,3.071s-1.585,1.644-2.067,2.165a4.917,4.917,0,0,1-.787.778,4.268,4.268,0,0,1,.63-.906c.443-.561,1.092-1.348,1.968-2.283s1.909-2.027,3.14-3.169c.62-.581,1.3-1.132,1.969-1.772a17.853,17.853,0,0,0,1.791-2.116,18.806,18.806,0,0,0,2.48-4.734,9.143,9.143,0,0,0,.345-4.281,8.04,8.04,0,0,0-1.673-3.671Z" transform="translate(-523.451 -182.296)" fill="#455a64"/>
        <path id="Path_263" data-name="Path 263" d="M531.33,229.493l.512-6.033h30.589l-.167,4.714Z" transform="translate(-487.328 -135.445)" fill="#455a64"/>
        <path id="Path_264" data-name="Path 264" d="M542.09,259.46" transform="translate(-523.136 -182.655)" fill="none" stroke="#839198" stroke-miterlimit="10" stroke-width="0.05"/>
        <path id="Path_265" data-name="Path 265" d="M540.936,258.71c.059.079-.778.581-1.693,1.772a8.149,8.149,0,0,0,.433,10.688,18.312,18.312,0,0,0,1.831,1.624c-.049.079-.246-.049-.63-.256a6.956,6.956,0,0,1-1.466-1.112,8.09,8.09,0,0,1-.453-11.171,6.959,6.959,0,0,1,1.378-1.23C540.719,258.779,540.936,258.68,540.936,258.71Z" transform="translate(-523.055 -182.644)" fill="#455a64"/>
        <path id="Path_266" data-name="Path 266" d="M564.171,398.265l3.464,8.07-15.521-.177-.335-8.228Z" transform="translate(-487.651 -138.201)" fill="#e8505b"/>
        <path id="Path_267" data-name="Path 267" d="M588.22,452.257a14.265,14.265,0,0,0,2.175.108h5.246l5.236-.108a16.354,16.354,0,0,0,2.175-.108,14.384,14.384,0,0,0-2.175-.108h-5.246l-5.236.108A16.483,16.483,0,0,0,588.22,452.257Z" transform="translate(-523.865 -185.697)" fill="#263238"/>
        <ellipse id="Ellipse_122" data-name="Ellipse 122" cx="0.246" cy="3.268" rx="0.246" ry="3.268" transform="matrix(0.998, -0.055, 0.055, 0.998, 70.561, 259.916)" fill="#263238"/>
        <path id="Path_268" data-name="Path 268" d="M567.619,406.608,552.1,406.1l-.1-1.476,14.832.128.787,1.693" transform="translate(-487.655 -138.307)" fill="#fff" opacity="0.6"/>
        <path id="Path_269" data-name="Path 269" d="M605.844,288.927c11.682,36.858-3.376,81.6.236,124.551.354,4.222,2.067,9.271-1.88,11.673a6.447,6.447,0,0,1-3.563.866c-3.149-.108-5.787-1.742-8.6-2.864a25.589,25.589,0,0,0-16.928-.659c-3.73,1.161-7.421,3.218-11.279,2.628-5.128-.778-8.444-5.836-13.169-7.992-4.419-1.968-9.517-1.26-14.369-1.378h-.148a10.885,10.885,0,0,1-10.049-13.779c7.047-25.816,30.432-109.7,40.785-124.994l30.963-1.339C600.677,279.085,604.338,284.232,605.844,288.927Z" transform="translate(-522.877 -182.911)" fill="#e8505b"/>
        <path id="Path_270" data-name="Path 270" d="M595.894,306.77a13.774,13.774,0,0,1-1.683,2.116,48.338,48.338,0,0,1-4.567,4.665,30.711,30.711,0,0,1-5.393,3.71,11.887,11.887,0,0,1-2.461,1.142c-.108-.177,3.681-1.968,7.51-5.236,1.9-1.653,3.474-3.336,4.636-4.527A14.492,14.492,0,0,1,595.894,306.77Z" transform="translate(-523.763 -183.403)" fill="#263238"/>
        <g id="Group_29" data-name="Group 29" transform="translate(40.244 137.274)" opacity="0.1">
          <path id="Path_271" data-name="Path 271" d="M581.948,320.9a131.882,131.882,0,0,0-5.157,78.894c.551,2.254,1.122,4.813-.157,6.742-1.663,2.5-5.679,2.333-7.952.364s-3.179-5.059-3.75-8c-4.252-21.987,3.445-44.092,11.761-64.889" transform="translate(-563.722 -320.9)"/>
        </g>
      </g>
      <g id="Character_1" data-name="Character 1" transform="translate(233.794 176.914)">
        <rect id="Rectangle_132" data-name="Rectangle 132" width="58.649" height="2.854" transform="translate(69.445 104.693)" fill="#263238"/>
        <path id="Path_272" data-name="Path 272" d="M298.7,288.369l-11-41.219h45.8l9.96,41.219Z" transform="translate(-238.342 -180.821)" fill="#263238"/>
        <path id="Path_273" data-name="Path 273" d="M340.751,285.279h-40.9l-9.527-36.2h41.12Z" transform="translate(-238.384 -180.852)" fill="#f5f5f5"/>
        <path id="Path_274" data-name="Path 274" d="M327.219,299.078h41.11l-.689-2.6h-41.1Z" transform="translate(-274.594 -228.242)" fill="#ebebeb"/>
        <circle id="Ellipse_123" data-name="Ellipse 123" cx="0.453" cy="0.453" r="0.453" transform="translate(57.064 69.075)" fill="#fafafa"/>
        <circle id="Ellipse_124" data-name="Ellipse 124" cx="0.453" cy="0.453" r="0.453" transform="translate(55.509 69.075)" fill="#fafafa"/>
        <circle id="Ellipse_125" data-name="Ellipse 125" cx="0.453" cy="0.453" r="0.453" transform="translate(53.964 69.075)" fill="#fafafa"/>
        <path id="Path_275" data-name="Path 275" d="M358.513,315.125l4.508,5.147a6.368,6.368,0,0,0,2.746-5.177c0-3.6-3.307-6.555-7.293-6.535s-7.254,2.953-7.244,6.594Z" transform="translate(-274.984 -228.433)" fill="#e8505b"/>
        <path id="Path_276" data-name="Path 276" d="M357.933,316.069a10.3,10.3,0,0,1,1.289,1.289c.807.866,1.968,2.126,3.327,3.661l.157.177-.2.148a7.8,7.8,0,0,1-7.588.748,7.431,7.431,0,0,1-3.12-2.51,6.407,6.407,0,0,1-1.161-3.386V316h5.4a11.063,11.063,0,0,1,1.909.089,13.386,13.386,0,0,1-1.968.158c-1.24.059-2.953.118-5.088.177l.217-.226a6.063,6.063,0,0,0,1.122,3.12,7.056,7.056,0,0,0,2.953,2.323,7.47,7.47,0,0,0,7.135-.63v.315c-1.309-1.525-2.382-2.815-3.13-3.73A12.511,12.511,0,0,1,357.933,316.069Z" transform="translate(-274.974 -228.55)" fill="#263238"/>
        <circle id="Ellipse_126" data-name="Ellipse 126" cx="0.404" cy="0.404" r="0.404" transform="translate(80.016 82.404) rotate(-0.22)" fill="#263238"/>
        <path id="Path_277" data-name="Path 277" d="M346.83,308.285a23.323,23.323,0,0,1,4.862-.276h.758l.069.069a19.168,19.168,0,0,1,2.815,3.149,19.186,19.186,0,0,1-3.169-2.785l.177.069h-.65a23.327,23.327,0,0,1-4.862-.226Z" transform="translate(-274.914 -228.423)" fill="#263238"/>
        <path id="Path_278" data-name="Path 278" d="M337.455,313.4a15.034,15.034,0,0,1-.463-1.9c-.276-1.25-.669-3.081-1.112-5.315v-.246h.256l10.177-.089.256.207h0v.472l.089.482.177.984.344,1.86.64,3.474.049.276h-.276c-3.061,0-5.63,0-7.411-.079l-2.067-.059a2.953,2.953,0,0,1-.7-.059,4.652,4.652,0,0,1,.787-.059l2.106-.069c1.8-.049,4.311-.108,7.283-.138l-.226.276-.64-3.484-.354-1.86-.177-.984-.089-.482v-.472h0l.256.207H336.077l.207-.246c.384,2.165.679,3.937.886,5.236A19.682,19.682,0,0,1,337.455,313.4Z" transform="translate(-274.741 -228.39)" fill="#263238"/>
        <circle id="Ellipse_127" data-name="Ellipse 127" cx="0.404" cy="0.404" r="0.404" transform="translate(79.422 90.585) rotate(-0.23)" fill="#263238"/>
        <ellipse id="Ellipse_128" data-name="Ellipse 128" cx="3.701" cy="0.256" rx="3.701" ry="0.256" transform="translate(72.445 90.741) rotate(-0.23)" fill="#263238"/>
        <path id="Path_279" data-name="Path 279" d="M337.484,322.809a8.573,8.573,0,0,1-.443-1.358c-.266-.906-.65-2.244-1.1-3.937l-.059-.236h.246c2.775-.049,6.456-.089,10.492-.108l.246.2h0v.335l.089.354.177.689.345,1.358.65,2.579.079.305H347.9c-3.11,0-5.767,0-7.618-.079l-2.146-.059a2.951,2.951,0,0,1-.728-.059,4.6,4.6,0,0,1,.827-.069l2.195-.079c1.86-.049,4.458-.108,7.48-.138l-.236.305L347,320.241l-.354-1.358-.177-.689-.089-.354V317.5h0l.246.2H336.136l.187-.236c.394,1.614.689,2.953.9,3.868A11.816,11.816,0,0,1,337.484,322.809Z" transform="translate(-274.741 -228.569)" fill="#263238"/>
        <ellipse id="Ellipse_129" data-name="Ellipse 129" cx="3.484" cy="0.256" rx="3.484" ry="0.256" transform="translate(62.31 81.043)" fill="#263238"/>
        <ellipse id="Ellipse_130" data-name="Ellipse 130" cx="3.504" cy="0.256" rx="3.504" ry="0.256" transform="translate(63.616 80.846) rotate(-0.23)" fill="#263238"/>
        <ellipse id="Ellipse_131" data-name="Ellipse 131" cx="3.376" cy="0.256" rx="3.376" ry="0.256" transform="translate(63.827 81.947) rotate(-0.23)" fill="#263238"/>
        <ellipse id="Ellipse_132" data-name="Ellipse 132" cx="3.317" cy="0.256" rx="3.317" ry="0.256" transform="translate(63.744 90.658) rotate(-0.23)" fill="#263238"/>
        <ellipse id="Ellipse_133" data-name="Ellipse 133" cx="2.835" cy="0.256" rx="2.835" ry="0.256" transform="translate(64.143 91.916) rotate(-0.23)" fill="#263238"/>
        <path id="Path_280" data-name="Path 280" d="M237.55,288.89v5.4h3.543V403.757h7.263V294.293h38.551V403.757h7.263V294.293H461.417V403.727h7.263V294.293h3.14v-5.4Z" transform="translate(-237.55 -181.48)" fill="#263238"/>
        <ellipse id="Ellipse_134" data-name="Ellipse 134" cx="4.724" cy="0.197" rx="4.724" ry="0.197" transform="translate(157.512 147.998)" fill="#263238"/>
        <ellipse id="Ellipse_135" data-name="Ellipse 135" cx="0.256" cy="0.128" rx="0.256" ry="0.128" transform="translate(88.451 149.061)" fill="#455a64"/>
        <path id="Path_281" data-name="Path 281" d="M410.258,279.2l-27.135-27.558-.591-2.953c-.108-.541-.226-1.152-.335-1.85a7.331,7.331,0,0,1,0-2.431,11.034,11.034,0,0,1,.837-2.894c.453-.8-.276-1.762-.984-1.427s-2.067,2.5-2.352,5.472-2.825-.984-3.77-2.392-4.094-5.689-4.744-5.738c-.984-.079-1.211.984-.226,2.362s3.642,5.807,2.884,6.279h0a3.553,3.553,0,0,0-3.75,1.86c-.689,1.319-1.447,3.179-.827,4.045a48.864,48.864,0,0,0,4.33,4.586l.906.778s23.473,34.014,28.542,35.116c3.179.689,52.37,4.764,52.37,4.764l3.71-13.552Z" transform="translate(-275.265 -227.309)" fill="#b78876"/>
        <path id="Path_282" data-name="Path 282" d="M369,251.549l2.51,2.411a2.953,2.953,0,0,0,.984.689.905.905,0,0,0,1.24-1.181,2.952,2.952,0,0,0-.581-.9l-2.441-2.953" transform="translate(-275.264 -227.502)" fill="#b78876"/>
        <path id="Path_283" data-name="Path 283" d="M370.723,249.65a7.862,7.862,0,0,1,1.24,1.211l1.24,1.407a4.617,4.617,0,0,1,.689.984,1.329,1.329,0,0,1-.069,1.4,1.23,1.23,0,0,1-1.378.315,2.776,2.776,0,0,1-.984-.689l-1.319-1.339a5.906,5.906,0,0,1-1.122-1.329,5.9,5.9,0,0,1,1.368,1.063l1.388,1.26a2.44,2.44,0,0,0,.817.561.748.748,0,0,0,.807-.157.846.846,0,0,0,0-.856,4.619,4.619,0,0,0-.6-.846l-1.152-1.476a5.905,5.905,0,0,1-.925-1.506Z" transform="translate(-275.265 -227.502)" fill="#aa6550"/>
        <path id="Path_284" data-name="Path 284" d="M370.85,249.769l2.51,2.411a2.953,2.953,0,0,0,.984.689.905.905,0,0,0,1.24-1.181,2.952,2.952,0,0,0-.581-.9l-2.441-2.953" transform="translate(-275.294 -227.473)" fill="#b78876"/>
        <path id="Path_285" data-name="Path 285" d="M372.533,247.86a7.865,7.865,0,0,1,1.24,1.211l1.24,1.407a4.616,4.616,0,0,1,.689.984,1.328,1.328,0,0,1-.069,1.4,1.23,1.23,0,0,1-1.378.315,2.766,2.766,0,0,1-.984-.689l-1.289-1.388a5.9,5.9,0,0,1-1.122-1.329,5.906,5.906,0,0,1,1.368,1.063l1.388,1.26a2.441,2.441,0,0,0,.817.561.748.748,0,0,0,.807-.157.846.846,0,0,0,0-.856,4.627,4.627,0,0,0-.6-.846l-1.152-1.476a5.905,5.905,0,0,1-.955-1.457Z" transform="translate(-275.294 -227.474)" fill="#aa6550"/>
        <path id="Path_286" data-name="Path 286" d="M372.84,248.309l2.51,2.411a2.952,2.952,0,0,0,.984.689.906.906,0,0,0,1.24-1.181,2.952,2.952,0,0,0-.581-.9l-2.441-2.953" transform="translate(-275.325 -227.45)" fill="#b78876"/>
        <path id="Path_287" data-name="Path 287" d="M374.523,246.4a7.865,7.865,0,0,1,1.24,1.211l1.24,1.407a4.619,4.619,0,0,1,.689.984,1.328,1.328,0,0,1-.069,1.4,1.23,1.23,0,0,1-1.378.315,2.766,2.766,0,0,1-.984-.689l-1.279-1.388a5.905,5.905,0,0,1-1.122-1.329,5.9,5.9,0,0,1,1.368,1.063l1.388,1.26a2.441,2.441,0,0,0,.817.561.748.748,0,0,0,.807-.157.847.847,0,0,0,0-.856,4.628,4.628,0,0,0-.6-.846l-1.152-1.476A5.9,5.9,0,0,1,374.523,246.4Z" transform="translate(-275.325 -227.451)" fill="#aa6550"/>
        <path id="Path_288" data-name="Path 288" d="M376.87,252.514c0-.079.62-.207,1.525.069l-.285.246a4.29,4.29,0,0,1-.069-1.722,4.39,4.39,0,0,1,.984-2.1c.384-.453.709-.63.758-.581a8.986,8.986,0,0,0-1.191,2.766,5.136,5.136,0,0,0,0,1.555l.049.394L378.3,253C377.461,252.652,376.86,252.613,376.87,252.514Z" transform="translate(-275.389 -227.483)" fill="#aa6550"/>
        <path id="Path_289" data-name="Path 289" d="M446.606,237.805l.118,37.754-14.763.7-.6-9.055s-7.106,1.083-8.582-4.262c-.984-3.415-.709-29.792-.709-29.792Z" transform="translate(-276.102 -227.241)" fill="#b78876"/>
        <path id="Path_290" data-name="Path 290" d="M418.41,236.785c1.092,2.254,6.289,6.387,6.289,6.387l2.342,6.289c2.037-1.594,4.773-1.506,5.295,2.077.374,2.588-2.844,3.11-2.844,3.11,1.87,3.189,3.149,5.767,5.905,8.8,2.953,3.287,4.606,3.612,7.815,3.671h3.533s7.224-6.043,5.8-21.938-15.757-11.289-19.172-15.226C427.839,223.469,414.768,229.256,418.41,236.785Z" transform="translate(-276.035 -227.147)" fill="#263238"/>
        <path id="Path_291" data-name="Path 291" d="M451.718,258.594a5.078,5.078,0,0,1-1.752-.079,9.084,9.084,0,0,1-4.222-2.175,22.922,22.922,0,0,1-4.262-5.639c-1.378-2.244-2.874-4.872-5.413-6.614s-5.571-2.067-8.159-2.588a15.393,15.393,0,0,1-6.584-2.51,7.077,7.077,0,0,1-2.638-3.937,4.055,4.055,0,0,1-.069-1.742,5.977,5.977,0,0,0,.148,1.732,7.086,7.086,0,0,0,2.648,3.809,15.413,15.413,0,0,0,6.535,2.441c2.579.522,5.62.856,8.238,2.608s4.084,4.439,5.453,6.693a23.159,23.159,0,0,0,4.2,5.63,9.173,9.173,0,0,0,4.143,2.2,7.217,7.217,0,0,0,1.279.148Z" transform="translate(-276.047 -227.244)" fill="#455a64"/>
        <path id="Path_292" data-name="Path 292" d="M452.557,245.608l-.758-.226a11.466,11.466,0,0,0-2.214-.492,4.97,4.97,0,0,0-3.405.768A2.8,2.8,0,0,0,445,247.449a2.49,2.49,0,0,0,.689,2.254,1.9,1.9,0,0,0,1.191.472,2.51,2.51,0,0,0,1.309-.354,4.025,4.025,0,0,0,1.781-2.274,5.639,5.639,0,0,0-4.754-7.391,9.842,9.842,0,0,0-3.661.482,25.813,25.813,0,0,1-3.789.905,15.4,15.4,0,0,1-4.015,0,13.277,13.277,0,0,1-3.878-1.073,4.685,4.685,0,0,1-2.648-2.8,3.651,3.651,0,0,1,.9-3.563,3.149,3.149,0,0,1,3.455-.512,2.638,2.638,0,0,1,1.279,1.211,2.894,2.894,0,0,1,.276,1.693,3.848,3.848,0,0,1-1.722,2.7,5.532,5.532,0,0,1-2.953.807,8.582,8.582,0,0,1-2.756-.423,9.842,9.842,0,0,1-4.055-2.5,10.384,10.384,0,0,1-2.067-2.953,10.5,10.5,0,0,1-.728-2.165c-.089-.512-.128-.787-.128-.787s.059.266.167.778a11.077,11.077,0,0,0,.768,2.136,10.413,10.413,0,0,0,2.077,2.953,9.843,9.843,0,0,0,4.016,2.441,8.455,8.455,0,0,0,2.716.4,5.374,5.374,0,0,0,2.815-.8,3.681,3.681,0,0,0,1.634-2.579,2.529,2.529,0,0,0-1.457-2.707,2.953,2.953,0,0,0-3.248.482,3.455,3.455,0,0,0-.846,3.366,4.488,4.488,0,0,0,2.549,2.667,13.1,13.1,0,0,0,3.848,1.014,15.225,15.225,0,0,0,3.937,0,25.739,25.739,0,0,0,3.76-.905,10.048,10.048,0,0,1,3.73-.482,5.817,5.817,0,0,1,4.921,7.637,4.183,4.183,0,0,1-1.86,2.352,2.658,2.658,0,0,1-1.4.374,2.047,2.047,0,0,1-1.279-.512,2.628,2.628,0,0,1-.718-2.382,2.953,2.953,0,0,1,1.25-1.86,5.039,5.039,0,0,1,3.484-.748,10.824,10.824,0,0,1,2.224.531C452.3,245.5,452.557,245.608,452.557,245.608Z" transform="translate(-276.05 -227.21)" fill="#455a64"/>
        <path id="Path_293" data-name="Path 293" d="M433.988,443.375l-4.813-6.171,11.505-9.084,7.135,8.956-.679.61c-3.031,2.687-15.629,13.434-18.257,14.468C425.957,453.306,433.988,443.375,433.988,443.375Z" transform="translate(-276.2 -230.321)" fill="#e8505b"/>
        <g id="Group_30" data-name="Group 30" transform="translate(152.049 206.519)" opacity="0.4">
          <path id="Path_294" data-name="Path 294" d="M430.2,448.535s-2.648,3.691-1.772,3.937,14.005-10.157,19.4-15.245l-.226-.246-15.216,12.244S430.888,448.033,430.2,448.535Z" transform="translate(-428.25 -436.98)" fill="#fff"/>
        </g>
        <path id="Path_295" data-name="Path 295" d="M447.777,436.82,447.6,437l-.541.482-2.018,1.742c-1.712,1.457-4.114,3.445-6.811,5.58s-5.177,4.016-6.988,5.344l-2.165,1.614-.591.413-.217.138.2-.167.571-.443,2.126-1.614c1.791-1.358,4.262-3.258,6.958-5.384s5.1-4.1,6.84-5.541l2.057-1.7.561-.463Z" transform="translate(-276.201 -230.458)" fill="#263238"/>
        <path id="Path_296" data-name="Path 296" d="M432.559,449.574a3.878,3.878,0,0,0-2.529-.925,2.372,2.372,0,0,1,2.529.925Z" transform="translate(-276.228 -230.644)" fill="#263238"/>
        <ellipse id="Ellipse_136" data-name="Ellipse 136" cx="0.089" cy="0.718" rx="0.089" ry="0.718" transform="translate(156.962 214.115) rotate(-70.74)" fill="#263238"/>
        <ellipse id="Ellipse_137" data-name="Ellipse 137" cx="0.089" cy="0.61" rx="0.089" ry="0.61" transform="translate(157.669 213.295) rotate(-86.4)" fill="#263238"/>
        <ellipse id="Ellipse_138" data-name="Ellipse 138" cx="0.768" cy="0.089" rx="0.768" ry="0.089" transform="translate(157.395 212.604) rotate(-38.98)" fill="#263238"/>
        <path id="Path_297" data-name="Path 297" d="M434.509,441.35a2.156,2.156,0,0,1-1.279,1.181s.3-.266.64-.581S434.47,441.32,434.509,441.35Z" transform="translate(-276.279 -230.53)" fill="#263238"/>
        <path id="Path_298" data-name="Path 298" d="M433.416,444.406a2.715,2.715,0,0,1-.738.581,5.5,5.5,0,0,1-.925.453,2.752,2.752,0,0,1-.6.167.512.512,0,0,1-.364-.089.374.374,0,0,1-.118-.384,1.732,1.732,0,0,1,1.968-.925,1.694,1.694,0,0,1,.63.305c.128.1.187.177.177.187a2.658,2.658,0,0,0-.837-.364,1.7,1.7,0,0,0-.984.089,1.457,1.457,0,0,0-.837.758.235.235,0,0,0,.3.256,2.818,2.818,0,0,0,.551-.148,6.487,6.487,0,0,0,.915-.4C433.12,444.6,433.406,444.377,433.416,444.406Z" transform="translate(-276.238 -230.574)" fill="#263238"/>
        <path id="Path_299" data-name="Path 299" d="M433.288,444.567a1.062,1.062,0,0,1-.492-.443,1.545,1.545,0,0,1-.226-.7.984.984,0,0,1,.315-.866.374.374,0,0,1,.5.157.984.984,0,0,1,.138.433,2.855,2.855,0,0,1,0,.719,1.358,1.358,0,0,1-.187.63,4.783,4.783,0,0,1,.059-.64,3.284,3.284,0,0,0,0-.689c0-.236-.177-.571-.384-.463a.847.847,0,0,0-.236.7,1.554,1.554,0,0,0,.167.65A3.423,3.423,0,0,0,433.288,444.567Z" transform="translate(-276.268 -230.548)" fill="#263238"/>
        <path id="Path_300" data-name="Path 300" d="M445.282,433.81a5.525,5.525,0,0,0-.827.7,4.6,4.6,0,0,0-1.112,4.783,10.555,10.555,0,0,0,.433.984c-.03,0-.079-.069-.187-.236a3.857,3.857,0,0,1-.364-.718,4.458,4.458,0,0,1,1.142-4.921,3.848,3.848,0,0,1,.65-.482.846.846,0,0,1,.266-.108Z" transform="translate(-276.432 -230.411)" fill="#263238"/>
        <ellipse id="Ellipse_139" data-name="Ellipse 139" cx="0.089" cy="3.012" rx="0.089" ry="3.012" transform="translate(163.809 199.618) rotate(-39.06)" fill="#263238"/>
        <path id="Path_301" data-name="Path 301" d="M441.4,440.5a12.036,12.036,0,0,1-3.336,2.687s.758-.59,1.673-1.338S441.367,440.461,441.4,440.5Z" transform="translate(-276.355 -230.516)" fill="#263238"/>
        <path id="Path_302" data-name="Path 302" d="M443.739,438.68c.049,0,.069.207.128.443s.138.423.1.443-.207-.138-.266-.4S443.7,438.67,443.739,438.68Z" transform="translate(-276.444 -230.488)" fill="#263238"/>
        <ellipse id="Ellipse_140" data-name="Ellipse 140" cx="0.394" cy="0.089" rx="0.394" ry="0.089" transform="translate(167.127 207.229) rotate(-83.73)" fill="#263238"/>
        <path id="Path_303" data-name="Path 303" d="M444.592,435.46s-.128.167-.256.354-.177.384-.226.374-.079-.236.079-.472S444.582,435.411,444.592,435.46Z" transform="translate(-276.45 -230.437)" fill="#263238"/>
        <ellipse id="Ellipse_141" data-name="Ellipse 141" cx="0.236" cy="0.089" rx="0.236" ry="0.089" transform="translate(168.501 204.42) rotate(-59.53)" fill="#263238"/>
        <g id="Group_31" data-name="Group 31" transform="translate(155.869 202.297)" opacity="0.3">
          <path id="Path_304" data-name="Path 304" d="M408.646,386.107,397,394.994l-1.083-1.4,12.234-8.3Z" transform="translate(-395.92 -385.3)"/>
        </g>
        <path id="Path_305" data-name="Path 305" d="M380.161,449.793v-7.874l14.665-.049.089,11.456-.906.059c-4.045.236-20.59.935-23.3.118C367.711,452.647,380.161,449.793,380.161,449.793Z" transform="translate(-275.284 -230.538)" fill="#e8505b"/>
        <g id="Group_32" data-name="Group 32" transform="translate(94.929 220.869)" opacity="0.4">
          <path id="Path_306" data-name="Path 306" d="M374.078,451.56s-4.36,1.279-3.819,1.968,17.292.65,24.674,0V453.2l-19.527.246S374.924,451.59,374.078,451.56Z" transform="translate(-370.213 -451.56)" fill="#fff"/>
        </g>
        <path id="Path_307" data-name="Path 307" d="M395.14,453.209h-.984l-2.667.128c-2.254.089-5.364.177-8.8.2s-6.555,0-8.8-.108l-2.667-.1h2.667c2.254,0,5.364.069,8.8.049s6.545-.079,8.8-.138l2.667-.069h.984Z" transform="translate(-275.284 -230.717)" fill="#263238"/>
        <path id="Path_308" data-name="Path 308" d="M375.447,453.663a3.868,3.868,0,0,0-1.417-2.283,2.372,2.372,0,0,1,1.417,2.283Z" transform="translate(-275.344 -230.688)" fill="#263238"/>
        <ellipse id="Ellipse_142" data-name="Ellipse 142" cx="0.089" cy="0.718" rx="0.089" ry="0.718" transform="matrix(0.842, -0.539, 0.539, 0.842, 103.544, 219.632)" fill="#263238"/>
        <ellipse id="Ellipse_143" data-name="Ellipse 143" cx="0.089" cy="0.61" rx="0.089" ry="0.61" transform="translate(104.617 219.396) rotate(-48.31)" fill="#263238"/>
        <ellipse id="Ellipse_144" data-name="Ellipse 144" cx="0.768" cy="0.089" rx="0.768" ry="0.089" transform="matrix(1, -0.016, 0.016, 1, 104.82, 218.655)" fill="#263238"/>
        <path id="Path_309" data-name="Path 309" d="M382.042,448.41a2.156,2.156,0,0,1-1.732.138Q381.177,448.49,382.042,448.41Z" transform="translate(-275.443 -230.641)" fill="#263238"/>
        <path id="Path_310" data-name="Path 310" d="M379.3,450.139a2.715,2.715,0,0,1-.984,0,5.518,5.518,0,0,1-.984-.217,2.748,2.748,0,0,1-.571-.236.512.512,0,0,1-.236-.3.374.374,0,0,1,.138-.374,1.732,1.732,0,0,1,2.136.492,1.681,1.681,0,0,1,.315.63.521.521,0,0,1,0,.256,2.658,2.658,0,0,0-.433-.8,1.7,1.7,0,0,0-.807-.522,1.467,1.467,0,0,0-1.122.079c-.148.108-.089.285.079.384a2.813,2.813,0,0,0,.531.226,6.493,6.493,0,0,0,.984.246C378.961,450.11,379.3,450.11,379.3,450.139Z" transform="translate(-275.383 -230.648)" fill="#263238"/>
        <path id="Path_311" data-name="Path 311" d="M379.088,450.171a.925.925,0,0,1-.108-.65,1.545,1.545,0,0,1,.256-.689.984.984,0,0,1,.787-.482.374.374,0,0,1,.3.433.984.984,0,0,1-.157.423,2.851,2.851,0,0,1-.443.571,1.358,1.358,0,0,1-.541.384,5.021,5.021,0,0,0,.443-.472,3.289,3.289,0,0,0,.394-.571c.128-.2.217-.561,0-.6s-.472.217-.62.4a1.544,1.544,0,0,0-.266.61,3.443,3.443,0,0,0-.039.64Z" transform="translate(-275.422 -230.641)" fill="#263238"/>
        <path id="Path_312" data-name="Path 312" d="M395.127,449.128h-1.083a4.6,4.6,0,0,0-3.829,3.081c-.216.63-.236,1.053-.276,1.043a.857.857,0,0,1,0-.3,3.866,3.866,0,0,1,.157-.787,4.458,4.458,0,0,1,3.937-3.159,3.85,3.85,0,0,1,.807,0,.846.846,0,0,1,.285.118Z" transform="translate(-275.595 -230.651)" fill="#263238"/>
        <ellipse id="Ellipse_145" data-name="Ellipse 145" cx="0.089" cy="3.012" rx="0.089" ry="3.012" transform="matrix(1, -0.017, 0.017, 1, 117.902, 212.389)" fill="#263238"/>
        <path id="Path_313" data-name="Path 313" d="M387.931,452a12.038,12.038,0,0,1-4.281.059c0-.049.984,0,2.146,0S387.931,452,387.931,452Z" transform="translate(-275.496 -230.698)" fill="#263238"/>
        <path id="Path_314" data-name="Path 314" d="M390.993,452s-.079.207-.177.423-.148.413-.2.413-.079-.236,0-.482A.517.517,0,0,1,390.993,452Z" transform="translate(-275.605 -230.698)" fill="#263238"/>
        <ellipse id="Ellipse_146" data-name="Ellipse 146" cx="0.394" cy="0.089" rx="0.394" ry="0.089" transform="translate(115.816 220.458) rotate(-45.63)" fill="#263238"/>
        <path id="Path_315" data-name="Path 315" d="M393.617,450c0,.049-.207,0-.423.128s-.374.2-.4.157.079-.236.354-.325S393.636,449.94,393.617,450Z" transform="translate(-275.64 -230.665)" fill="#263238"/>
        <ellipse id="Ellipse_147" data-name="Ellipse 147" cx="0.236" cy="0.089" rx="0.236" ry="0.089" transform="translate(118.603 219.104) rotate(-21.44)" fill="#263238"/>
        <g id="Group_33" data-name="Group 33" transform="translate(104.857 216.036)" opacity="0.3">
          <path id="Path_316" data-name="Path 316" d="M358.873,401.11l-14.783.01.02-1.762,14.714-.1Z" transform="translate(-344.09 -399.26)"/>
        </g>
        <path id="Path_317" data-name="Path 317" d="M416.3,312.536l-5.905,17.716c-1.585,4.773-5.758,5.59-10.826,5.59H367V328.51l29.841-4.262,7.116-18.168Z" transform="translate(-275.233 -228.393)" fill="#b78876"/>
        <path id="Path_318" data-name="Path 318" d="M363.068,327.186l-2.588-1.27s-2.8-5.4-3.435-5.187-.827,1.8.3,4.281l-3.445-.984s-7.46,3.445-7.135,3.937a1.722,1.722,0,0,0,2.569.738c1.624-.827,3.76-1.811,3.76-1.811l4.025,1.152-5.187.659-4.921,4.439a2.392,2.392,0,0,0,2.953-.069l12.667,2.726,3.937.226v-7.332Z" transform="translate(-274.913 -228.625)" fill="#b78876"/>
        <path id="Path_319" data-name="Path 319" d="M350.07,333.249c.049,0,.285-.335.748-.837a3.848,3.848,0,0,1,.925-.709,3.778,3.778,0,0,1,1.368-.354,18.932,18.932,0,0,0,3.8-.65,18.852,18.852,0,0,0-3.848.256,3.729,3.729,0,0,0-1.506.433,3.544,3.544,0,0,0-.984.846A2.263,2.263,0,0,0,350.07,333.249Z" transform="translate(-274.965 -228.782)" fill="#aa6550"/>
        <path id="Path_320" data-name="Path 320" d="M352.089,333.794a.566.566,0,0,1,.443-.335c.354-.069.984-.138,1.535-.2a12.544,12.544,0,0,0,2.224-.226,4.468,4.468,0,0,0-2.264-.167,6.771,6.771,0,0,0-1.594.325.64.64,0,0,0-.384.394C352,333.725,352.06,333.794,352.089,333.794Z" transform="translate(-274.996 -228.815)" fill="#aa6550"/>
        <path id="Path_321" data-name="Path 321" d="M419.6,308.144l-2.51,8.513L401.15,309.4c.571-1.781,3.208-9.714,8.257-22.312a21.653,21.653,0,0,1,16.525-13.316,94.491,94.491,0,0,1,15.265-1.5c8.937.1,22.1,5.689,23.867,14.448,1.348,6.693,0,18.5,0,32.853l-1.073,27.45-45.815,1.555Z" transform="translate(-275.772 -227.859)" fill="#e8505b"/>
        <g id="Group_34" data-name="Group 34" transform="translate(155.327 84.894)" opacity="0.3">
          <path id="Path_322" data-name="Path 322" d="M465.545,313.912c-5.571,1.142-11.3,0-16.978-.344-3.445-.207-7.263-.581-9.99,1.535-2.155,1.683-3.031,4.5-3.651,7.165-2.372,10.157-2.805,16.958-3.346,27.371l27.558,1.673Z" transform="translate(-431.58 -313.403)"/>
        </g>
        <path id="Path_323" data-name="Path 323" d="M418.71,278.49a6.036,6.036,0,0,1,3.858,2.5,8.857,8.857,0,0,1,1.575,4.773,30.026,30.026,0,0,1-.482,6.279,105.234,105.234,0,0,1-2.559,11.23l-.925,3.376a7.983,7.983,0,0,0-.3,1.25,7.933,7.933,0,0,0,.443-1.211c.256-.787.62-1.968,1.043-3.336a87.325,87.325,0,0,0,2.677-11.249,28.973,28.973,0,0,0,.453-6.368,9,9,0,0,0-1.712-4.921,6.24,6.24,0,0,0-2.8-2.116,4.578,4.578,0,0,0-.984-.217,1.055,1.055,0,0,0-.285.01Z" transform="translate(-276.05 -227.957)" fill="#263238"/>
        <path id="Path_324" data-name="Path 324" d="M401.66,307.83a15.41,15.41,0,0,0,2.244,1.289c1.417.738,3.4,1.722,5.62,2.726s4.271,1.84,5.758,2.411a15.435,15.435,0,0,0,2.451.827,18.214,18.214,0,0,0-2.342-1.092c-1.466-.64-3.484-1.516-5.708-2.51s-4.212-1.968-5.659-2.608A18.251,18.251,0,0,0,401.66,307.83Z" transform="translate(-275.78 -228.421)" fill="#263238"/>
        <path id="Path_325" data-name="Path 325" d="M394.1,351.92a16.328,16.328,0,0,0-6.663,21.869l39.89,68.461,18.395-11.112-30.963-61.808,22.41-14.655" transform="translate(-275.526 -229.117)" fill="#263238"/>
        <path id="Path_326" data-name="Path 326" d="M442.439,348.47l-54.732,1.968a16.328,16.328,0,0,0-15.747,16.574l2.273,78.175,23.021-.049-.768-73.914,45.962-1.211Z" transform="translate(-275.311 -229.063)" fill="#263238"/>
        <path id="Path_327" data-name="Path 327" d="M396.87,374.27a3.867,3.867,0,0,1,.069.719l.089,2.077c.069,1.8.138,4.409.207,7.637.138,6.447.226,15.354.276,25.186l.128,25.186v9.714a3.845,3.845,0,0,1,0,.728,3.851,3.851,0,0,1-.069-.718l-.089-2.077c-.069-1.8-.138-4.409-.207-7.637-.138-6.447-.226-15.354-.276-25.2L396.87,384.7v-9.714A3.849,3.849,0,0,1,396.87,374.27Z" transform="translate(-275.704 -229.47)" fill="#455a64"/>
        <path id="Path_328" data-name="Path 328" d="M466.536,298.07H449.972a12.066,12.066,0,0,0-12.066,12.066V367.88h-33.04a8.356,8.356,0,0,0-8.356,8.356h75.538a6.889,6.889,0,0,0,6.6-6.889v-59.21a12.066,12.066,0,0,0-12.116-12.066Z" transform="translate(-275.699 -228.267)" fill="#455a64"/>
        <ellipse id="Ellipse_148" data-name="Ellipse 148" cx="0.256" cy="37.921" rx="0.256" ry="37.921" transform="translate(166.764 71.703)" fill="#263238"/>
        <path id="Path_329" data-name="Path 329" d="M440.916,438.167V377.56h-5.384v60.607c-3.287,6.476-11.013,10.826-20.422,14.448h48C453.386,448.659,444.528,445.618,440.916,438.167Z" transform="translate(-275.993 -229.522)" fill="#455a64"/>
      </g>
      <g id="Plant" transform="translate(70.77 233.972)">
        <path id="Path_330" data-name="Path 330" d="M133.04,428.853a2.194,2.194,0,0,1,.148-.364l.482-.984a25.824,25.824,0,0,0,1.417-4.114,36.327,36.327,0,0,0-.118-15.895,85.3,85.3,0,0,0-2.953-10.679c-1.25-3.789-2.7-7.815-3.878-12.155a47.045,47.045,0,0,1-1.919-13.976c.177-4.921,1.644-9.842,3.258-14.763s3.268-9.734,3.77-14.566a22.2,22.2,0,0,0-2.667-13.454c-2.126-3.937-4.813-7.283-6.821-10.757a37.4,37.4,0,0,1-4.094-10.344,38.521,38.521,0,0,1-.256-16.023,29.851,29.851,0,0,1,1.673-5.659,2.213,2.213,0,0,1-.1.374l-.335,1.083a41.339,41.339,0,0,0-1.043,4.232,39.024,39.024,0,0,0,.374,15.846,37.272,37.272,0,0,0,4.114,10.216c1.968,3.435,4.695,6.781,6.889,10.748a22.637,22.637,0,0,1,2.756,13.73c-.5,4.921-2.175,9.763-3.779,14.674s-3.09,9.783-3.238,14.606a46.8,46.8,0,0,0,1.87,13.838c1.161,4.321,2.6,8.346,3.829,12.145a84.273,84.273,0,0,1,2.9,10.738,35.923,35.923,0,0,1,0,16.013,23.78,23.78,0,0,1-1.565,4.153l-.531.984a2.175,2.175,0,0,1-.187.354Z" transform="translate(-108.286 -285.12)" fill="#263238"/>
        <path id="Path_331" data-name="Path 331" d="M126.592,320.736s-4.075-13.031,3.238-20.668a.453.453,0,0,1,.778.226C130.981,302.459,131.473,309.014,126.592,320.736Z" transform="translate(-108.393 -285.354)" fill="#e8505b"/>
        <path id="Path_332" data-name="Path 332" d="M129.048,304.5a11.985,11.985,0,0,1-.276,2.4l-.925,5.748-.915,5.748a13.109,13.109,0,0,1-.433,2.382,10.088,10.088,0,0,1,.069-2.421c.138-1.486.394-3.533.768-5.787s.758-4.271,1.083-5.728a10.826,10.826,0,0,1,.63-2.342Z" transform="translate(-108.409 -285.426)" fill="#263238"/>
        <path id="Path_333" data-name="Path 333" d="M131.47,352.021s2.49-13.415,12.519-16.731a.453.453,0,0,1,.581.561C143.9,337.957,141.273,343.941,131.47,352.021Z" transform="translate(-108.488 -285.912)" fill="#e8505b"/>
        <path id="Path_334" data-name="Path 334" d="M141.252,338.8a11.979,11.979,0,0,1-1.368,1.968l-3.5,4.645-3.494,4.655a13.11,13.11,0,0,1-1.5,1.9,10.079,10.079,0,0,1,1.2-2.106c.817-1.25,1.968-2.953,3.386-4.754s2.667-3.425,3.632-4.557a10.828,10.828,0,0,1,1.644-1.752Z" transform="translate(-108.487 -285.968)" fill="#263238"/>
        <path id="Path_335" data-name="Path 335" d="M128.708,386.173s-1.516-13.562,7.116-19.684a.453.453,0,0,1,.718.364C136.513,369.077,135.745,375.6,128.708,386.173Z" transform="translate(-108.443 -286.404)" fill="#e8505b"/>
        <path id="Path_336" data-name="Path 336" d="M134.221,370.7a11.978,11.978,0,0,1-.728,2.3l-1.968,5.462-1.968,5.462a13.1,13.1,0,0,1-.876,2.254,10.089,10.089,0,0,1,.531-2.362c.413-1.437,1.063-3.4,1.86-5.531s1.565-4.045,2.155-5.423a10.829,10.829,0,0,1,.994-2.165Z" transform="translate(-108.444 -286.472)" fill="#263238"/>
        <path id="Path_337" data-name="Path 337" d="M136.389,420.588s-.984-13.612,7.815-19.389a.453.453,0,0,1,.709.394C144.8,403.777,143.791,410.263,136.389,420.588Z" transform="translate(-108.566 -286.952)" fill="#e8505b"/>
        <path id="Path_338" data-name="Path 338" d="M142.451,405.31a11.986,11.986,0,0,1-.807,2.283l-2.2,5.384-2.185,5.393a13.072,13.072,0,0,1-.984,2.215,10.1,10.1,0,0,1,.62-2.342c.463-1.417,1.181-3.356,2.057-5.462s1.7-3.986,2.342-5.334a10.827,10.827,0,0,1,1.161-2.136Z" transform="translate(-108.564 -287.018)" fill="#263238"/>
        <path id="Path_339" data-name="Path 339" d="M120.462,309.172s-12.1-6.348-12.342-16.879a.453.453,0,0,1,.709-.394C110.63,293.139,115.61,297.43,120.462,309.172Z" transform="translate(-108.12 -285.226)" fill="#e8505b"/>
        <path id="Path_340" data-name="Path 340" d="M110.68,296a11.988,11.988,0,0,1,1.506,1.89L115.6,302.6l3.425,4.7a13.08,13.08,0,0,1,1.378,1.968,10.086,10.086,0,0,1-1.663-1.762c-.984-1.152-2.224-2.775-3.553-4.626s-2.49-3.553-3.3-4.813A10.825,10.825,0,0,1,110.68,296Z" transform="translate(-108.16 -285.292)" fill="#263238"/>
        <path id="Path_341" data-name="Path 341" d="M133.646,337.6s-12.46-5.571-13.336-16.1a.453.453,0,0,1,.679-.433C122.859,322.211,128.085,326.177,133.646,337.6Z" transform="translate(-108.312 -285.687)" fill="#e8505b"/>
        <path id="Path_342" data-name="Path 342" d="M123.08,325a11.978,11.978,0,0,1,1.624,1.8l3.691,4.5,3.7,4.488a13.082,13.082,0,0,1,1.5,1.9,10.088,10.088,0,0,1-1.762-1.653c-.984-1.083-2.392-2.638-3.829-4.4s-2.7-3.4-3.583-4.606A10.825,10.825,0,0,1,123.08,325Z" transform="translate(-108.356 -285.75)" fill="#263238"/>
        <path id="Path_343" data-name="Path 343" d="M126.48,369.248s-8.553-10.639-4.547-20.4a.453.453,0,0,1,.807-.079C123.891,350.627,126.746,356.542,126.48,369.248Z" transform="translate(-108.321 -286.122)" fill="#e8505b"/>
        <path id="Path_344" data-name="Path 344" d="M122.82,353.24a11.968,11.968,0,0,1,.62,2.333l1.24,5.689,1.25,5.679a13.07,13.07,0,0,1,.472,2.372,10.089,10.089,0,0,1-.817-2.283c-.423-1.437-.925-3.435-1.4-5.659s-.856-4.252-1.092-5.728a10.828,10.828,0,0,1-.276-2.4Z" transform="translate(-108.352 -286.196)" fill="#263238"/>
        <path id="Path_345" data-name="Path 345" d="M134.97,406.62s-12.362-5.8-13.06-16.328a.453.453,0,0,1,.689-.423C124.449,391.04,129.616,395.1,134.97,406.62Z" transform="translate(-108.337 -286.773)" fill="#e8505b"/>
        <path id="Path_346" data-name="Path 346" d="M124.62,393.87a11.988,11.988,0,0,1,1.585,1.821l3.612,4.557,3.622,4.547a13.109,13.109,0,0,1,1.466,1.968,10.079,10.079,0,0,1-1.742-1.683c-.984-1.1-2.342-2.677-3.75-4.468s-2.638-3.445-3.5-4.665a10.826,10.826,0,0,1-1.289-2.077Z" transform="translate(-108.38 -286.838)" fill="#263238"/>
        <path id="Path_347" data-name="Path 347" d="M159.822,352.36a.983.983,0,0,1,0,.305v.876l-.148,3.307-.65,11.81h0c-.886,4.921-3.4,10.413-6.771,15.747-2.48,3.937-5.078,7.47-7.313,10.826a76.442,76.442,0,0,0-5.482,9.065,38.454,38.454,0,0,0-2.569,6.653c-.217.817-.384,1.447-.472,1.89a3.425,3.425,0,0,1-.177.659,3.407,3.407,0,0,1,.079-.679c.059-.443.2-1.092.384-1.919a35.115,35.115,0,0,1,2.431-6.761,72.341,72.341,0,0,1,5.423-9.173c2.224-3.336,4.813-6.889,7.273-10.826,3.356-5.285,5.905-10.679,6.781-15.541h0l.827-11.81.266-3.3.089-.866a.984.984,0,0,1,.03-.266Z" transform="translate(-108.564 -286.182)" fill="#263238"/>
        <path id="Path_348" data-name="Path 348" d="M152.676,383.562s5.236-12.608-1.348-20.865a.453.453,0,0,0-.787.157C150,364.961,148.877,371.447,152.676,383.562Z" transform="translate(-108.78 -286.343)" fill="#e8505b"/>
        <path id="Path_349" data-name="Path 349" d="M151.759,367.17a10.824,10.824,0,0,1,.413,2.382c.187,1.476.394,3.533.551,5.807s.236,4.331.236,5.827a10.068,10.068,0,0,1-.148,2.421,13.105,13.105,0,0,1-.217-2.411l-.384-5.807-.4-5.807A11.993,11.993,0,0,1,151.759,367.17Z" transform="translate(-108.808 -286.416)" fill="#263238"/>
        <g id="Group_35" data-name="Group 35" transform="translate(41.177 76.186)" opacity="0.3">
          <path id="Path_350" data-name="Path 350" d="M152.676,383.562s5.236-12.608-1.348-20.865a.453.453,0,0,0-.787.157C150,364.961,148.877,371.447,152.676,383.562Z" transform="translate(-149.957 -362.528)"/>
        </g>
        <path id="Path_351" data-name="Path 351" d="M136.185,414.426s4.193-12.992-3.041-20.668a.453.453,0,0,0-.778.217C132,396.11,131.4,402.655,136.185,414.426Z" transform="translate(-108.499 -286.834)" fill="#e8505b"/>
        <path id="Path_352" data-name="Path 352" d="M133.92,398.17a10.827,10.827,0,0,1,.61,2.342c.305,1.457.679,3.484.984,5.738s.591,4.3.709,5.787a10.089,10.089,0,0,1,.049,2.421,13.111,13.111,0,0,1-.413-2.382L135,406.319l-.876-5.758a11.969,11.969,0,0,1-.207-2.392Z" transform="translate(-108.527 -286.906)" fill="#263238"/>
        <g id="Group_36" data-name="Group 36" transform="translate(23.628 106.777)" opacity="0.3">
          <path id="Path_353" data-name="Path 353" d="M136.185,414.426s4.193-12.992-3.041-20.668a.453.453,0,0,0-.778.217C132,396.11,131.4,402.655,136.185,414.426Z" transform="translate(-132.126 -393.611)"/>
        </g>
        <path id="Path_354" data-name="Path 354" d="M159.5,367.949s11.181-7.874,10.049-18.326a.453.453,0,0,0-.748-.3C167.177,350.795,162.8,355.686,159.5,367.949Z" transform="translate(-108.931 -286.132)" fill="#e8505b"/>
        <g id="Group_37" data-name="Group 37" transform="translate(50.569 63.084)" opacity="0.3">
          <path id="Path_355" data-name="Path 355" d="M159.5,367.949s11.181-7.874,10.049-18.326a.453.453,0,0,0-.748-.3C167.177,350.795,162.8,355.686,159.5,367.949Z" transform="translate(-159.5 -349.217)"/>
        </g>
        <path id="Path_356" data-name="Path 356" d="M167.533,353.61a10.826,10.826,0,0,1-.925,2.234c-.64,1.348-1.565,3.189-2.648,5.2s-2.126,3.789-2.953,5.049a10.087,10.087,0,0,1-1.417,1.968,13.088,13.088,0,0,1,1.112-2.146l2.785-5.108,2.775-5.118a12,12,0,0,1,1.27-2.077Z" transform="translate(-108.933 -286.202)" fill="#263238"/>
        <path id="Path_357" data-name="Path 357" d="M140.83,401.477s13.484-2.106,17.1-12.027a.453.453,0,0,0-.541-.6C155.278,389.46,149.186,391.95,140.83,401.477Z" transform="translate(-108.636 -286.758)" fill="#e8505b"/>
        <g id="Group_38" data-name="Group 38" transform="translate(32.194 102.076)" opacity="0.3">
          <path id="Path_358" data-name="Path 358" d="M140.83,401.477s13.484-2.106,17.1-12.027a.453.453,0,0,0-.541-.6C155.278,389.46,149.186,391.95,140.83,401.477Z" transform="translate(-140.83 -388.834)"/>
        </g>
        <path id="Path_359" data-name="Path 359" d="M154.384,392.13a10.824,10.824,0,0,1-1.821,1.594c-1.171.935-2.8,2.175-4.665,3.5s-3.573,2.461-4.852,3.248a10.076,10.076,0,0,1-2.136,1.132,13.1,13.1,0,0,1,1.968-1.437l4.754-3.356,4.744-3.376A12,12,0,0,1,154.384,392.13Z" transform="translate(-108.637 -286.81)" fill="#263238"/>
        <path id="Path_360" data-name="Path 360" d="M91.477,379.5,87.54,405.975h24.517L108.878,379.5Z" transform="translate(-72.156 -239.969)" fill="#455a64"/>
        <ellipse id="Ellipse_149" data-name="Ellipse 149" cx="9.881" cy="0.256" rx="9.881" ry="0.256" transform="translate(17.943 147.483)" fill="#263238"/>
        <ellipse id="Ellipse_150" data-name="Ellipse 150" cx="10.206" cy="0.256" rx="10.206" ry="0.256" transform="translate(17.775 149.589)" fill="#263238"/>
      </g>
    </g>
  </g>
</svg>
