<svg xmlns="http://www.w3.org/2000/svg" xmlns:xlink="http://www.w3.org/1999/xlink" width="724" height="520" viewBox="0 0 724 520">
  <defs>
    <filter id="Rectangle_262" x="0" y="0" width="724" height="520" filterUnits="userSpaceOnUse">
      <feOffset dx="-2" dy="4" input="SourceAlpha"/>
      <feGaussianBlur stdDeviation="7.5" result="blur"/>
      <feFlood flood-opacity="0.161"/>
      <feComposite operator="in" in2="blur"/>
      <feComposite in="SourceGraphic"/>
    </filter>
  </defs>
  <g id="Group_135" data-name="Group 135" transform="translate(-1025.5 -1072.5)">
    <g transform="matrix(1, 0, 0, 1, 1025.5, 1072.5)" filter="url(#Rectangle_262)">
      <rect id="Rectangle_262-2" data-name="Rectangle 262" width="679" height="475" rx="31" transform="translate(24.5 18.5)" fill="#dcdcdc"/>
    </g>
    <g id="_7_2" data-name="7_2" transform="translate(1163 1109.2)">
      <g id="Background_Complete" data-name="Background Complete">
        <rect id="Rectangle_291" data-name="Rectangle 291" width="125.22" height="83.84" transform="translate(278.91 83.5)" fill="#fff"/>
        <path id="Path_1435" data-name="Path 1435" d="M298,200.26V177.45c0-14.57.05-35.5.09-61l-.18.18H423.12l-.22-.22v83.84l.21-.21-90.21.1-25.77.06h-.05l25.73.06,90.34.1h.21V116.09H297.74v.18c0,25.57.07,46.55.09,61.14v21.21A7.019,7.019,0,0,0,298,200.26Z" transform="translate(-19.06 -32.91)" fill="#e0e0e0"/>
        <path id="Path_1436" data-name="Path 1436" d="M423.19,123.9c0-.12-28-.22-62.55-.22s-62.56.1-62.56.22,28,.22,62.56.22S423.19,124,423.19,123.9Z" transform="translate(-19.06 -32.91)" fill="#e0e0e0"/>
        <g id="Group_107" data-name="Group 107" opacity="0.3">
          <circle id="Ellipse_655" data-name="Ellipse 655" cx="1" cy="1" r="1" transform="translate(399.19 86.21)" fill="#e0e0e0"/>
        </g>
        <g id="Group_108" data-name="Group 108" opacity="0.3">
          <circle id="Ellipse_656" data-name="Ellipse 656" cx="1" cy="1" r="1" transform="translate(395.75 86.21)" fill="#e0e0e0"/>
        </g>
        <g id="Group_109" data-name="Group 109" opacity="0.3">
          <circle id="Ellipse_657" data-name="Ellipse 657" cx="1" cy="1" r="1" transform="translate(392.36 86.21)" fill="#e0e0e0"/>
        </g>
        <rect id="Rectangle_292" data-name="Rectangle 292" width="33.4" height="33.4" transform="translate(393.37 133.13) rotate(180)" fill="#e0e0e0"/>
        <ellipse id="Ellipse_658" data-name="Ellipse 658" cx="29.09" cy="0.22" rx="29.09" ry="0.22" transform="translate(296.09 108.95)" fill="#e0e0e0"/>
        <ellipse id="Ellipse_659" data-name="Ellipse 659" cx="29.09" cy="0.22" rx="29.09" ry="0.22" transform="translate(296.09 115.16)" fill="#e0e0e0"/>
        <ellipse id="Ellipse_660" data-name="Ellipse 660" cx="29.09" cy="0.22" rx="29.09" ry="0.22" transform="translate(296.09 121.36)" fill="#e0e0e0"/>
        <path id="Path_1437" data-name="Path 1437" d="M338.94,160.7a7.809,7.809,0,0,0,1.35.09l3.69.07c3.11,0,7.41.07,12.16.07s9,0,12.16-.07l3.68-.07a7.8,7.8,0,0,0,1.35-.09,7.842,7.842,0,0,0-1.35-.09l-3.68-.07c-3.11,0-7.41-.07-12.16-.07s-9,0-12.16.07l-3.69.07a7.842,7.842,0,0,0-1.35.09Z" transform="translate(-19.06 -32.91)" fill="#e0e0e0"/>
        <rect id="Rectangle_293" data-name="Rectangle 293" width="15.7" height="15.7" transform="translate(391.27 160.09) rotate(180)" fill="#e0e0e0"/>
        <rect id="Rectangle_294" data-name="Rectangle 294" width="15.7" height="15.7" transform="translate(362.81 160.09) rotate(180)" fill="#e0e0e0"/>
        <rect id="Rectangle_295" data-name="Rectangle 295" width="15.7" height="15.7" transform="translate(334.34 160.09) rotate(180)" fill="#e0e0e0"/>
        <rect id="Rectangle_296" data-name="Rectangle 296" width="15.7" height="15.7" transform="translate(305.88 160.09) rotate(180)" fill="#e0e0e0"/>
        <path id="Path_1438" data-name="Path 1438" d="M63.83,143.67l-3.54.52-2.13-5.52,3-2a14.5,14.5,0,0,1,.1-3.86l-2.87-2.14,2.4-5.41,3.51.69a14.461,14.461,0,0,1,2.79-2.66l-.52-3.54,5.52-2.13,2,3a14.53,14.53,0,0,1,3.86.1l2.14-2.87,5.41,2.4-.69,3.51a14.47,14.47,0,0,1,2.66,2.79L91,126l2.13,5.52-3,2a14.5,14.5,0,0,1-.1,3.86l2.87,2.14-2.4,5.41-3.5-.69a14.46,14.46,0,0,1-2.79,2.66l.52,3.54-5.52,2.13-2-3a14.5,14.5,0,0,1-3.86-.1l-2.14,2.87L65.8,150l.69-3.51a14.519,14.519,0,0,1-2.66-2.79ZM78,141.28a6.35,6.35,0,1,0-8.21-3.64A6.35,6.35,0,0,0,78,141.28Z" transform="translate(-19.06 -32.91)" fill="none"/>
        <path id="Path_1439" data-name="Path 1439" d="M69.81,137.63a4.79,4.79,0,0,0,.68,1.42,6.32,6.32,0,0,0,3.43,2.51,6.4,6.4,0,0,0,3,.17,6.492,6.492,0,1,0-4.61-11.88A6.4,6.4,0,0,0,70.22,132a6.32,6.32,0,0,0-.86,4.17,4.79,4.79,0,0,0,.44,1.51,7.387,7.387,0,0,1-.3-1.53,6.33,6.33,0,0,1,.94-4A6.166,6.166,0,1,1,74,141.32,6.33,6.33,0,0,1,70.61,139,10.135,10.135,0,0,1,69.81,137.63Z" transform="translate(-19.06 -32.91)" fill="#e0e0e0"/>
        <path id="Path_1440" data-name="Path 1440" d="M63.83,143.67h-.22l-.67.08-2.65.36h.06l-2.1-5.53v.11l3-2h.05v-.06a14.48,14.48,0,0,1,.11-3.83v-.07h-.06l-2.86-2.15v.16l2.41-5.4-.16.08,3.51.7h.09l.06-.07a14.391,14.391,0,0,1,2.77-2.63l.08-.06v-.09l-.51-3.54-.1.17,5.52-2.12-.2-.06,2,3,.06.09h.1a14.44,14.44,0,0,1,3.81.1h.11l.06-.09,2.14-2.87L80,118l5.41,2.4-.1-.2-.69,3.51v.11l.09.07a14.351,14.351,0,0,1,2.62,2.76h0l.17.07h.44l.44-.06.89-.13L91,126.2l-.2-.11,2.13,5.52.07-.21-3,2-.09.06v.11a14.34,14.34,0,0,1-.09,3.81v.11l.09.06,2.87,2.14-.05-.21-2.39,5.41.19-.1L87,144.08h-.1l-.06.08a14.349,14.349,0,0,1-2.76,2.64l-.08.06v.09l.52,3.54.1-.16-5.52,2.14.17.05-2-3v-.07h-.08a14.44,14.44,0,0,1-3.82-.09H73.3v.06l-2.13,2.88h.13l-5.42-2.38v.09l.67-3.51h0a15,15,0,0,1-2.09-2l-.46-.55-.15-.18.13.2c.09.13.23.32.43.57a14,14,0,0,0,2.06,2.07v-.06l-.71,3.5V150h.06l5.4,2.42h.08l.05-.07,2.15-2.86h-.11a14.63,14.63,0,0,0,3.89.11l-.12-.06,2,3,.06.09h.1l5.53-2.12h.11v-.12l-.51-3.54-.06.15a14.661,14.661,0,0,0,2.83-2.69l-.16.06,3.51.7h.13l.05-.12,2.4-5.41.06-.13-.11-.08-2.87-2.14.07.17a14.66,14.66,0,0,0,.1-3.9l-.08.17,3-2,.12-.08-.05-.13L91.14,126l-.05-.14h-.14l-1.76.26-.89.13-.44.07h-.44l.17.07h0a14.69,14.69,0,0,0-2.69-2.83l.06.18.69-3.51v-.14l-.13-.06-5.41-2.4-.13-.06-.09.11-2.14,2.87.17-.07a14.76,14.76,0,0,0-3.9-.1l.16.08-2-3-.08-.11h-.13l-5.52,2.13h-.12v.13l.52,3.54.06-.15a14.66,14.66,0,0,0-2.82,2.69l.15-.05-3.51-.69h-.11v.1l-2.39,5.41v.1l.08.06,2.87,2.13v-.11a14.63,14.63,0,0,0-.08,3.89v-.1l-3,2h-.06v.07l2.16,5.51h0l2.62-.41.68-.11Z" transform="translate(-19.06 -32.91)" fill="#e0e0e0"/>
        <path id="Path_1441" data-name="Path 1441" d="M32.37,126.83l-2.94.43-1.77-4.58L30.13,121a12,12,0,0,1,.08-3.2l-2.38-1.77,2-4.49,2.91.57A12,12,0,0,1,35,109.93L34.62,107l4.58-1.77,1.65,2.46a12.06,12.06,0,0,1,3.2.08l1.77-2.38,4.49,2-.57,2.91a12,12,0,0,1,2.21,2.32l2.94-.43,1.77,4.58-2.46,1.65a12,12,0,0,1-.08,3.2l2.38,1.77-2,4.49-2.91-.57a12,12,0,0,1-2.32,2.21l.43,2.94-4.58,1.77-1.65-2.46a12,12,0,0,1-3.2-.08l-1.77,2.38-4.49-2,.57-2.91a12,12,0,0,1-2.21-2.32Zm11.77-2a3.725,3.725,0,1,0-.01.02Z" transform="translate(-19.06 -32.91)" fill="#e0e0e0" fill-rule="evenodd"/>
        <path id="Path_1442" data-name="Path 1442" d="M51.7,99.48l-4.6.67L44.33,93l3.86-2.59a18.87,18.87,0,0,1,.13-5l-3.73-2.78,3.12-7,4.57.9A18.82,18.82,0,0,1,55.91,73l-.67-4.6,7.18-2.77L65,69.47a18.9,18.9,0,0,1,5,.13l2.78-3.73,7,3.12L79,73.56a18.83,18.83,0,0,1,3.46,3.63l4.6-.67,2.77,7.19L85.97,86.3a18.86,18.86,0,0,1-.13,5l3.73,2.78-3.12,7-4.57-.9a18.83,18.83,0,0,1-3.63,3.46l.67,4.6-7.18,2.77L69.1,107.2a18.86,18.86,0,0,1-5-.13l-2.8,3.73-7-3.12.9-4.57a18.89,18.89,0,0,1-3.46-3.63Zm18.45-3.11a8.26,8.26,0,1,0-10.68-4.74,8.26,8.26,0,0,0,10.68,4.74Z" transform="translate(-19.06 -32.91)" fill="#e0e0e0" fill-rule="evenodd"/>
        <path id="Path_1443" data-name="Path 1443" d="M122.3,61.36a3.419,3.419,0,0,0-.52-.59l-1.52-1.53c-1.29-1.28-3.1-3-5.1-4.94h0v.26c2-1.88,3.84-3.59,5.14-4.84l1.53-1.5a3.38,3.38,0,0,0,.53-.58,3.37,3.37,0,0,0-.62.48l-1.6,1.41c-1.34,1.2-3.19,2.89-5.21,4.77l-.14.13.14.13h0c2,1.91,3.84,3.63,5.17,4.86l1.6,1.45a3.42,3.42,0,0,0,.6.49Z" transform="translate(-19.06 -32.91)" fill="#e0e0e0"/>
        <path id="Path_1444" data-name="Path 1444" d="M137.9,47.59a3.421,3.421,0,0,0,.52.59l1.52,1.53c1.29,1.28,3.1,3,5.1,4.94h0v-.26c-2,1.88-3.84,3.59-5.14,4.84l-1.53,1.5a3.37,3.37,0,0,0-.53.58,3.379,3.379,0,0,0,.62-.48l1.6-1.41c1.34-1.21,3.19-2.89,5.21-4.77l.14-.13-.14-.13h0c-2-1.91-3.84-3.63-5.17-4.86l-1.6-1.45A3.42,3.42,0,0,0,137.9,47.59Z" transform="translate(-19.06 -32.91)" fill="#e0e0e0"/>
        <ellipse id="Ellipse_661" data-name="Ellipse 661" cx="0.18" cy="10.91" rx="0.18" ry="10.91" transform="translate(107.017 11.305) rotate(-20.51)" fill="#e0e0e0"/>
        <path id="Path_1445" data-name="Path 1445" d="M104.56,74.46V63.08c0-7.22,0-17.55.08-30l-.15.15h50.76l-.18-.18V74.42l.16-.16-36.66.08h-.06l36.76.08h.16V32.71H104.34v.15c0,12.48.06,22.84.08,30.08V73.49A8.529,8.529,0,0,1,104.56,74.46Z" transform="translate(-19.06 -32.91)" fill="#e0e0e0"/>
        <ellipse id="Ellipse_662" data-name="Ellipse 662" cx="25.59" cy="0.18" rx="25.59" ry="0.18" transform="translate(85.11 6.13)" fill="#e0e0e0"/>
        <circle id="Ellipse_663" data-name="Ellipse 663" cx="0.68" cy="0.68" r="0.68" transform="translate(132.13 2.62)" fill="#e0e0e0"/>
        <circle id="Ellipse_664" data-name="Ellipse 664" cx="0.68" cy="0.68" r="0.68" transform="translate(129.64 2.62)" fill="#e0e0e0"/>
        <circle id="Ellipse_665" data-name="Ellipse 665" cx="0.68" cy="0.68" r="0.68" transform="translate(127.15 2.62)" fill="#e0e0e0"/>
        <rect id="Rectangle_297" data-name="Rectangle 297" width="117.38" height="47.68" transform="translate(183.64 20.13)" fill="#fff"/>
        <path id="Path_1446" data-name="Path 1446" d="M202.7,100.72V87.91c0-8.23,0-20.13.07-34.87l-.13.13,117.38.06h0L319.9,53v47.68l.18-.18-84.16.08h-.07l84.28.08h.18V52.61h-.19l-117.38.06h-.13V53c0,14.77.05,26.7.07,34.94V99.9C202.69,100.45,202.7,100.72,202.7,100.72Z" transform="translate(-19.06 -32.91)" fill="#e0e0e0"/>
        <path id="Path_1447" data-name="Path 1447" d="M320,59.47c0-.1-26.24-.19-58.6-.19s-58.6.08-58.6.19,26.23.19,58.6.19S320,59.58,320,59.47Z" transform="translate(-19.06 -32.91)" fill="#e0e0e0"/>
        <g id="Group_110" data-name="Group 110" opacity="0.3">
          <circle id="Ellipse_666" data-name="Ellipse 666" cx="0.85" cy="0.85" r="0.85" transform="translate(296 22.83)" fill="#ebebeb"/>
        </g>
        <g id="Group_111" data-name="Group 111" opacity="0.3">
          <circle id="Ellipse_667" data-name="Ellipse 667" cx="0.85" cy="0.85" r="0.85" transform="translate(293.08 22.83)" fill="#ebebeb"/>
        </g>
        <g id="Group_112" data-name="Group 112" opacity="0.3">
          <circle id="Ellipse_668" data-name="Ellipse 668" cx="0.85" cy="0.85" r="0.85" transform="translate(290.2 22.83)" fill="#ebebeb"/>
        </g>
        <rect id="Rectangle_298" data-name="Rectangle 298" width="28.35" height="28.35" transform="translate(291.04 62.66) rotate(180)" fill="#e0e0e0"/>
        <ellipse id="Ellipse_669" data-name="Ellipse 669" cx="32.59" cy="0.19" rx="32.59" ry="0.19" transform="translate(191.76 41.72)" fill="#e0e0e0"/>
        <ellipse id="Ellipse_670" data-name="Ellipse 670" cx="32.59" cy="0.19" rx="32.59" ry="0.19" transform="translate(191.76 47.49)" fill="#e0e0e0"/>
        <path id="Path_1448" data-name="Path 1448" d="M234,86.37a1.871,1.871,0,0,0,.43,0h1.22l4.5.06,14.83.05,14.83-.05,4.5-.06h1.22a1.86,1.86,0,0,0,.43,0,1.85,1.85,0,0,0-.43,0h-1.22l-4.5-.06L255,86.19l-14.83.05-4.5.06h-1.22a1.849,1.849,0,0,0-.45.07Z" transform="translate(-19.06 -32.91)" fill="#e0e0e0"/>
      </g>
      <g id="Floor">
        <path id="Path_1449" data-name="Path 1449" d="M19.06,445.09c0,.14,99.79.26,222.85.26s222.87-.12,222.87-.26-99.77-.26-222.87-.26S19.06,444.94,19.06,445.09Z" transform="translate(-19.06 -32.91)" fill="#263238"/>
      </g>
      <g id="Screens">
        <rect id="Rectangle_299" data-name="Rectangle 299" width="140.13" height="114.16" transform="translate(177.82 216.65) rotate(180)" fill="#e0e0e0"/>
        <rect id="Rectangle_300" data-name="Rectangle 300" width="140.13" height="114.16" transform="translate(187.79 223.92) rotate(180)" fill="#ebebeb"/>
        <rect id="Rectangle_301" data-name="Rectangle 301" width="143.87" height="117.21" transform="translate(57.65 117.7)" fill="#fff"/>
        <path id="Path_1450" data-name="Path 1450" d="M76.71,267.82V259.4c0-5.48,0-13.51.06-23.75,0-20.46.07-49.73.11-85l-.22.22H220.52l-.26-.26V267.82l.23-.23-104,.12-29.42.06h-.09l29.37.06,104.11.12h.23V150.25H76.34v.22c0,35.36.09,64.68.11,85.17,0,10.22,0,18.23.06,23.7v6.22A10.746,10.746,0,0,0,76.71,267.82Z" transform="translate(-19.06 -32.91)" fill="#263238"/>
        <path id="Path_1451" data-name="Path 1451" d="M94.29,167.55l-1.54.57,1.54.56v.58l-2.21-.84v-.6l2.21-.84Z" transform="translate(-19.06 -32.91)" fill="#e8505b"/>
        <path id="Path_1452" data-name="Path 1452" d="M97.93,166.49v3.25h-.75v-1.33H95.71v1.33H95v-3.25h.75v1.28h1.47v-1.28Z" transform="translate(-19.06 -32.91)" fill="#e8505b"/>
        <path id="Path_1453" data-name="Path 1453" d="M99.37,167.1h-1v-.61h2.83v.61h-1v2.63h-.75Z" transform="translate(-19.06 -32.91)" fill="#e8505b"/>
        <path id="Path_1454" data-name="Path 1454" d="M104.52,169.74v-1.95l-1,1.6h-.34l-1-1.56v1.91h-.71v-3.25h.62l1.21,2,1.2-2h.62v3.25Z" transform="translate(-19.06 -32.91)" fill="#e8505b"/>
        <path id="Path_1455" data-name="Path 1455" d="M106,166.49h.75v2.63h1.63v.61H106Z" transform="translate(-19.06 -32.91)" fill="#e8505b"/>
        <path id="Path_1456" data-name="Path 1456" d="M110.9,167.81v.6l-2.21.84v-.58l1.54-.56-1.54-.57V167Z" transform="translate(-19.06 -32.91)" fill="#e8505b"/>
        <path id="Path_1457" data-name="Path 1457" d="M93,256.43l-1.54.57,1.54.56v.58l-2.21-.84v-.6l2.21-.84Z" transform="translate(-19.06 -32.91)" fill="#e8505b"/>
        <path id="Path_1458" data-name="Path 1458" d="M94.63,254.71h.64l-1.53,4.37H93.1Z" transform="translate(-19.06 -32.91)" fill="#e8505b"/>
        <path id="Path_1459" data-name="Path 1459" d="M98.44,255.37v3.25h-.75v-1.33H96.21v1.33h-.75v-3.25h.75v1.28h1.47v-1.28Z" transform="translate(-19.06 -32.91)" fill="#e8505b"/>
        <path id="Path_1460" data-name="Path 1460" d="M99.88,256h-1v-.61h2.83V256h-1v2.63h-.75Z" transform="translate(-19.06 -32.91)" fill="#e8505b"/>
        <path id="Path_1461" data-name="Path 1461" d="M105,258.62v-1.95l-1,1.6h-.34l-1-1.56v1.91h-.71v-3.25h.62l1.21,2,1.2-2h.62v3.25Z" transform="translate(-19.06 -32.91)" fill="#e8505b"/>
        <path id="Path_1462" data-name="Path 1462" d="M106.49,255.37h.75V258h1.63v.61h-2.38Z" transform="translate(-19.06 -32.91)" fill="#e8505b"/>
        <path id="Path_1463" data-name="Path 1463" d="M111.4,256.69v.6l-2.21.84v-.58l1.54-.56-1.54-.57v-.58Z" transform="translate(-19.06 -32.91)" fill="#e8505b"/>
        <path id="Path_1464" data-name="Path 1464" d="M104.48,176.44l-1.65.64,1.65.64v.39l-2.08-.82v-.4l2.08-.82Z" transform="translate(-19.06 -32.91)"/>
        <path id="Path_1465" data-name="Path 1465" d="M108.06,175.45v3.25h-.46v-1.45h-1.86v1.45h-.46v-3.25h.46v1.4h1.86v-1.4Z" transform="translate(-19.06 -32.91)"/>
        <path id="Path_1466" data-name="Path 1466" d="M111.39,178.29v.4H109v-3.25h2.29v.4H109.5v1h1.63v.39H109.5v1Z" transform="translate(-19.06 -32.91)"/>
        <path id="Path_1467" data-name="Path 1467" d="M114.21,177.88h-1.73l-.36.81h-.48l1.47-3.25h.46l1.48,3.25h-.49Zm-.16-.37-.7-1.59-.7,1.59Z" transform="translate(-19.06 -32.91)"/>
        <path id="Path_1468" data-name="Path 1468" d="M115.53,175.45h1.37a1.63,1.63,0,1,1,0,3.25h-1.37Zm1.34,2.84a1.22,1.22,0,0,0,0-2.44H116v2.44Z" transform="translate(-19.06 -32.91)"/>
        <path id="Path_1469" data-name="Path 1469" d="M121.26,176.87v.4l-2.08.82v-.39l1.65-.64-1.65-.64v-.39Z" transform="translate(-19.06 -32.91)"/>
        <path id="Path_1470" data-name="Path 1470" d="M104.48,187.56l-1.65.64,1.65.64v.38l-2.08-.82V188l2.08-.82Z" transform="translate(-19.06 -32.91)"/>
        <path id="Path_1471" data-name="Path 1471" d="M105.92,187H104.8v-.4h2.69v.4h-1.11v2.84h-.46Z" transform="translate(-19.06 -32.91)"/>
        <path id="Path_1472" data-name="Path 1472" d="M108,186.57h.46v3.25H108Z" transform="translate(-19.06 -32.91)"/>
        <path id="Path_1473" data-name="Path 1473" d="M110.07,187H109v-.4h2.69v.4h-1.11v2.84h-.46Z" transform="translate(-19.06 -32.91)"/>
        <path id="Path_1474" data-name="Path 1474" d="M112.15,186.57h.46v2.84h1.76v.4h-2.22Z" transform="translate(-19.06 -32.91)"/>
        <path id="Path_1475" data-name="Path 1475" d="M117.26,189.41v.4H114.9v-3.25h2.29v.4h-1.83v1H117v.39h-1.63v1Z" transform="translate(-19.06 -32.91)"/>
        <path id="Path_1476" data-name="Path 1476" d="M119.91,188v.4l-2.08.82v-.38l1.65-.64-1.65-.64v-.38Z" transform="translate(-19.06 -32.91)"/>
        <path id="Path_1477" data-name="Path 1477" d="M121.95,186.57h.46v2.84h1.76v.4h-2.22Z" transform="translate(-19.06 -32.91)"/>
        <path id="Path_1478" data-name="Path 1478" d="M124.38,188.59a1.28,1.28,0,1,1,1.28,1.26,1.22,1.22,0,0,1-1.28-1.26Zm2.11,0a.83.83,0,1,0-.83.87.81.81,0,0,0,.82-.87Z" transform="translate(-19.06 -32.91)"/>
        <path id="Path_1479" data-name="Path 1479" d="M128.87,187.34v.43h-.1a.73.73,0,0,0-.77.83v1.22h-.45v-2.46H128v.41a.94.94,0,0,1,.87-.43Z" transform="translate(-19.06 -32.91)"/>
        <path id="Path_1480" data-name="Path 1480" d="M131.6,188.74h-2a.83.83,0,0,0,.89.72.92.92,0,0,0,.71-.3l.25.29a1.34,1.34,0,0,1-2.29-.86,1.221,1.221,0,1,1,2.44.02Q131.6,188.675,131.6,188.74Zm-2-.32h1.58a.79.79,0,0,0-1.58,0Z" transform="translate(-19.06 -32.91)"/>
        <path id="Path_1481" data-name="Path 1481" d="M136.31,188.4v1.41h-.45v-1.36c0-.48-.23-.72-.64-.72a.71.71,0,0,0-.74.82v1.27H134v-1.36c0-.48-.23-.72-.64-.72a.71.71,0,0,0-.74.82v1.27h-.45v-2.46h.43v.37a1,1,0,0,1,.85-.39.91.91,0,0,1,.85.45,1.11,1.11,0,0,1,.95-.45.94.94,0,0,1,1.06,1.05Z" transform="translate(-19.06 -32.91)"/>
        <path id="Path_1482" data-name="Path 1482" d="M138.29,186.6a.29.29,0,1,1,.287.29.29.29,0,0,1-.287-.29Zm.08.76h.45v2.46h-.45Z" transform="translate(-19.06 -32.91)"/>
        <path id="Path_1483" data-name="Path 1483" d="M142.21,188.59a1.19,1.19,0,0,1-1.24,1.26,1.05,1.05,0,0,1-.86-.4v1.27h-.45v-3.36h.43v.39a1,1,0,0,1,.88-.41,1.19,1.19,0,0,1,1.24,1.25Zm-.45,0a.83.83,0,1,0-.83.87.81.81,0,0,0,.83-.87Z" transform="translate(-19.06 -32.91)"/>
        <path id="Path_1484" data-name="Path 1484" d="M142.51,189.56l.19-.35a1.58,1.58,0,0,0,.86.26c.41,0,.59-.13.59-.33,0-.55-1.55-.07-1.55-1.05,0-.44.39-.74,1-.74a1.79,1.79,0,0,1,.89.22l-.19.35a1.29,1.29,0,0,0-.71-.19c-.39,0-.58.14-.58.34,0,.58,1.56.11,1.56,1.06,0,.45-.41.73-1.06.73a1.77,1.77,0,0,1-1-.3Z" transform="translate(-19.06 -32.91)"/>
        <path id="Path_1485" data-name="Path 1485" d="M147.44,187.36v2.46H147v-.37a1.051,1.051,0,0,1-1.9-.67v-1.42h.45v1.36c0,.48.24.72.66.72a.72.72,0,0,0,.76-.82v-1.27Z" transform="translate(-19.06 -32.91)"/>
        <path id="Path_1486" data-name="Path 1486" d="M152.37,188.4v1.41h-.45v-1.36c0-.48-.23-.72-.64-.72a.71.71,0,0,0-.74.82v1.27h-.45v-1.36c0-.48-.23-.72-.64-.72a.71.71,0,0,0-.74.82v1.27h-.45v-2.46h.43v.37a1,1,0,0,1,.85-.39.91.91,0,0,1,.85.45,1.11,1.11,0,0,1,.95-.45.94.94,0,0,1,1.03,1.05Z" transform="translate(-19.06 -32.91)"/>
        <path id="Path_1487" data-name="Path 1487" d="M156.39,187.56l-1.65.64,1.65.64v.38l-2.08-.82V188l2.08-.82Z" transform="translate(-19.06 -32.91)"/>
        <path id="Path_1488" data-name="Path 1488" d="M158.1,185.91h.4l-1.5,4.37h-.4Z" transform="translate(-19.06 -32.91)"/>
        <path id="Path_1489" data-name="Path 1489" d="M159.6,187h-1.11v-.4h2.69v.4h-1.11v2.84h-.46Z" transform="translate(-19.06 -32.91)"/>
        <path id="Path_1490" data-name="Path 1490" d="M161.68,186.57h.46v3.25h-.46Z" transform="translate(-19.06 -32.91)"/>
        <path id="Path_1491" data-name="Path 1491" d="M163.76,187h-1.11v-.4h2.69v.4h-1.11v2.84h-.46Z" transform="translate(-19.06 -32.91)"/>
        <path id="Path_1492" data-name="Path 1492" d="M165.84,186.57h.46v2.84h1.76v.4h-2.22Z" transform="translate(-19.06 -32.91)"/>
        <path id="Path_1493" data-name="Path 1493" d="M170.95,189.41v.4h-2.36v-3.25h2.29v.4h-1.83v1h1.63v.39h-1.63v1Z" transform="translate(-19.06 -32.91)"/>
        <path id="Path_1494" data-name="Path 1494" d="M173.6,188v.4l-2.08.82v-.38l1.65-.64-1.65-.64v-.38Z" transform="translate(-19.06 -32.91)"/>
        <path id="Path_1495" data-name="Path 1495" d="M104.48,198.68l-1.65.64,1.65.64v.38l-2.08-.82v-.4l2.08-.82Z" transform="translate(-19.06 -32.91)"/>
        <path id="Path_1496" data-name="Path 1496" d="M106.19,197h.4l-1.53,4.37h-.4Z" transform="translate(-19.06 -32.91)"/>
        <path id="Path_1497" data-name="Path 1497" d="M109.7,197.69v3.25h-.46v-1.45h-1.86v1.45h-.46v-3.25h.46v1.4h1.86v-1.4Z" transform="translate(-19.06 -32.91)"/>
        <path id="Path_1498" data-name="Path 1498" d="M113,200.54v.4h-2.36v-3.25H113v.4h-1.83v1h1.63v.39h-1.63v1Z" transform="translate(-19.06 -32.91)"/>
        <path id="Path_1499" data-name="Path 1499" d="M115.84,200.13h-1.73l-.36.81h-.48l1.47-3.25h.46l1.48,3.25h-.49Zm-.16-.37-.7-1.59-.7,1.59Z" transform="translate(-19.06 -32.91)"/>
        <path id="Path_1500" data-name="Path 1500" d="M117.16,197.69h1.37a1.63,1.63,0,1,1,0,3.25h-1.37Zm1.34,2.84a1.22,1.22,0,1,0,0-2.44h-.88v2.44Z" transform="translate(-19.06 -32.91)"/>
        <path id="Path_1501" data-name="Path 1501" d="M122.89,199.12v.4l-2.08.82V200l1.65-.64-1.65-.64v-.38Z" transform="translate(-19.06 -32.91)"/>
        <path id="Path_1502" data-name="Path 1502" d="M95.86,208.33l-1.65.64,1.65.64V210l-2.08-.82v-.4l2.08-.82Z" transform="translate(-19.06 -32.91)"/>
        <path id="Path_1503" data-name="Path 1503" d="M99.45,209.71c0,.56-.42.88-1.24.88H96.66v-3.25h1.46c.75,0,1.16.32,1.16.84a.77.77,0,0,1-.44.72.78.78,0,0,1,.61.81Zm-2.33-2v1h1c.47,0,.74-.18.74-.52s-.27-.52-.74-.52Zm1.86,2c0-.38-.28-.54-.79-.54H97.12v1.08h1.07c.51-.04.81-.2.81-.57Z" transform="translate(-19.06 -32.91)"/>
        <path id="Path_1504" data-name="Path 1504" d="M99.9,209a1.73,1.73,0,1,1,1.73,1.66A1.65,1.65,0,0,1,99.9,209Zm3,0a1.26,1.26,0,1,0-1.26,1.25,1.22,1.22,0,0,0,1.25-1.25Z" transform="translate(-19.06 -32.91)"/>
        <path id="Path_1505" data-name="Path 1505" d="M104.06,207.34h1.37a1.63,1.63,0,1,1,0,3.25h-1.37Zm1.34,2.84a1.22,1.22,0,1,0,0-2.44h-.88v2.44Z" transform="translate(-19.06 -32.91)"/>
        <path id="Path_1506" data-name="Path 1506" d="M109,209.47v1.12h-.46v-1.13l-1.29-2.12h.5l1,1.71,1-1.71h.46Z" transform="translate(-19.06 -32.91)"/>
        <path id="Path_1507" data-name="Path 1507" d="M112.65,208.77v.4l-2.08.82v-.39l1.65-.64-1.65-.64v-.39Z" transform="translate(-19.06 -32.91)"/>
        <path id="Path_1508" data-name="Path 1508" d="M95.86,219.45l-1.65.64,1.65.64v.38l-2.08-.82v-.4l2.08-.82Z" transform="translate(-19.06 -32.91)"/>
        <path id="Path_1509" data-name="Path 1509" d="M99.45,218.47v3.25H99v-1.45H97.12v1.45h-.46v-3.25h.46v1.4H99v-1.4Z" transform="translate(-19.06 -32.91)"/>
        <path id="Path_1510" data-name="Path 1510" d="M101.16,218.47v3.25h-.46v-2.84H100v-.4Z" transform="translate(-19.06 -32.91)"/>
        <path id="Path_1511" data-name="Path 1511" d="M104,219.89v.4l-2.08.82v-.38l1.65-.64-1.65-.64v-.38Z" transform="translate(-19.06 -32.91)"/>
        <path id="Path_1512" data-name="Path 1512" d="M106.12,218.47h.34v3h1.82v.3h-2.16Z" transform="translate(-19.06 -32.91)"/>
        <path id="Path_1513" data-name="Path 1513" d="M108.5,220.49a1.24,1.24,0,1,1,1.24,1.24,1.2,1.2,0,0,1-1.24-1.24Zm2.15,0a.91.91,0,1,0-.91,1,.89.89,0,0,0,.9-1Z" transform="translate(-19.06 -32.91)"/>
        <path id="Path_1514" data-name="Path 1514" d="M112.88,219.25v.32h-.08a.79.79,0,0,0-.82.9v1.24h-.33v-2.44H112v.48A.92.92,0,0,1,112.88,219.25Z" transform="translate(-19.06 -32.91)"/>
        <path id="Path_1515" data-name="Path 1515" d="M115.57,220.59h-2a.9.9,0,0,0,1,.85,1,1,0,0,0,.75-.32l.19.21a1.29,1.29,0,0,1-2.22-.84,1.18,1.18,0,0,1,1.19-1.24,1.16,1.16,0,0,1,1.18,1.24S115.57,220.56,115.57,220.59Zm-2-.25h1.73a.87.87,0,0,0-1.73,0Z" transform="translate(-19.06 -32.91)"/>
        <path id="Path_1516" data-name="Path 1516" d="M120.27,220.3v1.41h-.33v-1.38c0-.51-.26-.78-.7-.78a.78.78,0,0,0-.82.88v1.28h-.33v-1.38c0-.51-.26-.78-.71-.78a.79.79,0,0,0-.82.88v1.28h-.33v-2.44h.32v.45a1,1,0,0,1,.9-.46.88.88,0,0,1,.87.51,1.06,1.06,0,0,1,1-.51.92.92,0,0,1,.95,1.04Z" transform="translate(-19.06 -32.91)"/>
        <path id="Path_1517" data-name="Path 1517" d="M122.3,218.5a.24.24,0,0,1,.24-.23.23.23,0,0,1,.24.23.24.24,0,0,1-.48,0Zm.07.77h.33v2.44h-.33Z" transform="translate(-19.06 -32.91)"/>
        <path id="Path_1518" data-name="Path 1518" d="M126.09,220.49a1.18,1.18,0,0,1-1.21,1.24,1.06,1.06,0,0,1-.93-.48v1.36h-.33v-3.34h.32v.48a1.06,1.06,0,0,1,.94-.5,1.18,1.18,0,0,1,1.21,1.24Zm-.33,0a.91.91,0,1,0-.91,1,.9.9,0,0,0,.92-1Z" transform="translate(-19.06 -32.91)"/>
        <path id="Path_1519" data-name="Path 1519" d="M126.42,221.43l.15-.26a1.48,1.48,0,0,0,.87.27c.46,0,.65-.16.65-.4,0-.64-1.58-.13-1.58-1.1,0-.4.34-.7,1-.7a1.65,1.65,0,0,1,.86.23l-.14.26a1.25,1.25,0,0,0-.72-.21c-.44,0-.64.17-.64.4,0,.66,1.58.16,1.58,1.1,0,.42-.37.7-1,.7a1.64,1.64,0,0,1-1.03-.29Z" transform="translate(-19.06 -32.91)"/>
        <path id="Path_1520" data-name="Path 1520" d="M131.23,219.27v2.44h-.32v-.45a1,1,0,0,1-.88.47.94.94,0,0,1-1-1v-1.41h.33v1.38a.68.68,0,0,0,.73.78.79.79,0,0,0,.83-.89v-1.28Z" transform="translate(-19.06 -32.91)"/>
        <path id="Path_1521" data-name="Path 1521" d="M136.17,220.3v1.41h-.33v-1.38c0-.51-.26-.78-.7-.78a.78.78,0,0,0-.82.88v1.28H134v-1.38c0-.51-.26-.78-.71-.78a.79.79,0,0,0-.82.88v1.28h-.33v-2.44h.32v.45a1,1,0,0,1,.9-.46.88.88,0,0,1,.87.51,1.06,1.06,0,0,1,1-.51.92.92,0,0,1,.94,1.04Z" transform="translate(-19.06 -32.91)"/>
        <path id="Path_1522" data-name="Path 1522" d="M140.5,218.27v3.44h-.32v-.48a1.06,1.06,0,0,1-.94.51,1.24,1.24,0,1,1,0-2.48,1.07,1.07,0,0,1,.93.48v-1.47Zm-.32,2.22a.91.91,0,1,0-.9,1,.89.89,0,0,0,.9-1Z" transform="translate(-19.06 -32.91)"/>
        <path id="Path_1523" data-name="Path 1523" d="M141.17,220.49a1.24,1.24,0,1,1,1.24,1.24,1.2,1.2,0,0,1-1.24-1.24Zm2.15,0a.91.91,0,1,0-.9,1,.89.89,0,0,0,.9-1Z" transform="translate(-19.06 -32.91)"/>
        <path id="Path_1524" data-name="Path 1524" d="M144.33,218.27h.33v3.44h-.33Z" transform="translate(-19.06 -32.91)"/>
        <path id="Path_1525" data-name="Path 1525" d="M145.33,220.49a1.24,1.24,0,1,1,1.24,1.24,1.2,1.2,0,0,1-1.24-1.24Zm2.15,0a.91.91,0,1,0-.91,1,.89.89,0,0,0,.9-1Z" transform="translate(-19.06 -32.91)"/>
        <path id="Path_1526" data-name="Path 1526" d="M149.71,219.25v.32h-.08a.79.79,0,0,0-.82.9v1.24h-.33v-2.44h.32v.48a.92.92,0,0,1,.91-.5Z" transform="translate(-19.06 -32.91)"/>
        <path id="Path_1527" data-name="Path 1527" d="M151.21,221.43l.15-.26a1.47,1.47,0,0,0,.87.27c.46,0,.65-.16.65-.4,0-.64-1.58-.13-1.58-1.1,0-.4.34-.7,1-.7a1.65,1.65,0,0,1,.86.23l-.14.26a1.25,1.25,0,0,0-.72-.21c-.44,0-.64.17-.64.4,0,.66,1.58.16,1.58,1.1,0,.42-.37.7-1,.7a1.63,1.63,0,0,1-1.03-.29Z" transform="translate(-19.06 -32.91)"/>
        <path id="Path_1528" data-name="Path 1528" d="M153.74,218.5a.24.24,0,0,1,.24-.23.23.23,0,0,1,.24.23.24.24,0,1,1-.48,0Zm.07.77h.33v2.44h-.33Z" transform="translate(-19.06 -32.91)"/>
        <path id="Path_1529" data-name="Path 1529" d="M156.35,221.56a.79.79,0,0,1-.51.17.65.65,0,0,1-.71-.71v-1.48h-.44v-.28h.44v-.53h.33v.53h.74v.28h-.74V221a.39.39,0,0,0,.42.45.54.54,0,0,0,.36-.13Z" transform="translate(-19.06 -32.91)"/>
        <path id="Path_1530" data-name="Path 1530" d="M160,220.2v1.51h-.32v-.38a.92.92,0,0,1-.84.4c-.55,0-.89-.29-.89-.71s.24-.69.94-.69h.78v-.15c0-.42-.24-.64-.69-.64a1.24,1.24,0,0,0-.81.29l-.15-.25a1.55,1.55,0,0,1,1-.33.87.87,0,0,1,.98.95Zm-.33.78v-.4h-.77c-.47,0-.63.19-.63.44s.23.46.62.46a.78.78,0,0,0,.78-.48Z" transform="translate(-19.06 -32.91)"/>
        <path id="Path_1531" data-name="Path 1531" d="M164.92,220.3v1.41h-.33v-1.38c0-.51-.26-.78-.7-.78a.78.78,0,0,0-.82.88v1.28h-.33v-1.38c0-.51-.26-.78-.71-.78a.79.79,0,0,0-.82.88v1.28h-.33v-2.44h.32v.45a1,1,0,0,1,.9-.46.88.88,0,0,1,.87.51,1.06,1.06,0,0,1,1-.51.92.92,0,0,1,.95,1.04Z" transform="translate(-19.06 -32.91)"/>
        <path id="Path_1532" data-name="Path 1532" d="M167.94,220.59h-2a.9.9,0,0,0,1,.85,1,1,0,0,0,.75-.32l.19.21a1.29,1.29,0,0,1-2.22-.84,1.18,1.18,0,0,1,1.19-1.24,1.16,1.16,0,0,1,1.18,1.24S167.94,220.56,167.94,220.59Zm-2-.25h1.73a.87.87,0,0,0-1.73,0Z" transform="translate(-19.06 -32.91)"/>
        <path id="Path_1533" data-name="Path 1533" d="M169.9,221.56a.78.78,0,0,1-.51.17.65.65,0,0,1-.71-.71v-1.48h-.44v-.28h.44v-.53H169v.53h.74v.28H169V221a.39.39,0,0,0,.42.45.54.54,0,0,0,.36-.13Z" transform="translate(-19.06 -32.91)"/>
        <path id="Path_1534" data-name="Path 1534" d="M170.83,221.48a.76.76,0,0,1-.06.27l-.2.64h-.22l.16-.67a.23.23,0,0,1-.17-.24.25.25,0,1,1,.49,0Z" transform="translate(-19.06 -32.91)"/>
        <path id="Path_1535" data-name="Path 1535" d="M172.5,220.49a1.2,1.2,0,0,1,1.26-1.24,1.06,1.06,0,0,1,1,.48l-.25.17a.83.83,0,0,0-.71-.36,1,1,0,0,0,0,1.9.82.82,0,0,0,.71-.36l.25.17a1.08,1.08,0,0,1-1,.48,1.21,1.21,0,0,1-1.26-1.24Z" transform="translate(-19.06 -32.91)"/>
        <path id="Path_1536" data-name="Path 1536" d="M175.06,220.49a1.24,1.24,0,1,1,1.24,1.24,1.2,1.2,0,0,1-1.24-1.24Zm2.15,0a.91.91,0,1,0-.9,1,.89.89,0,0,0,.9-1Z" transform="translate(-19.06 -32.91)"/>
        <path id="Path_1537" data-name="Path 1537" d="M180.46,220.3v1.41h-.33v-1.38a.68.68,0,0,0-.73-.78.8.8,0,0,0-.85.88v1.28h-.33v-2.44h.32v.45a1,1,0,0,1,.93-.47.93.93,0,0,1,.99,1.05Z" transform="translate(-19.06 -32.91)"/>
        <path id="Path_1538" data-name="Path 1538" d="M181,221.43l.15-.26a1.47,1.47,0,0,0,.87.27c.46,0,.65-.16.65-.4,0-.64-1.58-.13-1.58-1.1,0-.4.34-.7,1-.7a1.65,1.65,0,0,1,.86.23l-.14.26a1.25,1.25,0,0,0-.72-.21c-.44,0-.64.17-.64.4,0,.66,1.58.16,1.58,1.1,0,.42-.37.7-1,.7a1.63,1.63,0,0,1-1.03-.29Z" transform="translate(-19.06 -32.91)"/>
        <path id="Path_1539" data-name="Path 1539" d="M185.74,220.59h-2a.9.9,0,0,0,1,.85,1,1,0,0,0,.75-.32l.19.21a1.29,1.29,0,0,1-2.22-.84,1.18,1.18,0,0,1,1.19-1.24,1.16,1.16,0,0,1,1.18,1.24S185.74,220.56,185.74,220.59Zm-2-.25h1.73a.87.87,0,0,0-1.73,0Z" transform="translate(-19.06 -32.91)"/>
        <path id="Path_1540" data-name="Path 1540" d="M186.17,220.49a1.2,1.2,0,0,1,1.26-1.24,1.06,1.06,0,0,1,1,.48l-.25.17a.83.83,0,0,0-.71-.36,1,1,0,0,0,0,1.9.82.82,0,0,0,.71-.36l.25.17a1.07,1.07,0,0,1-1,.48,1.21,1.21,0,0,1-1.26-1.24Z" transform="translate(-19.06 -32.91)"/>
        <path id="Path_1541" data-name="Path 1541" d="M190.34,221.56a.78.78,0,0,1-.51.17.65.65,0,0,1-.71-.71v-1.48h-.44v-.28h.44v-.53h.33v.53h.74v.28h-.74V221a.39.39,0,0,0,.42.45.54.54,0,0,0,.36-.13Z" transform="translate(-19.06 -32.91)"/>
        <path id="Path_1542" data-name="Path 1542" d="M193,220.59h-2a.9.9,0,0,0,1,.85,1,1,0,0,0,.75-.32l.19.21a1.29,1.29,0,0,1-2.22-.84,1.19,1.19,0,1,1,2.37,0S193,220.56,193,220.59Zm-2-.25h1.73a.87.87,0,0,0-1.73,0Z" transform="translate(-19.06 -32.91)"/>
        <path id="Path_1543" data-name="Path 1543" d="M194.93,221.56a.79.79,0,0,1-.51.17.65.65,0,0,1-.71-.71v-1.48h-.44v-.28h.44v-.53H194v.53h.74v.28H194V221a.39.39,0,0,0,.42.45.54.54,0,0,0,.36-.13Z" transform="translate(-19.06 -32.91)"/>
        <path id="Path_1544" data-name="Path 1544" d="M197.72,219.27v2.44h-.32v-.45a1,1,0,0,1-.88.47.94.94,0,0,1-1-1v-1.41h.33v1.38a.68.68,0,0,0,.73.78.79.79,0,0,0,.83-.89v-1.28Z" transform="translate(-19.06 -32.91)"/>
        <path id="Path_1545" data-name="Path 1545" d="M200.77,220.59h-2a.9.9,0,0,0,1,.85,1,1,0,0,0,.75-.32l.19.21a1.29,1.29,0,0,1-2.22-.84,1.18,1.18,0,0,1,1.19-1.24,1.16,1.16,0,0,1,1.18,1.24S200.77,220.56,200.77,220.59Zm-2-.25h1.73a.87.87,0,0,0-1.73,0Z" transform="translate(-19.06 -32.91)"/>
        <path id="Path_1546" data-name="Path 1546" d="M202.67,219.25v.32h-.08a.79.79,0,0,0-.82.9v1.24h-.33v-2.44h.32v.48a.92.92,0,0,1,.91-.5Z" transform="translate(-19.06 -32.91)"/>
        <path id="Path_1547" data-name="Path 1547" d="M95.77,225.76v1.51h-.32v-.38a.92.92,0,0,1-.84.4c-.55,0-.89-.29-.89-.71s.24-.69.94-.69h.77v-.15a.6.6,0,0,0-.69-.65,1.24,1.24,0,0,0-.81.29l-.15-.25a1.55,1.55,0,0,1,1-.33.87.87,0,0,1,.99.96Zm-.33.78v-.4h-.77c-.47,0-.63.19-.63.44s.23.46.62.46a.78.78,0,0,0,.79-.5Z" transform="translate(-19.06 -32.91)"/>
        <path id="Path_1548" data-name="Path 1548" d="M98.9,223.83v3.44h-.32v-.48a1.06,1.06,0,0,1-.94.51,1.24,1.24,0,1,1,0-2.48,1.07,1.07,0,0,1,.93.48v-1.47Zm-.32,2.22a.91.91,0,1,0-.91,1,.89.89,0,0,0,.91-1Z" transform="translate(-19.06 -32.91)"/>
        <path id="Path_1549" data-name="Path 1549" d="M99.74,224.06a.24.24,0,0,1,.24-.23.23.23,0,0,1,.24.23.24.24,0,1,1-.48,0Zm.07.77h.33v2.44h-.33Z" transform="translate(-19.06 -32.91)"/>
        <path id="Path_1550" data-name="Path 1550" d="M103.54,226.05a1.18,1.18,0,0,1-1.22,1.24,1.07,1.07,0,0,1-.93-.48v1.36h-.33v-3.34h.32v.48a1.06,1.06,0,0,1,.94-.5,1.18,1.18,0,0,1,1.22,1.24Zm-.33,0a.91.91,0,1,0-.91,1,.9.9,0,0,0,.91-1Z" transform="translate(-19.06 -32.91)"/>
        <path id="Path_1551" data-name="Path 1551" d="M104.13,224.06a.24.24,0,0,1,.24-.23.23.23,0,0,1,.24.23.24.24,0,1,1-.48,0Zm.07.77h.33v2.44h-.33Z" transform="translate(-19.06 -32.91)"/>
        <path id="Path_1552" data-name="Path 1552" d="M105.11,227l.15-.26a1.47,1.47,0,0,0,.87.27c.46,0,.65-.16.65-.4,0-.64-1.58-.13-1.58-1.1,0-.4.34-.7,1-.7a1.65,1.65,0,0,1,.86.23l-.14.26a1.25,1.25,0,0,0-.72-.21c-.44,0-.64.17-.64.4,0,.66,1.58.16,1.58,1.1,0,.42-.37.7-1,.7a1.63,1.63,0,0,1-1.03-.29Z" transform="translate(-19.06 -32.91)"/>
        <path id="Path_1553" data-name="Path 1553" d="M107.47,226.05a1.2,1.2,0,0,1,1.26-1.24,1.06,1.06,0,0,1,1,.48l-.25.17a.83.83,0,0,0-.71-.36,1,1,0,0,0,0,1.9.83.83,0,0,0,.71-.36l.25.17a1.07,1.07,0,0,1-1,.48,1.2,1.2,0,0,1-1.26-1.24Z" transform="translate(-19.06 -32.91)"/>
        <path id="Path_1554" data-name="Path 1554" d="M110.25,224.06a.24.24,0,0,1,.24-.23.23.23,0,0,1,.24.23.24.24,0,1,1-.48,0Zm.07.77h.33v2.44h-.33Z" transform="translate(-19.06 -32.91)"/>
        <path id="Path_1555" data-name="Path 1555" d="M113.82,225.86v1.41h-.33v-1.38a.68.68,0,0,0-.73-.78.8.8,0,0,0-.85.88v1.28h-.33v-2.44h.32v.45a1,1,0,0,1,.93-.47.93.93,0,0,1,.99,1.05Z" transform="translate(-19.06 -32.91)"/>
        <path id="Path_1556" data-name="Path 1556" d="M117,224.83V227a1.07,1.07,0,0,1-1.22,1.22,1.7,1.7,0,0,1-1.14-.38l.17-.25a1.45,1.45,0,0,0,1,.33c.62,0,.9-.28.9-.89v-.31a1.1,1.1,0,0,1-1,.47,1.185,1.185,0,0,1,0-2.37,1.1,1.1,0,0,1,1,.49v-.47Zm-.32,1.16a.93.93,0,1,0-.93.89.87.87,0,0,0,.91-.88Z" transform="translate(-19.06 -32.91)"/>
        <path id="Path_1557" data-name="Path 1557" d="M121.24,226.16h-2a.9.9,0,0,0,1,.85,1,1,0,0,0,.75-.32l.19.21a1.29,1.29,0,0,1-2.22-.84,1.19,1.19,0,1,1,2.37,0S121.24,226.12,121.24,226.16Zm-2-.25h1.73a.87.87,0,0,0-1.73,0Z" transform="translate(-19.06 -32.91)"/>
        <path id="Path_1558" data-name="Path 1558" d="M121.91,223.83h.33v3.44h-.33Z" transform="translate(-19.06 -32.91)"/>
        <path id="Path_1559" data-name="Path 1559" d="M123.08,224.06a.24.24,0,0,1,.24-.23.23.23,0,0,1,.24.23.24.24,0,1,1-.48,0Zm.07.77h.33v2.44h-.33Z" transform="translate(-19.06 -32.91)"/>
        <path id="Path_1560" data-name="Path 1560" d="M125.69,227.12a.78.78,0,0,1-.51.17.65.65,0,0,1-.71-.71V225.1H124v-.28h.44v-.53h.33v.53h.74v.28h-.74v1.46a.39.39,0,0,0,.42.45.54.54,0,0,0,.36-.13Z" transform="translate(-19.06 -32.91)"/>
        <path id="Path_1561" data-name="Path 1561" d="M126.62,227a.75.75,0,0,1-.07.27l-.19.64h-.22l.16-.67a.23.23,0,0,1-.17-.24.25.25,0,1,1,.49,0Z" transform="translate(-19.06 -32.91)"/>
        <path id="Path_1562" data-name="Path 1562" d="M128.19,227l.15-.26a1.48,1.48,0,0,0,.87.27c.46,0,.65-.16.65-.4,0-.64-1.58-.13-1.58-1.1,0-.4.34-.7,1-.7a1.65,1.65,0,0,1,.86.23l-.14.26a1.25,1.25,0,0,0-.72-.21c-.44,0-.64.17-.64.4,0,.66,1.58.16,1.58,1.1,0,.42-.37.7-1,.7a1.64,1.64,0,0,1-1.03-.29Z" transform="translate(-19.06 -32.91)"/>
        <path id="Path_1563" data-name="Path 1563" d="M132.92,226.16h-2a.9.9,0,0,0,1,.85,1,1,0,0,0,.75-.32l.19.21a1.29,1.29,0,0,1-2.22-.84,1.19,1.19,0,1,1,2.37,0S132.92,226.12,132.92,226.16Zm-2-.25h1.73a.87.87,0,0,0-1.73,0Z" transform="translate(-19.06 -32.91)"/>
        <path id="Path_1564" data-name="Path 1564" d="M135.82,223.83v3.44h-.32v-.48a1.06,1.06,0,0,1-.94.51,1.24,1.24,0,1,1,0-2.48,1.07,1.07,0,0,1,.93.48v-1.47Zm-.32,2.22a.91.91,0,1,0-.91,1,.89.89,0,0,0,.91-1Z" transform="translate(-19.06 -32.91)"/>
        <path id="Path_1565" data-name="Path 1565" d="M140.18,223.83v3.44h-.32v-.48a1.06,1.06,0,0,1-.94.51,1.24,1.24,0,1,1,0-2.48,1.07,1.07,0,0,1,.93.48v-1.47Zm-.32,2.22a.91.91,0,1,0-.91,1,.89.89,0,0,0,.9-1Z" transform="translate(-19.06 -32.91)"/>
        <path id="Path_1566" data-name="Path 1566" d="M141,224.06a.24.24,0,0,1,.24-.23.23.23,0,0,1,.24.23.24.24,0,0,1-.48,0Zm.07.77h.33v2.44h-.33Z" transform="translate(-19.06 -32.91)"/>
        <path id="Path_1567" data-name="Path 1567" d="M144.18,225.76v1.51h-.32v-.38a.92.92,0,0,1-.84.4c-.55,0-.89-.29-.89-.71s.24-.69.94-.69h.78v-.15a.6.6,0,0,0-.69-.65,1.24,1.24,0,0,0-.81.29l-.15-.25a1.55,1.55,0,0,1,1-.33.87.87,0,0,1,.98.96Zm-.33.78v-.4h-.77c-.47,0-.63.19-.63.44s.23.46.62.46A.78.78,0,0,0,143.85,226.54Z" transform="translate(-19.06 -32.91)"/>
        <path id="Path_1568" data-name="Path 1568" d="M149.1,225.86v1.41h-.33v-1.38c0-.51-.26-.78-.7-.78a.78.78,0,0,0-.82.88v1.28h-.33v-1.38c0-.51-.26-.78-.7-.78a.79.79,0,0,0-.82.88v1.28h-.33v-2.44h.32v.45a1,1,0,0,1,.9-.46.88.88,0,0,1,.87.51,1.06,1.06,0,0,1,1-.51.92.92,0,0,1,.94,1.04Z" transform="translate(-19.06 -32.91)"/>
        <path id="Path_1569" data-name="Path 1569" d="M151.92,225l-1.65.64,1.65.64v.38l-2.08-.82v-.4l2.08-.82Z" transform="translate(-19.06 -32.91)"/>
        <path id="Path_1570" data-name="Path 1570" d="M153.63,223.37h.4l-1.53,4.37h-.4Z" transform="translate(-19.06 -32.91)"/>
        <path id="Path_1571" data-name="Path 1571" d="M157.14,224v3.25h-.46V225.8h-1.86v1.45h-.46V224h.46v1.4h1.86V224Z" transform="translate(-19.06 -32.91)"/>
        <path id="Path_1572" data-name="Path 1572" d="M158.85,224v3.25h-.46v-2.84h-.73V224Z" transform="translate(-19.06 -32.91)"/>
        <path id="Path_1573" data-name="Path 1573" d="M161.72,225.45v.4l-2.08.82v-.38l1.65-.64-1.65-.64v-.38Z" transform="translate(-19.06 -32.91)"/>
        <path id="Path_1574" data-name="Path 1574" d="M95.86,236.14l-1.65.64,1.65.64v.39L93.78,237v-.4l2.08-.82Z" transform="translate(-19.06 -32.91)"/>
        <path id="Path_1575" data-name="Path 1575" d="M99.28,236.28c0,.71-.51,1.13-1.35,1.13h-.8v1h-.46v-3.25h1.27C98.77,235.15,99.28,235.57,99.28,236.28Zm-.46,0c0-.46-.31-.73-.91-.73h-.79V237h.79C98.5,237,98.82,236.74,98.82,236.28Z" transform="translate(-19.06 -32.91)"/>
        <path id="Path_1576" data-name="Path 1576" d="M101.91,236.57v.4l-2.08.82v-.39l1.65-.64-1.65-.64v-.39Z" transform="translate(-19.06 -32.91)"/>
        <path id="Path_1577" data-name="Path 1577" d="M105.85,236.14l-1.65.64,1.65.64v.39l-2.08-.82v-.4l2.08-.82Z" transform="translate(-19.06 -32.91)"/>
        <path id="Path_1578" data-name="Path 1578" d="M106.64,235.15h.46v3.25h-.46Z" transform="translate(-19.06 -32.91)"/>
        <path id="Path_1579" data-name="Path 1579" d="M111.09,238.39V236l-1.17,2h-.21l-1.17-2v2.35h-.45V235.1h.38l1.35,2.28,1.34-2.28h.38v3.25Z" transform="translate(-19.06 -32.91)"/>
        <path id="Path_1580" data-name="Path 1580" d="M114.75,236.75h.45V238a1.92,1.92,0,0,1-1.23.41,1.66,1.66,0,1,1,1.26-2.82l-.29.29a1.28,1.28,0,0,0-.94-.38,1.25,1.25,0,0,0,0,2.5,1.37,1.37,0,0,0,.76-.21Z" transform="translate(-19.06 -32.91)"/>
        <path id="Path_1581" data-name="Path 1581" d="M117,238l.17-.36a1.67,1.67,0,0,0,1.07.38c.56,0,.8-.22.8-.5,0-.79-2-.29-2-1.5,0-.5.39-.93,1.24-.93a1.91,1.91,0,0,1,1,.29l-.15.37a1.68,1.68,0,0,0-.89-.26c-.55,0-.79.23-.79.51,0,.79,2,.3,2,1.49,0,.5-.4.92-1.26.92A1.93,1.93,0,0,1,117,238Z" transform="translate(-19.06 -32.91)"/>
        <path id="Path_1582" data-name="Path 1582" d="M122.38,238.39l-.7-1h-1v1h-.46v-3.25h1.27c.84,0,1.35.43,1.35,1.13a1,1,0,0,1-.71,1l.77,1.09Zm0-2.12c0-.46-.31-.73-.91-.73h-.79V237h.79c.58,0,.89-.26.89-.72Z" transform="translate(-19.06 -32.91)"/>
        <path id="Path_1583" data-name="Path 1583" d="M123.31,236.77a1.64,1.64,0,0,1,1.72-1.66,1.61,1.61,0,0,1,1.23.51l-.3.29a1.2,1.2,0,0,0-.91-.38,1.25,1.25,0,0,0,0,2.5,1.21,1.21,0,0,0,.91-.39l.3.29a1.61,1.61,0,0,1-1.24.51,1.64,1.64,0,0,1-1.71-1.67Z" transform="translate(-19.06 -32.91)"/>
        <path id="Path_1584" data-name="Path 1584" d="M126.75,236h2.08v.37h-2.08Zm0,1.1h2.08v.37h-2.08Z" transform="translate(-19.06 -32.91)"/>
        <path id="Path_1585" data-name="Path 1585" d="M130.67,235.15h.39v1.25h-.33Zm.84,0h.39v1.25h-.33Z" transform="translate(-19.06 -32.91)"/>
        <path id="Path_1586" data-name="Path 1586" d="M132.68,235.15h.46V238h1.76v.4h-2.22Z" transform="translate(-19.06 -32.91)"/>
        <path id="Path_1587" data-name="Path 1587" d="M135.11,237.16a1.28,1.28,0,1,1,1.28,1.26,1.22,1.22,0,0,1-1.28-1.26Zm2.11,0a.83.83,0,1,0-.83.83.83.83,0,0,0,.83-.83Z" transform="translate(-19.06 -32.91)"/>
        <path id="Path_1588" data-name="Path 1588" d="M139.6,235.91v.43h-.1a.73.73,0,0,0-.78.83v1.22h-.45v-2.46h.43v.41A.94.94,0,0,1,139.6,235.91Z" transform="translate(-19.06 -32.91)"/>
        <path id="Path_1589" data-name="Path 1589" d="M142.34,237.31h-2a.83.83,0,0,0,.89.72.92.92,0,0,0,.71-.3l.25.29a1.34,1.34,0,0,1-2.29-.86,1.2,1.2,0,0,1,1.23-1.25,1.18,1.18,0,0,1,1.21,1.27Q142.343,237.245,142.34,237.31Zm-2-.32h1.58a.79.79,0,0,0-1.58,0Z" transform="translate(-19.06 -32.91)"/>
        <path id="Path_1590" data-name="Path 1590" d="M147,237v1.42h-.45V237c0-.48-.23-.72-.64-.72a.71.71,0,0,0-.74.82v1.27h-.45V237c0-.48-.23-.72-.64-.72a.71.71,0,0,0-.74.82v1.27H143v-2.46h.43v.37a1,1,0,0,1,.85-.39.91.91,0,0,1,.85.45,1.11,1.11,0,0,1,.95-.45A.94.94,0,0,1,147,237Z" transform="translate(-19.06 -32.91)"/>
        <path id="Path_1591" data-name="Path 1591" d="M149,235.18a.29.29,0,1,1,.287.29.29.29,0,0,1-.287-.29Zm.08.76h.45v2.46h-.45Z" transform="translate(-19.06 -32.91)"/>
        <path id="Path_1592" data-name="Path 1592" d="M152.94,237.16a1.19,1.19,0,0,1-1.24,1.26,1.05,1.05,0,0,1-.86-.4v1.27h-.45v-3.36h.43v.39a1,1,0,0,1,.88-.41,1.19,1.19,0,0,1,1.24,1.25Zm-.45,0a.83.83,0,1,0-.83.87.81.81,0,0,0,.83-.87Z" transform="translate(-19.06 -32.91)"/>
        <path id="Path_1593" data-name="Path 1593" d="M153.25,238.13l.19-.35a1.58,1.58,0,0,0,.86.25c.41,0,.58-.12.58-.33,0-.55-1.55-.07-1.55-1.05,0-.44.39-.74,1-.74a1.78,1.78,0,0,1,.89.22l-.19.35a1.28,1.28,0,0,0-.71-.2c-.39,0-.58.14-.58.34,0,.58,1.56.11,1.56,1.06,0,.45-.41.73-1.06.73a1.78,1.78,0,0,1-.99-.28Z" transform="translate(-19.06 -32.91)"/>
        <path id="Path_1594" data-name="Path 1594" d="M158.17,235.94v2.46h-.42V238a1.046,1.046,0,0,1-1.89-.67v-1.41h.45v1.36c0,.48.24.72.66.72a.72.72,0,0,0,.76-.82v-1.27Z" transform="translate(-19.06 -32.91)"/>
        <path id="Path_1595" data-name="Path 1595" d="M163.1,237v1.42h-.45V237c0-.48-.23-.72-.64-.72a.71.71,0,0,0-.74.82v1.27h-.45V237c0-.48-.23-.72-.64-.72a.71.71,0,0,0-.74.82v1.27H159v-2.46h.43v.37a1,1,0,0,1,.85-.39.91.91,0,0,1,.85.45,1.11,1.11,0,0,1,.95-.45A.94.94,0,0,1,163.1,237Z" transform="translate(-19.06 -32.91)"/>
        <path id="Path_1596" data-name="Path 1596" d="M163.78,235.15h.39v1.25h-.33Zm.84,0H165v1.25h-.33Z" transform="translate(-19.06 -32.91)"/>
        <path id="Path_1597" data-name="Path 1597" d="M167.69,236.57v.4l-2.08.82v-.39l1.65-.64-1.65-.64v-.39Z" transform="translate(-19.06 -32.91)"/>
        <path id="Path_1598" data-name="Path 1598" d="M170.39,236.14l-1.65.64,1.65.64v.39l-2.08-.82v-.4l2.08-.82Z" transform="translate(-19.06 -32.91)"/>
        <path id="Path_1599" data-name="Path 1599" d="M172.1,234.49h.4l-1.5,4.37h-.4Z" transform="translate(-19.06 -32.91)"/>
        <path id="Path_1600" data-name="Path 1600" d="M175.44,236.28c0,.71-.51,1.13-1.36,1.13h-.8v1h-.46v-3.25h1.27C174.93,235.15,175.44,235.57,175.44,236.28Zm-.46,0c0-.46-.31-.73-.9-.73h-.79V237h.79c.58,0,.92-.26.92-.72Z" transform="translate(-19.06 -32.91)"/>
        <path id="Path_1601" data-name="Path 1601" d="M178.06,236.57v.4l-2.08.82v-.39l1.65-.64-1.65-.64v-.39Z" transform="translate(-19.06 -32.91)"/>
        <path id="Path_1602" data-name="Path 1602" d="M95.86,247.26l-1.65.64,1.65.64v.38l-2.08-.82v-.4l2.08-.82Z" transform="translate(-19.06 -32.91)"/>
        <path id="Path_1603" data-name="Path 1603" d="M97.57,245.61H98L96.44,250H96Z" transform="translate(-19.06 -32.91)"/>
        <path id="Path_1604" data-name="Path 1604" d="M101.08,248.64c0,.56-.42.88-1.24.88H98.29v-3.25h1.46c.75,0,1.16.32,1.16.84a.77.77,0,0,1-.44.72A.79.79,0,0,1,101.08,248.64Zm-2.33-2v1h1c.47,0,.74-.18.74-.52s-.27-.52-.74-.52Zm1.86,2c0-.38-.28-.54-.79-.54H98.75v1.08h1.07c.52-.04.79-.18.79-.58Z" transform="translate(-19.06 -32.91)"/>
        <path id="Path_1605" data-name="Path 1605" d="M101.53,247.89a1.73,1.73,0,1,1,1.73,1.66,1.65,1.65,0,0,1-1.73-1.66Zm3,0a1.26,1.26,0,1,0-1.26,1.25,1.22,1.22,0,0,0,1.25-1.25Z" transform="translate(-19.06 -32.91)"/>
        <path id="Path_1606" data-name="Path 1606" d="M105.69,246.27h1.37a1.63,1.63,0,1,1,0,3.25h-1.37Zm1.34,2.84a1.22,1.22,0,1,0,0-2.44h-.88v2.44Z" transform="translate(-19.06 -32.91)"/>
        <path id="Path_1607" data-name="Path 1607" d="M110.62,248.39v1.12h-.46v-1.13l-1.29-2.12h.5l1,1.71,1-1.71h.46Z" transform="translate(-19.06 -32.91)"/>
        <path id="Path_1608" data-name="Path 1608" d="M114.28,247.69v.4l-2.08.82v-.38l1.65-.64-1.65-.64v-.38Z" transform="translate(-19.06 -32.91)"/>
        <path id="Path_1609" data-name="Path 1609" d="M76.71,160.36c0,.14,32.09.26,71.67.26s71.68-.12,71.68-.26-32.09-.26-71.68-.26S76.71,160.22,76.71,160.36Z" transform="translate(-19.06 -32.91)" fill="#263238"/>
        <circle id="Ellipse_671" data-name="Ellipse 671" cx="0.92" cy="0.92" r="0.92" transform="translate(60.66 121.41)" fill="#263238"/>
        <circle id="Ellipse_672" data-name="Ellipse 672" cx="0.92" cy="0.92" r="0.92" transform="translate(64.2 121.41)" fill="#263238"/>
        <circle id="Ellipse_673" data-name="Ellipse 673" cx="0.92" cy="0.92" r="0.92" transform="translate(67.75 121.41)" fill="#263238"/>
        <path id="Path_1610" data-name="Path 1610" d="M211,268.78c.14,0,.26-24.33.26-54.34s-.12-54.34-.26-54.34-.26,24.33-.26,54.34S210.82,268.78,211,268.78Z" transform="translate(-19.06 -32.91)" fill="#e0e0e0"/>
        <rect id="Rectangle_302" data-name="Rectangle 302" width="59.25" height="42.24" transform="translate(332.96 21.87)" fill="#e8505b"/>
        <ellipse id="Ellipse_674" data-name="Ellipse 674" cx="29.87" cy="0.26" rx="29.87" ry="0.26" transform="translate(332.94 27.87)" fill="#fff"/>
        <ellipse id="Ellipse_675" data-name="Ellipse 675" cx="0.8" cy="0.7" rx="0.8" ry="0.7" transform="translate(336.2 24.35)" fill="#fff"/>
        <ellipse id="Ellipse_676" data-name="Ellipse 676" cx="0.8" cy="0.7" rx="0.8" ry="0.7" transform="translate(339.11 24.35)" fill="#fff"/>
        <ellipse id="Ellipse_677" data-name="Ellipse 677" cx="0.8" cy="0.7" rx="0.8" ry="0.7" transform="translate(342.02 24.35)" fill="#fff"/>
        <path id="Path_1611" data-name="Path 1611" d="M373.93,77.89c0,2.54-1.84,4.07-4.87,4.07h-3.2v3.76H364.6V73.81h4.46C372.1,73.81,373.93,75.34,373.93,77.89Zm-1.26,0c0-1.91-1.26-3-3.64-3h-3.17v6H369c2.42-.04,3.68-1.13,3.68-3Z" transform="translate(-19.06 -32.91)" fill="#fff"/>
        <path id="Path_1612" data-name="Path 1612" d="M386.61,73.81V85.72h-1.24v-5.5h-7.45v5.5h-1.26V73.81h1.26v5.31h7.45V73.81Z" transform="translate(-19.06 -32.91)" fill="#fff"/>
        <path id="Path_1613" data-name="Path 1613" d="M399.8,77.89c0,2.54-1.84,4.07-4.87,4.07h-3.2v3.76h-1.26V73.81h4.46C398,73.81,399.8,75.34,399.8,77.89Zm-1.26,0c0-1.91-1.26-3-3.64-3h-3.16v6h3.16c2.39-.04,3.64-1.13,3.64-3Z" transform="translate(-19.06 -32.91)" fill="#fff"/>
        <rect id="Rectangle_303" data-name="Rectangle 303" width="53.56" height="38.18" transform="translate(16.51 183.39)" fill="#e8505b"/>
        <path id="Path_1614" data-name="Path 1614" d="M53.64,234v7.58H51.88v-3.11H48.44v3.11H46.69V234h1.75v3h3.44v-3Z" transform="translate(-19.06 -32.91)" fill="#fff"/>
        <path id="Path_1615" data-name="Path 1615" d="M57,235.46H54.58V234h6.6v1.43H58.76v6.15H57Z" transform="translate(-19.06 -32.91)" fill="#fff"/>
        <path id="Path_1616" data-name="Path 1616" d="M69.25,241.61v-4.55L67,240.81h-.79L64,237.16v4.45H62.35V234H63.8l2.84,4.71L69.43,234h1.44v7.58Z" transform="translate(-19.06 -32.91)" fill="#fff"/>
        <path id="Path_1617" data-name="Path 1617" d="M72.57,234h1.75v6.15h3.8v1.43H72.57Z" transform="translate(-19.06 -32.91)" fill="#fff"/>
        <ellipse id="Ellipse_678" data-name="Ellipse 678" cx="27" cy="0.17" rx="27" ry="0.17" transform="translate(16.49 188.89)" fill="#fff"/>
        <ellipse id="Ellipse_679" data-name="Ellipse 679" cx="0.72" cy="0.63" rx="0.72" ry="0.63" transform="translate(19.44 185.64)" fill="#fff"/>
        <ellipse id="Ellipse_680" data-name="Ellipse 680" cx="0.72" cy="0.63" rx="0.72" ry="0.63" transform="translate(22.07 185.64)" fill="#fff"/>
        <ellipse id="Ellipse_681" data-name="Ellipse 681" cx="0.72" cy="0.63" rx="0.72" ry="0.63" transform="translate(24.7 185.64)" fill="#fff"/>
        <rect id="Rectangle_304" data-name="Rectangle 304" width="39.49" height="28.15" transform="translate(381.6 182.84)" fill="#e8505b"/>
        <ellipse id="Ellipse_682" data-name="Ellipse 682" cx="19.91" cy="0.12" rx="19.91" ry="0.12" transform="translate(381.29 186.9)" fill="#fff"/>
        <ellipse id="Ellipse_683" data-name="Ellipse 683" cx="0.53" cy="0.47" rx="0.53" ry="0.47" transform="translate(417.86 184.49)" fill="#fff"/>
        <ellipse id="Ellipse_684" data-name="Ellipse 684" cx="0.53" cy="0.47" rx="0.53" ry="0.47" transform="translate(415.93 184.49)" fill="#fff"/>
        <ellipse id="Ellipse_685" data-name="Ellipse 685" cx="0.53" cy="0.47" rx="0.53" ry="0.47" transform="translate(413.99 184.49)" fill="#fff"/>
        <path id="Path_1618" data-name="Path 1618" d="M168.54,107.29a7.39,7.39,0,0,1,7.67-7.5,7.05,7.05,0,0,1,5.26,2l-.68.7a6.19,6.19,0,0,0-4.54-1.75,6.51,6.51,0,1,0,0,13,6.21,6.21,0,0,0,4.54-1.77l.68.7a7.07,7.07,0,0,1-5.26,2.07,7.39,7.39,0,0,1-7.67-7.45Z" transform="translate(-19.06 -32.91)" fill="#e8505b"/>
        <path id="Path_1619" data-name="Path 1619" d="M183.5,112.78l.49-.8a7,7,0,0,0,4.88,1.86c3,0,4.27-1.29,4.27-2.9,0-4.44-9.24-1.77-9.24-7.23,0-2.09,1.61-3.93,5.24-3.93a7.94,7.94,0,0,1,4.46,1.33l-.4.87a7.31,7.31,0,0,0-4.06-1.25c-2.87,0-4.16,1.33-4.16,3,0,4.44,9.23,1.82,9.23,7.19,0,2.09-1.67,3.91-5.33,3.91a7.58,7.58,0,0,1-5.38-2.05Z" transform="translate(-19.06 -32.91)" fill="#e8505b"/>
        <path id="Path_1620" data-name="Path 1620" d="M196.37,112.78l.49-.8a7,7,0,0,0,4.88,1.86c3,0,4.27-1.29,4.27-2.9,0-4.44-9.24-1.77-9.24-7.23,0-2.09,1.61-3.93,5.24-3.93a7.94,7.94,0,0,1,4.46,1.33l-.4.87a7.31,7.31,0,0,0-4.06-1.25c-2.87,0-4.16,1.33-4.16,3,0,4.44,9.23,1.82,9.23,7.19,0,2.09-1.67,3.91-5.33,3.91A7.58,7.58,0,0,1,196.37,112.78Z" transform="translate(-19.06 -32.91)" fill="#e8505b"/>
        <path id="Path_1621" data-name="Path 1621" d="M219.67,126.52v-3.03l-.05-8.56c0-7.39-.06-18-.11-31l.21.21-65.89.05h0L154,84v42.56l-.24-.24,47.4.12,13.59.06h.11l-13.54.06-47.56.12h-.24V83.7h.27l65.89.05h.21V84c0,13-.08,23.66-.11,31.09,0,3.67,0,6.54-.05,8.51v2.21C219.69,126.28,219.67,126.52,219.67,126.52Z" transform="translate(-19.06 -32.91)" fill="#e8505b"/>
        <ellipse id="Ellipse_686" data-name="Ellipse 686" cx="32.96" cy="0.26" rx="32.96" ry="0.26" transform="translate(134.7 57.1)" fill="#e8505b"/>
        <ellipse id="Ellipse_687" data-name="Ellipse 687" cx="0.8" cy="0.71" rx="0.8" ry="0.71" transform="translate(137.99 53.55)" fill="#e8505b"/>
        <ellipse id="Ellipse_688" data-name="Ellipse 688" cx="0.8" cy="0.71" rx="0.8" ry="0.71" transform="translate(140.92 53.55)" fill="#e8505b"/>
        <ellipse id="Ellipse_689" data-name="Ellipse 689" cx="0.8" cy="0.71" rx="0.8" ry="0.71" transform="translate(143.85 53.55)" fill="#e8505b"/>
      </g>
      <g id="Character">
        <path id="Path_1622" data-name="Path 1622" d="M344,271.95l-26.13,88.18a9.22,9.22,0,0,1-8.84,6.6l-106,.29a9.8,9.8,0,0,1-9.81-10.32h0a9.8,9.8,0,0,1,9.79-9.28h40.53L276,257h56.82A11.66,11.66,0,0,1,344,271.95Z" transform="translate(-19.06 -32.91)" fill="#455a64"/>
        <ellipse id="Ellipse_690" data-name="Ellipse 690" cx="24.14" cy="0.37" rx="24.14" ry="0.37" transform="translate(235.3 321.39)" fill="#263238"/>
        <path id="Path_1623" data-name="Path 1623" d="M336.24,259.78c-.2-.07-7.41,21-16.12,47.15s-15.61,47.33-15.41,47.39,7.41-21,16.12-47.16S336.44,259.85,336.24,259.78Z" transform="translate(-19.06 -32.91)" fill="#263238"/>
        <path id="Path_1624" data-name="Path 1624" d="M239.71,412.18l6.46-.16v-78.2h-6.46Z" fill="#455a64"/>
        <path id="Path_1625" data-name="Path 1625" d="M273.01,411.82H212.87l27.24-9.47h6.46Z" fill="#455a64"/>
        <path id="Path_1626" data-name="Path 1626" d="M307.27,236.76l-9.95,49.71,1.78,37.25L232.22,312.6l2.62-32.6.05-27-16.4,31.78L205.73,260.1l23.38-42.35h0a39.46,39.46,0,0,1,15.3-9.9A31.551,31.551,0,0,1,254,206h0a38.42,38.42,0,0,0,23.15,0c.94.12,2.24.24,3.89.44h.3a29.57,29.57,0,0,1,25.81,27.81Z" transform="translate(-19.06 -32.91)" fill="#e8505b"/>
        <path id="Path_1627" data-name="Path 1627" d="M281,206.47s27.48.21,30.88,29.23l.46,21.28-23.67-.2Z" transform="translate(-19.06 -32.91)" fill="#e8505b"/>
        <path id="Path_1628" data-name="Path 1628" d="M215.38,243.8c0,.21,21.62.37,48.29.37S312,244,312,243.8s-21.62-.37-48.3-.37S215.38,243.6,215.38,243.8Z" transform="translate(-19.06 -32.91)" fill="#fafafa"/>
        <path id="Path_1629" data-name="Path 1629" d="M215.38,248.41c0,.21,21.62.37,48.29.37s48.3-.17,48.3-.37-21.62-.37-48.3-.37S215.38,248.2,215.38,248.41Z" transform="translate(-19.06 -32.91)" fill="#fafafa"/>
        <path id="Path_1630" data-name="Path 1630" d="M216.93,240c0,.21,21.28.37,47.52.37S312,240.2,312,240s-21.27-.37-47.52-.37S216.93,239.79,216.93,240Z" transform="translate(-19.06 -32.91)" fill="#fafafa"/>
        <ellipse id="Ellipse_691" data-name="Ellipse 691" cx="0.37" cy="26.27" rx="0.37" ry="26.27" transform="translate(214.671 199.332) rotate(-1.26)" fill="#263238"/>
        <path id="Path_1631" data-name="Path 1631" d="M244.65,265.69s-13,.93-15.34,4.37-5.91,13.24-4.55,13.31a3.69,3.69,0,0,0,2.33-.74l3.56-6.31s-.57,6.1,1.56,6.22,12.68,2.23,12.68,2.23Z" transform="translate(-19.06 -32.91)" fill="#ffbe9d"/>
        <path id="Path_1632" data-name="Path 1632" d="M312.37,251.32v33.51A12.73,12.73,0,0,1,297,296.58l-52.41-10.8.11-21.49L289.91,273l.6-22.75Z" transform="translate(-19.06 -32.91)" fill="#e8505b"/>
        <path id="Path_1633" data-name="Path 1633" d="M282.46,293.89a3.629,3.629,0,0,0-.69-.19l-2-.46-7.7-1.63L244.76,286l.27.33V264.26l-.44.36,9.21,1.77,36,6.86.39.07V273l-.83-24.17-.28-6.75-.1-1.77a2.832,2.832,0,0,0-.07-.61,2.879,2.879,0,0,0,0,.61v1.78l.11,6.75L289.6,273l.38-.32-36-7-9.21-1.76-.44-.08v22.8l.27.05L272,292l7.74,1.45,2.05.36a3.641,3.641,0,0,0,.67.08Z" transform="translate(-19.06 -32.91)" fill="#263238"/>
        <path id="Path_1634" data-name="Path 1634" d="M252.4,206.47a2.855,2.855,0,0,0-.22.49,9.879,9.879,0,0,0-.41,1.48,12.15,12.15,0,0,0,.25,5.64,14.83,14.83,0,0,0,4.55,7,14.12,14.12,0,0,0,9.54,3.6,13,13,0,0,0,9.43-3.83,13.29,13.29,0,0,0,3.51-7.59,12,12,0,0,0-.66-5.61,8,8,0,0,0-.67-1.38c-.18-.3-.29-.45-.31-.44s.32.67.71,1.92a12.5,12.5,0,0,1,.41,5.45,13,13,0,0,1-3.48,7.17,12.41,12.41,0,0,1-8.94,3.56,13.6,13.6,0,0,1-9.08-3.37,14.63,14.63,0,0,1-4.5-6.65,12.72,12.72,0,0,1-.46-5.44C252.24,207.19,252.48,206.49,252.4,206.47Z" transform="translate(-19.06 -32.91)" fill="#263238"/>
        <path id="Path_1635" data-name="Path 1635" d="M249.87,287.56a16.24,16.24,0,0,0,0-3.31c-.08-2-.18-4.84-.2-7.94s0-5.91.1-7.95a16.249,16.249,0,0,0,0-3.31,13.26,13.26,0,0,0-.5,3.28c-.19,2-.34,4.86-.32,8s.2,5.94.42,8A13.281,13.281,0,0,0,249.87,287.56Z" transform="translate(-19.06 -32.91)" fill="#fafafa"/>
        <path id="Path_1636" data-name="Path 1636" d="M252.58,288.11a15.33,15.33,0,0,0,.09-3.28l-.08-7.89v-7.9a15.322,15.322,0,0,0-.13-3.28,13.57,13.57,0,0,0-.4,3.26c-.14,2-.24,4.82-.23,7.92s.15,5.89.3,7.91a13.571,13.571,0,0,0,.45,3.26Z" transform="translate(-19.06 -32.91)" fill="#fafafa"/>
        <path id="Path_1637" data-name="Path 1637" d="M200.1,421.25l-9.91,27.28-14.06,19.32a3,3,0,0,0,.82,4.27h0a3,3,0,0,0,2.71.23c5.67-2.35,26.47-11.11,27.09-13.14.71-2.36,14.14-31.69,14.14-31.69Z" transform="translate(-19.06 -32.91)" fill="#e8505b"/>
        <g id="Group_113" data-name="Group 113" opacity="0.6">
          <path id="Path_1638" data-name="Path 1638" d="M177,472.11l30.51-14.74-.45,1.15a4.47,4.47,0,0,1-2,2.32c-2.5,1.35-9.49,4.93-25.23,11.54a3,3,0,0,1-2.79-.27Z" transform="translate(-19.06 -32.91)" fill="#fff"/>
        </g>
        <g id="Group_114" data-name="Group 114" opacity="0.6">
          <path id="Path_1639" data-name="Path 1639" d="M205.31,446.49a1.8,1.8,0,0,0-1.31,2,1.73,1.73,0,0,0,2,1.32,1.9,1.9,0,0,0,1.38-2.14,1.79,1.79,0,0,0-2.21-1.14" transform="translate(-19.06 -32.91)" fill="#fff"/>
        </g>
        <path id="Path_1640" data-name="Path 1640" d="M187.74,462.7a8.634,8.634,0,0,0-1.55-3c-1.31-1.36-2.91-1.63-2.88-1.81s.43-.15,1.09,0a4.74,4.74,0,0,1,3.43,3.74C187.93,462.29,187.81,462.7,187.74,462.7Z" transform="translate(-19.06 -32.91)" fill="#263238"/>
        <path id="Path_1641" data-name="Path 1641" d="M184.4,465.57c-.17.07-.7-1.15-1.94-2.1s-2.53-1.18-2.51-1.37,1.5-.24,2.9.87S184.57,465.55,184.4,465.57Z" transform="translate(-19.06 -32.91)" fill="#263238"/>
        <path id="Path_1642" data-name="Path 1642" d="M193.13,459.45c-.18.08-1-1.8-2.78-3.44s-3.71-2.31-3.65-2.5,2.17.25,4.08,2S193.29,459.43,193.13,459.45Z" transform="translate(-19.06 -32.91)" fill="#263238"/>
        <path id="Path_1643" data-name="Path 1643" d="M196.83,451.41c-.14.13-1.39-1.07-3.3-1.9s-3.64-1-3.63-1.15a5.793,5.793,0,0,1,3.89.57C195.84,449.85,197,451.32,196.83,451.41Z" transform="translate(-19.06 -32.91)" fill="#263238"/>
        <path id="Path_1644" data-name="Path 1644" d="M199.94,443.48c-.14.12-1.3-1.36-3.39-2.07s-3.9-.31-3.94-.5.41-.3,1.17-.42a6.48,6.48,0,0,1,5.5,1.92C199.81,443,200,443.43,199.94,443.48Z" transform="translate(-19.06 -32.91)" fill="#263238"/>
        <path id="Path_1645" data-name="Path 1645" d="M197.2,439.92a2.5,2.5,0,0,1,.36-1,7.62,7.62,0,0,1,1.86-2.36,3.38,3.38,0,0,1,1.94-1,1.2,1.2,0,0,1,1.16.74,1.94,1.94,0,0,1,0,1.39,4.2,4.2,0,0,1-4.84,2.29,4.88,4.88,0,0,1-3.54-4.11,1.69,1.69,0,0,1,.44-1.34,1.17,1.17,0,0,1,1.37-.13,4.16,4.16,0,0,1,1.42,1.62,8.51,8.51,0,0,1,1,2.82,2.59,2.59,0,0,1,.05,1.1,13.539,13.539,0,0,0-1.46-3.68,3.88,3.88,0,0,0-1.27-1.38.62.62,0,0,0-.75.07,1.16,1.16,0,0,0-.23.9,4.35,4.35,0,0,0,3.11,3.53,3.65,3.65,0,0,0,4.14-1.88,1.41,1.41,0,0,0,.07-1,.65.65,0,0,0-.63-.42,3.06,3.06,0,0,0-1.66.8,11.27,11.27,0,0,0-2.54,3.04Z" transform="translate(-19.06 -32.91)" fill="#263238"/>
        <path id="Path_1646" data-name="Path 1646" d="M158.28,414.11l.86,22.17s-22.25,8.32-22.49,12.43l43-.12.08-34.6Z" transform="translate(-19.06 -32.91)" fill="#e8505b"/>
        <g id="Group_115" data-name="Group 115" opacity="0.6">
          <path id="Path_1647" data-name="Path 1647" d="M172.44,434.38a1.76,1.76,0,0,1,1.22,2,1.69,1.69,0,0,1-2,1.23,1.85,1.85,0,0,1-1.28-2.13,1.75,1.75,0,0,1,2.2-1" transform="translate(-19.06 -32.91)" fill="#fff"/>
        </g>
        <g id="Group_116" data-name="Group 116" opacity="0.6">
          <path id="Path_1648" data-name="Path 1648" d="M179.69,448.59v-3.45l-41.36,1.38s-1.91.84-1.69,2.19Z" transform="translate(-19.06 -32.91)" fill="#fff"/>
        </g>
        <path id="Path_1649" data-name="Path 1649" d="M158.44,436.06c0,.21,1.06.3,2.09,1s1.59,1.55,1.78,1.47-.12-1.3-1.39-2.09S158.39,435.87,158.44,436.06Z" transform="translate(-19.06 -32.91)" fill="#263238"/>
        <path id="Path_1650" data-name="Path 1650" d="M153.93,437.94c0,.2.86.56,1.58,1.45s.93,1.83,1.13,1.82.34-1.2-.57-2.28S153.93,437.74,153.93,437.94Z" transform="translate(-19.06 -32.91)" fill="#263238"/>
        <path id="Path_1651" data-name="Path 1651" d="M151.38,443.35c.19,0,.48-1-.06-2.16s-1.53-1.61-1.62-1.43.52.79,1,1.74S151.17,443.33,151.38,443.35Z" transform="translate(-19.06 -32.91)" fill="#263238"/>
        <path id="Path_1652" data-name="Path 1652" d="M158.8,431c.09.19,1.05-.1,2.24,0s2.12.45,2.22.27-.78-.93-2.18-1S158.7,430.83,158.8,431Z" transform="translate(-19.06 -32.91)" fill="#263238"/>
        <g id="Group_117" data-name="Group 117" opacity="0.3">
          <path id="Path_1653" data-name="Path 1653" d="M139.4,385.59l.14,3.95,21.16-.25.01-3.56Z"/>
        </g>
        <path id="Path_1654" data-name="Path 1654" d="M158.71,426.52a4,4,0,0,0,2.16,0,9.692,9.692,0,0,0,2.25-.7,10.164,10.164,0,0,0,1.24-.66,2.65,2.65,0,0,0,.65-.51.92.92,0,0,0,.09-1.12,1.15,1.15,0,0,0-.92-.48,2.813,2.813,0,0,0-.81.11,7.728,7.728,0,0,0-1.34.46,7.6,7.6,0,0,0-2,1.31c-1,.93-1.34,1.71-1.26,1.75s.58-.59,1.59-1.36a8.611,8.611,0,0,1,1.92-1.09,8,8,0,0,1,1.24-.38c.46-.12.84-.13,1,.08s0,.11,0,.24a2.16,2.16,0,0,1-.48.37,11.312,11.312,0,0,1-1.14.65,11.941,11.941,0,0,1-2.08.8,14.859,14.859,0,0,0-2.11.53Z" transform="translate(-19.06 -32.91)" fill="#263238"/>
        <path id="Path_1655" data-name="Path 1655" d="M159,426.82a3.43,3.43,0,0,0,.56-2.08,7,7,0,0,0-.85-3.67,1.78,1.78,0,0,0-1.38-1.08,1,1,0,0,0-.9.6,2.93,2.93,0,0,0-.22.79,4.79,4.79,0,0,0,0,1.45,5,5,0,0,0,.93,2.22c.84,1.11,1.72,1.36,1.74,1.29a9.3,9.3,0,0,1-1.31-1.58,5,5,0,0,1-.69-2,4.449,4.449,0,0,1,0-1.25c.07-.46.24-.83.41-.78a1.612,1.612,0,0,1,.76.7,7.18,7.18,0,0,1,.54,1.17,7.751,7.751,0,0,1,.42,2.15C159.09,426,158.87,426.78,159,426.82Z" transform="translate(-19.06 -32.91)" fill="#263238"/>
        <path id="Path_1656" data-name="Path 1656" d="M179.73,307.84c25.43,2.63,59.14,6.08,59.14,6.08l-4.6,41.39s-49.53-13.09-49.17-12-2.29,88.06-2.29,88.06H153l-.56-98.53a24.77,24.77,0,0,1,27.29-25Z" transform="translate(-19.06 -32.91)" fill="#263238"/>
        <path id="Path_1657" data-name="Path 1657" d="M299.72,324.54v12.83c0,8.74-10,18-18.69,18h-6.76c-5.32,0-13.66-3.88-18-7l-2.58-1.89-31.05,96.21s-35.54-6.37-35.54-7.49,24.07-78.8,35.17-114.85c4.54-14.72,20.31-23.28,34.88-18.28q.74.26,1.49.55C274.6,309,299.72,324.54,299.72,324.54Z" transform="translate(-19.06 -32.91)" fill="#263238"/>
        <path id="Path_1658" data-name="Path 1658" d="M187.14,435.19a1.4,1.4,0,0,0,.16-.34l.39-1c.34-.91.83-2.25,1.41-4,1.19-3.48,2.82-8.54,4.81-14.81,4-12.54,9.27-29.9,15.06-49.11l8.11-27.09L220.59,327l1.6-5.36a48.387,48.387,0,0,1,1.62-4.87,19.94,19.94,0,0,1,5-7.1,42.259,42.259,0,0,1,5.25-4.09c1.52-1,2.73-1.78,3.56-2.28l.93-.58a.19.19,0,1,0,0-.07l-1,.52c-.85.46-2.09,1.17-3.65,2.16a40.354,40.354,0,0,0-5.38,4,20.2,20.2,0,0,0-5.22,7.21,48.08,48.08,0,0,0-1.68,4.9L220,326.81l-3.58,11.81-8.16,27.08L193.4,414.86l-4.58,14.88-1.28,4-.32,1.05A1.44,1.44,0,0,0,187.14,435.19Z" transform="translate(-19.06 -32.91)" fill="#455a64"/>
        <path id="Path_1659" data-name="Path 1659" d="M179.64,330.88c-.18.13,1.51,2.67,2.92,6.11s2,6.43,2.26,6.39-.1-3.14-1.57-6.67S179.79,330.76,179.64,330.88Z" transform="translate(-19.06 -32.91)" fill="#455a64"/>
        <path id="Path_1660" data-name="Path 1660" d="M173.95,334.88c-.09.21,2.48,1.33,5.15,3.45s4.39,4.32,4.57,4.19-1.32-2.6-4.11-4.77S174,334.7,173.95,334.88Z" transform="translate(-19.06 -32.91)" fill="#455a64"/>
        <path id="Path_1661" data-name="Path 1661" d="M222.34,442.68c.2.06,8.59-25.68,18.74-57.5s18.22-57.67,18-57.73-8.58,25.68-18.74,57.5S222.14,442.62,222.34,442.68Z" transform="translate(-19.06 -32.91)" fill="#455a64"/>
        <path id="Path_1662" data-name="Path 1662" d="M241.39,259.68l-101.65.98-18.96-53.58,73.94.5,17.16,48.18,29.51.44Z" fill="#455a64"/>
        <circle id="Ellipse_692" data-name="Ellipse 692" cx="4.12" cy="4.12" r="4.12" transform="translate(159.095 230.901) rotate(-8.04)" fill="#fff"/>
        <path id="Path_1663" data-name="Path 1663" d="M268.75,147.57c-1-3.56-3.64-5.32-7.14-6.51a11.51,11.51,0,0,0-10.5,1.7c-2,1.5-3.5,3.67-5.84,4.48-3.84,1.33-8.34-1.54-12,.18a5.24,5.24,0,0,0,2.48,10c-2.51.92-3.29,4.49-1.82,6.72s4.47,3.07,7.09,2.58a14.72,14.72,0,0,0,6.89-3.86c2-1.78,3.76-3.8,5.88-5.42a11.45,11.45,0,0,1,7.36-2.7c3.61.19,6.7,2.91,8.31,6.15s2,6.93,2.18,10.54.26,7.27,1.33,10.72a1.412,1.412,0,0,0,.72,1c.59.18,1.08-.44,1.37-1a53,53,0,0,0,6.06-19.71c.41-4,.3-7.78-1.89-11.14s-7.75-5.84-10.47-3.72" transform="translate(-19.06 -32.91)" fill="#263238"/>
        <path id="Path_1664" data-name="Path 1664" d="M275.72,164.3l1.84,40.46c.31,6.88-.63,17.05-11.53,17.05h0c-9.46-.71-12.25-9.55-12.54-16-.14-3-.26-5.59-.29-5.9,0,0-10.34-.5-11.55-10.66-.58-4.91-1-15.12-1.2-24.36a19.06,19.06,0,0,1,17-19.43l1-.1C269.13,144.88,275.51,153.64,275.72,164.3Z" transform="translate(-19.06 -32.91)" fill="#ffbe9d"/>
        <path id="Path_1665" data-name="Path 1665" d="M253.17,199.8A23.79,23.79,0,0,0,266,194.62s-2.36,7.66-12.61,7.82Z" transform="translate(-19.06 -32.91)" fill="#eb996e"/>
        <path id="Path_1666" data-name="Path 1666" d="M244.14,171.42a1.46,1.46,0,0,0,1.56,1.32,1.4,1.4,0,0,0,1.36-1.47A1.46,1.46,0,0,0,245.5,170a1.4,1.4,0,0,0-1.36,1.42Z" transform="translate(-19.06 -32.91)" fill="#263238"/>
        <path id="Path_1667" data-name="Path 1667" d="M243.17,169.68c.2.17,1.21-.76,2.78-.92s2.79.5,2.94.29-.15-.42-.68-.73a4,4,0,0,0-2.38-.47,3.85,3.85,0,0,0-2.19,1C243.2,169.25,243.07,169.61,243.17,169.68Z" transform="translate(-19.06 -32.91)" fill="#263238"/>
        <path id="Path_1668" data-name="Path 1668" d="M259.53,170.32a1.46,1.46,0,0,0,1.56,1.32,1.4,1.4,0,0,0,1.36-1.47,1.46,1.46,0,0,0-1.56-1.32,1.4,1.4,0,0,0-1.36,1.47Z" transform="translate(-19.06 -32.91)" fill="#263238"/>
        <path id="Path_1669" data-name="Path 1669" d="M258.57,168.34c.2.17,1.22-.76,2.78-.92s2.79.5,2.94.29-.14-.42-.68-.73a4,4,0,0,0-2.38-.47,3.85,3.85,0,0,0-2.19,1C258.6,167.9,258.47,168.26,258.57,168.34Z" transform="translate(-19.06 -32.91)" fill="#263238"/>
        <path id="Path_1670" data-name="Path 1670" d="M254.13,180.54a10.4,10.4,0,0,0-2.59-.19c-.4,0-.79,0-.89-.3a2,2,0,0,1,.14-1.21l.86-3.17c1.18-4.5,2-8.19,1.81-8.23S252.17,171,251,175.5l-.81,3.18a2.33,2.33,0,0,0,0,1.59,1,1,0,0,0,.72.51,2.731,2.731,0,0,0,.69,0,10.24,10.24,0,0,0,2.53-.24Z" transform="translate(-19.06 -32.91)" fill="#263238"/>
        <path id="Path_1671" data-name="Path 1671" d="M258.84,181.13c-.26,0-.08,1.71-1.4,3.07s-3.15,1.36-3.14,1.6.44.29,1.2.23a4.25,4.25,0,0,0,2.63-1.24,3.7,3.7,0,0,0,1.07-2.56C259.19,181.51,259,181.11,258.84,181.13Z" transform="translate(-19.06 -32.91)" fill="#263238"/>
        <path id="Path_1672" data-name="Path 1672" d="M257.51,162.25c.2.41,1.74,0,3.6.07s3.39.37,3.6,0c.09-.19-.21-.57-.85-.91a6.25,6.25,0,0,0-5.48,0C257.73,161.69,257.42,162.06,257.51,162.25Z" transform="translate(-19.06 -32.91)" fill="#263238"/>
        <path id="Path_1673" data-name="Path 1673" d="M243.26,165.1c.31.33,1.35-.16,2.64-.31s2.42,0,2.63-.41c.09-.19-.12-.53-.63-.81a3.86,3.86,0,0,0-4.25.59C243.23,164.55,243.12,164.94,243.26,165.1Z" transform="translate(-19.06 -32.91)" fill="#263238"/>
        <path id="Path_1674" data-name="Path 1674" d="M275.69,171.92c.17-.09,6.77-2.81,7.29,4.17s-6.6,6.06-6.62,5.86S275.69,171.92,275.69,171.92Z" transform="translate(-19.06 -32.91)" fill="#ffbe9d"/>
        <path id="Path_1675" data-name="Path 1675" d="M278.29,179.15a2.216,2.216,0,0,0,.34.16,1.22,1.22,0,0,0,.91,0,3,3,0,0,0,1.19-2.8,4,4,0,0,0-.47-1.72,1.41,1.41,0,0,0-1-.87.62.62,0,0,0-.69.39c-.08.2,0,.34-.06.35s-.16-.11-.12-.4a.78.78,0,0,1,.24-.46.92.92,0,0,1,.66-.23,1.71,1.71,0,0,1,1.35,1,4.14,4.14,0,0,1,.57,1.91c.06,1.41-.56,2.78-1.55,3.15a1.31,1.31,0,0,1-1.13-.1C278.32,179.32,278.27,179.17,278.29,179.15Z" transform="translate(-19.06 -32.91)" fill="#eb996e"/>
        <path id="Path_1676" data-name="Path 1676" d="M238.07,163a14.78,14.78,0,0,0,12.74-4.33c2.25-2.36,3.84-5.58,6.84-6.87a8.31,8.31,0,0,1,6.41.19,16.06,16.06,0,0,1,5.26,3.89c-1.42,5.38.52,11,2.43,16.24a2.78,2.78,0,0,0,1,1.52c.89.55,2.07-.08,2.71-.91a8.64,8.64,0,0,0,1.4-4.74,28.779,28.779,0,0,0-1.27-11.28,19.59,19.59,0,0,0-6.4-9.26A18.56,18.56,0,0,0,255.71,144a22.79,22.79,0,0,0-12.64,6.1,13.35,13.35,0,0,0-3.75,5.38" transform="translate(-19.06 -32.91)" fill="#263238"/>
      </g>
      <g id="Plant">
        <path id="Path_1677" data-name="Path 1677" d="M433.6,378.08a18.89,18.89,0,0,0-11.72-1.42c-2.13.35-4.34,1-5.79,2.58s-1.72,4.41-.06,5.78a5.55,5.55,0,0,0,3.65.93c3.1,0,6.54-.58,9,1.28,1.41,1.06,2.35,2.83,4,3.35a4,4,0,0,0,4.39-2,6.82,6.82,0,0,0,.5-5,7.69,7.69,0,0,0-3.97-5.5Z" transform="translate(-19.06 -32.91)" fill="#e8505b"/>
        <path id="Path_1678" data-name="Path 1678" d="M441.77,362.31c-2.18,3.11-6.42,2.08-8.38.18s-2.79-4.65-3.55-7.28c-1.73-6-3.47-12.3-2.18-18.41a10.23,10.23,0,0,1,2.35-5,5.34,5.34,0,0,1,5.06-1.68c2.14.56,3.46,2.66,4.42,4.65a43.88,43.88,0,0,1,4.34,18.83c0,3-.35,6.21-2.06,8.72" transform="translate(-19.06 -32.91)" fill="#e8505b"/>
        <path id="Path_1679" data-name="Path 1679" d="M447.76,366.78A11.33,11.33,0,0,1,446,356.35a20.09,20.09,0,0,1,6.17-9,33.24,33.24,0,0,1,11.06-6.52,11.79,11.79,0,0,1,5-.84,5.22,5.22,0,0,1,4.17,2.52c1.16,2.22,0,4.91-1.16,7.11a84.254,84.254,0,0,1-7.24,11.1c-2.18,2.81-4.67,5.57-8,6.84s-6.76,1.12-8.52-1.18" transform="translate(-19.06 -32.91)" fill="#e8505b"/>
        <path id="Path_1680" data-name="Path 1680" d="M441.92,409.28a6.786,6.786,0,0,1-.2-1.41l-.38-3.86a55.736,55.736,0,0,0-.87-5.66,43.708,43.708,0,0,0-2.06-6.68,24.64,24.64,0,0,0-3.41-6,12.75,12.75,0,0,0-4.31-3.59,12.07,12.07,0,0,0-3.63-1.13,6.8,6.8,0,0,1-1.41-.2,6.62,6.62,0,0,1,1.43,0,11,11,0,0,1,3.79,1,12.72,12.72,0,0,1,4.55,3.62,24.069,24.069,0,0,1,3.54,6.17,40.871,40.871,0,0,1,2,6.79,47.886,47.886,0,0,1,.75,5.73c.12,1.64.17,3,.19,3.88a6.637,6.637,0,0,1,.02,1.34Z" transform="translate(-19.06 -32.91)" fill="#263238"/>
        <path id="Path_1681" data-name="Path 1681" d="M441.65,406.3a2.8,2.8,0,0,1,0-.66v-1.88c0-1.63,0-4-.08-6.9-.14-5.82-.65-12.09-1.61-20.92-.92-8.31-2.15-18-3.45-24.26-.28-1.43-.56-2.72-.82-3.84s-.47-2.1-.67-2.89l-.44-1.82a2.8,2.8,0,0,1-.11-.65,2.76,2.76,0,0,1,.23.62l.54,1.8c.24.78.49,1.75.77,2.87s.6,2.41.91,3.83a213,213,0,0,1,3.62,22.51,223.821,223.821,0,0,1,1.45,22.75c0,2.92,0,5.28-.1,6.91l-.11,1.88a2.772,2.772,0,0,1-.13.65Z" transform="translate(-19.06 -32.91)" fill="#263238"/>
        <path id="Path_1682" data-name="Path 1682" d="M441.61,390.76a12.471,12.471,0,0,1,0-2c.07-1.26.25-3.08.6-5.31a70,70,0,0,1,1.73-7.74,63.423,63.423,0,0,1,3.24-9.16,48.79,48.79,0,0,1,9.51-14.8,24.139,24.139,0,0,1,2.24-2.08,10.442,10.442,0,0,1,1-.81l.87-.6a12.479,12.479,0,0,1,1.65-1.06,58.5,58.5,0,0,0-5.41,4.83,51.411,51.411,0,0,0-9.27,14.75,72.393,72.393,0,0,0-3.26,9.07,78.71,78.71,0,0,0-1.84,7.66c-.4,2.21-.64,4-.78,5.26A12.651,12.651,0,0,1,441.61,390.76Z" transform="translate(-19.06 -32.91)" fill="#263238"/>
        <path id="Path_1683" data-name="Path 1683" d="M437.58,385.27l-1.56,21.34H408.61l-1.56-21.34Z" fill="#263238"/>
        <rect id="Rectangle_305" data-name="Rectangle 305" width="36.45" height="8.41" transform="translate(403.78 376.86)" fill="#263238"/>
        <path id="Path_1684" data-name="Path 1684" d="M440.23,405.79v2.34H404.38v-2.34Z" fill="#455a64"/>
        <path id="Path_1685" data-name="Path 1685" d="M436.84,412.23l1.68-4.1H405.69l1.95,4.1Z" fill="#455a64"/>
        <path id="Path_1686" data-name="Path 1686" d="M426.62,425.16a.882.882,0,0,0,.13.2l.41.54,1.6,2,.07.09.07-.1,3.92-5.43h-.23l3.86,5.47.12.17.14-.16,4.58-5.45H441l.25.32,4.1,5.14.14.17.13-.18,3.87-5.47h-.22l4.76,5.42.08.1.06-.11,1.49-2.5.38-.67a1.06,1.06,0,0,0,.12-.24,1.06,1.06,0,0,0-.12.24l-.42.64L454,427.84h.15l-4.68-5.49-.12-.14-.11.15-3.9,5.44h.26l-4.09-5.14-.25-.32-.13-.16-.13.16-4.57,5.46h.26l-3.9-5.44-.11-.16-.11.16-3.84,5.49h.14l-1.66-2-.44-.51C426.68,425.21,426.62,425.15,426.62,425.16Z" transform="translate(-19.06 -32.91)" fill="#e0e0e0"/>
        <ellipse id="Ellipse_693" data-name="Ellipse 693" cx="15.34" cy="0.17" rx="15.34" ry="0.17" transform="translate(406.67 384.96)" fill="#455a64"/>
        <ellipse id="Ellipse_694" data-name="Ellipse 694" cx="16.68" cy="0.17" rx="16.68" ry="0.17" transform="translate(405.28 408.19)" fill="#263238"/>
      </g>
      <g id="Devices">
        <path id="Path_1687" data-name="Path 1687" d="M81.16,162.65l19.04,79.66H94.88L76.11,162.65Z" fill="#263238"/>
        <path id="Path_1688" data-name="Path 1688" d="M107.53,248c.34,1.46-8.63,44.88-8.63,44.88h4.32L110,258.5Z" transform="translate(-19.06 -32.91)" fill="#263238"/>
        <rect id="Rectangle_306" data-name="Rectangle 306" width="89.23" height="94.59" transform="translate(114.26 412) rotate(180)" fill="#e8505b"/>
        <rect id="Rectangle_307" data-name="Rectangle 307" width="4.38" height="4.38" transform="translate(25.03 335.62) rotate(180)" fill="#263238"/>
        <rect id="Rectangle_308" data-name="Rectangle 308" width="4.38" height="4.38" transform="translate(25.03 349.53) rotate(180)" fill="#263238"/>
        <rect id="Rectangle_309" data-name="Rectangle 309" width="4.38" height="4.38" transform="translate(25.03 363.44) rotate(180)" fill="#263238"/>
        <rect id="Rectangle_310" data-name="Rectangle 310" width="4.38" height="4.38" transform="translate(25.03 377.35) rotate(180)" fill="#263238"/>
        <path id="Path_1689" data-name="Path 1689" d="M39.56,393.25a6.609,6.609,0,0,0-1.35-.3,22.361,22.361,0,0,0-3.75-.36A10.12,10.12,0,0,0,29,394a6.27,6.27,0,0,0-3,6,7.53,7.53,0,0,0,1.14,3.43,9,9,0,0,0,2.31,2.44A11.79,11.79,0,0,0,34.68,408a17.141,17.141,0,0,0,3.77.13,5.612,5.612,0,0,0,1.37-.19,9.324,9.324,0,0,0-1.38,0,20.333,20.333,0,0,1-3.7-.29,11.78,11.78,0,0,1-5-2.08,7.68,7.68,0,0,1-3.2-5.57,5.83,5.83,0,0,1,2.75-5.56A10,10,0,0,1,34.46,393a28.448,28.448,0,0,1,3.72.19,7.441,7.441,0,0,0,1.38.06Z" transform="translate(-19.06 -32.91)" fill="#263238"/>
        <path id="Path_1690" data-name="Path 1690" d="M40.65,379.42a1.6,1.6,0,0,0-.42-.25,8.846,8.846,0,0,0-1.3-.52,10.261,10.261,0,0,0-5.13-.29,4.65,4.65,0,0,0-1.63.65A2.84,2.84,0,0,0,31,380.57a4.5,4.5,0,0,0,1,4,4.43,4.43,0,0,0,1.85,1.36,2.88,2.88,0,0,0,2.42-.13,2.46,2.46,0,0,0,1.39-2.1,2.52,2.52,0,0,0-1.42-2.17,3.88,3.88,0,0,0-2.55-.27,5.26,5.26,0,0,0-2.23,1.06,6,6,0,0,0-2.22,4,5.62,5.62,0,0,0,1.14,4,8.08,8.08,0,0,0,2.74,2.32,13.17,13.17,0,0,0,5,1.3c.6,0,1.07.06,1.39.07a1.7,1.7,0,0,0,.49,0s-.66-.09-1.86-.24a13.88,13.88,0,0,1-4.82-1.42A7.81,7.81,0,0,1,30.74,390a5.2,5.2,0,0,1-1-3.65,5.56,5.56,0,0,1,2.06-3.63,4.77,4.77,0,0,1,2-1A3.38,3.38,0,0,1,36,382a1.793,1.793,0,0,1,0,3.34,2.38,2.38,0,0,1-2,.11,4,4,0,0,1-1.65-1.2,4.08,4.08,0,0,1-1-3.56,3,3,0,0,1,2.45-2,10.56,10.56,0,0,1,5,.12C40,379.15,40.63,379.47,40.65,379.42Z" transform="translate(-19.06 -32.91)" fill="#263238"/>
        <path id="Path_1691" data-name="Path 1691" d="M40.6,365.85a2.55,2.55,0,0,0-1-.18A7.16,7.16,0,0,0,37,366a7.481,7.481,0,0,0-.48,14,7.16,7.16,0,0,0,2.65.54,2.55,2.55,0,0,0,1-.12,10,10,0,0,1-3.49-.76,7.56,7.56,0,0,1-2.95-2.39A7.29,7.29,0,0,1,34,368.6a7.56,7.56,0,0,1,3.09-2.21,10,10,0,0,1,3.51-.54Z" transform="translate(-19.06 -32.91)" fill="#263238"/>
        <path id="Path_1692" data-name="Path 1692" d="M106.83,300.07a8.92,8.92,0,0,0-.75,1.77,33.908,33.908,0,0,0-1.18,5.37c-.37,2.36-.68,5.27-1,8.65s-.6,7.23-1.14,11.45c-.14,1.06-.31,2.13-.52,3.22a14.35,14.35,0,0,1-1,3.22,11.7,11.7,0,0,1-2.19,2.7A17.21,17.21,0,0,1,89,341.13a14.19,14.19,0,0,1-7.88-1.36,9.54,9.54,0,0,1-5.12-6.4,7.31,7.31,0,0,1,.3-4.25,7.51,7.51,0,0,1,2.77-3.35,8.38,8.38,0,0,1,4.22-1.41,6.69,6.69,0,0,1,4.27,1.26A4.709,4.709,0,0,1,89,327.33a3.53,3.53,0,0,1,.28,2.18A5.29,5.29,0,0,1,86.55,333,12.83,12.83,0,0,1,82,334.29a42,42,0,0,1-4.75.33,74.3,74.3,0,0,1-9.31-.53c-6.09-.68-12-1.66-17.64-1.72s-11.13.73-15.7,3a18.38,18.38,0,0,0-5.84,4.37,13.48,13.48,0,0,0-3,6A16.18,16.18,0,0,0,27.45,357a19,19,0,0,0,5.93,6.33,22.172,22.172,0,0,0,4.9,2.5,15.228,15.228,0,0,0,1.84.55l-.46-.17c-.31-.1-.76-.26-1.34-.48a23.211,23.211,0,0,1-4.82-2.57,19,19,0,0,1-5.79-6.31,15.91,15.91,0,0,1-1.63-11,13.11,13.11,0,0,1,3-5.81,18,18,0,0,1,5.73-4.24,33.96,33.96,0,0,1,15.51-2.87c5.6.13,11.48,1.06,17.59,1.75a74.454,74.454,0,0,0,9.38.54,42.421,42.421,0,0,0,4.81-.33,13.31,13.31,0,0,0,4.74-1.32,5.8,5.8,0,0,0,3-3.88,4.05,4.05,0,0,0-.32-2.5,5.22,5.22,0,0,0-1.61-1.9,7.2,7.2,0,0,0-4.6-1.36,8.88,8.88,0,0,0-4.48,1.5,8,8,0,0,0-3,3.58,7.8,7.8,0,0,0-.32,4.54,10,10,0,0,0,5.36,6.71A14.64,14.64,0,0,0,89,341.58a17.61,17.61,0,0,0,10.33-4.83,12,12,0,0,0,2.26-2.83,14.649,14.649,0,0,0,1-3.32c.21-1.1.38-2.19.51-3.25.52-4.24.77-8.1,1.06-11.47s.56-6.28.9-8.64a36.64,36.64,0,0,1,1.08-5.37,12.178,12.178,0,0,1,.47-1.34A2.7,2.7,0,0,0,106.83,300.07Z" transform="translate(-19.06 -32.91)" fill="#263238"/>
        <path id="Path_1693" data-name="Path 1693" d="M49.17,441v-6.32c0-4.11,0-10.1.06-17.72,0-15.23.07-36.92.12-62.88l-.23.23h80.65l-.26-.26v86.92l.22-.22-58.45.11L55,440.91h-.09l16.34.06,58.59.11h.22V353.82H48.91V354c0,26,.09,47.77.12,63,0,7.59,0,13.57.06,17.67v5.82A4.029,4.029,0,0,1,49.17,441Z" transform="translate(-19.06 -32.91)" fill="#263238"/>
        <circle id="Ellipse_695" data-name="Ellipse 695" cx="0.41" cy="0.41" r="0.41" transform="translate(52.83 331.41)" fill="#263238"/>
        <circle id="Ellipse_696" data-name="Ellipse 696" cx="0.41" cy="0.41" r="0.41" transform="translate(50.56 331.41)" fill="#263238"/>
        <circle id="Ellipse_697" data-name="Ellipse 697" cx="0.41" cy="0.41" r="0.41" transform="translate(48.28 331.41)" fill="#263238"/>
        <circle id="Ellipse_698" data-name="Ellipse 698" cx="0.41" cy="0.41" r="0.41" transform="translate(46 331.41)" fill="#263238"/>
        <circle id="Ellipse_699" data-name="Ellipse 699" cx="0.41" cy="0.41" r="0.41" transform="translate(43.72 331.41)" fill="#263238"/>
        <circle id="Ellipse_700" data-name="Ellipse 700" cx="0.41" cy="0.41" r="0.41" transform="translate(41.44 331.41)" fill="#263238"/>
        <circle id="Ellipse_701" data-name="Ellipse 701" cx="0.41" cy="0.41" r="0.41" transform="translate(39.16 331.41)" fill="#263238"/>
        <circle id="Ellipse_702" data-name="Ellipse 702" cx="0.41" cy="0.41" r="0.41" transform="translate(40.21 332.94)" fill="#263238"/>
        <circle id="Ellipse_703" data-name="Ellipse 703" cx="0.41" cy="0.41" r="0.41" transform="translate(42.54 332.94)" fill="#263238"/>
        <circle id="Ellipse_704" data-name="Ellipse 704" cx="0.41" cy="0.41" r="0.41" transform="translate(44.87 332.94)" fill="#263238"/>
        <circle id="Ellipse_705" data-name="Ellipse 705" cx="0.41" cy="0.41" r="0.41" transform="translate(47.21 332.94)" fill="#263238"/>
        <circle id="Ellipse_706" data-name="Ellipse 706" cx="0.41" cy="0.41" r="0.41" transform="translate(49.54 332.94)" fill="#263238"/>
        <circle id="Ellipse_707" data-name="Ellipse 707" cx="0.41" cy="0.41" r="0.41" transform="translate(51.87 332.94)" fill="#263238"/>
        <circle id="Ellipse_708" data-name="Ellipse 708" cx="0.41" cy="0.41" r="0.41" transform="translate(52.83 334.68)" fill="#263238"/>
        <circle id="Ellipse_709" data-name="Ellipse 709" cx="0.41" cy="0.41" r="0.41" transform="translate(50.56 334.68)" fill="#263238"/>
        <circle id="Ellipse_710" data-name="Ellipse 710" cx="0.41" cy="0.41" r="0.41" transform="translate(48.28 334.68)" fill="#263238"/>
        <circle id="Ellipse_711" data-name="Ellipse 711" cx="0.41" cy="0.41" r="0.41" transform="translate(46 334.68)" fill="#263238"/>
        <circle id="Ellipse_712" data-name="Ellipse 712" cx="0.41" cy="0.41" r="0.41" transform="translate(43.72 334.68)" fill="#263238"/>
        <circle id="Ellipse_713" data-name="Ellipse 713" cx="0.41" cy="0.41" r="0.41" transform="translate(41.44 334.68)" fill="#263238"/>
        <circle id="Ellipse_714" data-name="Ellipse 714" cx="0.41" cy="0.41" r="0.41" transform="translate(39.16 334.68)" fill="#263238"/>
        <circle id="Ellipse_715" data-name="Ellipse 715" cx="0.41" cy="0.41" r="0.41" transform="translate(40.21 336.21)" fill="#263238"/>
        <circle id="Ellipse_716" data-name="Ellipse 716" cx="0.41" cy="0.41" r="0.41" transform="translate(42.54 336.21)" fill="#263238"/>
        <circle id="Ellipse_717" data-name="Ellipse 717" cx="0.41" cy="0.41" r="0.41" transform="translate(44.87 336.21)" fill="#263238"/>
        <circle id="Ellipse_718" data-name="Ellipse 718" cx="0.41" cy="0.41" r="0.41" transform="translate(47.21 336.21)" fill="#263238"/>
        <circle id="Ellipse_719" data-name="Ellipse 719" cx="0.41" cy="0.41" r="0.41" transform="translate(49.54 336.21)" fill="#263238"/>
        <circle id="Ellipse_720" data-name="Ellipse 720" cx="0.41" cy="0.41" r="0.41" transform="translate(51.87 336.21)" fill="#263238"/>
        <circle id="Ellipse_721" data-name="Ellipse 721" cx="0.41" cy="0.41" r="0.41" transform="translate(52.83 337.94)" fill="#263238"/>
        <circle id="Ellipse_722" data-name="Ellipse 722" cx="0.41" cy="0.41" r="0.41" transform="translate(50.56 337.94)" fill="#263238"/>
        <circle id="Ellipse_723" data-name="Ellipse 723" cx="0.41" cy="0.41" r="0.41" transform="translate(48.28 337.94)" fill="#263238"/>
        <circle id="Ellipse_724" data-name="Ellipse 724" cx="0.41" cy="0.41" r="0.41" transform="translate(46 337.94)" fill="#263238"/>
        <circle id="Ellipse_725" data-name="Ellipse 725" cx="0.41" cy="0.41" r="0.41" transform="translate(43.72 337.94)" fill="#263238"/>
        <circle id="Ellipse_726" data-name="Ellipse 726" cx="0.41" cy="0.41" r="0.41" transform="translate(41.44 337.94)" fill="#263238"/>
        <circle id="Ellipse_727" data-name="Ellipse 727" cx="0.41" cy="0.41" r="0.41" transform="translate(39.16 337.94)" fill="#263238"/>
        <circle id="Ellipse_728" data-name="Ellipse 728" cx="0.41" cy="0.41" r="0.41" transform="translate(40.21 339.47)" fill="#263238"/>
        <circle id="Ellipse_729" data-name="Ellipse 729" cx="0.41" cy="0.41" r="0.41" transform="translate(42.54 339.47)" fill="#263238"/>
        <circle id="Ellipse_730" data-name="Ellipse 730" cx="0.41" cy="0.41" r="0.41" transform="translate(44.87 339.47)" fill="#263238"/>
        <circle id="Ellipse_731" data-name="Ellipse 731" cx="0.41" cy="0.41" r="0.41" transform="translate(47.21 339.47)" fill="#263238"/>
        <circle id="Ellipse_732" data-name="Ellipse 732" cx="0.41" cy="0.41" r="0.41" transform="translate(49.54 339.47)" fill="#263238"/>
        <circle id="Ellipse_733" data-name="Ellipse 733" cx="0.41" cy="0.41" r="0.41" transform="translate(51.87 339.47)" fill="#263238"/>
        <path id="Path_1694" data-name="Path 1694" d="M103.43,271.29a5,5,0,0,0-1.62.28,9.12,9.12,0,0,0-3.94,2.58,17,17,0,0,0-3.48,6.6,64.661,64.661,0,0,0-2.19,9.66,121.911,121.911,0,0,0-.64,25.75,15.13,15.13,0,0,0,2.24,7.14,9.08,9.08,0,0,0,2.8,2.7,6.31,6.31,0,0,0,3.9.93,6,6,0,0,0,3.71-1.72,4.57,4.57,0,0,0,1.09-1.82,3.88,3.88,0,0,0,0-2.15,4.6,4.6,0,0,0-2.79-3.14,3.31,3.31,0,0,0-2.21,0,4,4,0,0,0-1.76,1.33,5.45,5.45,0,0,0-1,4.15A11.37,11.37,0,0,0,99,327.55a15.47,15.47,0,0,0,5.7,5.74,15.28,15.28,0,0,0,14.81.21,17.41,17.41,0,0,0,5.4-4.65,22.64,22.64,0,0,0,3.28-5.87,38.35,38.35,0,0,0,2.19-11.8c.2-3.67,0-7,.36-9.87a16.479,16.479,0,0,1,.93-3.91,11,11,0,0,1,1.67-2.92,8.31,8.31,0,0,1,3.71-2.75,11.281,11.281,0,0,1,1.59-.38,5.149,5.149,0,0,0-1.62.28,8.25,8.25,0,0,0-3.83,2.72,11.13,11.13,0,0,0-1.75,3,16.589,16.589,0,0,0-1,4c-.4,2.91-.21,6.24-.44,9.89a38.21,38.21,0,0,1-2.23,11.67,22.26,22.26,0,0,1-3.24,5.74,17,17,0,0,1-5.27,4.51,14.81,14.81,0,0,1-14.32-.23,15,15,0,0,1-5.5-5.56,10.88,10.88,0,0,1-1.38-3.75,4.93,4.93,0,0,1,.87-3.76,3.5,3.5,0,0,1,1.53-1.16,2.78,2.78,0,0,1,1.86,0,4.09,4.09,0,0,1,2.46,2.79,3.59,3.59,0,0,1-1,3.48,5.53,5.53,0,0,1-3.39,1.57,5.8,5.8,0,0,1-3.59-.85A8.59,8.59,0,0,1,94.19,323,14.68,14.68,0,0,1,92,316.12a123.639,123.639,0,0,1,.52-25.65,65.64,65.64,0,0,1,2.11-9.63A17,17,0,0,1,98,274.29a9.23,9.23,0,0,1,3.82-2.61,10.679,10.679,0,0,1,1.61-.39Z" transform="translate(-19.06 -32.91)" fill="#e0e0e0"/>
        <rect id="Rectangle_311" data-name="Rectangle 311" width="33.22" height="6.33" transform="translate(125.44 259.18) rotate(180)" fill="#e0e0e0"/>
        <rect id="Rectangle_312" data-name="Rectangle 312" width="43.33" height="93.27" transform="translate(375.33 411.55) rotate(180)" fill="#263238"/>
        <path id="Path_1695" data-name="Path 1695" d="M354.79,434.65v-6.02c0-3.9,0-9.56.07-16.66,0-14.22.07-34.24.12-57.53l-.25.25H391l-.26-.26c0,31.16.05,59.46.07,80.22l.19-.19-26.47.1h-.11l26.58.1h.19v-.19c0-20.76,0-49.06.07-80.22v-.26H354.55v.25l.12,57.7c0,7.08.05,12.72.07,16.61v5.54C354.78,434.53,354.79,434.65,354.79,434.65Z" transform="translate(-19.06 -32.91)" fill="#455a64"/>
        <path id="Path_1696" data-name="Path 1696" d="M357,361.22v-1l.06-2.7-.11.11c5.61.09,17.63.15,31.52.15h0l-.26-.26h0v3.65l.26-.26c-8.82,0-16.65.06-22.32.11l-6.71.08h-1.83a5.188,5.188,0,0,0-.66,0,3.481,3.481,0,0,0,.59,0h1.77l6.65.08c5.66.05,13.58.11,22.51.11h.26v-3.91h0l-.26-.26h0c-13.9,0-25.92.06-31.52.15h-.12v.11l.06,2.77a7.135,7.135,0,0,0,.11,1.07Z" transform="translate(-19.06 -32.91)" fill="#455a64"/>
        <ellipse id="Ellipse_734" data-name="Ellipse 734" cx="1.45" cy="0.26" rx="1.45" ry="0.26" transform="translate(366.33 330.68)" fill="#455a64"/>
        <ellipse id="Ellipse_735" data-name="Ellipse 735" cx="14.99" cy="0.26" rx="14.99" ry="0.26" transform="translate(338.81 335.5)" fill="#455a64"/>
        <ellipse id="Ellipse_736" data-name="Ellipse 736" cx="14.73" cy="0.26" rx="14.73" ry="0.26" transform="translate(338.68 341.31)" fill="#455a64"/>
        <circle id="Ellipse_737" data-name="Ellipse 737" cx="2.38" cy="2.38" r="2.38" transform="translate(351.42 352.77)" fill="#e8505b"/>
        <ellipse id="Ellipse_738" data-name="Ellipse 738" cx="3.19" cy="0.26" rx="3.19" ry="0.26" transform="translate(360.52 354.78)" fill="#455a64"/>
        <ellipse id="Ellipse_739" data-name="Ellipse 739" cx="3.03" cy="0.26" rx="3.03" ry="0.26" transform="translate(341.17 354.17)" fill="#455a64"/>
        <path id="Path_1697" data-name="Path 1697" d="M392.91,398a9,9,0,0,0,1.62-.3,14.121,14.121,0,0,0,4.29-2,18.34,18.34,0,0,0,5.17-5.39,31.14,31.14,0,0,0,3.77-9.16,37.431,37.431,0,0,0,1.2-11.95,24.53,24.53,0,0,0-4.55-12.93,20.491,20.491,0,0,0-5.43-5.16,18.62,18.62,0,0,0-3.49-1.73,19.089,19.089,0,0,0-3.86-.92c-2.64-.37-5.35-.32-8.05-.48a20,20,0,0,1-7.91-1.82,8.87,8.87,0,0,1-4.91-6,8.43,8.43,0,0,1,8.42-10.3,6,6,0,0,1,3.34,1.24,3.62,3.62,0,0,1,1.4,3,4.84,4.84,0,0,1-4.46,4.31,7.33,7.33,0,0,1-5.72-2.57A13.73,13.73,0,0,1,371,330.4a47.2,47.2,0,0,1-1.15-5.61,92.413,92.413,0,0,1-.53-17.31l.24-4.72.06-1.23a2.5,2.5,0,0,0,0-.42,2.5,2.5,0,0,0-.05.42l-.11,1.22c-.09,1.08-.21,2.66-.34,4.71a88.847,88.847,0,0,0,.37,17.37,47.127,47.127,0,0,0,1.13,5.67,14.1,14.1,0,0,0,2.83,5.61,7.76,7.76,0,0,0,6.07,2.74,5.3,5.3,0,0,0,4.91-4.74,4.1,4.1,0,0,0-1.57-3.42,6.46,6.46,0,0,0-3.61-1.36,8.93,8.93,0,0,0-9,10.91,8.711,8.711,0,0,0,1.84,3.78,10.309,10.309,0,0,0,3.35,2.61,20.44,20.44,0,0,0,8.12,1.88c2.73.16,5.42.11,8,.46a18.606,18.606,0,0,1,3.76.89,18.159,18.159,0,0,1,3.39,1.68,20,20,0,0,1,5.31,5,24.14,24.14,0,0,1,4.51,12.68,37.27,37.27,0,0,1-1.12,11.83,31.109,31.109,0,0,1-3.66,9.1,18.34,18.34,0,0,1-5,5.38,14.6,14.6,0,0,1-4.2,2.05c-.52.15-.92.25-1.19.3Z" transform="translate(-19.06 -32.91)" fill="#263238"/>
        <rect id="Rectangle_313" data-name="Rectangle 313" width="102.6" height="70.46" transform="translate(388.61 244.05) rotate(180)" fill="#263238"/>
        <rect id="Rectangle_314" data-name="Rectangle 314" width="13.97" height="26.58" transform="translate(345.25 261.02) rotate(180)" fill="#263238"/>
      </g>
      <g id="Desk">
        <path id="Path_1698" data-name="Path 1698" d="M378.4,260v9.57H325.47V412.02H320.6V269.57L99.5,270.66V412.02H94.72V270.39l-34.12.28V259.18Z" fill="#263238"/>
        <path id="Path_1699" data-name="Path 1699" d="M344.53,267.71l-20.88,15.03,1.82,1.74,21.04-15.86Z" fill="#263238"/>
        <path id="Path_1700" data-name="Path 1700" d="M75.05,269.11l24.22,17.25-1.82,1.74L73.06,270.03Z" fill="#263238"/>
        <rect id="Rectangle_315" data-name="Rectangle 315" width="54.72" height="4.03" transform="translate(301.42 260.51) rotate(180)" fill="#263238"/>
      </g>
    </g>
  </g>
</svg>
