<svg xmlns="http://www.w3.org/2000/svg" xmlns:xlink="http://www.w3.org/1999/xlink" width="724" height="520" viewBox="0 0 724 520">
  <defs>
    <filter id="Rectangle_289" x="0" y="0" width="724" height="520" filterUnits="userSpaceOnUse">
      <feOffset dx="2" dy="4" input="SourceAlpha"/>
      <feGaussianBlur stdDeviation="7.5" result="blur"/>
      <feFlood flood-opacity="0.161"/>
      <feComposite operator="in" in2="blur"/>
      <feComposite in="SourceGraphic"/>
    </filter>
  </defs>
  <g id="Group_136" data-name="Group 136" transform="translate(-167.5 -1698.5)">
    <g transform="matrix(1, 0, 0, 1, 167.5, 1698.5)" filter="url(#Rectangle_289)">
      <rect id="Rectangle_289-2" data-name="Rectangle 289" width="679" height="475" rx="31" transform="translate(20.5 18.5)" fill="#2a303a"/>
    </g>
    <g id="_11" data-name="11" transform="translate(213.077 1763.814)">
      <g id="freepik--Floor--inject-272" transform="translate(0.02 367.511)">
        <path id="Path_1701" data-name="Path 1701" d="M353.9,463.65c173.826,0,314.692.112,314.692.244s-140.932.244-314.692.244-314.655-.112-314.655-.244S180.06,463.65,353.9,463.65Z" transform="translate(-39.25 -463.65)" fill="#263238"/>
      </g>
      <g id="freepik--Gears--inject-272" transform="translate(4.481 29.521)">
        <path id="Path_1702" data-name="Path 1702" d="M598.8,248.785v-8.163l13.177-2.952,3.5,7.366a33.175,33.175,0,0,1,8.678,1.518l5.782-5.764L641.371,248l-2.737,7.694a32.346,32.346,0,0,1,5.014,7.207h8.163l2.952,13.177-7.366,3.5a33.623,33.623,0,0,1-1.509,8.678l5.763,5.782-7.235,11.424-7.685-2.737a33.417,33.417,0,0,1-7.2,5.07v8.163L616.358,318.9l-3.505-7.366a33.484,33.484,0,0,1-8.669-1.509l-5.792,5.735-11.424-7.235,2.737-7.694a32.97,32.97,0,0,1-5.07-7.2h-8.153l-2.961-13.177,7.376-3.5a32.845,32.845,0,0,1,1.509-8.678L576.66,262.5l7.226-11.405,7.694,2.737a33.2,33.2,0,0,1,7.2-5.07Zm11.574,15.5a14.47,14.47,0,1,0,10.936,1.887A14.479,14.479,0,0,0,610.369,264.286Z" transform="translate(-77.28 -111.461)" fill="#e8505b"/>
        <g id="Group_118" data-name="Group 118" transform="translate(496.241 126.209)" opacity="0.8">
          <path id="Path_1703" data-name="Path 1703" d="M598.8,248.785v-8.163l13.177-2.952,3.5,7.366a33.175,33.175,0,0,1,8.678,1.518l5.782-5.764L641.371,248l-2.737,7.694a32.346,32.346,0,0,1,5.014,7.207h8.163l2.952,13.177-7.366,3.5a33.623,33.623,0,0,1-1.509,8.678l5.763,5.782-7.235,11.424-7.685-2.737a33.417,33.417,0,0,1-7.2,5.07v8.163L616.358,318.9l-3.505-7.366a33.484,33.484,0,0,1-8.669-1.509l-5.792,5.735-11.424-7.235,2.737-7.694a32.97,32.97,0,0,1-5.07-7.2h-8.153l-2.961-13.177,7.376-3.5a32.845,32.845,0,0,1,1.509-8.678L576.66,262.5l7.226-11.405,7.694,2.737a33.2,33.2,0,0,1,7.2-5.07Zm11.574,15.5a14.47,14.47,0,1,0,10.936,1.887A14.479,14.479,0,0,0,610.369,264.286Z" transform="translate(-573.52 -237.67)" fill="#fff"/>
        </g>
        <path id="Path_1704" data-name="Path 1704" d="M584.294,377.144a13.121,13.121,0,0,0-5.82,6.213,12.764,12.764,0,0,0,21.245,13.664,12.182,12.182,0,0,0,2.062-3.224,12.032,12.032,0,0,0,.993-3.524,12.82,12.82,0,0,0-4.386-11.433,13.045,13.045,0,0,0-7.919-3.121c-2.062-.075-3.205.244-3.205.15a9.916,9.916,0,0,1,3.215-.45,13.27,13.27,0,0,1,12.98,14.938,12.5,12.5,0,0,1-1.022,3.749,12.652,12.652,0,0,1-2.165,3.411,13.42,13.42,0,0,1-23.513-8.435,13.214,13.214,0,0,1,7.432-12.286,10.045,10.045,0,0,1,3.1-.937A23.935,23.935,0,0,0,584.294,377.144Z" transform="translate(-77.483 -120.116)" fill="#263238"/>
        <path id="Path_1705" data-name="Path 1705" d="M575.113,359.708v-6.982h.1l11.9-2.737h.141l.075.141,3.186,6.654-.187-.131a30.442,30.442,0,0,1,7.91,1.35l-.244.066,5.211-5.229.15-.15.187.122,10.309,6.56.206.122-.084.225c-.759,2.155-1.6,4.527-2.455,6.963l-.066-.319a29.988,29.988,0,0,1,4.639,6.56l-.281-.169h7.647l.056.262c.815,3.749,1.753,7.779,2.69,11.921l.066.272-.253.122-6.635,3.093.2-.309a30.457,30.457,0,0,1-1.378,7.947l-.084-.375,5.211,5.229.206.216-.15.244c-2.1,3.252-4.32,6.757-6.56,10.309l-.159.253-.291-.1-7.047-2.39.384-.084a30.544,30.544,0,0,1-6.56,4.686h0c.084-.15-.206.328.2-.328h0v7.675l-.291.066-11.921,2.671-.291.066-.131-.272-3.158-6.663.319.206a29.935,29.935,0,0,1-7.938-1.387l.366-.084-5.239,5.229-.206.206-.244-.159-10.309-6.56-.234-.15.094-.262,2.484-6.954.075.347a30.055,30.055,0,0,1-4.63-6.56l.281.169h-7.629v-.244q-1.406-6.3-2.652-11.921l-.056-.225.216-.1,6.673-3.149-.159.234a30.108,30.108,0,0,1,1.406-7.91l.056.244-5.192-5.248-.122-.122.094-.15,6.56-10.309.075-.112h.131l6.935,2.512h-.122a28.918,28.918,0,0,1,4.845-3.58c.572-.337,1.012-.562,1.3-.712a4.4,4.4,0,0,1,.45-.206,3.4,3.4,0,0,1-.422.262l-1.274.759a32.1,32.1,0,0,0-4.686,3.655h-.122l-6.973-2.437.2-.066c-1.809,2.886-3.974,6.307-6.495,10.309v-.272l5.229,5.211.1.1-.047.15a29.653,29.653,0,0,0-1.331,7.779v.169l-.15.066-6.654,3.186.159-.328c.825,3.749,1.762,7.722,2.7,11.911l-.309-.244H562.7l.084.169a30.073,30.073,0,0,0,4.545,6.438l.141.15-.066.187-2.465,6.963-.141-.412,10.309,6.56h-.44l5.229-5.211.15-.159.216.066a29.333,29.333,0,0,0,7.75,1.34h.225l.094.206,3.168,6.663-.412-.206,11.911-2.671-.291.366v-7.376h0l.2-.328h0a29.624,29.624,0,0,0,6.42-4.527l.169-.159.216.075,6.954,2.483-.44.15,6.56-10.309.056.459-5.229-5.154-.159-.15.066-.216a29.325,29.325,0,0,0,1.359-7.75v-.216l.2-.094,6.663-3.158-.187.394c-.937-4.142-1.828-8.172-2.662-11.921l.328.262-7.5-.159h-.2l-.094-.178a29.609,29.609,0,0,0-4.527-6.448l-.131-.141.066-.178,2.493-6.944.122.347-10.309-6.56h.412l-5.248,5.192-.112.112h-.141a29.933,29.933,0,0,0-7.778-1.387h-.131l-.056-.122c-1.134-2.409-2.2-4.686-3.14-6.682l.216.1-11.94,2.605.094-.112c0,2.4-.075,4.236-.075,5.52v1.874a3.3,3.3,0,0,1-.122-.562Z" transform="translate(-75.93 -118.519)" fill="#263238"/>
        <path id="Path_1706" data-name="Path 1706" d="M650.3,331.906v-4.751l7.666-1.715L660,329.723a19.682,19.682,0,0,1,5.033.928L668.4,327.3l6.635,4.208-1.593,4.48a19.184,19.184,0,0,1,3,4.2h4.742l1.715,7.675-4.283,2.034a19.82,19.82,0,0,1-.881,5.051l3.355,3.364-4.208,6.645-4.48-1.593a19.5,19.5,0,0,1-4.189,2.952V371.1l-7.675,1.715-2.034-4.292a19.409,19.409,0,0,1-5.051-.872l-3.346,3.3-6.635-4.255,1.593-4.47a19.5,19.5,0,0,1-2.952-4.189h-4.751l-1.724-7.7,4.292-2.034a19.344,19.344,0,0,1,.872-5.051l-3.346-3.364,4.208-6.645,4.47,1.593a19.5,19.5,0,0,1,4.189-2.952Zm.412,19.128h0a8.435,8.435,0,1,0,6.382-10.075,8.435,8.435,0,0,0-6.382,10.075Z" transform="translate(-81.183 -116.976)" fill="#e8505b"/>
        <g id="Group_119" data-name="Group 119" transform="translate(554.457 208.464)" opacity="0.4">
          <path id="Path_1707" data-name="Path 1707" d="M650.3,331.906v-4.751l7.666-1.715L660,329.723a19.682,19.682,0,0,1,5.033.928L668.4,327.3l6.635,4.208-1.593,4.48a19.184,19.184,0,0,1,3,4.2h4.742l1.715,7.675-4.283,2.034a19.82,19.82,0,0,1-.881,5.051l3.355,3.364-4.208,6.645-4.48-1.593a19.5,19.5,0,0,1-4.189,2.952V371.1l-7.675,1.715-2.034-4.292a19.409,19.409,0,0,1-5.051-.872l-3.346,3.3-6.635-4.255,1.593-4.47a19.5,19.5,0,0,1-2.952-4.189h-4.751l-1.724-7.7,4.292-2.034a19.344,19.344,0,0,1,.872-5.051l-3.346-3.364,4.208-6.645,4.47,1.593a19.5,19.5,0,0,1,4.189-2.952Zm.412,19.128h0a8.435,8.435,0,1,0,6.382-10.075,8.435,8.435,0,0,0-6.382,10.075Z" transform="translate(-635.64 -325.44)" fill="#fff"/>
        </g>
        <path id="Path_1708" data-name="Path 1708" d="M123.374,190.243l2.1-5.623,9.831,1.293.525,5.97a24.367,24.367,0,0,1,5.623,3.261l5.464-2.484,6.007,7.891-3.852,4.592a24.469,24.469,0,0,1,1.649,6.26l5.623,2.1-1.331,9.9-5.97.525a24.367,24.367,0,0,1-3.261,5.623l2.483,5.464-7.891,6.007-4.6-3.852a24.3,24.3,0,0,1-6.251,1.649l-2.1,5.623-9.831-1.359-.487-5.923a24.366,24.366,0,0,1-5.623-3.261l-5.464,2.483-6.007-7.891,3.852-4.6a24.3,24.3,0,0,1-1.649-6.251l-5.623-2.1,1.321-9.831,5.97-.525a24.367,24.367,0,0,1,3.261-5.623l-2.484-5.464,7.891-6.007,4.592,3.852a24.47,24.47,0,0,1,6.26-1.649Zm2.98,13.608a10.646,10.646,0,1,0,10.309,10.974,10.646,10.646,0,0,0-10.309-10.974Z" transform="translate(-47.314 -108.128)" fill="#263238"/>
        <path id="Path_1709" data-name="Path 1709" d="M80,127.978a12.745,12.745,0,0,0-7.5,3.749,12.521,12.521,0,1,0,19.877,2.68,12.849,12.849,0,0,0-6.213-5.623,30.748,30.748,0,0,0-3-.937,9.681,9.681,0,0,1,3.1.684,12.745,12.745,0,0,1,6.56,5.623,12.98,12.98,0,0,1,1.734,5.792,13.12,13.12,0,0,1-1.5,6.776,12.511,12.511,0,0,1-2.221,3.074,12.08,12.08,0,0,1-3.149,2.409,13.12,13.12,0,0,1-15.435-2.1,13.261,13.261,0,0,1-3.749-6.7,13.12,13.12,0,0,1,.4-6.935,12.961,12.961,0,0,1,3.214-5.117,12.82,12.82,0,0,1,7.807-3.636,9.757,9.757,0,0,1,3.186.169A28.876,28.876,0,0,0,80,127.978Z" transform="translate(-45.531 -104.549)" fill="#263238"/>
        <path id="Path_1710" data-name="Path 1710" d="M76.9,109.448l.459-1.312,1.818-5.042V103h.094l11.9,1.565h.15v.15c.206,2.184.431,4.611.665,7.207l-.131-.178a29.605,29.605,0,0,1,6.813,3.936h-.253l6.56-3.018.2-.094.122.169,7.282,9.522.141.178-.15.178-4.686,5.557v-.309a29.3,29.3,0,0,1,2.024,7.629l-.2-.262,6.776,2.521.244.094v.262c-.506,3.749-1.04,7.75-1.6,11.874v.272h-.281l-7.207.647.291-.216a29.8,29.8,0,0,1-3.974,6.832v-.366l3.008,6.56.122.262-.234.178-9.437,7.263-.337.178-.225-.2L91.3,166.709l.384.066a30.2,30.2,0,0,1-7.638,2.015h0l.3-.234h0v.159l-.084.216-.159.422-.319.853-.637,1.706-1.265,3.374-.094.281h-.3l-11.93-1.743H69.3v-.291c-.206-2.427-.422-4.826-.628-7.207l.225.3a29.849,29.849,0,0,1-6.832-3.983h.365l-6.56,3-.253.122-.169-.225L48.209,156l-.169-.216.178-.206,4.686-5.548-.056.337a29.9,29.9,0,0,1-2.006-7.629l.206.253-6.813-2.5-.225-.094v-.234c.581-4.18,1.115-8.125,1.64-11.874v-.216h.225l7.207-.609-.216.159a29.352,29.352,0,0,1,3.983-6.813v.253l-2.98-6.56-.075-.159.141-.112,9.559-7.207.112-.084.094.084,5.52,4.686H69.1a29.05,29.05,0,0,1,5.623-1.64,10.588,10.588,0,0,1,1.443-.206h.487a2.239,2.239,0,0,1-.478.094l-1.424.272a30.926,30.926,0,0,0-5.623,1.743H69l-5.623-4.62h.3l-9.428,7.272.066-.262,3.027,6.56.056.131-.084.122a29.156,29.156,0,0,0-3.88,6.7l-.066.141h-.159l-7.207.647.253-.234c-.5,3.749-1.022,7.694-1.584,11.865l-.2-.328,6.785,2.521.178.075v.187a29.4,29.4,0,0,0,1.977,7.5l.084.187-.131.159-4.686,5.548v-.422l7.413,9.428-.422-.1,6.56-3.008.2-.094.169.141a29.446,29.446,0,0,0,6.7,3.88l.206.084v.216q.319,3.561.637,7.207l-.319-.328L81.7,174.75l-.394.234,1.265-3.383.628-1.7.319-.853.159-.431.084-.216v-.159h0l.3-.234h0a29.231,29.231,0,0,0,7.5-1.968l.206-.084.169.141,5.548,4.686h-.459l9.531-7.244-.1.431c-1.04-2.24-2.062-4.489-3-6.56l-.094-.2.131-.169a28.893,28.893,0,0,0,3.889-6.663l.084-.2h.216l7.207-.628-.309.3c.562-4.124,1.115-8.116,1.621-11.865l.216.347L109.6,135.8l-.309-.131v-.2a29.053,29.053,0,0,0-1.959-7.5l-.075-.169.122-.141,4.686-5.548v.365l-7.226-9.55.319.084L98.6,116l-.131.066-.122-.094a29.305,29.305,0,0,0-6.682-3.927h-.122v-.131c-.216-2.6-.422-5.023-.6-7.207l.159.169L79.238,103.2l.131-.084c-.853,2.193-1.5,3.88-1.959,5.051l-.506,1.275a4.122,4.122,0,0,1-.178.412A2.925,2.925,0,0,1,76.9,109.448Z" transform="translate(-44.01 -103)" fill="#263238"/>
      </g>
      <g id="freepik--Screen--inject-272" transform="translate(87.617)">
        <rect id="Rectangle_316" data-name="Rectangle 316" width="431.135" height="298.039" transform="translate(0.234 0.197)" fill="#fafafa"/>
        <path id="Path_1711" data-name="Path 1711" d="M132.72,71.7v-.2H564.3V369.988h-.216l-431.1-.244,431.1-.216-.225.216V71.725l.225.244h0l-431.1-.056.2-.2c-.122,181.3-.2,296.408-.2,298.02C132.982,368.114,132.87,253.011,132.72,71.7Z" transform="translate(-132.72 -71.5)" fill="#263238"/>
        <rect id="Rectangle_317" data-name="Rectangle 317" width="431.135" height="17.291" transform="translate(0.234 0.197)" fill="#263238"/>
        <path id="Path_1712" data-name="Path 1712" d="M579.879,80.4a2.652,2.652,0,0,1,2.652-2.652h0a2.662,2.662,0,1,1-2.662,2.662Z" transform="translate(-160.815 -71.893)" fill="#fff"/>
        <path id="Path_1713" data-name="Path 1713" d="M569.659,80.4a2.652,2.652,0,0,1,2.652-2.652h0a2.662,2.662,0,1,1-2.662,2.662Z" transform="translate(-160.173 -71.893)" fill="#fff"/>
        <path id="Path_1714" data-name="Path 1714" d="M559.44,80.4a2.652,2.652,0,1,1,.78,1.879,2.652,2.652,0,0,1-.78-1.879Z" transform="translate(-159.531 -71.893)" fill="#fff"/>
        <path id="Path_1715" data-name="Path 1715" d="M149.26,266.434v-.15h.141l398.016-.094h.272v97.288h-.234l-398.081-.234L547.416,363l-.244.244v-96.81l.253.244h0l-398.016-.1.15-.141c-.094,61.2-.15,95.722-.15,96.81C149.41,362.165,149.363,327.659,149.26,266.434Z" transform="translate(-133.759 -83.733)" fill="#e0e0e0"/>
        <path id="Path_1716" data-name="Path 1716" d="M367.773,246.194V211.809c0-23.607-.056-57.477-.1-98.712v-.2H560.511V248.883h-.225L421.3,248.677l-39.483-.056h.066l39.53-.066,138.785-.1-.225.216V113.153l.244.244h0l-192.429-.047.2-.2c0,41.151-.1,74.974-.1,98.59v36.924A21.115,21.115,0,0,1,367.773,246.194Z" transform="translate(-147.482 -74.101)" fill="#e0e0e0"/>
        <path id="Path_1717" data-name="Path 1717" d="M389.48,226.442l12.043-52.856a8.878,8.878,0,0,1,17.056-.937l3.149,9.212A8.875,8.875,0,0,0,437.454,184h0a8.884,8.884,0,0,1,15.445,1.415l2.812,6.373a8.884,8.884,0,0,0,16.522-.722l3.252-9.531a8.884,8.884,0,0,1,16.8,0l6.729,19.681a8.875,8.875,0,0,0,13.561,4.348l1.949-1.4.1-.075a8.884,8.884,0,0,1,12.361,2.249l13.861,20.084C540.43,226.02,389.48,226.442,389.48,226.442Z" transform="translate(-148.852 -77.479)" fill="#e8505b"/>
        <g id="Group_120" data-name="Group 120" transform="translate(240.628 89.18)" opacity="0.3">
          <path id="Path_1718" data-name="Path 1718" d="M389.48,226.442l12.043-52.856a8.878,8.878,0,0,1,17.056-.937l3.149,9.212A8.875,8.875,0,0,0,437.454,184h0a8.884,8.884,0,0,1,15.445,1.415l2.812,6.373a8.884,8.884,0,0,0,16.522-.722l3.252-9.531a8.884,8.884,0,0,1,16.8,0l6.729,19.681a8.875,8.875,0,0,0,13.561,4.348l1.949-1.4.1-.075a8.884,8.884,0,0,1,12.361,2.249l13.861,20.084C540.43,226.02,389.48,226.442,389.48,226.442Z" transform="translate(-389.48 -166.658)"/>
        </g>
        <path id="Path_1719" data-name="Path 1719" d="M389.19,228.089l9.681-19.193c2.633-5.229,9.906-6.2,13.542-1.6.122.15.244.319.356.487l9.044,13.214.169.234A8.669,8.669,0,0,0,434.1,223.1l9.634-7.048a8.678,8.678,0,0,1,5.126-1.668h12.952a8.688,8.688,0,0,0,5.117-1.678l10.178-7.451a8.669,8.669,0,0,1,11.874,1.584l4.367,5.436a8.669,8.669,0,0,0,14.892-2.427l5.417-14.6a8.678,8.678,0,0,1,16.344.2L541.246,228.4C541.218,227.761,389.19,228.089,389.19,228.089Z" transform="translate(-148.834 -78.92)" fill="#e8505b"/>
        <path id="Path_1720" data-name="Path 1720" d="M541.643,229.02l-9.091-9.99c-.825-.937-1.584-1.827-2.315-2.811-3.027-4.1-10.065-4.1-13.43,0-.159.2-7.029,5.773-7.029,5.773-6.326,5.314-9.081,4.93-13.036,2.034l-9.634-7.048a8.678,8.678,0,0,0-5.117-1.668h-6.616a28.115,28.115,0,0,1-16.578-5.379l-5.051-3.7a8.678,8.678,0,0,0-11.883,1.556l-4.367,5.436c-12.689,16.953-20.337-5.623-36.484,6.223l-11.761,9.587C389.25,228.4,541.643,229.02,541.643,229.02Z" transform="translate(-148.838 -79.86)" fill="#e8505b"/>
        <g id="Group_121" data-name="Group 121" transform="translate(240.412 124.691)" opacity="0.3">
          <path id="Path_1721" data-name="Path 1721" d="M541.643,229.02l-9.091-9.99c-.825-.937-1.584-1.827-2.315-2.811-3.027-4.1-10.065-4.1-13.43,0-.159.2-7.029,5.773-7.029,5.773-6.326,5.314-9.081,4.93-13.036,2.034l-9.634-7.048a8.678,8.678,0,0,0-5.117-1.668h-6.616a28.115,28.115,0,0,1-16.578-5.379l-5.051-3.7a8.678,8.678,0,0,0-11.883,1.556l-4.367,5.436c-12.689,16.953-20.337-5.623-36.484,6.223l-11.761,9.587C389.25,228.4,541.643,229.02,541.643,229.02Z" transform="translate(-389.25 -204.551)" fill="#fff"/>
        </g>
        <path id="Path_1722" data-name="Path 1722" d="M518.843,149.21c6.635,0,12.024.112,12.024.244s-5.379.244-12.024.244-12.033-.112-12.033-.244S512.208,149.21,518.843,149.21Z" transform="translate(-156.224 -76.383)" fill="#263238"/>
        <rect id="Rectangle_318" data-name="Rectangle 318" width="4.114" height="4.114" transform="translate(377.267 71.009)" fill="#e8505b"/>
        <path id="Path_1723" data-name="Path 1723" d="M470.424,149.21c6.645,0,12.024.112,12.024.244s-5.379.244-12.024.244-12.024-.112-12.024-.244S463.779,149.21,470.424,149.21Z" transform="translate(-153.183 -76.383)" fill="#263238"/>
        <rect id="Rectangle_319" data-name="Rectangle 319" width="4.114" height="4.114" transform="translate(331.898 71.009)" fill="#e8505b"/>
        <path id="Path_1724" data-name="Path 1724" d="M422.024,149.21c6.645,0,12.024.112,12.024.244s-5.379.244-12.024.244S410,149.585,410,149.454,415.379,149.21,422.024,149.21Z" transform="translate(-150.142 -76.383)" fill="#263238"/>
        <rect id="Rectangle_320" data-name="Rectangle 320" width="4.114" height="4.114" transform="translate(286.521 71.009)" fill="#e8505b"/>
        <path id="Path_1725" data-name="Path 1725" d="M165.1,347.625V285.031a3.542,3.542,0,0,1,6.616-1.781l27.656,47.908a3.552,3.552,0,0,0,5.623.722l15.463-15.51.131-.122a3.542,3.542,0,0,1,5,.244l19.437,21.386a3.543,3.543,0,0,0,5.623-.412l31.995-47.852a3.552,3.552,0,0,1,5.942.066l19.362,30.346a3.543,3.543,0,0,0,6.063-.131l5.623-9.812a3.561,3.561,0,0,1,6.11-.112l6.851,10.787a3.552,3.552,0,0,0,5.782.291l9.372-11.9a3.542,3.542,0,0,1,5.876.412l14.995,26.035a3.552,3.552,0,0,0,5.211,1.059l5.211-3.936.094-.066a3.552,3.552,0,0,1,4.948.862l9.906,14.133Z" transform="translate(-134.754 -84.692)" fill="#e8505b"/>
        <path id="Path_1726" data-name="Path 1726" d="M165.5,359.833v-4.4h.066c13.214-.1,59.173-.187,113.791-.187s100.6.084,113.81.187h.066v4.4a1.418,1.418,0,0,1,0,.272,1.418,1.418,0,0,1,0-.272v-4.339l.066.066c-13.214.1-59.21.178-113.81.178s-100.577-.075-113.791-.178l.056-.066V360.1a.825.825,0,0,1-.253-.272Z" transform="translate(-134.78 -89.328)" fill="#263238"/>
        <path id="Path_1727" data-name="Path 1727" d="M381.38,358.937c0-.5.1-.937.244-.937s.244.431.244.937-.1.937-.244.937S381.38,359.434,381.38,358.937Z" transform="translate(-148.344 -89.501)" fill="#263238"/>
        <path id="Path_1728" data-name="Path 1728" d="M354.4,358.937c0-.5.112-.937.244-.937s.244.431.244.937-.112.937-.244.937S354.4,359.434,354.4,358.937Z" transform="translate(-146.648 -89.501)" fill="#263238"/>
        <path id="Path_1729" data-name="Path 1729" d="M327.41,358.937c0-.5.1-.937.244-.937s.253.431.253.937-.112.937-.253.937S327.41,359.434,327.41,358.937Z" transform="translate(-144.952 -89.501)" fill="#263238"/>
        <path id="Path_1730" data-name="Path 1730" d="M300.43,358.937c0-.5.112-.937.244-.937s.244.431.244.937-.112.937-.244.937S300.43,359.434,300.43,358.937Z" transform="translate(-143.257 -89.501)" fill="#263238"/>
        <path id="Path_1731" data-name="Path 1731" d="M273.45,358.937c0-.5.112-.937.244-.937s.244.431.244.937-.112.937-.244.937S273.45,359.434,273.45,358.937Z" transform="translate(-141.562 -89.501)" fill="#263238"/>
        <path id="Path_1732" data-name="Path 1732" d="M246.46,358.937c0-.5.112-.937.244-.937s.244.431.244.937-.112.937-.244.937S246.46,359.434,246.46,358.937Z" transform="translate(-139.866 -89.501)" fill="#263238"/>
        <path id="Path_1733" data-name="Path 1733" d="M219.48,358.937c0-.5.112-.937.244-.937s.244.431.244.937-.112.937-.244.937S219.48,359.434,219.48,358.937Z" transform="translate(-138.171 -89.501)" fill="#263238"/>
        <path id="Path_1734" data-name="Path 1734" d="M192.49,358.937c0-.5.112-.937.244-.937s.244.431.244.937-.112.937-.244.937S192.49,359.434,192.49,358.937Z" transform="translate(-136.475 -89.501)" fill="#263238"/>
        <path id="Path_1735" data-name="Path 1735" d="M147.893,216.734V193.689c0-15.932-.056-38.93-.1-67.345v-.178h.187l192.429-.066h.262v92.47h-.225l-138.382-.112-39.83-.056h.075l39.877-.066,138.232-.112-.234.234v-92l.244.244h0l-192.438-.066.178-.178c0,28.368-.1,51.31-.1,67.242v24.76A7.132,7.132,0,0,1,147.893,216.734Z" transform="translate(-133.667 -74.931)" fill="#e0e0e0"/>
        <path id="Path_1736" data-name="Path 1736" d="M192.36,166.922a2.212,2.212,0,0,1,2.062-2.352H327.265a2.212,2.212,0,1,1-.29,4.414H194.421a2.212,2.212,0,0,1-2.062-2.062Z" transform="translate(-136.467 -77.348)" fill="#e0e0e0"/>
        <path id="Path_1737" data-name="Path 1737" d="M192.36,148.252a2.212,2.212,0,0,1,2.062-2.352H327.265a2.212,2.212,0,1,1-.29,4.414H194.421A2.212,2.212,0,0,1,192.36,148.252Z" transform="translate(-136.467 -76.175)" fill="#e0e0e0"/>
        <path id="Path_1738" data-name="Path 1738" d="M271.651,168.984a2.212,2.212,0,1,1,.291-4.414h60.176a2.212,2.212,0,1,1-.29,4.414Z" transform="translate(-141.319 -77.347)" fill="#455a64"/>
        <path id="Path_1739" data-name="Path 1739" d="M169.93,167.669h-.937v1.265h-.722v-1.265H165.46v-.515l2.633-3.374h.8l-2.53,3.261h1.987v-1.125h.694v1.125h.937Z" transform="translate(-134.777 -77.298)" fill="#263238"/>
        <path id="Path_1740" data-name="Path 1740" d="M174.284,167.387c0,.937-.637,1.612-1.949,1.612a2.933,2.933,0,0,1-1.874-.628l.337-.581a2.343,2.343,0,0,0,1.546.553c.778,0,1.218-.366,1.218-.937s-.365-.937-1.556-.937h-1.171l.272-2.7h2.905v.647h-2.287l-.141,1.415h.572C173.646,165.86,174.284,166.478,174.284,167.387Z" transform="translate(-135.091 -77.297)" fill="#263238"/>
        <path id="Path_1741" data-name="Path 1741" d="M175,165.146a1.246,1.246,0,0,1,1.078-1.4h.122c.722,0,1.2.553,1.2,1.406a1.218,1.218,0,1,1-2.4,0Zm1.931,0c0-.619-.281-.993-.731-.993s-.712.375-.712.993.272.937.712.937.75-.319.75-.937Zm2.38-1.368h.572l-3.524,5.154h-.572Zm-1.04,3.8a1.218,1.218,0,1,1,1.2,1.406,1.237,1.237,0,0,1-1.2-1.406Zm1.874,0c0-.609-.281-.984-.722-.984s-.722.365-.722.984.272.937.722.937S180.144,168.183,180.144,167.574Z" transform="translate(-135.375 -77.296)" fill="#263238"/>
        <path id="Path_1742" data-name="Path 1742" d="M192.36,184.212a2.212,2.212,0,0,1,2.062-2.352H327.265a2.212,2.212,0,1,1-.29,4.414H194.421a2.212,2.212,0,0,1-2.062-2.062Z" transform="translate(-136.467 -78.434)" fill="#e0e0e0"/>
        <path id="Path_1743" data-name="Path 1743" d="M249.41,184.071v-.159a2.3,2.3,0,0,1,2.521-2.052h79.285c.862,0,1.565.984,1.565,2.212a2.09,2.09,0,0,1-2.352,2.2H251.162a2.2,2.2,0,0,1-1.753-2.2Z" transform="translate(-140.052 -78.433)" fill="#455a64"/>
        <path id="Path_1744" data-name="Path 1744" d="M169.189,181.07v.506l-2.081,4.686h-.778l2.034-4.508h-2.352v.937H165.3v-1.565Z" transform="translate(-134.767 -78.384)" fill="#263238"/>
        <path id="Path_1745" data-name="Path 1745" d="M170,183.643c0-1.678.937-2.633,2.1-2.633s2.1.937,2.1,2.633-.937,2.643-2.1,2.643S170,185.321,170,183.643Zm3.468,0c0-1.312-.562-1.977-1.368-1.977s-1.368.665-1.368,1.977.562,1.987,1.368,1.987,1.359-.665,1.359-1.987Z" transform="translate(-135.062 -78.381)" fill="#263238"/>
        <path id="Path_1746" data-name="Path 1746" d="M175.139,182.436a1.246,1.246,0,0,1,1.078-1.4h.122c.722,0,1.2.553,1.2,1.406a1.218,1.218,0,1,1-2.4,0Zm1.874,0c0-.619-.272-.993-.722-.993s-.722.375-.722.993.281.984.722.984.768-.365.768-.984Zm2.39-1.368h.562l-3.514,5.154h-.506Zm-1.04,3.8c0-.843.478-1.406,1.19-1.406a1.424,1.424,0,0,1,0,2.812,1.246,1.246,0,0,1-1.143-1.406Zm1.874,0c0-.609-.281-.984-.731-.984s-.712.365-.712.984.272.937.712.937a.841.841,0,0,0,.825-.937Z" transform="translate(-135.384 -78.382)" fill="#263238"/>
        <path id="Path_1747" data-name="Path 1747" d="M192.36,201.092a2.212,2.212,0,0,1,2.062-2.352H327.265a2.212,2.212,0,1,1-.29,4.414H194.421a2.212,2.212,0,0,1-2.062-2.062Z" transform="translate(-136.467 -79.495)" fill="#e0e0e0"/>
        <path id="Path_1748" data-name="Path 1748" d="M283.3,203.154h-.29a2.212,2.212,0,1,1,.29-4.414h49.529a2.212,2.212,0,1,1-.29,4.414Z" transform="translate(-142.033 -79.494)" fill="#455a64"/>
        <path id="Path_1749" data-name="Path 1749" d="M169.044,201.561c0,.89-.628,1.612-1.949,1.612a2.98,2.98,0,0,1-1.874-.628l.337-.581a2.362,2.362,0,0,0,1.546.553c.787,0,1.228-.365,1.228-.937s-.375-.937-1.565-.937h-1.171L165.82,198h2.943v.647h-2.3l-.141,1.406h.562C168.444,200.006,169.044,200.652,169.044,201.561Z" transform="translate(-134.762 -79.448)" fill="#263238"/>
        <path id="Path_1750" data-name="Path 1750" d="M170,200.523c0-1.678.937-2.633,2.1-2.633s2.1.937,2.1,2.633-.937,2.643-2.1,2.643S170,202.2,170,200.523Zm3.468,0c0-1.321-.562-1.977-1.368-1.977s-1.368.656-1.368,1.977.562,1.987,1.368,1.987,1.331-.665,1.331-1.987Z" transform="translate(-135.062 -79.441)" fill="#263238"/>
        <path id="Path_1751" data-name="Path 1751" d="M175.109,199.318a1.218,1.218,0,1,1,1.2,1.406,1.256,1.256,0,0,1-1.209-1.3A.977.977,0,0,0,175.109,199.318Zm1.874,0c0-.628-.272-.993-.722-.993s-.722.375-.722.993.281.984.722.984.768-.365.768-.984Zm2.39-1.368h.562l-3.514,5.154h-.572Zm-.993,3.8c0-.843.478-1.406,1.19-1.406a1.424,1.424,0,1,1-1.19,1.406Zm1.874,0c0-.609-.281-.984-.722-.984s-.722.365-.722.984.272.984.722.984.759-.375.759-.984Z" transform="translate(-135.383 -79.445)" fill="#263238"/>
        <path id="Path_1752" data-name="Path 1752" d="M242.189,150.314h-.328a2.212,2.212,0,0,1,.291-4.414h88.094a2.212,2.212,0,1,1-.29,4.414Z" transform="translate(-139.448 -76.174)" fill="#e8505b"/>
        <path id="Path_1753" data-name="Path 1753" d="M169.432,148.7a1.668,1.668,0,0,1-1.7,1.64h-.122c-1.387,0-2.174-.937-2.174-2.577a2.53,2.53,0,0,1,3.749-2.4l-.281.581a1.772,1.772,0,0,0-.937-.244c-1.04,0-1.715.656-1.715,1.94a1.307,1.307,0,0,0,0,.187,1.715,1.715,0,0,1,1.481-.684,1.593,1.593,0,0,1,1.715,1.453A.509.509,0,0,0,169.432,148.7Zm-.712,0c0-.6-.459-.993-1.181-.993a1.068,1.068,0,0,0-1.181.937v.112c0,.525.431.993,1.218.993a1.021,1.021,0,0,0,1.134-.89v-.112Z" transform="translate(-134.775 -76.121)" fill="#263238"/>
        <path id="Path_1754" data-name="Path 1754" d="M170.29,147.683c0-1.678.937-2.633,2.109-2.633s2.1.937,2.1,2.633-.937,2.643-2.1,2.643S170.29,149.37,170.29,147.683Zm3.468,0c0-1.312-.553-1.977-1.359-1.977s-1.368.665-1.368,1.977.562,1.987,1.368,1.987,1.368-.665,1.368-1.987Z" transform="translate(-135.081 -76.121)" fill="#263238"/>
        <path id="Path_1755" data-name="Path 1755" d="M175.449,146.476a1.246,1.246,0,0,1,1.078-1.4h.122c.712,0,1.19.553,1.19,1.406s-.478,1.406-1.19,1.406a1.246,1.246,0,0,1-1.209-1.284A.822.822,0,0,1,175.449,146.476Zm1.874,0c0-.619-.272-.993-.722-.993s-.722.375-.722.993.281.984.722.984.768-.365.768-.984Zm2.39-1.368h.562l-3.524,5.154h-.562Zm-1.04,3.749c0-.843.478-1.406,1.19-1.406a1.424,1.424,0,0,1,0,2.811c-.665.047-1.143-.515-1.143-1.359Zm1.874,0c0-.609-.281-.937-.722-.937s-.722.366-.722.937.272.984.722.984a.825.825,0,0,0,.806-.937Z" transform="translate(-135.404 -76.123)" fill="#263238"/>
        <path id="Path_1756" data-name="Path 1756" d="M270.322,234.44c40.036,0,72.481.1,72.481.244s-32.464.244-72.481.244-72.462-.1-72.462-.244S230.286,234.44,270.322,234.44Z" transform="translate(-136.813 -81.738)" fill="#e0e0e0"/>
        <path id="Path_1757" data-name="Path 1757" d="M270.322,243.61c40.036,0,72.481.1,72.481.244s-32.464.244-72.481.244-72.462-.1-72.462-.244S230.286,243.61,270.322,243.61Z" transform="translate(-136.813 -82.314)" fill="#e0e0e0"/>
        <path id="Path_1758" data-name="Path 1758" d="M270.322,251.91c40.036,0,72.481.112,72.481.244s-32.464.244-72.481.244-72.462-.112-72.462-.244S230.286,251.91,270.322,251.91Z" transform="translate(-136.813 -82.835)" fill="#e0e0e0"/>
        <path id="Path_1759" data-name="Path 1759" d="M443.825,342.474h0a2.615,2.615,0,0,1-2.605-2.605V291a2.605,2.605,0,0,1,2.605-2.605h0a2.6,2.6,0,0,1,2.605,2.587h0V339.85a2.605,2.605,0,0,1-2.605,2.624Z" transform="translate(-152.103 -85.127)" fill="#e0e0e0"/>
        <path id="Path_1760" data-name="Path 1760" d="M443.825,343.878h0a2.605,2.605,0,0,1-2.605-2.605V309.765a2.615,2.615,0,0,1,2.605-2.605h0a2.605,2.605,0,0,1,2.605,2.605v31.508a2.6,2.6,0,0,1-2.587,2.605Z" transform="translate(-152.103 -86.307)" fill="#e8505b"/>
        <path id="Path_1761" data-name="Path 1761" d="M442.141,348.52v4.339h-.44v-3.945H440.67v-.394Z" transform="translate(-152.069 -88.905)" fill="#263238"/>
        <path id="Path_1762" data-name="Path 1762" d="M443.35,350.692c0-1.387.722-2.212,1.734-2.212s1.734.825,1.734,2.212-.731,2.2-1.734,2.2S443.35,352.069,443.35,350.692Zm3.008,0c0-1.162-.525-1.809-1.275-1.809s-1.284.647-1.284,1.809.525,1.8,1.284,1.8S446.358,351.844,446.358,350.692Z" transform="translate(-152.237 -88.903)" fill="#263238"/>
        <path id="Path_1763" data-name="Path 1763" d="M454.925,342.474h0a2.615,2.615,0,0,1-2.605-2.605V291a2.605,2.605,0,0,1,2.605-2.605h0a2.6,2.6,0,0,1,2.605,2.587h0V339.85a2.605,2.605,0,0,1-2.605,2.624Z" transform="translate(-152.801 -85.127)" fill="#e0e0e0"/>
        <path id="Path_1764" data-name="Path 1764" d="M454.925,343.213h0a2.605,2.605,0,0,1-2.605-2.605V299.175a2.615,2.615,0,0,1,2.605-2.605h0a2.605,2.605,0,0,1,2.605,2.605v41.432a2.6,2.6,0,0,1-2.587,2.605Z" transform="translate(-152.801 -85.641)" fill="#e8505b"/>
        <path id="Path_1765" data-name="Path 1765" d="M454.227,352.463v.394h-3.046v-.319l1.809-1.762c.487-.487.581-.778.581-1.078,0-.5-.356-.815-1.022-.815a1.471,1.471,0,0,0-1.181.487l-.319-.272a1.959,1.959,0,0,1,1.537-.619c.881,0,1.443.44,1.443,1.171a1.8,1.8,0,0,1-.712,1.359l-1.5,1.453Z" transform="translate(-152.721 -88.903)" fill="#263238"/>
        <path id="Path_1766" data-name="Path 1766" d="M455,350.692c0-1.387.722-2.212,1.734-2.212s1.734.825,1.734,2.212-.731,2.2-1.734,2.2S455,352.069,455,350.692Zm3.008,0c0-1.162-.525-1.809-1.275-1.809s-1.284.647-1.284,1.809.525,1.8,1.284,1.8,1.284-.647,1.284-1.8Z" transform="translate(-152.969 -88.903)" fill="#263238"/>
        <path id="Path_1767" data-name="Path 1767" d="M466.045,342.474h0a2.605,2.605,0,0,1-2.605-2.605V291a2.6,2.6,0,0,1,2.587-2.605h0a2.6,2.6,0,0,1,2.6,2.6h0v48.873a2.605,2.605,0,0,1-2.577,2.615Z" transform="translate(-153.499 -85.127)" fill="#e0e0e0"/>
        <path id="Path_1768" data-name="Path 1768" d="M466.045,344.377h0a2.6,2.6,0,0,1-2.605-2.587h0V317.705a2.605,2.605,0,0,1,2.605-2.605h0a2.605,2.605,0,0,1,2.6,2.605v24.066a2.6,2.6,0,0,1-2.587,2.605Z" transform="translate(-153.499 -86.806)" fill="#e8505b"/>
        <path id="Path_1769" data-name="Path 1769" d="M465.28,351.613c0,.731-.525,1.284-1.574,1.284a2.277,2.277,0,0,1-1.565-.553l.216-.356a1.874,1.874,0,0,0,1.35.506c.722,0,1.115-.337,1.115-.881s-.366-.862-1.171-.862h-.309v-.328l1.209-1.509h-2.23v-.394h2.811v.309l-1.246,1.546C464.82,350.432,465.28,350.919,465.28,351.613Z" transform="translate(-153.418 -88.905)" fill="#263238"/>
        <path id="Path_1770" data-name="Path 1770" d="M466.16,350.692c0-1.387.722-2.212,1.734-2.212s1.734.825,1.734,2.212-.731,2.2-1.734,2.2S466.16,352.069,466.16,350.692Zm3.008,0c0-1.162-.525-1.809-1.275-1.809s-1.284.647-1.284,1.809.525,1.8,1.284,1.8S469.168,351.844,469.168,350.692Z" transform="translate(-153.67 -88.903)" fill="#263238"/>
        <path id="Path_1771" data-name="Path 1771" d="M477.155,342.474h0a2.605,2.605,0,0,1-2.605-2.605V291a2.6,2.6,0,0,1,2.587-2.605h0A2.605,2.605,0,0,1,479.742,291v48.873a2.615,2.615,0,0,1-2.587,2.605Z" transform="translate(-154.197 -85.127)" fill="#e0e0e0"/>
        <path id="Path_1772" data-name="Path 1772" d="M477.155,343.213h0a2.6,2.6,0,0,1-2.605-2.587h0V299.175a2.605,2.605,0,0,1,2.605-2.605h0a2.615,2.615,0,0,1,2.605,2.605v41.432a2.605,2.605,0,0,1-2.605,2.605Z" transform="translate(-154.197 -85.641)" fill="#e8505b"/>
        <path id="Path_1773" data-name="Path 1773" d="M477.1,351.716h-.872v1.143h-.394v-1.143H473.38V351.4l2.305-2.877h.5l-2.221,2.812h1.874v-1h.431v1h.872Z" transform="translate(-154.124 -88.905)" fill="#263238"/>
        <path id="Path_1774" data-name="Path 1774" d="M477.78,350.692c0-1.387.731-2.212,1.734-2.212s1.743.825,1.743,2.212-.74,2.2-1.743,2.2S477.78,352.069,477.78,350.692Zm3.018,0c0-1.162-.525-1.809-1.284-1.809s-1.275.647-1.275,1.809.515,1.8,1.275,1.8S480.8,351.844,480.8,350.692Z" transform="translate(-154.4 -88.903)" fill="#263238"/>
        <path id="Path_1775" data-name="Path 1775" d="M488.265,342.474h0a2.605,2.605,0,0,1-2.605-2.605V291a2.6,2.6,0,0,1,2.587-2.605h0A2.605,2.605,0,0,1,490.852,291v48.873a2.615,2.615,0,0,1-2.587,2.605Z" transform="translate(-154.895 -85.127)" fill="#e0e0e0"/>
        <path id="Path_1776" data-name="Path 1776" d="M488.265,343.746h0a2.6,2.6,0,0,1-2.605-2.587h0v-33.5a2.6,2.6,0,0,1,2.587-2.605h0a2.605,2.605,0,0,1,2.605,2.605V341.14a2.605,2.605,0,0,1-2.587,2.605Z" transform="translate(-154.895 -86.174)" fill="#e8505b"/>
        <path id="Path_1777" data-name="Path 1777" d="M487.98,351.58c0,.74-.515,1.312-1.574,1.312a2.24,2.24,0,0,1-1.556-.553l.216-.356a1.875,1.875,0,0,0,1.331.506c.74,0,1.134-.366,1.134-.937s-.347-.937-1.453-.937h-.937l.225-2.174h2.38v.394h-1.94l-.15,1.387h.553C487.483,350.3,487.98,350.839,487.98,351.58Z" transform="translate(-154.845 -88.9)" fill="#263238"/>
        <path id="Path_1778" data-name="Path 1778" d="M488.79,350.692c0-1.387.731-2.212,1.734-2.212s1.734.825,1.734,2.212-.731,2.2-1.734,2.2S488.79,352.069,488.79,350.692Zm3.008,0c0-1.162-.515-1.809-1.275-1.809s-1.284.647-1.284,1.809.525,1.8,1.284,1.8S491.8,351.844,491.8,350.692Z" transform="translate(-155.092 -88.903)" fill="#263238"/>
        <path id="Path_1779" data-name="Path 1779" d="M499.375,342.474h0a2.605,2.605,0,0,1-2.605-2.605V291a2.6,2.6,0,0,1,2.587-2.605h0A2.605,2.605,0,0,1,501.962,291v48.873a2.615,2.615,0,0,1-2.587,2.605Z" transform="translate(-155.594 -85.127)" fill="#e0e0e0"/>
        <path id="Path_1780" data-name="Path 1780" d="M499.375,344.138h0a2.568,2.568,0,0,1-2.605-2.38V317.691a2.662,2.662,0,0,1,2.5-2.812h.1a2.605,2.605,0,0,1,2.605,2.605v24.066A2.615,2.615,0,0,1,499.375,344.138Z" transform="translate(-155.593 -86.792)" fill="#e8505b"/>
        <path id="Path_1781" data-name="Path 1781" d="M498.97,351.564a1.359,1.359,0,0,1-1.378,1.34h-.112c-1.153,0-1.781-.8-1.781-2.174a2.071,2.071,0,0,1,3.018-2.006l-.178.356a1.527,1.527,0,0,0-.843-.206c-.937,0-1.537.609-1.537,1.79a2.409,2.409,0,0,0,0,.347,1.378,1.378,0,0,1,1.321-.74,1.321,1.321,0,0,1,1.49,1.3Zm-.45,0c0-.572-.422-.937-1.087-.937a1,1,0,0,0-1.106.881v.056c0,.478.394.937,1.143.937a.937.937,0,0,0,1.059-.937Z" transform="translate(-155.526 -88.904)" fill="#263238"/>
        <path id="Path_1782" data-name="Path 1782" d="M499.73,350.692c0-1.387.731-2.212,1.734-2.212s1.734.825,1.734,2.212-.731,2.2-1.734,2.2S499.73,352.069,499.73,350.692Zm3.008,0c0-1.162-.515-1.809-1.275-1.809s-1.284.647-1.284,1.809.525,1.8,1.284,1.8S502.738,351.844,502.738,350.692Z" transform="translate(-155.78 -88.903)" fill="#263238"/>
        <path id="Path_1783" data-name="Path 1783" d="M510.485,342.474h0a2.615,2.615,0,0,1-2.605-2.605V291a2.605,2.605,0,0,1,2.605-2.605h0a2.6,2.6,0,0,1,2.605,2.587h0V339.85a2.605,2.605,0,0,1-2.605,2.624Z" transform="translate(-156.292 -85.127)" fill="#e0e0e0"/>
        <path id="Path_1784" data-name="Path 1784" d="M510.485,343.047h0a2.605,2.605,0,0,1-2.605-2.605V296.535a2.605,2.605,0,0,1,2.605-2.605h0a2.6,2.6,0,0,1,2.605,2.587h0v43.906a2.6,2.6,0,0,1-2.587,2.605Z" transform="translate(-156.292 -85.475)" fill="#e8505b"/>
        <path id="Path_1785" data-name="Path 1785" d="M509.856,348.52v.309l-1.818,4.03h-.487l1.79-3.945H507.1v.815h-.44V348.52Z" transform="translate(-156.215 -88.905)" fill="#263238"/>
        <path id="Path_1786" data-name="Path 1786" d="M510.56,350.692c0-1.387.731-2.212,1.734-2.212s1.734.825,1.734,2.212-.731,2.2-1.734,2.2S510.56,352.069,510.56,350.692Zm3.008,0c0-1.162-.515-1.809-1.275-1.809s-1.275.647-1.275,1.809.515,1.8,1.275,1.8S513.568,351.844,513.568,350.692Z" transform="translate(-156.46 -88.903)" fill="#263238"/>
        <path id="Path_1787" data-name="Path 1787" d="M521.6,342.474h0a2.615,2.615,0,0,1-2.605-2.605V291a2.605,2.605,0,0,1,2.605-2.605h0a2.6,2.6,0,0,1,2.605,2.587h0V339.85a2.605,2.605,0,0,1-2.605,2.624Z" transform="translate(-156.99 -85.127)" fill="#e0e0e0"/>
        <path id="Path_1788" data-name="Path 1788" d="M521.6,344.71h0a2.605,2.605,0,0,1-2.605-2.605v-19.1A2.605,2.605,0,0,1,521.6,320.4h0a2.6,2.6,0,0,1,2.605,2.587h0v19.1a2.6,2.6,0,0,1-2.587,2.605Z" transform="translate(-156.99 -87.139)" fill="#e8505b"/>
        <path id="Path_1789" data-name="Path 1789" d="M520.994,351.649c0,.768-.656,1.246-1.687,1.246s-1.677-.478-1.677-1.246a1.087,1.087,0,0,1,.834-1.068.937.937,0,0,1-.675-.937c0-.7.6-1.143,1.518-1.143s1.528.44,1.528,1.143a.937.937,0,0,1-.693.937,1.1,1.1,0,0,1,.853,1.068Zm-.459,0c0-.525-.459-.862-1.228-.862s-1.228.337-1.228.862.459.881,1.228.881,1.228-.347,1.228-.89Zm-1.228-1.218c.675,0,1.078-.3,1.078-.778s-.431-.787-1.078-.787-1.078.3-1.078.787.4.768,1.078.768Z" transform="translate(-156.904 -88.904)" fill="#263238"/>
        <path id="Path_1790" data-name="Path 1790" d="M521.87,350.692c0-1.387.722-2.212,1.734-2.212s1.734.825,1.734,2.212-.731,2.2-1.734,2.2S521.87,352.069,521.87,350.692Zm3.008,0c0-1.162-.525-1.809-1.275-1.809s-1.284.647-1.284,1.809.525,1.8,1.284,1.8,1.284-.647,1.284-1.8Z" transform="translate(-157.171 -88.903)" fill="#263238"/>
        <path id="Path_1791" data-name="Path 1791" d="M532.7,342.474h0a2.615,2.615,0,0,1-2.605-2.605V291a2.605,2.605,0,0,1,2.605-2.605h0a2.6,2.6,0,0,1,2.605,2.587h0V339.85a2.605,2.605,0,0,1-2.605,2.624Z" transform="translate(-157.687 -85.127)" fill="#e0e0e0"/>
        <path id="Path_1792" data-name="Path 1792" d="M532.7,345.3h0a2.577,2.577,0,0,1-2.605-2.38v-6.7a2.662,2.662,0,0,1,2.5-2.812h.1A2.6,2.6,0,0,1,535.3,336h0v6.7A2.605,2.605,0,0,1,532.7,345.3Z" transform="translate(-157.687 -87.956)" fill="#e8505b"/>
        <path id="Path_1793" data-name="Path 1793" d="M531.832,350.654c0,1.471-.806,2.24-1.987,2.24a1.978,1.978,0,0,1-1.031-.234l.178-.356a1.519,1.519,0,0,0,.843.2c.937,0,1.537-.6,1.537-1.781a2.382,2.382,0,0,0,0-.347,1.378,1.378,0,0,1-1.321.74,1.321,1.321,0,0,1-1.471-1.3,1.359,1.359,0,0,1,1.378-1.34h.112C531.2,348.479,531.832,349.276,531.832,350.654Zm-.619-.872c0-.478-.394-.937-1.143-.937a.937.937,0,0,0-1.068.937c0,.572.422.937,1.1.937a1,1,0,0,0,1.106-.881Z" transform="translate(-157.592 -88.902)" fill="#263238"/>
        <path id="Path_1794" data-name="Path 1794" d="M532.73,350.692c0-1.387.731-2.212,1.734-2.212s1.734.825,1.734,2.212-.731,2.2-1.734,2.2S532.73,352.069,532.73,350.692Zm3.008,0c0-1.162-.515-1.809-1.275-1.809s-1.275.647-1.275,1.809.515,1.8,1.275,1.8S535.738,351.844,535.738,350.692Z" transform="translate(-157.853 -88.903)" fill="#263238"/>
        <path id="Path_1795" data-name="Path 1795" d="M543.826,342.474h0a2.605,2.605,0,0,1-2.6-2.605V291a2.6,2.6,0,0,1,2.587-2.605h0a2.6,2.6,0,0,1,2.605,2.587h0V339.85a2.605,2.605,0,0,1-2.6,2.624Z" transform="translate(-158.387 -85.127)" fill="#e0e0e0"/>
        <path id="Path_1796" data-name="Path 1796" d="M543.826,344.138h0a2.568,2.568,0,0,1-2.6-2.38V317.691a2.652,2.652,0,0,1,2.483-2.812h.112a2.6,2.6,0,0,1,2.605,2.587h0v24.066A2.605,2.605,0,0,1,543.826,344.138Z" transform="translate(-158.387 -86.792)" fill="#e8505b"/>
        <path id="Path_1797" data-name="Path 1797" d="M539.9,348.52v4.339h-.44v-3.945H538.43v-.394Z" transform="translate(-158.211 -88.905)" fill="#263238"/>
        <path id="Path_1798" data-name="Path 1798" d="M541.12,350.692c0-1.387.722-2.212,1.724-2.212s1.743.825,1.743,2.212-.731,2.2-1.743,2.2S541.12,352.069,541.12,350.692Zm3.008,0c0-1.162-.525-1.809-1.284-1.809s-1.275.647-1.275,1.809.525,1.8,1.275,1.8S544.128,351.844,544.128,350.692Z" transform="translate(-158.38 -88.903)" fill="#263238"/>
        <path id="Path_1799" data-name="Path 1799" d="M545.5,350.692c0-1.387.722-2.212,1.724-2.212s1.743.825,1.743,2.212-.731,2.2-1.743,2.2S545.5,352.069,545.5,350.692Zm3.008,0c0-1.162-.525-1.809-1.284-1.809s-1.274.647-1.274,1.809.525,1.8,1.274,1.8S548.508,351.844,548.508,350.692Z" transform="translate(-158.655 -88.903)" fill="#263238"/>
        <path id="Path_1800" data-name="Path 1800" d="M422.59,316.271c0-19.849.112-35.931.244-35.931s.244,16.1.244,35.931-.1,35.912-.244,35.912S422.59,336.12,422.59,316.271Z" transform="translate(-150.933 -84.622)" fill="#e0e0e0"/>
        <path id="Path_1801" data-name="Path 1801" d="M380.335,285.07c12.23,0,22.145.1,22.145.244s-9.915.244-22.145.244-22.145-.1-22.145-.244S368.105,285.07,380.335,285.07Z" transform="translate(-146.886 -84.919)" fill="#263238"/>
        <g id="Group_122" data-name="Group 122" transform="translate(30.345 196.776)" opacity="0.5">
          <path id="Path_1802" data-name="Path 1802" d="M165.1,347.625V285.031a3.542,3.542,0,0,1,6.616-1.781l27.656,47.908a3.552,3.552,0,0,0,5.623.722l15.463-15.51.131-.122a3.542,3.542,0,0,1,5,.244l19.437,21.386a3.543,3.543,0,0,0,5.623-.412l31.995-47.852a3.552,3.552,0,0,1,5.942.066l19.362,30.346a3.543,3.543,0,0,0,6.063-.131l5.623-9.812a3.561,3.561,0,0,1,6.11-.112l6.851,10.787a3.552,3.552,0,0,0,5.782.291l9.372-11.9a3.542,3.542,0,0,1,5.876.412l14.995,26.035a3.552,3.552,0,0,0,5.211,1.059l5.211-3.936.094-.066a3.552,3.552,0,0,1,4.948.862l9.906,14.133Z" transform="translate(-165.1 -281.468)" fill="#fff"/>
        </g>
      </g>
      <g id="freepik--magnifying-glass--inject-272" transform="translate(455.983 181.302)">
        <path id="Path_1803" data-name="Path 1803" d="M591.04,352.416a43.85,43.85,0,0,1-38.986-48.227h0a43.85,43.85,0,1,1,38.986,48.227Zm-32.37-47.7a37.121,37.121,0,1,0,40.9-32.913,38.7,38.7,0,0,0-4.03-.216A37.121,37.121,0,0,0,558.67,304.715Z" transform="translate(-527.417 -264.957)" fill="#455a64"/>
        <path id="Path_1804" data-name="Path 1804" d="M529.07,398.069a3.271,3.271,0,0,1-2.493-5.408L568,344.023h0a3.281,3.281,0,1,1,5,4.255l-41.385,48.611a3.233,3.233,0,0,1-2.493,1.153Z" transform="translate(-525.782 -269.852)" fill="#455a64"/>
      </g>
      <g id="freepik--Plant--inject-272" transform="translate(12.124 237.592)">
        <path id="Path_1805" data-name="Path 1805" d="M103.2,396.233A45.837,45.837,0,0,0,80.556,360.04c-4.114-2.343-9.672-3.889-13.3-.843-2.334,1.968-3.065,5.351-2.568,8.36a24.407,24.407,0,0,0,3.6,8.341c3.683,6.12,7.844,12.183,13.608,16.372s14.564,6.316,21.3,3.964" transform="translate(-52.943 -327.062)" fill="#e8505b"/>
        <path id="Path_1806" data-name="Path 1806" d="M95.167,415.282c-5.229-4.142-10.927-7.9-17.413-9.578a30.823,30.823,0,0,0-19.681,1.059,11.471,11.471,0,0,0-4.517,3.083A5.548,5.548,0,0,0,52.367,415c.778,2.305,3.261,3.505,5.539,4.377,6.288,2.465,12.849,4.339,19.568,3.983s13.664-2.69,17.712-8.032" transform="translate(-52.165 -330.019)" fill="#e8505b"/>
        <path id="Path_1807" data-name="Path 1807" d="M104.813,365.3c3.214-9.625,3.861-20.768.862-30.467a16.873,16.873,0,0,0-4.236-7.629c-2.174-2.006-5.623-2.9-8.144-1.518s-3.636,4.5-4.142,7.31a36.147,36.147,0,0,0,3.327,22.548c2.521,4.976,6.71,9.868,12.333,9.756" transform="translate(-54.455 -325.021)" fill="#e8505b"/>
        <path id="Path_1808" data-name="Path 1808" d="M124.875,396.951c5.492-4.789,7.994-11.012,8.435-18.294.694-11.818,1.387-23.917-1.874-35.3-.937-3.243-3.036-6.991-6.41-6.785-2.99.2-4.686,3.524-5.623,6.429-5.623,17.928-4.039,37.749,5.482,53.953" transform="translate(-56.186 -325.746)" fill="#e8505b"/>
        <path id="Path_1809" data-name="Path 1809" d="M136,406.36c3.261,2.127,9.8,1.734,13.373.169s6.5-4.255,9.315-6.935c3.1-2.952,6.251-6.026,8.125-9.85,1.19-2.371,1.79-5.511-.094-7.441s-5.1-1.378-7.629-.44A38.939,38.939,0,0,0,136,406.36" transform="translate(-57.433 -328.539)" fill="#e8505b"/>
        <path id="Path_1810" data-name="Path 1810" d="M73.247,363.725l.544.356,2.024,1.424,1.481,1.04c.525.394,1.078.853,1.678,1.331A51.214,51.214,0,0,1,83,371.213l2.268,2.024c.787.7,1.546,1.509,2.362,2.305,1.678,1.556,3.28,3.43,5,5.3a102.293,102.293,0,0,1,17.478,28.331c.937,2.39,1.874,4.686,2.521,6.823.347,1.087.722,2.071,1,3.14s.544,2.006.8,2.943c.553,1.874.853,3.589,1.19,5.089.15.759.337,1.453.431,2.1s.187,1.246.272,1.781c.15,1.05.272,1.874.356,2.474,0,.262.084.469.084.637a1.013,1.013,0,0,1,0,.225.74.74,0,0,1-.056-.216l-.131-.637c-.1-.572-.253-1.415-.44-2.446l-.309-1.781c-.122-.637-.3-1.331-.469-2.081-.3-1.5-.675-3.2-1.237-5.07-.262-.937-.534-1.874-.825-2.915s-.675-2.043-1.031-3.121c-.675-2.174-1.612-4.414-2.549-6.785a114.173,114.173,0,0,0-7.582-14.77,115.905,115.905,0,0,0-9.812-13.383c-1.706-1.874-3.289-3.749-4.93-5.3-.806-.806-1.556-1.6-2.334-2.324l-2.24-2.034c-1.406-1.331-2.812-2.437-3.974-3.374-.6-.487-1.143-.937-1.659-1.359l-1.453-1.106-2-1.49-.506-.394a1.149,1.149,0,0,1-.169-.15Z" transform="translate(-53.478 -327.448)" fill="#263238"/>
        <path id="Path_1811" data-name="Path 1811" d="M60.275,411.234c.45-.112,1.059-.3,1.874-.459a45.737,45.737,0,0,1,6.907-.993,49.473,49.473,0,0,1,41.085,17.066,45.171,45.171,0,0,1,4.161,5.623c.422.684.712,1.256.937,1.621a4.449,4.449,0,0,1,.309.59,2.811,2.811,0,0,1-.384-.544c-.244-.356-.562-.937-1.04-1.574a51.1,51.1,0,0,0-51.985-21.63c-.834.131-1.453.3-1.874.375a5.7,5.7,0,0,1-.656.112,3,3,0,0,1,.665-.188Z" transform="translate(-52.633 -330.338)" fill="#263238"/>
        <path id="Path_1812" data-name="Path 1812" d="M97.2,332.906a4.122,4.122,0,0,0,.187.722c.169.665.412,1.593.712,2.811.619,2.437,1.49,5.914,2.568,10.187,2.165,8.6,5.258,20.468,8.435,33.635,1.574,6.56,3.008,12.867,4.2,18.622s2.193,10.946,2.915,15.323c.384,2.165.656,4.17.937,5.914s.487,3.289.637,4.48l.356,2.812a2.614,2.614,0,0,1,.084.74,1.284,1.284,0,0,1,0,.253.8.8,0,0,1-.056-.244,5.114,5.114,0,0,0-.131-.731l-.431-2.811c-.187-1.228-.422-2.737-.712-4.47s-.6-3.749-1.012-5.895c-.768-4.367-1.781-9.569-3.008-15.295s-2.652-12.043-4.236-18.6c-3.168-13.12-6.223-25.032-8.313-33.654-1.059-4.311-1.874-7.807-2.437-10.225l-.628-2.812a4.217,4.217,0,0,1-.15-.731.693.693,0,0,1,0-.244S97.157,332.718,97.2,332.906Z" transform="translate(-54.989 -325.503)" fill="#263238"/>
        <path id="Path_1813" data-name="Path 1813" d="M120.418,427.886a3.853,3.853,0,0,0,.084-.59l.384-2.268c.356-1.968.843-4.817,1.415-8.35,1.134-7.085,2.483-16.869,3.421-27.7.431-5.436.694-10.628.806-15.351s.1-8.978,0-12.549c0-1.79-.131-3.393-.178-4.817s-.131-2.662-.187-3.636-.122-1.734-.122-2.305v-.59a.1.1,0,1,1,.094-.028.1.1,0,0,1-.094.028,1.631,1.631,0,0,1,.066.6c.056.562.122,1.284.216,2.287s.187,2.212.262,3.636.244,3.036.244,4.826c.1,3.571.206,7.835.1,12.567s-.337,9.934-.768,15.379c-.937,10.852-2.343,20.674-3.561,27.721-.609,3.524-1.143,6.363-1.546,8.322-.2.937-.356,1.706-.469,2.259a3.223,3.223,0,0,0-.131.581.75.75,0,0,1-.066.2.694.694,0,0,1,.028-.216Z" transform="translate(-56.452 -326.56)" fill="#263238"/>
        <path id="Path_1814" data-name="Path 1814" d="M119.774,431.97l.553-1.659c.122-.366.262-.768.412-1.2l.581-1.387.665-1.593c.234-.572.553-1.134.843-1.753l.937-1.874c.375-.647.75-1.312,1.143-2.006.759-1.415,1.753-2.811,2.69-4.348a98.227,98.227,0,0,1,7.169-9.222,105.423,105.423,0,0,1,8.294-8.247c1.378-1.153,2.643-2.324,3.927-3.261L148.864,394l1.734-1.246c1.1-.806,2.137-1.453,3.036-2.052s1.687-1.087,2.352-1.453l1.518-.872a5.487,5.487,0,0,1,.544-.272,2.268,2.268,0,0,1-.5.356l-1.471.937c-.656.384-1.406.937-2.305,1.509s-1.874,1.284-2.99,2.1l-1.753,1.265-1.8,1.434c-1.265.937-2.521,2.127-3.889,3.28a113.454,113.454,0,0,0-8.228,8.228,102.379,102.379,0,0,0-7.169,9.166c-.937,1.49-1.94,2.905-2.708,4.3l-1.115,2-.937,1.874c-.3.609-.609,1.181-.862,1.734s-.478,1.078-.7,1.565l-.609,1.387c-.159.422-.309.815-.45,1.171-.253.693-.469,1.218-.628,1.631a2.6,2.6,0,0,1-.244.562,2.5,2.5,0,0,1,.084-.637Z" transform="translate(-56.408 -328.985)" fill="#263238"/>
        <path id="Path_1815" data-name="Path 1815" d="M77.592,383.55H79.8a42.642,42.642,0,0,1,14.329,2.708c.872.328,1.565.628,2.043.853a3.158,3.158,0,0,1,.712.384,28.847,28.847,0,0,1-2.812-.937,57.166,57.166,0,0,0-7.01-1.874,56.238,56.238,0,0,0-7.188-.872c-1.874-.1-3-.1-3-.169a2.876,2.876,0,0,1,.712-.094Z" transform="translate(-53.718 -328.698)" fill="#263238"/>
        <path id="Path_1816" data-name="Path 1816" d="M69.891,418.446a17.076,17.076,0,0,1,6.879-7.413,6.848,6.848,0,0,1,1.931-.853,27.477,27.477,0,0,0-5.623,4.348,27.983,27.983,0,0,0-3.917,5.9A6.832,6.832,0,0,1,69.891,418.446Z" transform="translate(-53.233 -330.372)" fill="#263238"/>
        <path id="Path_1817" data-name="Path 1817" d="M99.216,350.569a19.99,19.99,0,0,1,3.036,4.63c-.112.075-1.471-2.024-3.383-4.339s-3.674-4.1-3.58-4.189a19.54,19.54,0,0,1,3.927,3.9Z" transform="translate(-54.875 -326.381)" fill="#263238"/>
        <path id="Path_1818" data-name="Path 1818" d="M100.942,339.912a16.869,16.869,0,0,1-.862,3.749,32.624,32.624,0,0,1,1.293-7.591,16.41,16.41,0,0,1-.431,3.842Z" transform="translate(-55.176 -325.715)" fill="#263238"/>
        <path id="Path_1819" data-name="Path 1819" d="M126.4,380.848a93.963,93.963,0,0,1-5.97-11.518,92.187,92.187,0,0,1,5.97,11.518Z" transform="translate(-56.455 -327.805)" fill="#263238"/>
        <path id="Path_1820" data-name="Path 1820" d="M129.492,362.442a27.932,27.932,0,0,1-2.362,4.236A52.024,52.024,0,0,1,131.45,358a26.5,26.5,0,0,1-1.959,4.442Z" transform="translate(-56.875 -327.093)" fill="#263238"/>
        <path id="Path_1821" data-name="Path 1821" d="M152.605,395.734a12.529,12.529,0,0,1,4.32.244c0,.131-1.874.047-4.292.206s-4.273.534-4.273.4a12.285,12.285,0,0,1,4.245-.853Z" transform="translate(-58.209 -329.459)" fill="#263238"/>
        <path id="Path_1822" data-name="Path 1822" d="M101.52,430.78l4.6,27.778a3.908,3.908,0,0,0,3.852,3.271h15.66a3.9,3.9,0,0,0,3.833-3.177l5.3-27.871Z" transform="translate(-55.266 -331.666)" fill="#263238"/>
        <path id="Path_1823" data-name="Path 1823" d="M95.551,359.29H62.3l1.593,9.053H93.826Z" transform="translate(-16.037 -260.167)" fill="#455a64"/>
        <path id="Path_1824" data-name="Path 1824" d="M64,368.95l.45,3.3H93.305l.628-3.3Z" transform="translate(-16.144 -260.774)" fill="#fafafa"/>
      </g>
      <g id="freepik--Character--inject-272" transform="translate(169.976 44.995)">
        <path id="Path_1825" data-name="Path 1825" d="M255.472,436.552,253.6,463.065l-33-2.109c.394-3.14,17.872-8.378,17.872-8.378l.469-17.038Z" transform="translate(-220.6 -139.368)" fill="#e8505b"/>
        <path id="Path_1826" data-name="Path 1826" d="M250.711,452.933a1.349,1.349,0,0,0-1.734.694,1.424,1.424,0,0,0,.872,1.7,1.293,1.293,0,0,0,1.574-.843,1.35,1.35,0,0,0-.834-1.593" transform="translate(-222.38 -140.455)" fill="#e0e0e0"/>
        <g id="Group_123" data-name="Group 123" transform="translate(0.042 319.995)" opacity="0.6">
          <path id="Path_1827" data-name="Path 1827" d="M220.65,462.553c-.1-1.04,1.406-1.593,1.406-1.593l31.676,1.022-.084,2.68Z" transform="translate(-220.645 -460.96)" fill="#fff"/>
        </g>
        <path id="Path_1828" data-name="Path 1828" d="M241.072,453.9c.937.675,1.1,1.621.937,1.678s-.534-.647-1.293-1.218-1.556-.694-1.556-.853S240.135,453.22,241.072,453.9Z" transform="translate(-221.766 -140.489)" fill="#263238"/>
        <path id="Path_1829" data-name="Path 1829" d="M236.963,455.649c.637.843.478,1.781.319,1.781s-.272-.722-.778-1.443-1.134-1.04-1.134-1.19S236.326,454.806,236.963,455.649Z" transform="translate(-221.528 -140.575)" fill="#263238"/>
        <path id="Path_1830" data-name="Path 1830" d="M232.466,457.436c-.281-.75-.722-1.246-.647-1.378s.815.272,1.171,1.181.075,1.7-.066,1.649S232.747,458.186,232.466,457.436Z" transform="translate(-221.304 -140.656)" fill="#263238"/>
        <path id="Path_1831" data-name="Path 1831" d="M241.52,448.878c1.068.131,1.715.75,1.621.881s-.778-.225-1.687-.319-1.659.056-1.724-.094S240.451,448.747,241.52,448.878Z" transform="translate(-221.802 -140.205)" fill="#263238"/>
        <path id="Path_1832" data-name="Path 1832" d="M241.515,445.211a8.436,8.436,0,0,0,1.64-.506,8.813,8.813,0,0,0,.937-.44,1.79,1.79,0,0,0,.384-.262c0-.094.075,0,0-.187s-.375-.178-.731-.1a6.051,6.051,0,0,0-.937.234,6.822,6.822,0,0,0-1.565.778c-.815.515-1.246.937-1.293.937a3.064,3.064,0,0,1,1.059-1.275,5.624,5.624,0,0,1,1.593-.937,5.724,5.724,0,0,1,1.05-.29,2.127,2.127,0,0,1,.619,0,.872.872,0,0,1,.684.412.7.7,0,0,1-.131.853,2.139,2.139,0,0,1-.515.356,7.425,7.425,0,0,1-.937.44,7.3,7.3,0,0,1-1.762.422,3.14,3.14,0,0,1-1.659-.094,12.342,12.342,0,0,1,1.565-.337Z" transform="translate(-221.815 -139.845)" fill="#263238"/>
        <path id="Path_1833" data-name="Path 1833" d="M240.1,444.019a5.867,5.867,0,0,0-.216-1.668,5.334,5.334,0,0,0-.347-.937,1.237,1.237,0,0,0-.544-.572c-.131-.047-.281.225-.356.572a3.6,3.6,0,0,0,.337,2.54,7.65,7.65,0,0,0,.937,1.284c0,.047-.675-.187-1.265-1.078a3.88,3.88,0,0,1-.6-1.753,3.749,3.749,0,0,1,.075-1.115,2.287,2.287,0,0,1,.206-.6.778.778,0,0,1,.722-.412,1.387,1.387,0,0,1,1,.937,5.856,5.856,0,0,1,.356,1.031,5.454,5.454,0,0,1,.112,1.874,2.634,2.634,0,0,1-.544,1.565C239.877,445.584,240.1,444.994,240.1,444.019Z" transform="translate(-221.696 -139.666)" fill="#263238"/>
        <path id="Path_1834" data-name="Path 1834" d="M297.84,438.311s3.561,21.077,3.627,22.951c.056,1.612,13.6,12.043,17.3,14.854a2.24,2.24,0,0,0,2.024.356h0l.141-.047a2.259,2.259,0,0,0,1.293-2.924l-6.56-16.869-1.987-21.883Z" transform="translate(-225.453 -139.318)" fill="#e8505b"/>
        <g id="Group_124" data-name="Group 124" transform="translate(75.854 320.463)" opacity="0.6">
          <path id="Path_1835" data-name="Path 1835" d="M321.033,478.151a2.231,2.231,0,0,1-2.09-.347c-10.253-7.882-14.676-11.846-16.251-13.317a3.4,3.4,0,0,1-1.05-2.09l-.1-.937,19.493,16.682Z" transform="translate(-301.54 -461.46)" fill="#fff"/>
        </g>
        <g id="Group_125" data-name="Group 125" transform="translate(77.663 312.761)" opacity="0.6">
          <path id="Path_1836" data-name="Path 1836" d="M305.485,453.456h0a1.349,1.349,0,0,0-1.874.422,1.434,1.434,0,0,0,.6,1.874,1.312,1.312,0,0,0,1.706-.581,1.378,1.378,0,0,0-.572-1.724" transform="translate(-303.47 -453.242)" fill="#fff"/>
        </g>
        <path id="Path_1837" data-name="Path 1837" d="M316.034,468.711a3.571,3.571,0,0,1,1.321-1.5,3.477,3.477,0,0,1,1.874-.572c.525,0,.806.15.806.206a6.99,6.99,0,0,0-2.455.768,5.784,5.784,0,0,0-1.724,1.874C315.724,469.489,315.8,469.152,316.034,468.711Z" transform="translate(-226.581 -141.322)" fill="#263238"/>
        <path id="Path_1838" data-name="Path 1838" d="M319.505,470.879a2.493,2.493,0,0,1,2.3-.066,15.712,15.712,0,0,0-2.109.515c-1.087.45-1.706,1.237-1.874,1.162S318.268,471.4,319.505,470.879Z" transform="translate(-226.707 -141.569)" fill="#263238"/>
        <path id="Path_1839" data-name="Path 1839" d="M318.167,462.689a21.96,21.96,0,0,0-3.158,1.115,23.893,23.893,0,0,0-2.7,1.987,6.148,6.148,0,0,1,5.857-3.1Z" transform="translate(-226.362 -141.072)" fill="#263238"/>
        <path id="Path_1840" data-name="Path 1840" d="M311.146,458.912a5.623,5.623,0,0,1,5.623-.937c-.066.141-1.284-.094-2.877.141s-2.746.872-2.812.75Z" transform="translate(-226.285 -140.754)" fill="#263238"/>
        <path id="Path_1841" data-name="Path 1841" d="M310.954,451.412a4.92,4.92,0,0,1,4.4-.347c.534.234.778.478.778.534a7.116,7.116,0,0,0-5.857.459A2.3,2.3,0,0,1,310.954,451.412Z" transform="translate(-226.234 -140.321)" fill="#263238"/>
        <path id="Path_1842" data-name="Path 1842" d="M311.7,446.911a2.287,2.287,0,0,0-1.05-.937.516.516,0,0,0-.553.178,1.144,1.144,0,0,0-.131.731,2.811,2.811,0,0,0,2.652,2.249,3.289,3.289,0,0,0,2.961-1.987.937.937,0,0,0,0-.7.487.487,0,0,0-.534-.2,3.027,3.027,0,0,0-1.2.768,9.586,9.586,0,0,0-1.781,2.418,1.95,1.95,0,0,1,.244-.8,6.562,6.562,0,0,1,1.3-1.874,3.12,3.12,0,0,1,1.349-.937.881.881,0,0,1,.937.356,1.3,1.3,0,0,1,.066,1.068,3.683,3.683,0,0,1-3.393,2.324,3.177,3.177,0,0,1-3.1-2.605,1.481,1.481,0,0,1,.234-1.021.937.937,0,0,1,.993-.319,2.578,2.578,0,0,1,1.228,1.087,5.623,5.623,0,0,1,.937,2.09,1.874,1.874,0,0,1,.066.834,8.341,8.341,0,0,0-1.228-2.727Z" transform="translate(-226.183 -140)" fill="#263238"/>
        <path id="Path_1843" data-name="Path 1843" d="M220.444,196.34,197.23,365.5l21.817,2.3,28.771-141.784L252.87,368.6l24.01-1.537-1.3-170.7Z" transform="translate(-182.367 -57.331)" fill="#263238"/>
        <path id="Path_1844" data-name="Path 1844" d="M274.609,135.106l1.434,31.864h0a10.412,10.412,0,0,0,10.871,9.934h.291a10.412,10.412,0,0,0,9.606-11.162c-.216-2.905-.412-5.248-.412-5.248s7.91-1.228,8-9.128c0-3.692-.328-10.993-.731-17.75v-.272a14.554,14.554,0,1,0-29.053,1.781Z" transform="translate(-223.992 -119.522)" fill="#b78876"/>
        <path id="Path_1845" data-name="Path 1845" d="M297.189,164.926c-7.872.712-10.309-4.976-10.309-4.976a18.416,18.416,0,0,0,10.309,2.933Z" transform="translate(-224.764 -122.053)" fill="#aa6550"/>
        <path id="Path_1846" data-name="Path 1846" d="M275.346,146.8c0,.15-5.389,1.434-5.567-3.964s5.117-3.852,5.258-3.8S275.356,146.653,275.346,146.8Z" transform="translate(-223.69 -120.723)" fill="#b78876"/>
        <path id="Path_1847" data-name="Path 1847" d="M273.575,145.157a1.04,1.04,0,0,1-.862.169,2.437,2.437,0,0,1-1.443-2.287,3.186,3.186,0,0,1,.272-1.518,1.34,1.34,0,0,1,.937-.872.694.694,0,0,1,.525.122.581.581,0,0,1,.225.328c.056.225,0,.328-.056.319s0-.112-.075-.262a.487.487,0,0,0-.572-.244,1.125,1.125,0,0,0-.684.75,3.149,3.149,0,0,0-.216,1.35,2.334,2.334,0,0,0,1.143,2.062.937.937,0,0,0,.7,0,2.629,2.629,0,0,0,.253-.15A.349.349,0,0,1,273.575,145.157Z" transform="translate(-223.783 -120.839)" fill="#aa6550"/>
        <path id="Path_1848" data-name="Path 1848" d="M303.329,139.784a1.078,1.078,0,0,0-1.162-.984,1.115,1.115,0,0,0-1.087,1.134h0a1.078,1.078,0,0,0,1.162.984,1.134,1.134,0,0,0,1.087-1.143Z" transform="translate(-225.657 -120.723)" fill="#263238"/>
        <path id="Path_1849" data-name="Path 1849" d="M302.728,136.832a2.915,2.915,0,0,0-1.762-.572,3.121,3.121,0,0,0-1.79.553c-.384.281-.6.459-.469.609s1.022-.459,2.24-.459,2.071.628,2.212.487S303.093,137.113,302.728,136.832Z" transform="translate(-225.505 -120.564)" fill="#263238"/>
        <path id="Path_1850" data-name="Path 1850" d="M290.589,139.784a1.078,1.078,0,0,0-1.162-.984,1.125,1.125,0,0,0-1.087,1.134h0a1.078,1.078,0,0,0,1.162.984,1.125,1.125,0,0,0,1.087-1.143Z" transform="translate(-224.856 -120.723)" fill="#263238"/>
        <path id="Path_1851" data-name="Path 1851" d="M289.978,137.072a2.98,2.98,0,0,0-1.762-.572,3.149,3.149,0,0,0-1.79.553c-.384.281-.59.478-.459.619s1.012-.469,2.23-.469,2.071.628,2.212.487S290.353,137.353,289.978,137.072Z" transform="translate(-224.705 -120.579)" fill="#263238"/>
        <path id="Path_1852" data-name="Path 1852" d="M297.358,146.672a2.286,2.286,0,0,0,.525-.066.787.787,0,0,0,.506-.459,1.772,1.772,0,0,0-.159-1.218l-.881-2.371a40.5,40.5,0,0,0-2.549-6,41.473,41.473,0,0,0,2.062,6.176l.937,2.362a1.65,1.65,0,0,1,.206.937c-.056.216-.347.309-.656.309a7.5,7.5,0,0,0-1.977.356A8.434,8.434,0,0,0,297.358,146.672Z" transform="translate(-225.262 -120.583)" fill="#263238"/>
        <path id="Path_1853" data-name="Path 1853" d="M291.37,149.113a2.868,2.868,0,0,0,1.031,1.874,3.28,3.28,0,0,0,2.118.74c.619,0,.937-.122.937-.272a6.138,6.138,0,0,1-2.54-.937c-1.134-.937-1.134-2.249-1.331-2.249S291.351,148.589,291.37,149.113Z" transform="translate(-225.046 -121.319)" fill="#263238"/>
        <path id="Path_1854" data-name="Path 1854" d="M289.848,131.981a4.685,4.685,0,0,0-2.155-.253,4.62,4.62,0,0,0-2.052.722c-.459.319-.665.628-.581.768.234.3,1.387-.084,2.812-.262s2.643,0,2.755-.347C290.719,132.468,290.457,132.215,289.848,131.981Z" transform="translate(-224.649 -120.277)" fill="#263238"/>
        <path id="Path_1855" data-name="Path 1855" d="M302.348,133.023a2.867,2.867,0,0,0-1.64-.553,2.812,2.812,0,0,0-1.678.45c-.366.262-.506.534-.412.675.178.291,1.05.1,2.052.1s1.874.272,2.052,0C302.789,133.557,302.723,133.276,302.348,133.023Z" transform="translate(-225.5 -120.326)" fill="#263238"/>
        <path id="Path_1856" data-name="Path 1856" d="M274.549,137.588c-.431-4.02-.637-6.279.937-9.971a13.373,13.373,0,0,1,7.441-6.926,18.537,18.537,0,0,1,10.253-.8,7.591,7.591,0,0,1,3.449,1.387,3.318,3.318,0,0,1,1.275,3.308,3.065,3.065,0,0,1-2.5,2.09,4.761,4.761,0,0,1-3.271-.825,31.287,31.287,0,0,0-3.074-2.268,5.623,5.623,0,0,0-5.82.843,8.875,8.875,0,0,0-2.961,5.3,21.7,21.7,0,0,0-.094,6.185,9.063,9.063,0,0,1-.3,4.489c-.609,1.387-2.315,2.427-3.674,1.753a2.812,2.812,0,0,1-1.378-1.977,8.865,8.865,0,0,1-.131-2.587" transform="translate(-223.97 -119.512)" fill="#263238"/>
        <path id="Path_1857" data-name="Path 1857" d="M388.3,186.749l-8.088,1.921c-.478.178-.112.7.159.647,5.258-.937,7.16,2.446,7.591,5.079s-1.162,2.755-1.162,2.755a2.09,2.09,0,0,1-1.359,2.287c.553,2.765-2.68,3.308-4.6,3.749s-1.818-2.1-1.818-2.1a6.56,6.56,0,0,0-3.43,1.593c-1.621,1.443-7.2,3-7.2,3L363,195.371l15.81-10.046L390.328,183C393.392,184.771,388.3,186.749,388.3,186.749Z" transform="translate(-229.547 -123.501)" fill="#b78876"/>
        <path id="Path_1858" data-name="Path 1858" d="M383.968,195.866c-.553.225-1.293.431-1.959.768a1.312,1.312,0,0,0-.684.787.937.937,0,0,0,.394.937,1.977,1.977,0,0,0,1.134.375,6.719,6.719,0,0,0,1.218-.084c.8-.094,1.509-.206,2.1-.328a15.354,15.354,0,0,1,1.931-.4,5.791,5.791,0,0,1-1.874.74,17.883,17.883,0,0,1-2.127.44,3.411,3.411,0,0,1-2.718-.356,1.434,1.434,0,0,1-.553-1.443,1.734,1.734,0,0,1,.937-1.068,17.428,17.428,0,0,1,2.062-.7,8.2,8.2,0,0,1,1.931-.469,8.762,8.762,0,0,1-1.79.806Z" transform="translate(-230.665 -124.259)" fill="#aa6550"/>
        <path id="Path_1859" data-name="Path 1859" d="M384.73,193.637c.872.525,1,1.35.872,1.4s-.459-.553-1.134-.984-1.378-.45-1.378-.59S383.858,193.112,384.73,193.637Z" transform="translate(-230.809 -124.148)" fill="#aa6550"/>
        <path id="Path_1860" data-name="Path 1860" d="M381.632,199.085a1.875,1.875,0,0,0-.066.7,1.265,1.265,0,0,0,.328.937,1.162,1.162,0,0,0,1.1.253c.937-.141,1.874-.244,2.5-.356s.993-.225,1.04-.159-.3.291-.937.5a17.607,17.607,0,0,1-2.53.506,1.574,1.574,0,0,1-1.49-.44,1.518,1.518,0,0,1-.337-1.228,1.734,1.734,0,0,1,.253-.787.4.4,0,0,1,.262-.15A1.488,1.488,0,0,1,381.632,199.085Z" transform="translate(-230.692 -124.497)" fill="#aa6550"/>
        <path id="Path_1861" data-name="Path 1861" d="M381.318,201.366a3.083,3.083,0,0,0-.778.787,1.612,1.612,0,0,0-.178,1c0,.3.056.506,0,.525s-.2-.131-.309-.45a1.5,1.5,0,0,1,.122-1.359,2.137,2.137,0,0,1,1.031-.825c.347-.094.562,0,.562.066S381.571,201.216,381.318,201.366Z" transform="translate(-230.612 -124.632)" fill="#aa6550"/>
        <path id="Path_1862" data-name="Path 1862" d="M370.77,202.007c3.13-.815,5.539-4.32,5.539-4.32a13.12,13.12,0,0,0,5.2-.253c2.708-.722,2.221-1.781,2.221-1.781l-5.839-1.143-5.557.234" transform="translate(-230.035 -124.224)" fill="#b78876"/>
        <path id="Path_1863" data-name="Path 1863" d="M372.5,201.143a13.645,13.645,0,0,0,3.627-3.552l.075-.112h.141a12.183,12.183,0,0,0,6.12-.628,2.549,2.549,0,0,0,.787-.487.675.675,0,0,0,.262-.609l.178.141-5.782-1.171h0c-1.687.084-3.111.084-4.049.084a7.712,7.712,0,0,1-1.518-.047,7.562,7.562,0,0,1,1.509-.178c.937-.075,2.352-.159,4.039-.253h0l5.848,1.1h.141v.112a1.106,1.106,0,0,1-.366,1.162,3.3,3.3,0,0,1-.937.581,12.249,12.249,0,0,1-6.4.6l.216-.094a12.661,12.661,0,0,1-3.852,3.533,6.693,6.693,0,0,1-1.349.581,1.678,1.678,0,0,1-.515.094A11.524,11.524,0,0,0,372.5,201.143Z" transform="translate(-230.029 -124.213)" fill="#aa6550"/>
        <path id="Path_1864" data-name="Path 1864" d="M380.288,190.2c.356-.525.6-.937.731-.937s.075.619-.328,1.19-.937.815-1.012.7S379.979,190.722,380.288,190.2Z" transform="translate(-230.594 -123.894)" fill="#aa6550"/>
        <path id="Path_1865" data-name="Path 1865" d="M308,185.483l-12.183-17.441-5.173,10.834L275.513,167.63,269,172.663l9.278,94.251c12.633,1.34,23.823.112,33.391-4.02Z" transform="translate(-223.641 -122.535)" fill="#f5f5f5"/>
        <path id="Path_1866" data-name="Path 1866" d="M297.245,267.958l.056-.675c.066-.628.216-1.434.262-2.568s.141-2.493.187-4.086,0-3.411,0-5.426c0-8.032-.637-19.109-1.518-31.348s-1.959-23.289-2.755-31.292c-.422-3.964-.759-7.188-1-9.465-.122-1.078-.225-1.94-.29-2.568a2.315,2.315,0,0,1-.075-.665.731.731,0,0,1,0-.234l.056.225a3.482,3.482,0,0,1,.112.665c.094.581.234,1.443.384,2.558.309,2.23.712,5.454,1.153,9.447.937,7.994,2.015,19.053,2.905,31.292s1.434,23.345,1.378,31.386c-.047,2.015,0,3.842-.122,5.436s-.122,3-.272,4.086-.272,1.949-.356,2.577a4.17,4.17,0,0,1-.1.665.721.721,0,0,0-.056.216A1.013,1.013,0,0,1,297.245,267.958Z" transform="translate(-225.092 -123.289)" fill="#263238"/>
        <path id="Path_1867" data-name="Path 1867" d="M253.5,273.989l9.212-31.667-8.135-62.406,13.448-7.254,6.56-5.033-.515,1.162a6.86,6.86,0,0,0-.141,5.258c2.193,5.679,7.432,18.987,10.815,25.36,4.367,8.228-2.68,81.9-2.68,81.9Z" transform="translate(-222.667 -122.535)" fill="#e8505b"/>
        <g id="Group_126" data-name="Group 126" transform="translate(36.69 126.91)" opacity="0.3">
          <path id="Path_1868" data-name="Path 1868" d="M284.988,255.82l-23.954-.89-1.284,4.414a17.731,17.731,0,0,1,9.606,3.3c2.577,1.874,2.737,3.664,5.867,4.114,5.792.843,3.318-2.483,9.044-1.284Z" transform="translate(-259.75 -254.93)"/>
        </g>
        <path id="Path_1869" data-name="Path 1869" d="M313.951,174.132,298.3,168.79l4.63,10.084a24.534,24.534,0,0,1,2.221,9.793l5.126,91.037,11.8-4.367L317.39,242.4l2.334-58.845Z" transform="translate(-225.482 -122.608)" fill="#e8505b"/>
        <path id="Path_1870" data-name="Path 1870" d="M261.012,205.809,257.263,231.2c2.812,1.921,18.743,4.217,18.743,4.217l3.13,13.683s-17.984,2.024-28.7.562h-.319a13.317,13.317,0,0,1-11.246-14.376c.993-11.293,4.564-33.279,5.773-39.549,1.668-8.6,9.053-14.995,9.053-14.995C257.9,181.471,261.012,205.809,261.012,205.809Z" transform="translate(-221.745 -123.359)" fill="#e8505b"/>
        <path id="Path_1871" data-name="Path 1871" d="M365.675,206.366l-31.864,25.856a10.768,10.768,0,0,1-12.6.684h0a10.74,10.74,0,0,1-4.78-7.272L309.81,172.74l7.263,2.465c6.035,6.485,15.407,34.047,15.407,34.047l26.1-16.5Z" transform="translate(-226.205 -122.856)" fill="#e8505b"/>
        <path id="Path_1872" data-name="Path 1872" d="M253.188,241.616a8.219,8.219,0,0,1,3.674-6.438,3.224,3.224,0,0,1,1.443-.637,11.829,11.829,0,0,1-1.246.937,9.447,9.447,0,0,0-3.533,6.185,12.293,12.293,0,0,1-.15,1.537,3.139,3.139,0,0,1-.187-1.584Z" transform="translate(-222.646 -126.739)" fill="#263238"/>
        <path id="Path_1873" data-name="Path 1873" d="M255.84,243.392a11.4,11.4,0,0,1,1.546-7.779,4.105,4.105,0,0,1,1.05-1.293,20.468,20.468,0,0,0-2.043,5.136,19.821,19.821,0,0,0-.066,5.539,4.086,4.086,0,0,1-.487-1.6Z" transform="translate(-222.805 -126.725)" fill="#263238"/>
        <path id="Path_1874" data-name="Path 1874" d="M257.5,184.035a11.508,11.508,0,0,1,2.174,2.052,17.5,17.5,0,0,1,3.692,9.034,33.588,33.588,0,0,1-.487,9.793c-.225,1.237-.44,2.23-.6,2.915a4.563,4.563,0,0,1-.3,1.05,5.136,5.136,0,0,1,.112-1.087c.122-.8.272-1.771.441-2.924a37.347,37.347,0,0,0,.347-9.653,18.172,18.172,0,0,0-3.477-8.884,20.919,20.919,0,0,0-2.811-2.812A3.824,3.824,0,0,1,257.5,184.035Z" transform="translate(-222.861 -123.533)" fill="#263238"/>
        <g id="Group_127" data-name="Group 127" transform="translate(30.576 107.66)" opacity="0.3">
          <path id="Path_1875" data-name="Path 1875" d="M257.166,234.962a15.932,15.932,0,0,0-3.374,4.686,6.148,6.148,0,0,0,.216,5.576,1.115,1.115,0,0,0,.778.59c.337,0,.665-.412.44-.665a2.38,2.38,0,0,0,.59,1.2h0a.825.825,0,0,0,1.162-.066,1.218,1.218,0,0,0,0-1.021,16.232,16.232,0,0,1-.937-5.623,8.631,8.631,0,0,1,1.874-5.248" transform="translate(-253.226 -234.39)"/>
        </g>
        <path id="Path_1876" data-name="Path 1876" d="M331.1,216.878c1.462-2.868,2.418-5.248,2.549-5.248a28.658,28.658,0,0,1-5.267,10.384C328.258,221.929,329.635,219.746,331.1,216.878Z" transform="translate(-227.371 -125.3)" fill="#263238"/>
        <path id="Path_1877" data-name="Path 1877" d="M333.488,217.789c.637-3.468.937-6.279,1.1-6.279a6.7,6.7,0,0,1,0,1.874,46.643,46.643,0,0,1-1.631,8.894,6.793,6.793,0,0,1-.675,1.715C332.138,223.956,332.85,221.257,333.488,217.789Z" transform="translate(-227.616 -125.292)" fill="#263238"/>
        <path id="Path_1878" data-name="Path 1878" d="M318.9,218.156c0,14.217-.1,25.725-.244,25.725s-.244-11.527-.244-25.725.1-25.716.244-25.716S318.9,203.939,318.9,218.156Z" transform="translate(-226.745 -124.094)" fill="#263238"/>
        <path id="Path_1879" data-name="Path 1879" d="M302.193,170.319c.244.291.581.684,1,1.228a47.581,47.581,0,0,1,3.3,4.836,36.133,36.133,0,0,1,1.874,3.589,21.723,21.723,0,0,1,1.574,4.423c.319,1.659.506,3.355.778,5.136l.094.665.056.337a1.929,1.929,0,0,1,0,.4,2.727,2.727,0,0,1-.684,1.35,10.308,10.308,0,0,1-2.24,1.827v-.431a8.152,8.152,0,0,1,1.649,1.04c.693.534,1.34,1.1,1.931,1.64l.094.084v.112c-.309,3.749-.937,7.272-1.415,10.459s-.881,6.092-1.293,8.435-.712,4.245-.937,5.623c-.112.581-.2,1.125-.262,1.518a1.949,1.949,0,0,1-.131.525,3.332,3.332,0,0,1,0-.544,15.111,15.111,0,0,1,.178-1.528c.187-1.368.422-3.214.759-5.623s.759-5.248,1.181-8.435,1.068-6.673,1.359-10.421l.075.187a23.535,23.535,0,0,0-1.874-1.612,8.433,8.433,0,0,0-1.518-.937l-.422-.178.375-.253c1.5-1.012,3.346-2.23,2.568-4.1-.262-1.781-.45-3.533-.74-5.108a29.747,29.747,0,0,0-3.336-7.938c-1.218-2.146-2.362-3.749-3.149-4.9l-.937-1.275a2.436,2.436,0,0,1-.309-.45A2.651,2.651,0,0,1,302.193,170.319Z" transform="translate(-225.701 -122.684)" fill="#263238"/>
        <path id="Path_1880" data-name="Path 1880" d="M270.69,173.384a18.53,18.53,0,0,0,.169,4.283,45.346,45.346,0,0,0,1.49,6.213,56.236,56.236,0,0,0,2.69,7.347c1.021,2.287,2.09,4.433,3.074,6.41l-.159-.122,2.259.478.356.075-.234.272-1.453,1.687v-.234c1.256,2.174,2.334,3.992,3.13,5.342.337.562.609,1.1.843,1.5a2.053,2.053,0,0,1,.253.544,2.811,2.811,0,0,1-.356-.487l-.937-1.434L278.543,200l-.075-.122.094-.112,1.462-1.724.112.347-2.259-.45h-.1l-.056-.094c-.993-1.977-2.081-4.124-3.1-6.42a51.542,51.542,0,0,1-2.68-7.422,41.733,41.733,0,0,1-1.406-6.288,17.067,17.067,0,0,1,0-4.348,7.994,7.994,0,0,1,.234-1.162,1.819,1.819,0,0,1,.122-.394,10.49,10.49,0,0,1-.2,1.574Z" transform="translate(-223.728 -122.798)" fill="#263238"/>
        <g id="Group_128" data-name="Group 128" transform="translate(101.939 85.646)" opacity="0.3">
          <path id="Path_1881" data-name="Path 1881" d="M329.389,222.7a.778.778,0,0,0,.834.656,1.1,1.1,0,0,0,.562-.45,27.635,27.635,0,0,0,2.624-3.88,2.016,2.016,0,0,0-.2,1.068c.075.356.45.684.8.562a.937.937,0,0,0,.487-.647,14.208,14.208,0,0,0,.44-9.109l-1.181.75c-1.424,3.224-3.027,6.56-4.189,9.887a2.174,2.174,0,0,0-.178,1.162Z" transform="translate(-329.373 -210.9)"/>
        </g>
        <g id="Group_129" data-name="Group 129" transform="translate(82.274 68.721)" opacity="0.3">
          <path id="Path_1882" data-name="Path 1882" d="M308.606,223.448q1.415-10.449,2.811-20.89a9.924,9.924,0,0,0,0-4.236,3.4,3.4,0,0,0-3.027-2.568c.872-.937,1.809-1.977,2.746-2.915a2.493,2.493,0,0,1,0,3.214,4.573,4.573,0,0,1,2.812,3.261,11.378,11.378,0,0,1,.056,4.433c-.937,6.691-3.149,13.12-5.4,19.465" transform="translate(-308.39 -192.84)"/>
        </g>
        <g id="Group_130" data-name="Group 130" transform="translate(48.452 62.489)" opacity="0.3">
          <path id="Path_1883" data-name="Path 1883" d="M277.483,200.688l-1.1,1.977,3.608,5.726,3.28-.281c-1.528-2.455-3.027-5.164-4.555-7.619l2.127-1.453a3.842,3.842,0,0,1-3.28-1.415,11.246,11.246,0,0,1-1.8-3.233l-3.468-8.2q2.034,7.151,4.086,14.292Z" transform="translate(-272.3 -186.19)"/>
        </g>
        <path id="Path_1884" data-name="Path 1884" d="M258.851,103.989l-.815,4.283-3.655,2.071-6.063,1.134-5.1-2.23-4.452-3.439-2.277-5.9V93.83l11.94,6.944,3.468,6.457,1.35-6.457,4.236-5.979.169,2.287Z" transform="translate(-184.833 -50.891)" fill="#f5f5f5"/>
        <path id="Path_1885" data-name="Path 1885" d="M294.854,174.7a15.528,15.528,0,0,1,.872,5.52l-.45-.141.291-.459c1.143-1.959,1.762-3.974,2.455-5.333a6.786,6.786,0,0,1,1.321-2.081c.066,0-.431.834-1,2.221a42.531,42.531,0,0,1-2.362,5.445l-.29.469-.5.778v-.937a17.553,17.553,0,0,0-.7-5.389,18.625,18.625,0,0,1-.619-2.184A7.5,7.5,0,0,1,294.854,174.7Z" transform="translate(-225.204 -122.823)" fill="#263238"/>
        <path id="Path_1886" data-name="Path 1886" d="M275.982,170.44a5.754,5.754,0,0,0,1.321,2.071,15.829,15.829,0,0,0,2.915,2.324,37.077,37.077,0,0,1,3.749,2.727,37.559,37.559,0,0,0,3.308,2.484l-.347.234a13.449,13.449,0,0,1,0-3.177c.084-.937.2-1.771.3-2.446a10.949,10.949,0,0,1,.5-2.118,14.356,14.356,0,0,1-.178,2.165c-.066.684-.15,1.509-.2,2.446a13.7,13.7,0,0,0,.1,3.065l.094.506-.44-.272a35.143,35.143,0,0,1-3.374-2.483,41.238,41.238,0,0,0-3.749-2.737,15.079,15.079,0,0,1-2.924-2.474,5.482,5.482,0,0,1-1.265-2.259,3.289,3.289,0,0,1-.075-.7v-.253A4.566,4.566,0,0,0,275.982,170.44Z" transform="translate(-224.063 -122.655)" fill="#263238"/>
        <path id="Path_1887" data-name="Path 1887" d="M260.6,252.948h5.286c3.561,0,8.688-.112,14.545-.384l-.2.056c-.815-3.692-1.753-7.75-2.69-12-.178-.806-.356-1.593-.534-2.371l.206.187c-7.338-1.087-14.058-2.23-18.809-4.292l-.122-.056v-.141c.525-3.271.937-5.979,1.256-7.853.15-.881.272-1.593.366-2.127a6.562,6.562,0,0,1,.159-.74,3.748,3.748,0,0,1-.056.75c-.066.544-.159,1.218-.272,2.156-.262,1.874-.637,4.592-1.1,7.872l-.1-.2c4.742,1.977,11.424,3.074,18.743,4.142h.169v.159c.169.778.347,1.574.525,2.371.937,4.255,1.874,8.313,2.662,12.015v.084a.375.375,0,0,1-.187.206h-.244l-.291.047-.553.056-1.087.084-2.109.084c-1.368.084-2.671.084-3.9.084h-6.42c-1.79,0-3.243-.084-4.18-.131l-1.115-.066a1.958,1.958,0,0,0-.375-.056,1.732,1.732,0,0,1,.422.056Z" transform="translate(-222.968 -126.028)" fill="#263238"/>
        <path id="Path_1888" data-name="Path 1888" d="M251.139,144.37l13.092,38.03-30.945-.881-.056-.534,7.882-.45-3.2-14.376-11.94-2.118L217.87,144.37Z" transform="translate(-183.663 -54.066)" fill="#455a64"/>
        <path id="Path_1889" data-name="Path 1889" d="M270.726,174.663l-4.264,7.3-13.092-38.03,4.358-6.513Z" transform="translate(-185.894 -53.629)" fill="#455a64"/>
        <path id="Path_1890" data-name="Path 1890" d="M251.139,143.933l4.358-6.513-32.848,1.874-4.78,4.639Z" transform="translate(-183.663 -53.629)" fill="#ebebeb"/>
        <path id="Path_1891" data-name="Path 1891" d="M299.375,234.8c3.617,10.506,6.448,19.062,6.317,19.1s-3.158-8.435-6.776-18.94-6.448-19.09-6.316-19.09S295.786,224.3,299.375,234.8Z" transform="translate(-225.124 -125.566)" fill="#263238"/>
        <path id="Path_1892" data-name="Path 1892" d="M281.384,250.578,292.4,249.5s10.581-2.2,11.658-3.439,1.809-4.686,1.809-4.686c1.678-1.35,1.209-4.161,1.209-4.161,2.052-3.093-.253-3.018-.253-3.018a.619.619,0,0,0,.2-.319,1.359,1.359,0,0,0-2.3-1.246c-1.593,1.565-3.824,3.627-4.152,3.627s-2.877.45-5.061.853a2.024,2.024,0,0,1-2.315-2.558h0a32.1,32.1,0,0,0,4.011-2.577,2.052,2.052,0,0,0,0-2.615s-7.451,3.571-8.894,4.836a29.38,29.38,0,0,0-3.636,4.92l-5.623.487Z" transform="translate(-224.272 -126.414)" fill="#b78876"/>
        <path id="Path_1893" data-name="Path 1893" d="M299.426,240.352a11.349,11.349,0,0,0,4.227-1.246,10.309,10.309,0,0,0,3.055-3.158,8.172,8.172,0,0,1,1.1-1.528,6.785,6.785,0,0,1-.806,1.706,9.25,9.25,0,0,1-3.1,3.4,9.9,9.9,0,0,1-4.442,1.162,5.951,5.951,0,0,1-1.874,0,9.119,9.119,0,0,1,1.846-.337Z" transform="translate(-225.437 -126.732)" fill="#aa6550"/>
        <path id="Path_1894" data-name="Path 1894" d="M300.449,243.152c.515-.084,1.125-.2,1.79-.365a5.9,5.9,0,0,0,2-.843,11.751,11.751,0,0,0,1.565-1.565c.459-.525.89-.993,1.246-1.387.722-.768,1.19-1.228,1.246-1.181a6.271,6.271,0,0,1-.937,1.406l-1.162,1.453a10.353,10.353,0,0,1-1.621,1.668,5.726,5.726,0,0,1-2.174.881,11.05,11.05,0,0,1-1.874.272,3.411,3.411,0,0,1-1.724-.131C298.762,243.292,299.4,243.311,300.449,243.152Z" transform="translate(-225.513 -126.944)" fill="#aa6550"/>
        <path id="Path_1895" data-name="Path 1895" d="M301.492,245.881c.731-.234,1.734-.553,2.877-.862a1.649,1.649,0,0,0,.619-.384,7.582,7.582,0,0,0,.562-.525c.337-.356.628-.7.862-1a9.173,9.173,0,0,1,.75-.937c.056,0-.056.506-.469,1.171a7.188,7.188,0,0,1-.815,1.106,5.541,5.541,0,0,1-.572.581,1.874,1.874,0,0,1-.825.5c-2.23.628-4.152,1.022-4.152.834A5.135,5.135,0,0,1,301.492,245.881Z" transform="translate(-225.61 -127.218)" fill="#aa6550"/>
      </g>
    </g>
  </g>
</svg>
