<svg xmlns="http://www.w3.org/2000/svg" xmlns:xlink="http://www.w3.org/1999/xlink" width="772" height="495" viewBox="0 0 772 495">
  <defs>
    <filter id="Rectangle_133" x="0" y="0" width="772" height="495" filterUnits="userSpaceOnUse">
      <feOffset dx="2" dy="4" input="SourceAlpha"/>
      <feGaussianBlur stdDeviation="7.5" result="blur"/>
      <feFlood flood-opacity="0.161"/>
      <feComposite operator="in" in2="blur"/>
      <feComposite in="SourceGraphic"/>
    </filter>
  </defs>
  <g id="Group_133" data-name="Group 133" transform="translate(-167.5 -426.5)">
    <g transform="matrix(1, 0, 0, 1, 167.5, 426.5)" filter="url(#Rectangle_133)">
      <rect id="Rectangle_133-2" data-name="Rectangle 133" width="727" height="450" rx="24" transform="translate(20.5 18.5)" fill="#2a303a"/>
    </g>
    <g id="Experts-pana" transform="translate(164.2 410.647)">
      <g id="freepik--background-complete--inject-142" transform="translate(56.098 72.932)">
        <path id="Path_586" data-name="Path 586" d="M232.508,87.855a7.848,7.848,0,0,0,4.634-7.161,7.286,7.286,0,1,0-14.533-1.053v.948a7.72,7.72,0,0,0,4.634,7.267c-11.163,1.685-10.742,13.9-10.742,13.9l26.539.105S243.671,89.54,232.508,87.855Z" transform="translate(-47.578 -72.879)" fill="#e0e0e0"/>
        <path id="Path_587" data-name="Path 587" d="M640.922,149.18,628.6,135.911l4-3.686,8.53,9.162,17.8-17.587,3.791,3.9Z" transform="translate(-25.686 -70.174)" fill="#f5f5f5"/>
        <path id="Path_588" data-name="Path 588" d="M472.292,217.2c0-9.057-9.478-14.744-19.167-10.215a10.753,10.753,0,0,0-5.055,4.844c-2.422,4.739-1.369,10.11.842,14.638l7.582,19.062a3.139,3.139,0,0,0,4.212,1.79,3.009,3.009,0,0,0,1.79-1.79l7.372-19.167C472.4,220.46,472.292,217.2,472.292,217.2Zm-9.057,7.793c-6.529,3.791-13.164-3.265-9.583-10.11a5.332,5.332,0,0,1,2.106-2.212c6.529-3.791,13.164,3.159,9.583,10.11A6.082,6.082,0,0,1,463.235,224.989Z" transform="translate(-35.35 -65.839)" fill="#ebebeb"/>
        <path id="Path_589" data-name="Path 589" d="M578.367,348.359c-20.325-18.535-21.484-47.917-17.061-73.613.737-4.318.842-8.846,3.475-12.427s7.793-5.371,11.479-3.054c3.054,2,3.9,5.9,5.371,9.162a25.52,25.52,0,0,0,8.952,11.058c2.633,1.79,5.9,3.159,8.846,2,4-1.58,5.16-6.635,5.792-10.847l3.159-24.011c.527-4.318,1.158-8.636,3.054-12.532s5.371-7.267,9.689-7.793,9.057,2.527,9.373,6.74c.105,1.79-.527,3.581-.632,5.371s.421,3.9,2.106,4.634,3.581-.211,5.055-1.264c5.055-3.686,8.846-8.846,12.427-14.007s7.161-10.426,11.795-14.638,10.847-7.161,17.061-6.635,12.321,5.16,13.164,11.479-3.686,11.9-8.214,16.218a99.339,99.339,0,0,1-22.747,16.218c-1.474.737-3.159,1.58-3.9,3.159-1.369,2.738,1.053,5.9,3.686,7.267,3.054,1.474,6.635,1.685,10,2.527s6.845,2.843,7.688,6.213c1.158,4.634-3.159,8.741-7.161,11.163A82.5,82.5,0,0,1,644.4,291.385c-3.37.737-6.845,1.264-9.689,3.159s-4.95,5.476-3.791,8.741,5.055,4.739,8.425,4.634,6.635-1.58,10-2.317c6.319-1.369,13.9.105,17.061,5.687,2.106,3.686,1.685,8.425-.211,12.216a33.654,33.654,0,0,1-8,9.689,83.9,83.9,0,0,1-38.965,19.8c-14.428,2.843-27.8,2.317-40.861-4.634" transform="translate(-29.373 -65.784)" fill="#ebebeb"/>
        <path id="Path_590" data-name="Path 590" d="M578.9,358.548c2.317-10.11,1.79-13.164,7.372-25.7a368.714,368.714,0,0,1,21.062-39.176l6.108-10c2-3.265,4-6.529,6.108-9.583a186.652,186.652,0,0,1,13.269-16.85c4.528-5.16,8.952-9.9,13.164-14.322s8.214-8.425,12.006-11.9a166.951,166.951,0,0,1,19.167-15.27c2.422-1.58,4.318-2.843,5.582-3.581l1.474-.948a5.465,5.465,0,0,1,.527-.316,5.465,5.465,0,0,0-.527.316l-1.474.948c-1.264.842-3.159,2.106-5.476,3.686a156.99,156.99,0,0,0-18.956,15.376c-3.791,3.581-7.688,7.582-11.9,12.006s-8.636,9.162-13.059,14.322a168.561,168.561,0,0,0-13.164,16.85c-2.106,3.054-4.107,6.319-6.108,9.583l-6.108,10A398.868,398.868,0,0,0,586.9,333.062c-5.687,12.427-5.055,15.481-7.477,25.486" transform="translate(-28.326 -65.547)" fill="#e0e0e0"/>
        <path id="Path_591" data-name="Path 591" d="M617.711,273.322a11.442,11.442,0,0,1-.105-1.9c-.105-1.158-.105-2.949-.105-5.16,0-4.318.211-10.321.316-16.955s.316-12.637.211-16.955c0-2.212-.105-3.9-.211-5.16a5.725,5.725,0,0,1,0-1.9l.316,1.9c.105,1.158.316,2.949.421,5.16.211,4.318.211,10.321,0,16.955s-.421,12.532-.527,16.955c0,2.106-.105,3.791-.105,5.16A11.588,11.588,0,0,0,617.711,273.322Z" transform="translate(-26.276 -64.782)" fill="#e0e0e0"/>
        <path id="Path_592" data-name="Path 592" d="M674.89,268.457h-.632l-1.685-.105c-1.474-.105-3.581-.211-6.108-.316-5.16-.211-12.322-.105-20.22.211s-15.06,1.053-20.22,1.685c-2.633.316-4.634.632-6.108.842l-1.685.211c-.421,0-.527.105-.632,0a1.145,1.145,0,0,1,.527-.105l1.58-.316c1.474-.316,3.475-.632,6.108-1.053,5.16-.737,12.322-1.474,20.22-1.9a185.193,185.193,0,0,1,20.325,0,57.366,57.366,0,0,1,6.108.527l1.685.211C674.469,268.351,674.679,268.457,674.89,268.457Z" transform="translate(-26.27 -62.549)" fill="#e0e0e0"/>
        <path id="Path_593" data-name="Path 593" d="M587.624,329.54c-.105-.211-.211-.527-.316-.737a17.588,17.588,0,0,1-.632-2.106c-.527-1.9-1.369-4.528-2.212-7.9-1.79-6.74-4-16.007-6.319-26.328s-4.528-19.588-6.213-26.328c-.842-3.265-1.58-6-2-7.9-.211-.842-.421-1.58-.526-2.106a1.792,1.792,0,0,1-.105-.737c.105.211.211.527.316.737l.632,2.106c.527,1.9,1.369,4.528,2.212,7.9,1.79,6.635,4,16.007,6.319,26.328s4.528,19.588,6.213,26.328c.843,3.265,1.58,6,2,7.9.211.842.421,1.58.527,2.106A1.56,1.56,0,0,0,587.624,329.54Z" transform="translate(-28.836 -63.183)" fill="#e0e0e0"/>
        <path id="Path_594" data-name="Path 594" d="M664,313.105c-.211.105-.527.105-.737.211l-2.212.421-8.32,1.369c-6.951,1.158-16.639,3.054-27.276,5.055s-20.325,3.686-27.381,4.844c-3.475.527-6.319.948-8.32,1.264l-2.317.316H586.6c.211-.105.527-.105.737-.211l2.211-.421,8.32-1.474c6.951-1.158,16.639-3.054,27.276-5.055s20.325-3.686,27.381-4.844c3.475-.527,6.319-.948,8.32-1.264l2.317-.316A2.318,2.318,0,0,0,664,313.105Z" transform="translate(-27.917 -60.123)" fill="#e0e0e0"/>
        <path id="Path_595" data-name="Path 595" d="M58.417,218.582s6.319-7.161,20.536,8.636S99.7,252.6,99.7,252.6s3.475,3.159,5.476-.105,3.581-11.268,8.425-11.268c5.055.105,7.9,4.844,9.162,12.637,1.158,7.793,4.423,24.959,4.739,26.539s1.79,3.475,3.475,1.474,10-18.43,17.587-14.112,7.267,26.855,7.267,29.277.737,3.265,2,3.581,3.475-5.582,6.108-10.11,6.319-9.478,10.426-6.529,9.373,18.219,1.474,47.6l-4.634,13.375-13.9,2.949c-30.119,4.528-44.758-2.422-47.18-6.951s2.843-7.688,7.688-9.689,10.847-3.581,10.742-4.844-.842-2.106-3.37-2.422-24.748-2.527-28.224-10.531,13.8-14.428,16.007-15.8.421-3.159-1.053-3.581-18.219-5.476-25.907-7.582S74,280.927,74.424,275.977c.527-4.844,8.741-5.582,12.111-7.056s.737-5.371.737-5.371-8.741-7.477-22.853-23.485-6-21.484-6-21.484" transform="translate(-56.098 -65.225)" fill="#ebebeb"/>
        <path id="Path_596" data-name="Path 596" d="M70.5,231.8l.316.316.737.843c.737.737,1.685,1.9,2.949,3.265l10.742,12.006,35.49,39.6c13.9,15.481,26.433,29.487,35.385,39.7L166.65,339.64l2.843,3.37.737.842c.105.105.211.211.211.316l-.316-.316-.737-.842-2.949-3.265-10.742-11.9c-9.057-10.215-21.589-24.117-35.49-39.6s-26.328-29.487-35.28-39.7L74.4,236.434c-1.264-1.474-2.212-2.527-2.843-3.37l-.737-.842C70.605,232.116,70.5,232.011,70.5,231.8Z" transform="translate(-55.333 -64.436)" fill="#e0e0e0"/>
        <path id="Path_597" data-name="Path 597" d="M108.908,250.8c.105,1.264.211,2.528.211,3.791.105,2.528.211,5.687.316,9.162s.211,6.845.211,9.162a19.563,19.563,0,0,1-.105,2.738,3.583,3.583,0,0,1-.105,1.053c-.105-1.264-.211-2.527-.211-3.791-.105-2.527-.211-5.687-.316-9.162s-.211-6.845-.105-9.162a19.565,19.565,0,0,1,.105-2.738A1.8,1.8,0,0,1,108.908,250.8Z" transform="translate(-53.301 -63.427)" fill="#e0e0e0"/>
        <path id="Path_598" data-name="Path 598" d="M109.709,276.03c0,.105-6.74.211-14.954.105s-14.954-.316-14.954-.527,6.74-.211,14.954-.105S109.709,275.925,109.709,276.03Z" transform="translate(-54.839 -62.119)" fill="#e0e0e0"/>
        <path id="Path_599" data-name="Path 599" d="M134.007,300.8a3.742,3.742,0,0,1-.948.421c-.632.211-1.58.527-2.738.948a88.922,88.922,0,0,1-9.057,2.422c-3.581.737-6.845,1.474-9.267,1.79-1.158.211-2.106.316-2.843.421a1.8,1.8,0,0,1-1.053,0c1.264-.316,2.527-.632,3.791-.842,2.317-.421,5.582-1.053,9.162-1.9s6.74-1.685,9.057-2.317A29.822,29.822,0,0,1,134.007,300.8Z" transform="translate(-53.336 -60.771)" fill="#e0e0e0"/>
        <path id="Path_600" data-name="Path 600" d="M138.608,278.1a20.455,20.455,0,0,1-.737,3.475c-.527,2.106-1.264,5.16-2.106,8.425s-1.685,6.213-2.212,8.32A21.84,21.84,0,0,1,132.5,301.8a20.458,20.458,0,0,1,.737-3.475c.527-2.106,1.264-5.16,2.106-8.425s1.685-6.213,2.317-8.32A21.322,21.322,0,0,1,138.608,278.1Z" transform="translate(-52.04 -61.977)" fill="#e0e0e0"/>
        <path id="Path_601" data-name="Path 601" d="M163.12,297.2a5.286,5.286,0,0,1-.211,1.264c-.211.842-.527,2-.842,3.265-.737,2.738-1.685,6.529-2.843,10.742s-2.212,7.9-3.054,10.637a33.548,33.548,0,0,0-.948,3.265,5.133,5.133,0,0,1-.421,1.158,5.286,5.286,0,0,1,.211-1.264c.211-.842.527-2,.842-3.265.737-2.738,1.685-6.529,2.843-10.742s2.212-8,2.949-10.637a33.538,33.538,0,0,0,.948-3.265A12.365,12.365,0,0,0,163.12,297.2Z" transform="translate(-50.855 -60.962)" fill="#e0e0e0"/>
        <path id="Path_602" data-name="Path 602" d="M156.563,325.2a5.933,5.933,0,0,1-1.264.421c-.842.211-2,.632-3.475.948-2.949.842-7.056,1.79-11.584,2.738s-8.741,1.58-11.69,2c-1.474.211-2.738.316-3.581.421a5.565,5.565,0,0,1-1.369.105l1.264-.316,3.581-.632c2.949-.527,7.161-1.264,11.69-2.212s8.636-1.9,11.584-2.528l3.475-.842A6.482,6.482,0,0,0,156.563,325.2Z" transform="translate(-52.513 -59.475)" fill="#e0e0e0"/>
      </g>
      <g id="freepik--Icons--inject-142" transform="translate(63.023 92.227)">
        <path id="Path_603" data-name="Path 603" d="M108.2,243.337a2.516,2.516,0,0,0,1.474-.527,3.235,3.235,0,0,0,1.053-1.58,5.128,5.128,0,0,0,.105-1.264v-1.474c0-4.107.105-9.9.211-17.061,0-1.79,0-3.686.105-5.687v-4.528a2.4,2.4,0,0,0-.632-1.264,1.836,1.836,0,0,0-1.264-.632H66.177a2.506,2.506,0,0,0-2.422,2.317l-.105,4c0,2.738-.105,5.266-.105,7.9-.105,5.16-.105,10.215-.211,14.954v1.79a2.972,2.972,0,0,0,.421,1.58,2.45,2.45,0,0,0,1.158.948,4.093,4.093,0,0,0,1.58.211H84.817l17.061.105,4.634.105h1.264l.421.105c-.105-.105-.211-.105-.421-.105h-5.792l-17.061.105H66.387a3.51,3.51,0,0,1-1.79-.211,3.166,3.166,0,0,1-1.474-1.158,2.678,2.678,0,0,1-.421-1.79v-1.79c.105-4.739.105-9.794.211-14.954,0-2.633.105-5.266.105-7.9,0-1.369,0-2.738.105-4.107a2.984,2.984,0,0,1,3.054-2.527h41.388a9.059,9.059,0,0,1,1.685.105,3,3,0,0,1,1.474.842,2.808,2.808,0,0,1,.737,1.474v4.634c0,2-.105,3.9-.105,5.687-.105,7.161-.211,13.059-.316,17.061v1.474a5.127,5.127,0,0,1-.105,1.264,2.978,2.978,0,0,1-1.158,1.58,2.208,2.208,0,0,1-1.158.421A.633.633,0,0,0,108.2,243.337Z" transform="translate(-62.674 -84.948)" fill="#455a64"/>
        <path id="Path_604" data-name="Path 604" d="M88,222.775l5.687,3.475-5.9,3.475L82,233.2l.105-6.951.105-6.951Z" transform="translate(-61.647 -84.395)" fill="#455a64"/>
        <path id="Path_605" data-name="Path 605" d="M594.605,128.031a10.621,10.621,0,0,0,6.319-9.794c0-5.9-4.423-10.637-9.9-10.637s-10,4.739-10,10.637a10.5,10.5,0,0,0,6.319,9.9c-15.376,2.317-14.638,18.956-14.638,18.956l36.227.211C608.928,147.2,609.77,130.347,594.605,128.031Z" transform="translate(-35.581 -90.329)" fill="#e8505b"/>
        <rect id="Rectangle_179" data-name="Rectangle 179" width="59.08" height="39.808" transform="translate(285.354 5.819) rotate(-5.42)" fill="#fff"/>
        <path id="Path_606" data-name="Path 606" d="M396.166,131.008a4.4,4.4,0,0,0-.105-.737l-.211-2.106c-.211-1.9-.421-4.528-.842-8-.632-6.845-1.685-16.745-2.843-28.75l.211.211-58.764,5.687.211-.316h0v.632l.105.632.105,1.369.211,2.633.527,5.16q.474,5.213.948,10.11c.632,6.635,1.264,13.059,1.79,19.062l-.316-.211,42.336-3.9,12.111-1.053,3.265-.316.842-.105h.421l-.316.105-.842.105-3.159.316-12.006,1.158L337.4,136.8h-.211v-.211c-.527-6-1.158-12.427-1.79-19.061-.316-3.265-.632-6.74-.948-10.11-.211-1.685-.316-3.475-.527-5.16l-.211-2.633-.211-1.264-.105-.632V97.1h0l.211-.316L392.375,91.2h.211v.211c1.053,12.111,2,22.01,2.633,28.961.316,3.37.527,6.108.737,7.9.105.842.105,1.58.211,2.106Z" transform="translate(-48.293 -91.2)" fill="#455a64"/>
        <path id="Path_607" data-name="Path 607" d="M392.364,91.4c-.105.211-.316.421-.421.632l-1.369,1.58c-1.264,1.474-3.054,3.475-5.16,5.9l-17.377,19.483-.105.211-.211-.105-1.58-.948-23.063-14.744-6.951-4.634-1.9-1.264c-.211-.105-.421-.316-.632-.421.211.105.527.211.737.316l1.9,1.158,7.056,4.423,23.063,14.638,1.58,1.053h-.316L385.1,99.3l5.266-5.792,1.474-1.58C392.048,91.716,392.259,91.611,392.364,91.4Z" transform="translate(-48.282 -91.189)" fill="#455a64"/>
        <path id="Path_608" data-name="Path 608" d="M266.895,137.1a23.739,23.739,0,0,0-.632-3.791,14.314,14.314,0,0,0-1.79-4.107,15.925,15.925,0,0,0-4-4.423,15.537,15.537,0,0,0-14.638-2.212,15.789,15.789,0,0,0-7.161,5.371,15.325,15.325,0,0,0,0,18.219,15.545,15.545,0,0,0,25.8-1.158,14.316,14.316,0,0,0,1.79-4.107,23.736,23.736,0,0,0,.632-3.791v.948a3.947,3.947,0,0,1-.105,1.158,11.626,11.626,0,0,1-.316,1.685,14.705,14.705,0,0,1-1.685,4.212,15.758,15.758,0,0,1-19.062,6.845,13.207,13.207,0,0,1-4-2.106,17.03,17.03,0,0,1-3.37-3.37,15.96,15.96,0,0,1,0-18.851,17.029,17.029,0,0,1,3.37-3.37,16.235,16.235,0,0,1,4-2.106,15.824,15.824,0,0,1,15.06,2.317,16.518,16.518,0,0,1,4,4.528,14.708,14.708,0,0,1,1.685,4.212c.105.527.211,1.053.316,1.685a4.724,4.724,0,0,1,.105,1.158v.737Q266.9,137.1,266.895,137.1Z" transform="translate(-53.505 -89.607)" fill="#263238"/>
        <path id="Path_609" data-name="Path 609" d="M286.538,162.029c-.105.105-5.687-3.475-12.427-8S261.895,145.705,262,145.6s5.687,3.475,12.427,8S286.643,161.924,286.538,162.029Z" transform="translate(-52.085 -88.31)" fill="#263238"/>
        <path id="Path_610" data-name="Path 610" d="M330.116,189.98,317.9,176.711l3.9-3.686,8.53,9.162,17.8-17.587,3.9,3.9Z" transform="translate(-49.116 -87.301)" fill="#e8505b"/>
      </g>
      <g id="freepik--speech-bubbles--inject-142" transform="translate(94.627 71.876)">
        <path id="Path_611" data-name="Path 611" d="M661.011,176.711h1.369l1.053.105a12.378,12.378,0,0,1,6.108,2.738,14,14,0,0,1,5.16,9.267c.105,1.053.105,2.212.105,3.265v23.906a16.9,16.9,0,0,1-.421,4.634,13.821,13.821,0,0,1-10.426,10,22.137,22.137,0,0,1-5.266.316H611.725l.211-.105L601.3,241.478l-.527.421V230.736l.316.316c-1.158,0-2.317,0-3.475-.105a12.176,12.176,0,0,1-3.37-.842,14.111,14.111,0,0,1-8.425-10.11,17.43,17.43,0,0,1-.316-3.37V194.4a39.5,39.5,0,0,1,.211-6.108,13.525,13.525,0,0,1,2.212-5.582,14.008,14.008,0,0,1,9.478-6,46.7,46.7,0,0,1,5.476-.211h19.588l28.329.105h9.689l.527.105-.632-.105H650.69l-28.329.105H602.773a30.565,30.565,0,0,0-5.371.211,13.181,13.181,0,0,0-11.163,11.163,57.152,57.152,0,0,0-.211,6v18.956a33.931,33.931,0,0,0,.316,6.529,12.837,12.837,0,0,0,2.843,5.9,13.185,13.185,0,0,0,8.53,4.739c1.158.105,2.317.105,3.37.105h.316v10.952l-.421-.211,10.636-10.637.105-.105h46.969A22.137,22.137,0,0,0,663.96,230a12.172,12.172,0,0,0,4.634-2,13.139,13.139,0,0,0,5.476-7.688,21.14,21.14,0,0,0,.527-4.423V191.981c0-1.158,0-2.212-.105-3.265a13.41,13.41,0,0,0-5.055-9.057,14.027,14.027,0,0,0-6.108-2.738l-1.053-.211h-1.264Z" transform="translate(-66.506 -66.318)" fill="#263238"/>
        <path id="Path_612" data-name="Path 612" d="M617.818,204.17s-.105-.316-.211-.737a3.443,3.443,0,0,0-1.158-1.58,2.92,2.92,0,0,0-2.633-.316,2.773,2.773,0,0,0-1.685,3.581,2.88,2.88,0,0,0,4.318,1.369,3.442,3.442,0,0,0,1.158-1.58,1.819,1.819,0,0,0,.211-.737.9.9,0,0,1,0,.737,2.845,2.845,0,0,1-1.053,1.79,2.94,2.94,0,0,1-3.054.527,3.285,3.285,0,0,1-2-4.212,3.154,3.154,0,0,1,2-2,2.94,2.94,0,0,1,3.054.527,2.845,2.845,0,0,1,1.053,1.79A1.155,1.155,0,0,1,617.818,204.17Z" transform="translate(-65.122 -65.027)" fill="#263238"/>
        <path id="Path_613" data-name="Path 613" d="M631.118,204.07a6.737,6.737,0,0,1-.211-.737,3.443,3.443,0,0,0-1.158-1.58,2.92,2.92,0,0,0-2.633-.316,2.677,2.677,0,0,0-1.58,3.581,2.606,2.606,0,0,0,1.58,1.58,2.92,2.92,0,0,0,2.633-.316,3.443,3.443,0,0,0,1.158-1.58c.105-.105.105-.421.211-.632a1.433,1.433,0,0,1,0,.737,2.845,2.845,0,0,1-1.053,1.79,2.94,2.94,0,0,1-3.054.527,3.285,3.285,0,0,1-2-4.212,3.155,3.155,0,0,1,2-2,2.94,2.94,0,0,1,3.054.527,2.845,2.845,0,0,1,1.053,1.79A1.784,1.784,0,0,1,631.118,204.07Z" transform="translate(-64.416 -65.032)" fill="#263238"/>
        <path id="Path_614" data-name="Path 614" d="M644.418,204.07a6.7,6.7,0,0,1-.211-.737,3.235,3.235,0,0,0-1.053-1.58,2.92,2.92,0,0,0-2.633-.316,2.677,2.677,0,0,0-1.58,3.581,2.606,2.606,0,0,0,1.58,1.58,2.92,2.92,0,0,0,2.633-.316,3.235,3.235,0,0,0,1.053-1.58c.105-.316.105-.632.211-.632s.105.316,0,.737a2.845,2.845,0,0,1-1.053,1.79,2.94,2.94,0,0,1-3.054.527,3.285,3.285,0,0,1-2-4.212,3.155,3.155,0,0,1,2-2,2.94,2.94,0,0,1,3.054.527,2.845,2.845,0,0,1,1.053,1.79A1.784,1.784,0,0,1,644.418,204.07Z" transform="translate(-63.709 -65.032)" fill="#263238"/>
        <path id="Path_615" data-name="Path 615" d="M156.692,135.8c0-9.057-9.478-14.744-19.167-10.215a10.754,10.754,0,0,0-5.055,4.844c-2.422,4.739-1.369,10.11.842,14.638l7.582,19.062a3.139,3.139,0,0,0,4.212,1.79,3.009,3.009,0,0,0,1.79-1.79l7.372-19.167C156.9,139.06,156.692,135.8,156.692,135.8Zm-9.057,7.9c-6.529,3.791-13.059-3.265-9.583-10.11a5.332,5.332,0,0,1,2.106-2.212c6.529-3.791,13.059,3.265,9.583,10.11A4.753,4.753,0,0,1,147.635,143.694Z" transform="translate(-90.643 -69.107)" fill="#e8505b"/>
        <path id="Path_616" data-name="Path 616" d="M192.221,168.881h0a.815.815,0,0,0,.105.316,6.544,6.544,0,0,1,.316,1.053l1.264,4c1.158,3.475,2.843,8.636,4.95,15.27l.105.211h-.211l-21.273-3.9h-.105v-.105h0l.316.105a52.677,52.677,0,0,1-32.12,10.531,47.646,47.646,0,0,1-7.793-.632,50.442,50.442,0,0,1-7.9-1.79l-3.9-1.474a14.92,14.92,0,0,1-1.9-.843l-1.9-.948a54.588,54.588,0,0,1-14.217-10.321,53.128,53.128,0,1,1,90.884-40.651,49.393,49.393,0,0,1-1.474,16.218,50.479,50.479,0,0,1-3.475,9.689c-.527,1.053-.948,1.9-1.264,2.422l-.421.842.316-.737c.316-.527.632-1.369,1.158-2.422a52.792,52.792,0,0,0,3.37-9.689,51.959,51.959,0,0,0,1.369-16.113,52.591,52.591,0,1,0-90.042,40.229A55.633,55.633,0,0,0,122.4,190.364l1.9.948a14.918,14.918,0,0,0,1.9.843l3.9,1.474a61.7,61.7,0,0,0,7.9,1.79,47.646,47.646,0,0,0,7.793.632,52.869,52.869,0,0,0,31.91-10.426l.316-.211v.316h0l-.105-.211,21.168,4-.105.211-4.844-15.27-1.264-4a6.547,6.547,0,0,0-.316-1.053c-.105-.211-.316-.527-.316-.527Z" transform="translate(-92.683 -70.915)" fill="#263238"/>
        <path id="Path_617" data-name="Path 617" d="M514.512,124.454a11.6,11.6,0,0,1-.211-1.9,8.016,8.016,0,0,0-.316-2.212,15.755,15.755,0,0,0-.632-3.054,26.373,26.373,0,0,0-3.159-7.793,30.439,30.439,0,0,0-7.267-8.32A27.977,27.977,0,0,0,490.922,95.6a28.607,28.607,0,0,0-15.165.948,24.5,24.5,0,0,0-7.372,3.791,27.551,27.551,0,0,0-6.213,5.9,28.449,28.449,0,0,0-.842,33.805,42.456,42.456,0,0,0,2.738,3.37,20.3,20.3,0,0,0,3.159,2.843,30.123,30.123,0,0,0,7.161,4.107,28.733,28.733,0,0,0,27.381-3.37,27.5,27.5,0,0,0,7.583-8,26.006,26.006,0,0,0,3.475-7.582,30.149,30.149,0,0,0,.737-2.949,8.017,8.017,0,0,0,.316-2.212,8.963,8.963,0,0,0,.632-1.79v1.9a17.225,17.225,0,0,1-.211,2.317,14.281,14.281,0,0,1-.632,3.054,26.318,26.318,0,0,1-3.37,7.9,29.653,29.653,0,0,1-20.431,13.8,31.114,31.114,0,0,1-15.8-1.58,29.7,29.7,0,0,1-7.582-4.212c-1.158-.948-2.317-1.9-3.37-2.949a30.719,30.719,0,0,1-2-39.281c.948-1.158,2-2.317,3.054-3.475a22.732,22.732,0,0,1,3.475-2.843,25.769,25.769,0,0,1,7.793-3.9,30.245,30.245,0,0,1,15.9-.842,29.706,29.706,0,0,1,19.8,14.744,27.751,27.751,0,0,1,2.949,8.109,16.258,16.258,0,0,1,.421,3.159,16.3,16.3,0,0,1,.105,2.317C514.617,123.3,514.512,123.822,514.512,124.454Z" transform="translate(-73.447 -70.719)" fill="#455a64"/>
        <path id="Path_618" data-name="Path 618" d="M508.228,105.553c.105.105-.527.527-1.474,1.369l-1.9,1.369a8.041,8.041,0,0,0-1.158.842l-1.474.737a32.2,32.2,0,0,1-17.271,4.318l-2.633-.105-2.527-.421c-.421-.105-.842-.105-1.264-.211l-1.158-.316c-.737-.211-1.58-.421-2.212-.632a38.77,38.77,0,0,1-7.372-3.37c-3.9-2.422-5.9-4.528-5.687-4.634s2.317,1.685,6.319,3.686a43.748,43.748,0,0,0,7.267,2.949c.737.211,1.474.316,2.212.527l1.158.316,1.158.211,2.422.316,2.527.105a35.491,35.491,0,0,0,16.745-3.791l1.474-.632a7.855,7.855,0,0,0,1.264-.737l2-1.053C507.49,105.659,508.122,105.448,508.228,105.553Z" transform="translate(-73.06 -70.143)" fill="#455a64"/>
        <path id="Path_619" data-name="Path 619" d="M461.1,139.837c-.105-.105.527-.527,1.474-1.369l1.9-1.369a8.039,8.039,0,0,0,1.158-.843l1.474-.737a33.176,33.176,0,0,1,17.271-4.318l2.633.105,2.527.421c.421.105.842.105,1.264.211l1.158.316c.737.211,1.58.421,2.212.632a38.768,38.768,0,0,1,7.372,3.37c3.9,2.422,5.9,4.528,5.687,4.739s-2.317-1.685-6.319-3.686a43.744,43.744,0,0,0-7.267-2.949c-.737-.211-1.474-.316-2.212-.527l-1.158-.316-1.158-.211-2.422-.316-2.527-.105a35.491,35.491,0,0,0-16.745,3.791l-1.158.632c-.421.211-.842.527-1.264.737l-2,1.158Q461.259,139.995,461.1,139.837Z" transform="translate(-73.113 -68.725)" fill="#455a64"/>
        <path id="Path_620" data-name="Path 620" d="M514.37,123.688c0,.421-13.164.527-29.487.105S455.5,122.74,455.5,122.319s13.164-.527,29.487-.105S514.37,123.161,514.37,123.688Z" transform="translate(-73.41 -69.216)" fill="#455a64"/>
        <path id="Path_621" data-name="Path 621" d="M482.219,153.17c-.421,0-.527-13.164-.105-29.487s1.053-29.382,1.58-29.382.527,13.164.105,29.487S482.64,153.17,482.219,153.17Z" transform="translate(-72.01 -70.684)" fill="#455a64"/>
        <path id="Path_622" data-name="Path 622" d="M482.938,153.065c-.105.211-3.37-2-7.056-6.951a37.193,37.193,0,0,1-7.582-22.747,34.73,34.73,0,0,1,2.949-13.059,36.969,36.969,0,0,1,5.792-9.267c4-4.844,7.267-6.951,7.372-6.74s-2.843,2.633-6.424,7.477a44,44,0,0,0-5.266,9.162,33.918,33.918,0,0,0-.632,25.17,41.228,41.228,0,0,0,4.739,9.373C480.2,150.432,483.149,152.854,482.938,153.065Z" transform="translate(-72.73 -70.685)" fill="#455a64"/>
        <path id="Path_623" data-name="Path 623" d="M484.275,94.3c.105-.211,3.37,2,7.056,7.056a36.962,36.962,0,0,1,5.266,9.583,37.7,37.7,0,0,1,2.317,13.164,34.731,34.731,0,0,1-2.949,13.059,40.258,40.258,0,0,1-5.792,9.267c-4,4.844-7.267,6.951-7.372,6.74s2.843-2.633,6.424-7.477a44,44,0,0,0,5.266-9.162,33.917,33.917,0,0,0,.632-25.17,37.658,37.658,0,0,0-4.844-9.373C487.013,96.933,484.064,94.511,484.275,94.3Z" transform="translate(-71.96 -70.685)" fill="#455a64"/>
        <path id="Path_624" data-name="Path 624" d="M456.782,168.788h0l-.316.105-1.053.211-4.107.948-15.692,3.581-.211.105.105-.211,5.792-20.746v-.105h.211l-.211.316a52.844,52.844,0,0,1-7.9-25.38,45.631,45.631,0,0,1,.211-7.582,61.76,61.76,0,0,1,1.369-7.688,46.934,46.934,0,0,1,2.527-7.688c.632-1.264,1.158-2.527,1.79-3.791a17.034,17.034,0,0,1,1.053-1.9c.316-.632.737-1.264,1.053-1.79a52.733,52.733,0,0,1,11.479-13.164,54.683,54.683,0,0,1,16.008-9.057,53.138,53.138,0,1,1,16.429,103.206,51.718,51.718,0,0,1-16.007-2.843A58.261,58.261,0,0,1,459.942,171a13.034,13.034,0,0,1-2.212-1.474l-.948-.737.737.527c.527.316,1.264.842,2.317,1.369a50,50,0,0,0,9.373,4.212,48.552,48.552,0,0,0,15.9,2.738A52.682,52.682,0,1,0,468.893,75.271a51.6,51.6,0,0,0-15.9,8.952,54.025,54.025,0,0,0-11.374,13.059c-.316.632-.737,1.264-1.053,1.79a15.858,15.858,0,0,0-1.053,1.79l-1.79,3.686a50.052,50.052,0,0,0-2.422,7.688,61.748,61.748,0,0,0-1.369,7.688,59.12,59.12,0,0,0-.211,7.477,51.938,51.938,0,0,0,7.793,25.17l.211.316h-.316l.211-.105c-2.212,8-4.212,15.06-5.9,20.746l-.105-.211,15.692-3.475,4.107-.842,1.053-.211Z" transform="translate(-74.587 -71.876)" fill="#263238"/>
      </g>
      <g id="freepik--character-3--inject-142" transform="translate(468.481 187.255)">
        <path id="Path_625" data-name="Path 625" d="M498.614,187.97c-5.16,1.158-8.425,6.424-9.583,11.584s-.527,10.531-1.053,15.8-2.317,10.847-6.74,13.691l4.423,1.264a12.021,12.021,0,0,1-5.16,6.635,8.82,8.82,0,0,0,6,2c-2.633.632-3.265,4.423-1.9,6.635s4.212,3.37,6.74,4a17.724,17.724,0,0,0,9.373.316c4.213-1.264,7.477-5.055,9.057-9.162s1.9-8.636,2.106-13.164c.316-11.163-.316-22.431-3.159-33.173-.737-2.633-1.685-5.371-3.9-6.951s-6-.948-6.74,1.685" transform="translate(-445.936 -181.161)" fill="#e8505b"/>
        <path id="Path_626" data-name="Path 626" d="M616.727,344.807c-1.264-4.634-8.32-30.856-14.744-48.022-7.056-18.956-21.589-22.958-21.589-22.958-32.857-11.163-62.239-11.268-93.728-.316a24.294,24.294,0,0,0-2.949,1.053h-.105c-23.379,9.162-25.8,33.805-25.8,33.805l-9.794,59.817a6.216,6.216,0,0,0-.211,1.474l-.105.527h0a14.045,14.045,0,0,0,8,13.48c13.691,6.319,26.749,4.844,38.018.211l-8.214,11.9h97.308l-6.424-15.692,2.106-9.478,15.06,18.114a13.416,13.416,0,0,0,6.951,4.528c17.376,2,20.22-23.8,16.955-38.966h0" transform="translate(-447.679 -176.976)" fill="#455a64"/>
        <path id="Path_627" data-name="Path 627" d="M552.361,267.348S536.67,346.332,531.088,345.7,499.6,268.822,499.6,268.822,532.773,259.976,552.361,267.348Z" transform="translate(-444.921 -177.027)" fill="#ffbe9d"/>
        <path id="Path_628" data-name="Path 628" d="M508.19,277.1c-.105-9.057-.316-18.64-.316-18.64s-11.69-1.9-14.217-17.166c-2.422-14.533-.211-48.233-.211-48.233h0a43.693,43.693,0,0,1,48.865,10.952h0l-.527,73.824c-.105,8.53-7.477,15.376-16.639,15.165h0C515.878,292.9,508.3,285.845,508.19,277.1Z" transform="translate(-445.297 -180.991)" fill="#ffbe9d"/>
        <path id="Path_629" data-name="Path 629" d="M497.1,217.287a2.053,2.053,0,0,0,1.9,2,1.876,1.876,0,0,0,2-1.685h0a2.053,2.053,0,0,0-1.9-2,1.645,1.645,0,0,0-2,1.685Z" transform="translate(-445.054 -179.622)" fill="#263238"/>
        <path id="Path_630" data-name="Path 630" d="M494.6,215.906c.211.211,1.685-.843,3.791-.843s3.686,1.053,3.9.737-.105-.527-.842-1.053a5.572,5.572,0,0,0-3.159-.948,5.348,5.348,0,0,0-3.054,1.053C494.707,215.38,494.5,215.8,494.6,215.906Z" transform="translate(-445.188 -179.716)" fill="#263238"/>
        <path id="Path_631" data-name="Path 631" d="M517.3,218.19a2.053,2.053,0,0,0,1.9,2,1.887,1.887,0,0,0,2-1.79h0a2.053,2.053,0,0,0-1.9-2,1.962,1.962,0,0,0-2,1.79Z" transform="translate(-443.981 -179.578)" fill="#263238"/>
        <path id="Path_632" data-name="Path 632" d="M515.5,216.506c.211.211,1.685-.842,3.791-.842s3.686,1.053,3.9.737-.105-.527-.843-1.053a5.572,5.572,0,0,0-3.159-.948,5.348,5.348,0,0,0-3.054,1.053C515.607,215.98,515.4,216.4,515.5,216.506Z" transform="translate(-444.078 -179.684)" fill="#263238"/>
        <path id="Path_633" data-name="Path 633" d="M508.573,232.187a20.109,20.109,0,0,0-3.475-.632c-.527,0-1.053-.105-1.158-.527a3.848,3.848,0,0,1,.316-1.58l1.58-4.107c2.212-5.9,3.791-10.637,3.475-10.742s-2.212,4.634-4.318,10.426c-.527,1.474-1.053,2.843-1.474,4.107a3.579,3.579,0,0,0-.316,2.106,1.179,1.179,0,0,0,.843.737,2.915,2.915,0,0,0,.948.105A8.268,8.268,0,0,0,508.573,232.187Z" transform="translate(-444.732 -179.673)" fill="#263238"/>
        <path id="Path_634" data-name="Path 634" d="M507.1,255.282a39,39,0,0,0,20.431-5.582s-4.95,10.531-20.22,9.162Z" transform="translate(-444.523 -177.809)" fill="#eb996e"/>
        <path id="Path_635" data-name="Path 635" d="M509.209,236.175a3.9,3.9,0,0,1,3.37-1.474A3.655,3.655,0,0,1,515,235.964a2.225,2.225,0,0,1,.211,2.527,2.7,2.7,0,0,1-2.738.737,8.051,8.051,0,0,1-2.738-1.58l-.632-.632a.845.845,0,0,1,.105-.842" transform="translate(-444.42 -178.606)" fill="#eb996e"/>
        <path id="Path_636" data-name="Path 636" d="M514.54,232.7c-.316,0-.316,2.317-2.317,3.9s-4.423,1.369-4.423,1.685c0,.105.527.421,1.58.421a5.8,5.8,0,0,0,3.686-1.264,5.6,5.6,0,0,0,1.79-3.265C514.961,233.227,514.751,232.7,514.54,232.7Z" transform="translate(-444.486 -178.712)" fill="#263238"/>
        <path id="Path_637" data-name="Path 637" d="M534.186,192.14c-5.476,8.109-20.115,16.534-30.646,18.64,1.158-1.685,7.688-5.792,8.846-7.477-4.739,3.686-11.584,8.53-17.9,9.057a4.066,4.066,0,0,1-2.212-.316,3,3,0,0,1-1.158-2.422,67.02,67.02,0,0,1,.211-13.8,15.041,15.041,0,0,1,5.371-10c4-3.265,9.9-4.107,15.376-4.318,4.634-.211,9.373,0,13.585,1.58s7.9,4.844,8.636,8.741" transform="translate(-445.386 -181.435)" fill="#e8505b"/>
        <path id="Path_638" data-name="Path 638" d="M550.363,228.919a84.893,84.893,0,0,0,1.369-10.215c.316-7.9,2.633-36.333-24.432-33.595l1.58,7.688s-5.055,17.692,6.635,29.7c0,0-3.37,24.959,4.739,33.068-.105,0,8.53-18.114,10.11-26.644" transform="translate(-443.45 -181.25)" fill="#e8505b"/>
        <path id="Path_639" data-name="Path 639" d="M534.621,219.309a9.834,9.834,0,0,1,4.95.316,6.066,6.066,0,0,1,3.581,3.265,6.974,6.974,0,0,1,.105,4.844,12.215,12.215,0,0,1-2.738,4.107,8.146,8.146,0,0,1-2.949,2,3.515,3.515,0,0,1-3.37-.527" transform="translate(-443.083 -179.433)" fill="#ffbe9d"/>
        <path id="Path_640" data-name="Path 640" d="M535.5,229.093c-.211.105.527,1.053,2,.632a3.532,3.532,0,0,0,1.9-1.58,8.28,8.28,0,0,0,.842-2.738,3.9,3.9,0,0,0-.737-2.843A2.793,2.793,0,0,0,537.4,221.3c-1.58,0-2,1.053-1.79,1.053a2.957,2.957,0,0,1,1.685-.211,2.723,2.723,0,0,1,1.685,3.159c-.211,1.685-.842,3.265-1.685,3.581A7.957,7.957,0,0,1,535.5,229.093Z" transform="translate(-443.016 -179.317)" fill="#eb996e"/>
        <path id="Path_641" data-name="Path 641" d="M483.816,344c-.105,0-.316-6.213-.316-13.9s.105-13.8.316-13.8.316,6.213.316,13.8S483.921,344,483.816,344Z" transform="translate(-445.776 -174.271)" fill="#263238"/>
        <path id="Path_642" data-name="Path 642" d="M522.056,315.707s-13.691.105-14.533,3.159c-1.474,5.055,1.158,32.541,1.158,32.541l12.532,4.212s6.108-1.369,3.265-13.059a82.151,82.151,0,0,0-8.32-20.957s16.745.421,16.218-3.265S522.056,315.707,522.056,315.707Z" transform="translate(-444.524 -174.31)" fill="#ffbe9d"/>
        <path id="Path_643" data-name="Path 643" d="M516.1,323.425c.737-.105,17.482-1.58,16.429,1.158s-16.429,3.37-16.429,3.37Z" transform="translate(-444.045 -173.918)" fill="#ffbe9d"/>
        <path id="Path_644" data-name="Path 644" d="M570.048,285l-2,52.235-7.688,20.009-46.759.948-2-64.662Z" transform="translate(-444.284 -175.934)" fill="#263238"/>
        <path id="Path_645" data-name="Path 645" d="M509.321,333.2c-.211.105-.316.211-.527.316l-1.685.737-6.213,2.633-20.641,8.636-11.374,4.634a64.644,64.644,0,0,0-9.057,4.212,18.318,18.318,0,0,0-5.055,4.318,15.483,15.483,0,0,0-1.369,2.106c.105-.211.105-.421.211-.632a6.285,6.285,0,0,1,.948-1.58,17.373,17.373,0,0,1,5.055-4.528,60.509,60.509,0,0,1,9.162-4.318l11.374-4.739L500.9,336.57l6.319-2.527,1.685-.632Z" transform="translate(-447.375 -173.373)" fill="#263238"/>
        <path id="Path_646" data-name="Path 646" d="M522.778,352.6a11.156,11.156,0,0,1-1.053,1.264,39.253,39.253,0,0,1-3.054,3.159c-2.633,2.633-6.424,6.108-10.742,9.794s-8.425,6.74-11.479,8.952c-1.474,1.053-2.738,2-3.581,2.527a5.971,5.971,0,0,1-1.369.842,11.155,11.155,0,0,1,1.264-1.053l3.475-2.633c2.949-2.212,6.951-5.476,11.374-9.057a143.758,143.758,0,0,0,10.847-9.689c1.369-1.264,2.422-2.317,3.159-3.054A11.533,11.533,0,0,1,522.778,352.6Z" transform="translate(-445.352 -172.343)" fill="#263238"/>
        <path id="Path_647" data-name="Path 647" d="M589.73,386.09c-.105.105-6.951-7.793-15.376-17.587s-15.06-17.8-14.954-17.9,6.951,7.793,15.376,17.587S589.835,386.09,589.73,386.09Z" transform="translate(-441.745 -172.449)" fill="#263238"/>
        <path id="Path_648" data-name="Path 648" d="M602.585,349.331a6.092,6.092,0,0,1-1.474-.527c-.948-.421-2.317-.948-4-1.685-3.37-1.58-8-3.791-12.953-6.635a140.149,140.149,0,0,1-12.216-7.9c-1.474-1.053-2.738-2-3.475-2.633A11.157,11.157,0,0,1,567.2,328.9a5.972,5.972,0,0,1,1.369.842c.948.632,2.106,1.474,3.581,2.527,3.054,2.106,7.372,4.844,12.216,7.688s9.478,5.16,12.848,6.74l4,1.9C601.637,348.8,602.058,349.12,602.585,349.331Z" transform="translate(-441.33 -173.602)" fill="#263238"/>
        <path id="Path_649" data-name="Path 649" d="M577.856,338.759c-.105,0-.948-5.582-1.79-12.427S574.591,313.8,574.8,313.8s.948,5.582,1.9,12.427S578.067,338.654,577.856,338.759Z" transform="translate(-440.929 -174.404)" fill="#263238"/>
        <path id="Path_650" data-name="Path 650" d="M540.461,228.7c-.105.211-.316.421-.421.632l-1.369,1.79-4.844,6.319v-.316l7.9,6.213.737.527h-.421l6.845-8.53v.316l-5.16-4.212-1.369-1.158c-.211-.105-.316-.316-.527-.421a5.46,5.46,0,0,1,.527.316l1.474,1.053,5.266,4,.211.105-.105.211c-1.9,2.527-4.212,5.476-6.74,8.636l-.211.211-.211-.211-.632-.421c-2.843-2.317-5.582-4.423-7.9-6.213l-.211-.105.105-.211,5.055-6.213,1.474-1.685C540.251,228.807,540.461,228.6,540.461,228.7Z" transform="translate(-443.131 -178.926)" fill="#263238"/>
        <path id="Path_651" data-name="Path 651" d="M561.015,351.888a181.424,181.424,0,0,1-22.642-2.422c-8.846-1.369-8.741-2.212-8.425-3.265.843-2.738,15.692,1.9,12.953-.948s-18.746-3.581-17.692-6.319c1.264-3.686,16.745,1.474,18.114,1.79s1.79-1.58.632-1.79c-1.79-.316-20.115-4.423-18.851-8,.737-2,4.107-.316,4.107-.316s16.955,5.055,17.482,3.37-9.267-5.055-12.743-5.9-4.318-2.843-2.738-4c1.053-.842,11.584,1.685,14.849,2.633s12.427,3.686,8.951-1.369l-.105-.211c-3.581-4.844-4.739-9.794-4-11.479a2.111,2.111,0,0,1,2.843-.948,2.066,2.066,0,0,1,.948.948,1.2,1.2,0,0,1,.316.842c0,.105.105.316.105.421a33.669,33.669,0,0,0,3.054,5.371,17.123,17.123,0,0,0,3.791,4c1.685,1.264,6.108,5.9,7.372,6.74" transform="translate(-443.57 -174.474)" fill="#ffbe9d"/>
      </g>
      <g id="freepik--character-2--inject-142" transform="translate(146.669 188.434)">
        <path id="Path_652" data-name="Path 652" d="M263.391,296.206h0a18.421,18.421,0,0,1-18.114-17.9c-.211-8.214-.421-16.113-.421-16.113s-15.06-1.369-16.218-16.323-.632-49.286-.632-49.286h0a51.967,51.967,0,0,1,52.551,3.37l2.317,1.58-.632,76.457a18.473,18.473,0,0,1-18.64,18.324A.326.326,0,0,0,263.391,296.206Z" transform="translate(-137.543 -182.106)" fill="#ffbe9d"/>
        <path id="Path_653" data-name="Path 653" d="M243.873,235.3c0-.211-1.264-.316-3.37-.527-.527,0-.948-.105-1.053-.421a4.226,4.226,0,0,1,.316-1.58l1.369-4.212c1.9-6.108,3.159-11.058,2.843-11.163s-2.106,4.739-4,10.847c-.421,1.474-.842,2.949-1.264,4.318a3.205,3.205,0,0,0-.105,2.212,1.5,1.5,0,0,0,.948.843,2.915,2.915,0,0,0,.948.105A19.282,19.282,0,0,0,243.873,235.3Z" transform="translate(-136.981 -180.704)" fill="#263238"/>
        <path id="Path_654" data-name="Path 654" d="M250.6,236.1a48.436,48.436,0,0,1-9.9,3.581,5.756,5.756,0,0,0,6.845,1.9C251.863,239.681,250.6,236.1,250.6,236.1Z" transform="translate(-136.862 -179.71)" fill="#fff"/>
        <path id="Path_655" data-name="Path 655" d="M243.9,258.74A34.893,34.893,0,0,0,263.067,252s-3.9,11.058-18.956,10.637Z" transform="translate(-136.692 -178.866)" fill="#eb996e"/>
        <path id="Path_656" data-name="Path 656" d="M279.305,218.512a2.205,2.205,0,0,1,2.106-2.212c2.738-.105,7.372,1.053,7.793,8.741.632,10.952-10,8.214-10,7.9S279.305,222.83,279.305,218.512Z" transform="translate(-134.817 -180.763)" fill="#ffbe9d"/>
        <path id="Path_657" data-name="Path 657" d="M281.5,228.442a4.426,4.426,0,0,0,.527.211,1.794,1.794,0,0,0,1.474,0c1.158-.527,2-2.422,2-4.318a6.145,6.145,0,0,0-.632-2.738,2.132,2.132,0,0,0-1.474-1.369.845.845,0,0,0-1.053.632c-.105.316,0,.527-.105.527s-.211-.211-.211-.632a1.066,1.066,0,0,1,.421-.737,1.273,1.273,0,0,1,1.053-.316,2.721,2.721,0,0,1,2.106,1.58,5.957,5.957,0,0,1,.842,2.949c0,2.212-.948,4.318-2.527,4.844a2.124,2.124,0,0,1-1.79-.211C281.5,228.653,281.5,228.442,281.5,228.442Z" transform="translate(-134.695 -180.583)" fill="#eb996e"/>
        <path id="Path_658" data-name="Path 658" d="M232.4,220.4a2.155,2.155,0,0,0,2.106,1.9,2.053,2.053,0,0,0,2-1.9V220.3a2.07,2.07,0,0,0-2.106-1.9,2,2,0,0,0-2,2Z" transform="translate(-137.303 -180.651)" fill="#263238"/>
        <path id="Path_659" data-name="Path 659" d="M229.2,218.423c.316.211,1.685-1.053,3.9-1.158s3.9.842,4.107.527-.211-.632-.948-1.053A5.021,5.021,0,0,0,233,216a5.3,5.3,0,0,0-3.054,1.264C229.2,217.9,228.993,218.318,229.2,218.423Z" transform="translate(-137.477 -180.779)" fill="#263238"/>
        <path id="Path_660" data-name="Path 660" d="M253,220a2.155,2.155,0,0,0,2.106,1.9,2.053,2.053,0,0,0,2-1.9V219.9A2.155,2.155,0,0,0,255,218a1.936,1.936,0,0,0-2,2Z" transform="translate(-136.209 -180.672)" fill="#263238"/>
        <path id="Path_661" data-name="Path 661" d="M250.1,218.423c.316.211,1.685-1.053,3.9-1.158s3.9.842,4.107.527-.211-.632-.948-1.053a5.021,5.021,0,0,0-3.265-.737,5.3,5.3,0,0,0-3.054,1.264C250.207,217.9,250,218.318,250.1,218.423Z" transform="translate(-136.364 -180.779)" fill="#263238"/>
        <path id="Path_662" data-name="Path 662" d="M263.852,191.608a12.989,12.989,0,0,0,2.527,14.007c1.474,1.474,3.265,2.633,4.634,4.318,2.633,3.475,2.212,8.32,2.633,12.743.211,2,.632,4.212,2.106,5.582s4.212,1.474,5.266-.316a5.052,5.052,0,0,0,.527-1.79c.948-4.844,1.79-9.689,2.738-14.638.632-3.686,1.369-7.372.737-11.058a15.547,15.547,0,0,0-18.008-12.743c-.527.105-.948.211-1.474.316" transform="translate(-135.687 -182.293)" fill="#263238"/>
        <path id="Path_663" data-name="Path 663" d="M268.678,188.71c-5.055-.948-7.9-2.633-11.479-4.212a16.419,16.419,0,0,0-11.374-1.264c-2.527.737-4.95,2.212-7.582,2.212s-4.95-1.58-7.477-2.317a13.533,13.533,0,0,0-10.321,1.053c-2.422,1.369-4.634,3.791-4.844,6.74s2.422,6,5.055,5.16c-2.738.948-3.9,5.055-2.528,7.688a7,7,0,0,0,7.372,3.475,13.193,13.193,0,0,0,7.477-4.528c.105,3.265,3.37,5.582,6.424,5.476s5.792-1.9,8.32-3.791,5.055-3.9,8-4.634c2.106-.421,4.212-.211,6.319-.421a6.621,6.621,0,0,0,5.371-3.159c1.053-2,5.055-4.318,2.949-4.423" transform="translate(-138.196 -182.555)" fill="#263238"/>
        <path id="Path_664" data-name="Path 664" d="M237.5,204.342a11.483,11.483,0,0,0,1.158.632,6.109,6.109,0,0,0,3.37,0,10,10,0,0,0,2.212-.948c.737-.421,1.474-1.053,2.317-1.58a22.416,22.416,0,0,1,2.633-1.685,7.168,7.168,0,0,1,3.265-.842c2.317,0,4.423.632,6.424.421a6.085,6.085,0,0,0,5.582-5.476,3.825,3.825,0,0,0,0-1.264.815.815,0,0,0,.105.316,2.915,2.915,0,0,1,.105.948,6.281,6.281,0,0,1-2.949,5.055,5.22,5.22,0,0,1-2.738.842c-2,.211-4.213-.421-6.424-.421s-4.107,1.264-5.687,2.422c-.842.527-1.58,1.158-2.317,1.58a8.94,8.94,0,0,1-2.317.948,5.943,5.943,0,0,1-3.581-.105,3.7,3.7,0,0,1-.842-.527Z" transform="translate(-137.032 -181.968)" fill="#263238"/>
        <path id="Path_665" data-name="Path 665" d="M264.521,183.5a19.393,19.393,0,0,0,.316,3.475,17.823,17.823,0,0,0,1.369,3.265,6.071,6.071,0,0,1-1.685-6.74Z" transform="translate(-135.619 -182.505)" fill="#263238"/>
        <path id="Path_666" data-name="Path 666" d="M269.987,183.3a25.374,25.374,0,0,0-2.212,3.475c-.948,2.106-1.264,3.9-1.474,3.791a6.983,6.983,0,0,1,.948-4.107A7.326,7.326,0,0,1,269.987,183.3Z" transform="translate(-135.503 -182.515)" fill="#263238"/>
        <path id="Path_667" data-name="Path 667" d="M338.14,331.6,361.1,390.575H326.029L309.6,348.555Z" transform="translate(-133.202 -174.637)" fill="#b78876"/>
        <path id="Path_668" data-name="Path 668" d="M222.769,290.138s-30.225,31.067-43.283,31.067c-4.318,0-7.582-51.814-7.688-66.768h0a22.333,22.333,0,0,1,2.949-5.371,24.078,24.078,0,0,1,3.791-4.212,23.458,23.458,0,0,1,5.9-3.791c2-.737,2.212-3.475.316-4.107s-7.477,1.264-12.637,6.108-3.581-6-3.054-9.9,1.369-16.218.316-17.271c-1.58-1.58-3.581-.105-4,3.791s-2.317,15.691-4.423,15.376.737-20.325.737-20.325,1.264-4.212-1.053-4.634c-4.318-.737-5.687,20.641-5.687,22.747,0,1.474-2.317,1.158-2.212-.316s3.159-19.9-1.158-20.746c-3.37-.632-1.264,17.692-4,21.168s-.105-14.112-3.37-14.533c-1.158-.211-2.106-.105-2.106,10.11,0,5.476,2.106,13.8,1.264,24.432h0c1.369,31.383-.105,119.319,34.753,108.893,38.334-11.479,64.556-36.649,64.556-36.649Z" transform="translate(-142.1 -181.093)" fill="#ffbe9d"/>
        <path id="Path_669" data-name="Path 669" d="M299.1,312.6a5.554,5.554,0,0,1,.316,1.264c.211.842.421,2,.737,3.475.527,2.949,1.158,6.951,1.685,11.374s.737,8.53.842,11.479c0,1.474.105,2.633.105,3.475a5.126,5.126,0,0,1-.105,1.264,5.128,5.128,0,0,1-.105-1.264c-.105-.948-.105-2.106-.211-3.475-.211-2.949-.527-6.951-1.053-11.479s-1.053-8.53-1.474-11.374c-.211-1.369-.421-2.527-.527-3.475A2.672,2.672,0,0,1,299.1,312.6Z" transform="translate(-133.76 -175.647)" fill="#263238"/>
        <path id="Path_670" data-name="Path 670" d="M215.573,393.78l96.571.527-3.265-20.431a157.635,157.635,0,0,0-.105-29.066l4.844,13.269,39.913-20.009S339,299.42,326.888,286.256c-15.376-16.534-42.967-14.954-42.967-14.954l-18.64,12.637-17.166-12.111a83.553,83.553,0,0,0-26.539,7.688l-.842.211v.211c-10.11,5.266-24.643,18.219-38.334,30.751l15.9,15.481L215.889,342.6a14.568,14.568,0,0,1,3.054-.105C219.049,344.283,215.573,393.78,215.573,393.78Z" transform="translate(-139.959 -177.843)" fill="#455a64"/>
        <path id="Path_671" data-name="Path 671" d="M299.52,306.7l13.164,46.864-5.266,2.633-4.844-13.269S297.73,315.125,299.52,306.7Z" transform="translate(-133.759 -175.96)" opacity="0.2"/>
        <path id="Path_672" data-name="Path 672" d="M243.7,272.04v-5.055s15.06-1.158,18.114,16.639c0,0,4.95-16.639,19.588-18.324l2.106,7.793s-6.951,21.694-7.9,21.9-13.691,3.9-13.691,3.9l-7.372-1.685-8.214-9.267Z" transform="translate(-136.703 -178.159)" fill="#455a64"/>
        <path id="Path_673" data-name="Path 673" d="M282.74,272.1a3.2,3.2,0,0,1-.842.842l-2.317,2.317a53.1,53.1,0,0,0-6.529,8.636l-1.264,2.212-.211.421-.211-.421c-1.685-3.159-3.159-5.9-4.318-8a2.987,2.987,0,0,0-.948-1.053,3.154,3.154,0,0,0-1.053-.421,2.915,2.915,0,0,0-.948.105s.211-.316.948-.316a2.123,2.123,0,0,1,1.158.316,4.043,4.043,0,0,1,1.158,1.158c1.158,2,2.738,4.739,4.423,8h-.421l1.264-2.212a40.791,40.791,0,0,1,6.74-8.53c.948-.948,1.79-1.685,2.422-2.212A3.412,3.412,0,0,1,282.74,272.1Z" transform="translate(-135.619 -177.798)" fill="#263238"/>
        <path id="Path_674" data-name="Path 674" d="M242.8,273a4.864,4.864,0,0,1,.737.737c.421.527,1.053,1.264,1.79,2.212,1.474,1.9,3.581,4.423,5.792,7.372l.316.421h-.421c.843-1.474.843-3.159,1.264-4.739a5.284,5.284,0,0,1,2.106-3.475,3.142,3.142,0,0,1,2.738-.316,2.2,2.2,0,0,1,.632.421.326.326,0,0,1,.105.211,3.154,3.154,0,0,0-.842-.421,3.265,3.265,0,0,0-2.422.421,5.6,5.6,0,0,0-1.79,3.265,19.323,19.323,0,0,1-1.264,4.844l-.211.421-.211-.316-.316-.421c-2.212-2.949-4.213-5.582-5.687-7.477-.737-.948-1.264-1.79-1.685-2.317A2.534,2.534,0,0,1,242.8,273Z" transform="translate(-136.751 -177.75)" fill="#263238"/>
        <path id="Path_675" data-name="Path 675" d="M253,393.162V392c0-.737.105-1.9.211-3.265.211-2.843.421-6.845.737-11.795.737-10,1.685-23.8,2.738-38.966l2.843-38.966c.421-4.95.737-8.952.948-11.795q.158-2.054.316-3.159c0-.316.105-.632.105-.842v.842c0,.737-.105,1.9-.211,3.265-.211,2.843-.421,6.845-.737,11.795-.632,10-1.58,23.8-2.633,38.966s-2.106,28.961-2.843,38.965c-.421,4.95-.737,8.952-.948,11.8-.105,1.369-.211,2.422-.316,3.265,0,.316-.105.632-.105.842C253,392.951,253,393.057,253,393.162Z" transform="translate(-136.209 -177.224)" fill="#263238"/>
        <path id="Path_676" data-name="Path 676" d="M220.265,298.6a9.059,9.059,0,0,1-.105,1.685c-.105,1.158-.211,2.738-.316,4.528-.316,3.791-.632,9.162-.948,15.06s-.632,11.163-1.053,15.06c-.211,1.9-.421,3.475-.527,4.528a4.77,4.77,0,0,1-.316,1.685,9.059,9.059,0,0,1,.105-1.685c.105-1.158.211-2.738.316-4.528.316-3.791.632-9.162.948-15.06s.632-11.163,1.053-15.06c.211-1.9.421-3.475.527-4.528A4.366,4.366,0,0,1,220.265,298.6Z" transform="translate(-138.121 -176.39)" fill="#263238"/>
        <path id="Path_677" data-name="Path 677" d="M260.227,280.3s-5.16,6.74-4.423,7.793l4.423,5.9h3.159s2.949-8.32,2.212-9.373S260.227,280.3,260.227,280.3Z" transform="translate(-136.064 -177.362)" fill="#e8505b"/>
        <path id="Path_678" data-name="Path 678" d="M267.787,278.5l-5.687,4.528,2.106,4.213,5.9-4.423Z" transform="translate(-135.725 -177.458)" fill="#e8505b"/>
        <path id="Path_679" data-name="Path 679" d="M251.6,281.45l5.16,4.318,2.843-4.318-6.529-4.95Z" transform="translate(-136.283 -177.564)" fill="#e8505b"/>
        <path id="Path_680" data-name="Path 680" d="M260.3,293.342l-7.9,71.191,7.793,24.748,10.426-24.538L263.774,292.5Z" transform="translate(-136.241 -176.714)" fill="#e8505b"/>
        <path id="Path_681" data-name="Path 681" d="M313.591,280.772a3.783,3.783,0,0,0-1.053-.737,4.4,4.4,0,0,0-3.265-.211,11.1,11.1,0,0,0-4.107,2.843,20.89,20.89,0,0,0-3.686,4.95,24.438,24.438,0,0,0-3.159,10.847,34.375,34.375,0,0,0,.105,4.739l-.316-1.264a19.255,19.255,0,0,1-.211-3.475,23.861,23.861,0,0,1,3.054-11.058,22.674,22.674,0,0,1,3.791-5.055,9.156,9.156,0,0,1,4.318-2.843,4.463,4.463,0,0,1,3.475.421,4.583,4.583,0,0,1,.737.632A1.3,1.3,0,0,1,313.591,280.772Z" transform="translate(-133.824 -177.414)" fill="#263238"/>
      </g>
      <g id="freepik--character-1--inject-142" transform="translate(315.348 199.567)">
        <path id="Path_682" data-name="Path 682" d="M385.276,197c-6.74,4.107-11.479,11.058-14.217,18.43s-3.791,15.376-4.634,23.169a444.672,444.672,0,0,0-2.212,62.661c25.486,3.265,51.182,6.424,76.878,4.739-4.423-29.277-7.267-58.554-3.686-88.041" transform="translate(-298.995 -192.92)" fill="#263238"/>
        <path id="Path_683" data-name="Path 683" d="M445.728,436.3l-18.64-37.6,7.056-27.486c.842,5.792,1.58,10.847,1.58,10.847l39.913-2.106a2.639,2.639,0,0,0,2.422-2.633v-.211l-7.688-54.973s-2.527-25.486-26.644-34.964h-.105a25.993,25.993,0,0,0-3.054-1.053c-32.541-11.268-63.082-11.163-96.992.316,0,0-15.06,4.107-22.432,23.7S306.4,358.682,306.4,358.682l33.805,12.006.211-5.687,7.477,28.645-16.429,41.7,57.29,1.369Z" transform="translate(-302.051 -188.631)" fill="#e8505b"/>
        <path id="Path_684" data-name="Path 684" d="M306.619,354.3l-3.791,17.9c-3.265,15.376,8.214,31.278,23.8,33.068l83.3,8.53a33.21,33.21,0,0,0,36.649-29.172c0-.316.105-.527.105-.842h0l-105-10,.632-10.11Z" transform="translate(-302.271 -184.564)" fill="#e8505b"/>
        <path id="Path_685" data-name="Path 685" d="M405.432,372.62l6.424-1.158s15.376-16.745,18.219-16.955c2.422-.211,15.376-.105,20.009,0a1.62,1.62,0,0,1,1.58,1.58h0a1.551,1.551,0,0,1-1.58,1.58l-15.376.632-.105,1.264,15.376.211c1.58.105,2.633,2.633-2.422,3.054l-12.953.421v.843l13.059,1.79c.632.105,2.422.421,2.422,1.053,0,0,.842,1.58-2.949,2.106-1.264.105-12.637-.211-12.637-.211l.421,1.053,11.8,2.527a1.668,1.668,0,0,1,1.264,1.9h0a1.812,1.812,0,0,1-1.79,1.474l-12.532-1.158-12.322,9.9H404.8Z" transform="translate(-296.824 -184.56)" fill="#ffbe9d"/>
        <path id="Path_686" data-name="Path 686" d="M366.5,278.439s16.218,82.986,21.9,82.354,32.541-79.511,32.541-79.511S386.72,270.857,366.5,278.439Z" transform="translate(-298.859 -188.741)" fill="#fafafa"/>
        <path id="Path_687" data-name="Path 687" d="M434.716,355.886c-.105,0-.316-5.687-.316-12.743s.105-12.743.316-12.743.316,5.687.316,12.743S434.821,355.886,434.716,355.886Z" transform="translate(-295.252 -185.834)" fill="#263238"/>
        <path id="Path_688" data-name="Path 688" d="M340.1,356.364a21.779,21.779,0,0,1,.316-3.686c.316-2.317.737-5.371,1.158-8.846s.948-6.529,1.369-8.846a22.842,22.842,0,0,1,.737-3.686,21.78,21.78,0,0,1-.316,3.686c-.316,2.212-.737,5.371-1.158,8.846s-.948,6.529-1.369,8.846C340.627,353.942,340.416,355.206,340.1,356.364Z" transform="translate(-300.261 -185.786)" fill="#263238"/>
        <path id="Path_689" data-name="Path 689" d="M384.6,432.414v-2.949c0-1.9,0-4.739.105-8.109.105-6.845.527-16.323.948-26.749s.948-19.9,1.158-26.749c.105-3.37.211-6.108.211-8.109a12.81,12.81,0,0,1,.105-2.212,1.792,1.792,0,0,1,.105-.737v2.949c0,1.9,0,4.634-.105,8.109-.105,6.845-.527,16.323-.948,26.749s-.948,19.9-1.158,26.749c-.105,3.37-.211,6.108-.211,8.109a12.817,12.817,0,0,1-.105,2.212A1.562,1.562,0,0,0,384.6,432.414Z" transform="translate(-297.897 -184.431)" fill="#263238"/>
        <path id="Path_690" data-name="Path 690" d="M419.768,280.9a4.459,4.459,0,0,0,.211,1.053,14.552,14.552,0,0,0,.842,2.843,31.445,31.445,0,0,0,2.106,4.212,56.463,56.463,0,0,1,2.949,5.582,13.359,13.359,0,0,1,1.264,7.582,9.586,9.586,0,0,1-1.685,4,23.378,23.378,0,0,1-2.949,3.475,52.121,52.121,0,0,0-6.319,7.267,17.194,17.194,0,0,0-3.265,9.583,11.391,11.391,0,0,0,1.158,4.95,45.487,45.487,0,0,1,2,4.739,5.251,5.251,0,0,1,.316,2.527,5.149,5.149,0,0,1-.842,2.422,12.839,12.839,0,0,1-3.475,3.265l-13.164,9.689-8.952,6.529-2.422,1.79-.632.421-.211.105.211-.211.632-.527,2.422-1.79,8.741-6.635,13.164-9.794a13.686,13.686,0,0,0,3.37-3.159,5.008,5.008,0,0,0,.737-2.212,9.562,9.562,0,0,0-.316-2.422c-.632-1.58-1.264-3.159-2-4.634a12.325,12.325,0,0,1-1.158-5.16,17.173,17.173,0,0,1,3.37-9.794,46.681,46.681,0,0,1,6.424-7.267c2.106-2.106,4.107-4.423,4.528-7.161a13.138,13.138,0,0,0-1.158-7.267,40.493,40.493,0,0,0-2.949-5.582,32.118,32.118,0,0,1-2-4.318,13.439,13.439,0,0,1-.737-2.949c0-.211-.105-.527-.105-.737C419.663,281.005,419.768,281.005,419.768,280.9Z" transform="translate(-297.786 -188.463)" fill="#263238"/>
        <path id="Path_691" data-name="Path 691" d="M388.942,359.812h-.316l-.737-.105a28.232,28.232,0,0,1-2.843-.737,28.951,28.951,0,0,1-9.267-5.266,27.122,27.122,0,0,1-8.53-13.269,28.219,28.219,0,0,1-1.053-9.373,39.768,39.768,0,0,1,.632-4.95,11.189,11.189,0,0,0,.105-4.95,4.071,4.071,0,0,0-1.264-2,5.391,5.391,0,0,0-2.212-1.053c-.737-.316-1.58-.527-2.422-.842a9.031,9.031,0,0,1-2.106-1.369,8.506,8.506,0,0,1-2.212-4.318,13.61,13.61,0,0,1-.211-4.634,64.681,64.681,0,0,1,3.475-15.481,58.224,58.224,0,0,1,4.423-9.794c.632-1.053,1.158-1.9,1.474-2.527l.421-.632c0-.105.105-.105.105-.211a.326.326,0,0,1-.105.211l-.421.632c-.316.527-.842,1.474-1.369,2.527a66.941,66.941,0,0,0-4.212,9.794,63.506,63.506,0,0,0-3.265,15.376,16.424,16.424,0,0,0,.316,4.528,7.563,7.563,0,0,0,2,4.107,6.479,6.479,0,0,0,2,1.264c.737.316,1.58.527,2.317.842a6.006,6.006,0,0,1,2.317,1.158,5.125,5.125,0,0,1,1.474,2.212,12.185,12.185,0,0,1-.105,5.16,38.135,38.135,0,0,0-.632,4.844,29.907,29.907,0,0,0,1.053,9.162,27.945,27.945,0,0,0,17.376,18.535,18.17,18.17,0,0,0,2.738.842l.737.211C388.836,359.812,388.836,359.812,388.942,359.812Z" transform="translate(-299.395 -188.601)" fill="#263238"/>
        <path id="Path_692" data-name="Path 692" d="M432.422,371.917,362.6,369.705l.105,23.169,46.232,10.11,32.541,5.16c20.22,0,36.333-18.535,33.279-38.544h-.105Z" transform="translate(-299.066 -183.751)" fill="#e8505b"/>
        <path id="Path_693" data-name="Path 693" d="M451.6,371.485c-.316,0-.632.105-.948.105l-2.633.105-9.583.211c-8,.105-19.167.316-31.488.105s-23.485-.527-31.488-1.053c-4-.316-7.267-.527-9.478-.737l-2.633-.316c-.316,0-.632-.105-.948-.105h.948l2.633.105c2.212.105,5.476.316,9.478.527,8,.421,19.167.842,31.488.948s23.379,0,31.488,0h12.216A2.916,2.916,0,0,1,451.6,371.485Z" transform="translate(-299.076 -183.741)" fill="#263238"/>
        <path id="Path_694" data-name="Path 694" d="M364.332,372.62l-6.424-1.158s-15.376-16.745-18.219-16.955c-2.317-.211-15.376-.105-20.009,0a1.62,1.62,0,0,0-1.58,1.58h0a1.53,1.53,0,0,0,1.474,1.58l15.376.632.105,1.264-15.481.211c-1.58.105-2.633,2.633,2.422,3.054l12.953.421v.843l-13.059,1.79c-.632.105-2.422.421-2.422,1.053,0,0-.842,1.58,2.949,2.106,1.264.105,12.637-.211,12.637-.211l-.421,1.053-11.795,2.527a1.668,1.668,0,0,0-1.264,1.9h0a1.812,1.812,0,0,0,1.79,1.474l12.532-1.158,12.322,9.9h16.534Z" transform="translate(-301.43 -184.56)" fill="#ffbe9d"/>
        <path id="Path_695" data-name="Path 695" d="M440.157,406.644h-.842l-2.212-.211c-2-.211-4.739-.527-8.32-1.053-6.951-.948-16.639-2.528-27.171-4.528s-20.009-4.318-26.855-6c-3.37-.842-6.213-1.58-8.109-2.106l-2.212-.632c-.211-.105-.527-.105-.737-.211.316,0,.527.105.737.105l2.212.527,8.109,2c6.845,1.685,16.323,3.791,26.855,5.9s20.115,3.686,27.171,4.739L437,406.433l2.212.316A1.048,1.048,0,0,1,440.157,406.644Z" transform="translate(-299.007 -182.567)" fill="#263238"/>
        <path id="Path_696" data-name="Path 696" d="M363.376,392.847a17.866,17.866,0,0,1-.632-3.265c-.316-2.106-.527-4.95-.737-8s-.105-6-.105-8.109a18.252,18.252,0,0,1,.316-3.37,18.039,18.039,0,0,1,.105,3.37c0,2.106.105,4.95.211,8s.421,6,.527,8A19.126,19.126,0,0,1,363.376,392.847Z" transform="translate(-299.104 -183.725)" fill="#263238"/>
        <path id="Path_697" data-name="Path 697" d="M370.6,393.779c-.105-.316-.211-.527-.316-.842a17.879,17.879,0,0,1-.527-2.422,58.824,58.824,0,0,1-1.053-16.639q.158-1.58.316-2.528a3.074,3.074,0,0,1,.211-.948c0,1.158,0,2.317-.105,3.475a75.808,75.808,0,0,0,.105,8.32,66.007,66.007,0,0,0,.948,8.214A32.712,32.712,0,0,1,370.6,393.779Z" transform="translate(-298.751 -183.709)" fill="#263238"/>
        <path id="Path_698" data-name="Path 698" d="M364.437,373.618c.105.105-.316.316-.316,1.053a1.008,1.008,0,0,0,1.58.948.923.923,0,0,0,.527-1.053,1.638,1.638,0,0,0-.632-.843c-.527-.316-1.053-.105-1.053-.211s.421-.421,1.264-.105a1.583,1.583,0,0,1,.948,1.053,1.635,1.635,0,0,1-1.369,1.79,2.123,2.123,0,0,1-1.158-.316,2,2,0,0,1-.527-1.369C363.911,373.723,364.437,373.512,364.437,373.618Z" transform="translate(-299.007 -183.556)" fill="#263238"/>
        <path id="Path_699" data-name="Path 699" d="M379.932,395.811h-2.843a58.005,58.005,0,0,0-7.477.737c-3.686.632-7.267,1.474-10.952,2.422-4.107,1.053-8.53,2.422-13.269,3.37a54.559,54.559,0,0,1-13.691,1.474,36.094,36.094,0,0,1-11.058-2.106,25.51,25.51,0,0,1-6.635-3.686,18.315,18.315,0,0,1-1.58-1.369c-.211-.105-.316-.316-.527-.527,0,0,.737.632,2.106,1.685a24.9,24.9,0,0,0,6.635,3.475,35.316,35.316,0,0,0,10.952,2,66.232,66.232,0,0,0,13.585-1.474c4.739-1.053,9.162-2.317,13.269-3.37a96.356,96.356,0,0,1,10.952-2.317,61.161,61.161,0,0,1,7.582-.527,11.51,11.51,0,0,1,2.106.105A2.617,2.617,0,0,0,379.932,395.811Z" transform="translate(-301.759 -182.37)" fill="#263238"/>
        <path id="Path_700" data-name="Path 700" d="M407.342,292.142c1.685-9.267,3.581-18.956,3.581-18.956s12.322.105,17.482-15.06c4.95-14.428,8.53-49.181,8.53-49.181h0a45.384,45.384,0,0,0-51.708,2.633h0l-12.216,75.509c-1.474,8.741,4.95,16.955,14.322,18.43h0C396.811,306.885,405.763,300.988,407.342,292.142Z" transform="translate(-298.524 -192.649)" fill="#ffbe9d"/>
        <path id="Path_701" data-name="Path 701" d="M425.308,233.512a2.11,2.11,0,0,1-2.317,1.685,1.983,1.983,0,0,1-1.79-2.106v-.105a2.11,2.11,0,0,1,2.317-1.685,1.949,1.949,0,0,1,1.79,2.212Z" transform="translate(-295.953 -191.098)" fill="#263238"/>
        <path id="Path_702" data-name="Path 702" d="M428.9,231.949c-.316.211-1.58-1.158-3.791-1.58s-3.9.421-4.107.105c-.105-.105.211-.527,1.053-.948a5.3,5.3,0,0,1,3.37-.421,5.414,5.414,0,0,1,2.949,1.58C428.9,231.317,429.11,231.843,428.9,231.949Z" transform="translate(-295.964 -191.22)" fill="#263238"/>
        <path id="Path_703" data-name="Path 703" d="M404.308,230.107a2.11,2.11,0,0,1-2.317,1.685,1.983,1.983,0,0,1-1.79-2.106A2.11,2.11,0,0,1,402.517,228,1.91,1.91,0,0,1,404.308,230.107Z" transform="translate(-297.069 -191.274)" fill="#263238"/>
        <path id="Path_704" data-name="Path 704" d="M407.5,228.949c-.316.211-1.58-1.158-3.791-1.58s-3.9.421-4.107.105c-.105-.105.211-.527,1.053-.948a5.3,5.3,0,0,1,3.37-.421,5.414,5.414,0,0,1,2.949,1.58C407.5,228.317,407.71,228.843,407.5,228.949Z" transform="translate(-297.101 -191.379)" fill="#263238"/>
        <path id="Path_705" data-name="Path 705" d="M411.9,246.108a20.326,20.326,0,0,1,3.581,0c.526,0,1.053,0,1.264-.316a3.072,3.072,0,0,0-.105-1.685c-.316-1.474-.527-2.949-.842-4.423-1.158-6.319-2-11.479-1.685-11.584s1.474,5.055,2.633,11.374c.316,1.58.527,3.054.842,4.528a3.2,3.2,0,0,1-.105,2.212,1.4,1.4,0,0,1-1.053.632h-.948A30.574,30.574,0,0,1,411.9,246.108Z" transform="translate(-296.447 -191.268)" fill="#263238"/>
        <path id="Path_706" data-name="Path 706" d="M410,270.068a40.409,40.409,0,0,1-19.9-9.267s3.159,11.584,18.956,12.848Z" transform="translate(-297.605 -189.531)" fill="#eb996e"/>
        <path id="Path_707" data-name="Path 707" d="M410.437,250.107A3.922,3.922,0,0,0,407.172,248a3.467,3.467,0,0,0-2.633.843,2.31,2.31,0,0,0-.632,2.527,2.406,2.406,0,0,0,2.633,1.158,8.327,8.327,0,0,0,3.054-1.158,1.889,1.889,0,0,0,.737-.527c.316-.105.316-.421.105-.737" transform="translate(-296.879 -190.212)" fill="#eb996e"/>
        <path id="Path_708" data-name="Path 708" d="M405.627,245.6c.316,0-.105,2.422,1.685,4.423s4.212,2.212,4.212,2.527c0,.105-.632.316-1.685.211a5.585,5.585,0,0,1-3.475-2,5,5,0,0,1-1.264-3.581C405.1,246.022,405.522,245.5,405.627,245.6Z" transform="translate(-296.809 -190.339)" fill="#263238"/>
        <path id="Path_709" data-name="Path 709" d="M394.611,201c4.212,9.162,17.692,20.325,28.013,24.327-.948-1.9-6.845-7.267-7.793-9.057,4.213,4.528,10.321,10.742,16.639,12.322a4.339,4.339,0,0,0,2.317.105,2.888,2.888,0,0,0,1.58-2.212,64.557,64.557,0,0,0,2.212-14.112,15.671,15.671,0,0,0-3.686-11.058c-3.581-4-9.373-5.9-14.954-7.056-4.634-.948-9.583-1.58-14.217-.737S395.769,197.1,394.4,201" transform="translate(-297.376 -193.126)" fill="#263238"/>
        <path id="Path_710" data-name="Path 710" d="M371,235.513a71.318,71.318,0,0,1,.421-10.637c1.053-8.109,3.581-37.6,30.751-30.014l-2.843,7.582s2.106,18.956-11.9,29.171c0,0,.105,18.956-9.583,25.7,0,0-6.74-12.848-6.845-21.8" transform="translate(-298.621 -193.099)" fill="#263238"/>
        <path id="Path_711" data-name="Path 711" d="M387.721,228.434a9.207,9.207,0,0,0-5.055-.527,6.385,6.385,0,0,0-4.212,2.738,6.85,6.85,0,0,0-.948,4.95,10.92,10.92,0,0,0,2.106,4.634,7.566,7.566,0,0,0,2.633,2.527,3.9,3.9,0,0,0,3.581.105" transform="translate(-298.28 -191.286)" fill="#ffbe9d"/>
        <path id="Path_712" data-name="Path 712" d="M384.809,238.325c.211.105-.737.948-2.212.316a3.339,3.339,0,0,1-1.58-2,6.9,6.9,0,0,1-.316-2.949,5.647,5.647,0,0,1,1.158-2.843,3.336,3.336,0,0,1,2.422-.948c1.58.211,1.9,1.369,1.685,1.369a3.711,3.711,0,0,0-1.685-.527,2.951,2.951,0,0,0-2.317,2.949c-.105,1.79.316,3.475,1.053,4S384.7,238.114,384.809,238.325Z" transform="translate(-298.106 -191.172)" fill="#eb996e"/>
        <path id="Path_713" data-name="Path 713" d="M385.923,242.1c-4.212,25.17-.842,50.971,0,76.457.105,2.422.105,5.055-1.053,7.161-1.685,3.265-5.582,4.95-9.267,5.16s-7.372-.632-11.058-.948c-.421-2.422-.842-4.844-1.158-7.372-1.264,2.843-2.422,5.687-3.686,8.425q2.369-26.855,5.371-53.709" transform="translate(-299.22 -190.524)" fill="#263238"/>
      </g>
    </g>
  </g>
</svg>
