<svg xmlns="http://www.w3.org/2000/svg" width="26.69" height="26.734" viewBox="0 0 26.69 26.734">
  <g id="bxl-instagram-alt" transform="translate(-2.997 -2.981)">
    <path id="Path_585" data-name="Path 585" d="M29.6,10.872a9.677,9.677,0,0,0-.621-3.284,6.832,6.832,0,0,0-3.9-3.9,9.791,9.791,0,0,0-3.24-.622c-1.426-.064-1.878-.082-5.5-.082s-4.083,0-5.5.082A9.79,9.79,0,0,0,7.6,3.685a6.828,6.828,0,0,0-3.9,3.9,9.714,9.714,0,0,0-.621,3.238C3.016,12.253,3,12.705,3,16.324s0,4.082.083,5.5A9.775,9.775,0,0,0,3.7,25.064a6.832,6.832,0,0,0,3.9,3.9,9.758,9.758,0,0,0,3.238.667c1.427.064,1.879.083,5.5.083s4.083,0,5.5-.083a9.767,9.767,0,0,0,3.24-.621,6.841,6.841,0,0,0,3.9-3.9,9.761,9.761,0,0,0,.621-3.241c.064-1.426.083-1.878.083-5.5S29.684,12.29,29.6,10.872Zm-13.269,12.3a6.852,6.852,0,1,1,6.852-6.852A6.85,6.85,0,0,1,16.332,23.169ZM23.456,10.81a1.6,1.6,0,1,1,1.6-1.6A1.6,1.6,0,0,1,23.456,10.81Z" fill="#e8e8e8"/>
    <circle id="Ellipse_313" data-name="Ellipse 313" cx="5" cy="5" r="5" transform="translate(11.338 11.329)" fill="#e8e8e8"/>
  </g>
</svg>
