<svg xmlns="http://www.w3.org/2000/svg" width="26.696" height="26.696" viewBox="0 0 26.696 26.696">
  <path id="bxl-linkedin-square" d="M28.213,3H4.483A1.483,1.483,0,0,0,3,4.483v23.73A1.483,1.483,0,0,0,4.483,29.7h23.73A1.483,1.483,0,0,0,29.7,28.213V4.483A1.483,1.483,0,0,0,28.213,3ZM10.918,25.747H6.955V13.007h3.963ZM8.937,11.267a2.3,2.3,0,1,1,2.3-2.3A2.3,2.3,0,0,1,8.937,11.267Zm16.811,14.48H21.79v-6.2c0-1.477-.027-3.377-2.059-3.377-2.062,0-2.374,1.611-2.374,3.273v6.3H13.4V13.008h3.8v1.741h.055A4.156,4.156,0,0,1,21,12.692c4.01,0,4.75,2.637,4.75,6.069v6.986Z" transform="translate(-3 -3)" fill="#e8e8e8"/>
</svg>
